*
G04 Mass Parameters ***
*
G04 Image ***
*
%INC:\CAINPCB\ECB_BF532\BF532_V2\ECB_532_V3.SST*%
%ICAS*%
%MOIN*%
%IPPOS*%
%ASAXBY*%
G74*%FSLAN2X34Y34*%
*
G04 Aperture Definitions ***
*
%ADD10R,0.0350X0.0300*%
%ADD11R,0.1000X0.0600*%
%ADD12R,0.0300X0.0350*%
%ADD13R,0.0600X0.1370*%
%ADD14R,0.0450X0.0350*%
%ADD15R,0.0320X0.0380*%
%ADD16R,0.0380X0.0320*%
%ADD17R,0.0500X0.0500*%
%ADD18C,0.0930*%
%ADD19C,0.0775*%
%ADD20C,0.0669*%
%ADD21C,0.0550*%
%ADD22R,0.0550X0.0550*%
%ADD23C,0.0433*%
%ADD24C,0.1340*%
%ADD25C,0.0551*%
%ADD26R,0.0394X0.0709*%
%ADD27R,0.0709X0.0669*%
%ADD28R,0.0165X0.0630*%
%ADD29R,0.0709X0.0748*%
%ADD30R,0.0787X0.0787*%
%ADD31R,0.0512X0.0512*%
%ADD32R,0.0531X0.0157*%
%ADD33R,0.0400X0.0500*%
%ADD34R,0.1600X0.0750*%
%ADD35R,0.0236X0.0590*%
%ADD36O,0.0700X0.0110*%
%ADD37R,0.0700X0.0110*%
%ADD38O,0.0110X0.0700*%
%ADD39R,0.0110X0.0700*%
%ADD40R,0.0500X0.0160*%
%ADD41R,0.0100X0.0600*%
%ADD42R,0.1500X0.0450*%
%ADD43R,0.0160X0.0700*%
%ADD44R,0.0866X0.0512*%
%ADD45C,0.0600*%
%ADD46C,0.0236*%
%ADD47C,0.0080*%
%ADD48C,0.0100*%
%ADD49C,0.0079*%
%ADD50C,0.0236*%
%ADD51C,0.0315*%
%ADD52C,0.0157*%
%ADD53C,0.0394*%
%ADD54R,0.0350X0.0300*%
%ADD55R,0.0300X0.0350*%
%ADD56R,0.1000X0.0600*%
%ADD57R,0.0600X0.0600*%
%ADD58R,0.0500X0.0500*%
%ADD59C,0.0930*%
%ADD60C,0.0775*%
%ADD61C,0.0669*%
%ADD62C,0.0550*%
%ADD63R,0.0550X0.0550*%
%ADD64C,0.0433*%
%ADD65C,0.1340*%
%ADD66C,0.0551*%
%ADD67R,0.0787X0.0787*%
%ADD68R,0.0512X0.0512*%
%ADD69R,0.0400X0.0500*%
%ADD70R,0.0197X0.0551*%
%ADD71R,0.0800X0.0250*%
%ADD72C,0.0600*%
%ADD73R,0.0709X0.0787*%
%ADD74C,0.0236*%
%ADD75C,0.0776*%
%ADD76C,0.0750*%
%ADD77R,0.0750X0.0750*%
%ADD78C,0.1400*%
%ADD79C,0.0866*%
%ADD80C,0.0590*%
%ADD81C,0.0650*%
%ADD82C,0.0060*%
%ADD83C,0.0236*%
%ADD84C,0.0236*%
%ADD85C,0.0929*%
%ADD86C,0.1401*%
%ADD87C,0.0752*%
%ADD88R,0.0752X0.0752*%
%ADD89R,0.0400X0.0350*%
%ADD90R,0.1050X0.0650*%
%ADD91R,0.0350X0.0400*%
%ADD92R,0.0650X0.1420*%
%ADD93R,0.0500X0.0400*%
%ADD94R,0.0320X0.0380*%
%ADD95R,0.0380X0.0320*%
%ADD96C,0.0980*%
%ADD97C,0.0827*%
%ADD98C,0.0768*%
%ADD99C,0.0492*%
%ADD100C,0.1390*%
%ADD101R,0.0394X0.0709*%
%ADD102R,0.0709X0.0669*%
%ADD103R,0.0236X0.0669*%
%ADD104R,0.0709X0.0748*%
%ADD105R,0.0905X0.0905*%
%ADD106R,0.0590X0.0590*%
%ADD107R,0.0590X0.0216*%
%ADD108R,0.0450X0.0550*%
%ADD109R,0.1650X0.0800*%
%ADD110R,0.0276X0.0630*%
%ADD111O,0.0700X0.0110*%
%ADD112R,0.0700X0.0110*%
%ADD113O,0.0110X0.0700*%
%ADD114R,0.0110X0.0700*%
%ADD115R,0.0550X0.0210*%
%ADD116R,0.0140X0.0650*%
%ADD117R,0.1550X0.0500*%
%ADD118R,0.0210X0.0750*%
%ADD119R,0.0905X0.0551*%
%ADD120R,0.0236X0.0590*%
%ADD121R,0.0850X0.0300*%
%ADD122C,0.0030*%
%ADD123C,0.0010*%
%ADD124C,0.0050*%
%ADD125C,0.0118*%
%ADD126C,0.0047*%
%ADD127C,0.0059*%
%ADD128C,0.0039*%
*
G04 Plot Data ***
*
G54D47*
G01X0015072Y0118706D02*
X0015127Y0118762D01*
X0015183Y0118790D01*
X0015294D01*
X0015350Y0118762D01*
X0015405Y0118706D01*
Y0118651D01*
X0015350Y0118595D01*
X0015294Y0118567D01*
X0015183D01*
X0015127Y0118595D01*
X0015072Y0118651D01*
Y0118706D01*
Y0118977D02*
Y0119088D01*
Y0119033D02*
X0015405D01*
X0015350Y0119088D01*
X0015183Y0119526D02*
X0015127D01*
X0015072Y0119498D01*
Y0119387D01*
X0015127Y0119360D01*
X0015405D01*
Y0119332D02*
Y0119443D01*
X0034742Y0101036D02*
X0034576D01*
X0034548Y0101092D01*
Y0101148D01*
X0034576Y0101203D01*
X0034742D01*
X0034770Y0101148D01*
Y0101092D01*
X0034659Y0100870D01*
X0034166Y0100981D02*
Y0100925D01*
X0034193Y0100870D01*
X0034305D01*
X0034332Y0100925D01*
Y0101203D01*
X0034360D02*
X0034249D01*
X0008116Y0111580D02*
Y0114580D01*
X0007116D01*
Y0111580D01*
X0008116D01*
X0008166Y0111530D01*
X0015308Y0120679D02*
Y0119929D01*
X0014933Y0120304D01*
X0015308Y0120679D01*
X0024134Y0123652D02*
X0024534D01*
Y0124902D01*
X0028834D01*
Y0120402D01*
X0024534D01*
Y0121652D01*
X0024134D01*
X0018651Y0104411D02*
X0019026Y0104786D01*
Y0106086D01*
X0018651Y0106461D01*
X0016901D02*
X0016526Y0106086D01*
Y0104786D01*
X0016901Y0104411D01*
X0039160Y0120160D02*
X0032160D01*
Y0119160D01*
X0039160D01*
Y0120160D01*
X0039210Y0120210D01*
X0021871Y0105707D02*
Y0106757D01*
X0021771Y0106857D01*
X0020821D01*
X0020721Y0106757D01*
Y0105707D01*
X0020821Y0105607D01*
X0021771D01*
X0021871Y0105707D01*
X0025220Y0103786D02*
Y0106276D01*
X0023220D02*
Y0103786D01*
X0033542Y0120794D02*
X0033342Y0120594D01*
Y0120994D01*
X0033542Y0120794D01*
G01X0037516Y0120368D02*
G03X0038216Y0121068I0000000J0000700D01*
G01X0036816D02*
G03X0037516Y0120368I0000700J0000000D01*
Y0121768D02*
G03X0036816Y0121068I0000000J0000700D01*
G01X0038216D02*
G03X0037516Y0121768I0000700J0000000D01*
G01X0014248Y0122392D02*
G03X0014948Y0123092I0000000J0000700D01*
G01X0013548D02*
G03X0014248Y0122392I0000700J0000000D01*
Y0123792D02*
G03X0013548Y0123092I0000000J0000700D01*
G01X0014948D02*
G03X0014248Y0123792I0000700J0000000D01*
G01X0014236Y0101662D02*
G03X0014936Y0102362I0000000J0000700D01*
G01X0013536D02*
G03X0014236Y0101662I0000700J0000000D01*
Y0103062D02*
G03X0013536Y0102362I0000000J0000700D01*
G01X0014936D02*
G03X0014236Y0103062I0000700J0000000D01*
G01X0038382Y0101660D02*
G03X0039082Y0102360I0000000J0000700D01*
G01X0037682D02*
G03X0038382Y0101660I0000700J0000000D01*
Y0103060D02*
G03X0037682Y0102360I0000000J0000700D01*
G01X0039082D02*
G03X0038382Y0103060I0000700J0000000D01*
G01X0021671Y0105757D02*
G03X0021771Y0105857I0000000J0000100D01*
G01X0021571D02*
G03X0021671Y0105757I0000100J0000000D01*
Y0105957D02*
G03X0021571Y0105857I0000000J0000100D01*
G01X0021771D02*
G03X0021671Y0105957I0000100J0000000D01*
G01X0024220Y0102834D02*
G03X0025220Y0103786I0000000J0001001D01*
G01X0023220D02*
G03X0024220Y0102834I0001000J0000049D01*
Y0107203D02*
G03X0023220Y0106276I0000000J0001003D01*
G01X0025220D02*
G03X0024220Y0107203I0001000J0000076D01*
G54D48*
G01X-0000934Y0102678D02*
X-0001290D01*
X-0000934Y0103034D01*
Y0103123D01*
X-0000978Y0103211D01*
X-0001245D01*
X-0001290Y0103123D01*
X-0001623Y0102945D02*
X-0001890D01*
Y0102678D02*
Y0103211D01*
X-0001534D01*
X-0001023Y0124966D02*
X-0001201D01*
X-0001112D02*
Y0125499D01*
X-0001201Y0125411D01*
X-0001623Y0125233D02*
X-0001890D01*
Y0124966D02*
Y0125499D01*
X-0001534D01*
X0044394Y0102767D02*
X0044483Y0102678D01*
X0044661D01*
X0044750Y0102767D01*
Y0102856D01*
X0044572Y0103034D01*
X0044750Y0103211D01*
X0044394D01*
X0044061Y0102945D02*
X0043794D01*
Y0102678D02*
Y0103211D01*
X0044150D01*
X0044750Y0125144D02*
X0044394D01*
X0044572Y0125499D01*
X0044661D01*
Y0124966D01*
X0044061Y0125233D02*
X0043794D01*
Y0124966D02*
Y0125499D01*
X0044150D01*
X0010446Y0119633D02*
X0010571D01*
Y0119508D01*
X0006571D02*
Y0119633D01*
X0006696D01*
Y0115633D02*
X0006571D01*
Y0115758D01*
X0010758Y0115945D02*
Y0115946D01*
X0011071D01*
X0010321Y0115633D02*
X0010445D01*
X0010446Y0115634D01*
X0010758Y0115946D01*
X0010247Y0110726D02*
X0010287D01*
Y0107894D01*
X0004548Y0107888D01*
X0004564Y0107904D01*
Y0110726D01*
X0010247D01*
X0004576Y0107440D02*
Y0100772D01*
X0011204D01*
Y0107440D01*
X0004576D01*
X0023735Y0107765D02*
Y0108265D01*
X0023485Y0108515D01*
X0023735Y0117765D02*
X0023485D01*
Y0117515D01*
X0032735Y0117765D02*
X0032985D01*
Y0117515D01*
Y0108515D02*
Y0108265D01*
X0032735D01*
X0008536Y0124992D02*
Y0121992D01*
X0004612Y0121996D01*
X0004604Y0121988D01*
Y0124992D01*
X0008536D01*
G54D49*
G01X0035838Y0103616D02*
Y0105550D01*
X0036970D01*
Y0103616D01*
X0035846D01*
X0034329Y0103623D02*
Y0105557D01*
X0035461D01*
Y0103623D01*
X0034337D01*
G54D82*
G01X0029932Y0123214D02*
Y0123047D01*
X0029877Y0123020D01*
X0029821D01*
X0029766Y0123047D01*
Y0123214D01*
X0029821Y0123242D01*
X0029877D01*
X0030099Y0123131D01*
X0030044Y0122650D02*
X0030099Y0122677D01*
Y0122844D01*
X0030044Y0122872D01*
X0029932D01*
X0029877Y0122816D01*
Y0122650D01*
X0029766D01*
Y0122872D01*
X0030044Y0122502D02*
X0030099Y0122474D01*
Y0122307D01*
X0030044Y0122280D01*
X0029821D01*
X0029766Y0122307D01*
Y0122474D01*
X0029821Y0122502D01*
X0030237Y0121365D02*
X0030460D01*
X0030348Y0121476D02*
Y0121254D01*
X0027491Y0119853D02*
X0027546Y0119798D01*
X0027657D01*
X0027713Y0119853D01*
Y0119909D01*
X0027602Y0120020D01*
X0027713Y0120131D01*
X0027491D01*
X0027287Y0119798D02*
X0027343D01*
Y0119853D01*
X0027287D01*
Y0119798D01*
X0026862Y0119853D02*
X0026917Y0119798D01*
X0027028D01*
X0027084Y0119853D01*
Y0119909D01*
X0026973Y0120020D01*
X0027084Y0120131D01*
X0026862D01*
X0026714Y0119964D02*
X0026492D01*
X0026122Y0119853D02*
X0026150Y0119798D01*
X0026316D01*
X0026344Y0119853D01*
Y0119964D01*
X0026288Y0120020D01*
X0026122D01*
Y0120131D01*
X0026344D01*
X0025946Y0119964D02*
X0025974Y0120020D01*
Y0120076D01*
X0025946Y0120131D01*
X0025780D01*
X0025752Y0120076D01*
Y0120020D01*
X0025780Y0119964D01*
X0025946D01*
X0025974Y0119909D01*
Y0119853D01*
X0025946Y0119798D01*
X0025780D01*
X0025752Y0119853D01*
Y0119909D01*
X0025780Y0119964D01*
X0025382Y0119853D02*
X0025410Y0119798D01*
X0025576D01*
X0025604Y0119853D01*
Y0119964D01*
X0025548Y0120020D01*
X0025382D01*
Y0120131D01*
X0025604D01*
X0025234Y0119798D02*
X0025123D01*
X0025179D02*
Y0120131D01*
X0025123Y0120076D01*
X0024920D02*
X0024892Y0120131D01*
X0024725D01*
X0024697Y0120076D01*
Y0120020D01*
X0024725Y0119964D01*
X0024892D01*
X0024920Y0119909D01*
Y0119853D01*
X0024892Y0119798D01*
X0024725D01*
X0024697Y0119853D01*
X0024550Y0119798D02*
Y0120131D01*
X0024494Y0120076D01*
X0024439Y0119964D01*
X0024383Y0120076D01*
X0024327Y0120131D01*
Y0119798D01*
X0024180D02*
X0023985D01*
Y0120131D01*
X0005464Y0117174D02*
Y0117224D01*
X0004864D01*
Y0117174D01*
X0005464Y0116674D02*
Y0116624D01*
X0004864D01*
Y0116674D01*
Y0117766D02*
Y0117816D01*
X0005464D01*
Y0117766D01*
X0005706Y0118104D02*
X0005756D01*
Y0118704D01*
X0005706D01*
X0005206Y0118104D02*
X0005156D01*
Y0118704D01*
X0005206D01*
X0008060Y0120642D02*
Y0120592D01*
X0008660D01*
Y0120642D01*
X0008060Y0121142D02*
Y0121192D01*
X0008660D01*
Y0121142D01*
X0007448Y0121134D02*
Y0121184D01*
X0006848D01*
Y0121134D01*
X0007448Y0120634D02*
Y0120584D01*
X0006848D01*
Y0120634D01*
X0005114Y0118112D02*
X0005164D01*
Y0118712D01*
X0005114D01*
X0004614Y0118112D02*
X0004564D01*
Y0118712D01*
X0004614D01*
X0005206Y0119308D02*
X0005156D01*
Y0119908D01*
X0005206D01*
X0009108Y0114326D02*
Y0114376D01*
X0008508D01*
Y0114326D01*
X0009108Y0113826D02*
Y0113776D01*
X0008508D01*
Y0113826D01*
X0005222Y0116324D02*
X0005172D01*
Y0115724D01*
X0005222D01*
X0005722Y0116324D02*
X0005772D01*
Y0115724D01*
X0005722D01*
X0005106Y0119312D02*
X0005156D01*
Y0119912D01*
X0005106D01*
X0004606Y0119312D02*
X0004556D01*
Y0119912D01*
X0004606D01*
X0009108Y0113330D02*
Y0113380D01*
X0008508D01*
Y0113330D01*
X0009108Y0112830D02*
Y0112780D01*
X0008508D01*
Y0112830D01*
X0004622Y0116324D02*
X0004572D01*
Y0115724D01*
X0004622D01*
X0005122Y0116324D02*
X0005172D01*
Y0115724D01*
X0005122D01*
X0009264Y0120646D02*
Y0120596D01*
X0009864D01*
Y0120646D01*
X0009264Y0121146D02*
Y0121196D01*
X0009864D01*
Y0121146D01*
X0009104Y0112326D02*
Y0112376D01*
X0008504D01*
Y0112326D01*
X0009104Y0111826D02*
Y0111776D01*
X0008504D01*
Y0111826D01*
X0009964Y0113540D02*
Y0113490D01*
X0010764D01*
Y0113540D01*
X0009964Y0114140D02*
Y0114190D01*
X0010764D01*
Y0114140D01*
X0004864Y0117266D02*
Y0117216D01*
X0005464D01*
Y0117266D01*
X0005706Y0119308D02*
X0005756D01*
Y0119908D01*
X0005706D01*
X0034108Y0105682D02*
Y0105632D01*
X0034708D01*
Y0105682D01*
X0034108Y0106182D02*
Y0106232D01*
X0034708D01*
Y0106182D01*
X0032166Y0120376D02*
X0031390Y0120372D01*
X0031396Y0118832D01*
X0032166D01*
Y0120376D01*
X0031390D02*
X0030614Y0120372D01*
X0030620Y0118832D01*
X0031390D01*
Y0120376D01*
X0013116Y0120756D02*
Y0104220D01*
X0014656Y0104230D01*
Y0120748D01*
X0013116Y0120756D01*
X0016784Y0107726D02*
Y0107676D01*
X0017384D01*
Y0107726D01*
X0016784Y0108226D02*
Y0108276D01*
X0017384D01*
Y0108226D01*
X0035892Y0106834D02*
Y0106884D01*
X0035292D01*
Y0106834D01*
X0035892Y0106334D02*
Y0106284D01*
X0035292D01*
Y0106334D01*
X0035916Y0113186D02*
Y0113136D01*
X0036516D01*
Y0113186D01*
X0035916Y0113686D02*
Y0113736D01*
X0036516D01*
Y0113686D01*
X0035010Y0118692D02*
X0034960D01*
Y0118092D01*
X0035010D01*
X0035510Y0118692D02*
X0035560D01*
Y0118092D01*
X0035510D01*
X0023252Y0124330D02*
Y0124280D01*
X0023852D01*
Y0124330D01*
X0023252Y0124830D02*
Y0124880D01*
X0023852D01*
Y0124830D01*
X0035888Y0106278D02*
Y0106328D01*
X0035288D01*
Y0106278D01*
X0035888Y0105778D02*
Y0105728D01*
X0035288D01*
Y0105778D01*
X0019720Y0107630D02*
Y0107580D01*
X0020320D01*
Y0107630D01*
X0019720Y0108130D02*
Y0108180D01*
X0020320D01*
Y0108130D01*
X0016448Y0109508D02*
Y0116358D01*
X0021248D01*
Y0109508D01*
X0016448D01*
X0016598Y0108588D02*
X0016798Y0108388D01*
X0016398D01*
X0016598Y0108588D01*
X0035932Y0109930D02*
Y0109880D01*
X0036532D01*
Y0109930D01*
X0035932Y0110430D02*
Y0110480D01*
X0036532D01*
Y0110430D01*
X0022754Y0108234D02*
Y0108734D01*
X0021404D01*
X0021054Y0108384D01*
Y0108234D01*
X0022754Y0107534D02*
Y0107034D01*
X0021404D01*
X0021054Y0107384D01*
Y0107534D01*
X0022754D02*
X0022741Y0107384D01*
X0021054D01*
Y0107534D01*
Y0108234D02*
Y0108384D01*
X0022754Y0108391D01*
Y0108234D01*
X0033362Y0118680D02*
X0033312D01*
Y0118080D01*
X0033362D01*
X0033862Y0118680D02*
X0033912D01*
Y0118080D01*
X0033862D01*
X0035916Y0111014D02*
Y0110964D01*
X0036516D01*
Y0111014D01*
X0035916Y0111514D02*
Y0111564D01*
X0036516D01*
Y0111514D01*
X0035332Y0115878D02*
Y0115828D01*
X0035932D01*
Y0115878D01*
X0035332Y0116378D02*
Y0116428D01*
X0035932D01*
Y0116378D01*
X0035920Y0112090D02*
Y0112040D01*
X0036520D01*
Y0112090D01*
X0035920Y0112590D02*
Y0112640D01*
X0036520D01*
Y0112590D01*
X0037796Y0122994D02*
Y0123044D01*
X0037196D01*
Y0122994D01*
X0037796Y0122494D02*
Y0122444D01*
X0037196D01*
Y0122494D01*
X0037792Y0123606D02*
Y0123656D01*
X0037192D01*
Y0123606D01*
X0037792Y0123106D02*
Y0123056D01*
X0037192D01*
Y0123106D01*
X0034410Y0118692D02*
X0034360D01*
Y0118092D01*
X0034410D01*
X0034910Y0118692D02*
X0034960D01*
Y0118092D01*
X0034910D01*
X0035936Y0115338D02*
Y0115288D01*
X0036536D01*
Y0115338D01*
X0035936Y0115838D02*
Y0115888D01*
X0036536D01*
Y0115838D01*
X0035928Y0108842D02*
Y0108792D01*
X0036528D01*
Y0108842D01*
X0035928Y0109342D02*
Y0109392D01*
X0036528D01*
Y0109342D01*
X0037196Y0121898D02*
Y0121848D01*
X0037796D01*
Y0121898D01*
X0037196Y0122398D02*
Y0122448D01*
X0037796D01*
Y0122398D01*
X0035678Y0103796D02*
X0035542Y0103636D01*
Y0103952D01*
X0035678Y0103796D01*
X0022404Y0111714D02*
Y0111764D01*
X0021804D01*
Y0111714D01*
X0022404Y0111214D02*
Y0111164D01*
X0021804D01*
Y0111214D01*
X0031154Y0123976D02*
X0030204D01*
Y0121876D01*
X0030704Y0121376D01*
X0031154D01*
X0036250Y0118096D02*
X0036300D01*
Y0118696D01*
X0036250D01*
X0035750Y0118096D02*
X0035700D01*
Y0118696D01*
X0035750D01*
X0037684Y0116996D02*
Y0112200D01*
X0039224D01*
Y0116988D01*
X0037684Y0116996D01*
X0035928Y0114266D02*
Y0114216D01*
X0036528D01*
Y0114266D01*
X0035928Y0114766D02*
Y0114816D01*
X0036528D01*
Y0114766D01*
X0031854Y0123976D02*
X0032804D01*
Y0121876D01*
X0032304Y0121376D01*
X0031854D01*
X0035308Y0112638D02*
Y0112588D01*
X0035908D01*
Y0112638D01*
X0035308Y0113138D02*
Y0113188D01*
X0035908D01*
Y0113138D01*
X0032883Y0123927D02*
Y0122777D01*
X0033528D01*
Y0123927D01*
X0032883D01*
X0034169Y0103803D02*
X0034033Y0103643D01*
Y0103959D01*
X0034169Y0103803D01*
X0037688Y0112272D02*
Y0107476D01*
X0039228D01*
Y0112264D01*
X0037688Y0112272D01*
X0022404Y0111122D02*
Y0111172D01*
X0021804D01*
Y0111122D01*
X0022404Y0110622D02*
Y0110572D01*
X0021804D01*
Y0110622D01*
X0036711Y0102005D02*
X0035561D01*
Y0101360D01*
X0036711D01*
Y0102005D01*
X0035320Y0113722D02*
Y0113672D01*
X0035920D01*
Y0113722D01*
X0035320Y0114222D02*
Y0114272D01*
X0035920D01*
Y0114222D01*
X0021788Y0115722D02*
Y0115672D01*
X0022388D01*
Y0115722D01*
X0021788Y0116222D02*
Y0116272D01*
X0022388D01*
Y0116222D01*
X0019758Y0102410D02*
Y0102910D01*
X0018408D01*
X0018058Y0102560D01*
Y0102410D01*
X0019758Y0101710D02*
Y0101210D01*
X0018408D01*
X0018058Y0101560D01*
Y0101710D01*
X0019758D02*
X0019745Y0101560D01*
X0018058D01*
Y0101710D01*
Y0102410D02*
Y0102560D01*
X0019758Y0102567D01*
Y0102410D01*
X0034000Y0102420D02*
X0023740D01*
Y0100880D01*
X0033992D01*
X0034000Y0102420D01*
X0035324Y0110474D02*
Y0110424D01*
X0035924D01*
Y0110474D01*
X0035324Y0110974D02*
Y0111024D01*
X0035924D01*
Y0110974D01*
X0038046Y0117352D02*
X0038096D01*
Y0117952D01*
X0038046D01*
X0037546Y0117352D02*
X0037496D01*
Y0117952D01*
X0037546D01*
X0035495Y0102005D02*
X0034345D01*
Y0101360D01*
X0035495D01*
Y0102005D01*
X0021824Y0111786D02*
Y0111736D01*
X0022424D01*
Y0111786D01*
X0021824Y0112286D02*
Y0112336D01*
X0022424D01*
Y0112286D01*
X0019229Y0105590D02*
X0019154D01*
Y0106790D01*
X0019204D01*
Y0106515D01*
X0019804D01*
Y0106790D01*
X0019854D01*
Y0105590D01*
X0019779D01*
X0019572Y0106515D02*
Y0106340D01*
X0019518Y0106515D02*
Y0106340D01*
X0019464Y0106515D02*
Y0106340D01*
X0019410Y0106515D02*
Y0106340D01*
X0019356Y0106515D02*
Y0106340D01*
X0019302Y0106515D02*
Y0106340D01*
X0019248Y0106515D02*
Y0106340D01*
X0019194Y0106515D02*
Y0106340D01*
X0019854Y0106488D02*
X0019154D01*
X0019854Y0106434D02*
X0019154D01*
X0019854Y0106380D02*
X0019154D01*
X0019854Y0106515D02*
X0019154D01*
X0019854D02*
Y0106340D01*
X0019154D01*
Y0106515D02*
Y0106340D01*
X0019842Y0106515D02*
Y0106340D01*
X0019788Y0106515D02*
Y0106340D01*
X0019734Y0106515D02*
Y0106340D01*
X0019680Y0106515D02*
Y0106340D01*
X0019626Y0106515D02*
Y0106340D01*
X0035320Y0111554D02*
Y0111504D01*
X0035920D01*
Y0111554D01*
X0035320Y0112054D02*
Y0112104D01*
X0035920D01*
Y0112054D01*
X0022612Y0120546D02*
Y0120496D01*
X0023212D01*
Y0120546D01*
X0022612Y0121046D02*
Y0121096D01*
X0023212D01*
Y0121046D01*
X0021820Y0112390D02*
Y0112340D01*
X0022420D01*
Y0112390D01*
X0021820Y0112890D02*
Y0112940D01*
X0022420D01*
Y0112890D01*
X0035940Y0116422D02*
Y0116372D01*
X0036540D01*
Y0116422D01*
X0035940Y0116922D02*
Y0116972D01*
X0036540D01*
Y0116922D01*
X0018732Y0108430D02*
Y0108480D01*
X0018132D01*
Y0108430D01*
X0018732Y0107930D02*
Y0107880D01*
X0018132D01*
Y0107930D01*
X0036974Y0117956D02*
X0036924D01*
Y0117356D01*
X0036974D01*
X0037474Y0117956D02*
X0037524D01*
Y0117356D01*
X0037474D01*
X0035328Y0114806D02*
Y0114756D01*
X0035928D01*
Y0114806D01*
X0035328Y0115306D02*
Y0115356D01*
X0035928D01*
Y0115306D01*
X0021812Y0110078D02*
Y0110028D01*
X0022412D01*
Y0110078D01*
X0021812Y0110578D02*
Y0110628D01*
X0022412D01*
Y0110578D01*
X0019306Y0104464D02*
X0019256D01*
Y0103864D01*
X0019306D01*
X0019806Y0104464D02*
X0019856D01*
Y0103864D01*
X0019806D01*
X0021820Y0116802D02*
Y0116752D01*
X0022420D01*
Y0116802D01*
X0021820Y0117302D02*
Y0117352D01*
X0022420D01*
Y0117302D01*
X0035328Y0108294D02*
Y0108244D01*
X0035928D01*
Y0108294D01*
X0035328Y0108794D02*
Y0108844D01*
X0035928D01*
Y0108794D01*
X0033996Y0123898D02*
Y0123848D01*
X0034596D01*
Y0123898D01*
X0033996Y0124398D02*
Y0124448D01*
X0034596D01*
Y0124398D01*
X0033612Y0121284D02*
Y0121894D01*
X0033792D01*
Y0122194D01*
X0033612D01*
Y0122814D01*
X0036172D01*
Y0121284D01*
X0033612D01*
X0035324Y0109382D02*
Y0109332D01*
X0035924D01*
Y0109382D01*
X0035324Y0109882D02*
Y0109932D01*
X0035924D01*
Y0109882D01*
X0021832Y0114722D02*
Y0114672D01*
X0022432D01*
Y0114722D01*
X0021832Y0115222D02*
Y0115272D01*
X0022432D01*
Y0115222D01*
X0021824Y0109470D02*
Y0109420D01*
X0022424D01*
Y0109470D01*
X0021824Y0109970D02*
Y0110020D01*
X0022424D01*
Y0109970D01*
X0022190Y0104838D02*
Y0105338D01*
X0020840D01*
X0020490Y0104988D01*
Y0104838D01*
X0022190Y0104138D02*
Y0103638D01*
X0020840D01*
X0020490Y0103988D01*
Y0104138D01*
X0022190D02*
X0022177Y0103988D01*
X0020490D01*
Y0104138D01*
Y0104838D02*
Y0104988D01*
X0022190Y0104995D01*
Y0104838D01*
X0032879Y0122755D02*
Y0121605D01*
X0033524D01*
Y0122755D01*
X0032879D01*
G01X0021879Y0107083D02*
G03X0022554Y0107534I0000000J0000731D01*
G01X0021204D02*
G03X0021879Y0107083I0000675J0000280D01*
Y0108688D02*
G03X0021204Y0108234I0000000J0000729D01*
G01X0022554D02*
G03X0021879Y0108688I0000675J0000275D01*
G01X0030254Y0122651D02*
G03X0031104Y0121476I0001237J0000000D01*
Y0123826D02*
G03X0030254Y0122651I0000387J0001175D01*
G01X0032754D02*
G03X0031904Y0123826I0001237J0000000D01*
Y0121476D02*
G03X0032754Y0122651I0000387J0001175D01*
G01X0018883Y0101259D02*
G03X0019558Y0101710I0000000J0000731D01*
G01X0018208D02*
G03X0018883Y0101259I0000675J0000280D01*
Y0102864D02*
G03X0018208Y0102410I0000000J0000729D01*
G01X0019558D02*
G03X0018883Y0102864I0000675J0000275D01*
G01X0033782Y0121388D02*
G03X0033858Y0121464I0000000J0000076D01*
G01X0033706D02*
G03X0033782Y0121388I0000076J0000000D01*
Y0121540D02*
G03X0033706Y0121464I0000000J0000076D01*
G01X0033858D02*
G03X0033782Y0121540I0000076J0000000D01*
G01X0021315Y0103687D02*
G03X0021990Y0104138I0000000J0000731D01*
G01X0020640D02*
G03X0021315Y0103687I0000675J0000280D01*
Y0105292D02*
G03X0020640Y0104838I0000000J0000729D01*
G01X0021990D02*
G03X0021315Y0105292I0000675J0000275D01*
G54D122*
G01X0022281Y0108544D02*
X0022254D01*
X0022325Y0108517D02*
X0022254D01*
X0022363Y0108490D02*
X0022254D01*
X0022397Y0108463D02*
X0022254D01*
X0022427Y0108436D02*
X0022254D01*
X0022454Y0108409D02*
X0022254D01*
X0022478Y0108382D02*
X0022254D01*
X0022501Y0108355D02*
X0022254D01*
X0022521Y0108328D02*
X0022254D01*
X0022540Y0108301D02*
X0022254D01*
X0022557Y0108274D02*
X0022254D01*
X0022510Y0108343D02*
Y0108234D01*
X0022483Y0108377D02*
Y0108234D01*
X0022456Y0108407D02*
Y0108234D01*
X0022429Y0108434D02*
Y0108234D01*
X0022402Y0108458D02*
Y0108234D01*
X0022375Y0108481D02*
Y0108234D01*
X0022348Y0108501D02*
Y0108234D01*
X0022321Y0108520D02*
Y0108234D01*
X0022294Y0108537D02*
Y0108234D01*
X0022267Y0108552D02*
Y0108234D01*
X0022572Y0108247D02*
X0022254D01*
X0022579Y0108234D02*
X0022254D01*
Y0108559D02*
Y0108234D01*
X0022564Y0108261D02*
Y0108234D01*
X0022537Y0108305D02*
Y0108234D01*
X0022571Y0107519D02*
X0022254D01*
X0022555Y0107492D02*
X0022254D01*
X0022538Y0107465D02*
X0022254D01*
X0022520Y0107438D02*
X0022254D01*
X0022499Y0107411D02*
X0022254D01*
X0022477Y0107384D02*
X0022254D01*
X0022452Y0107357D02*
X0022254D01*
X0022425Y0107330D02*
X0022254D01*
X0022394Y0107303D02*
X0022254D01*
X0022360Y0107276D02*
X0022254D01*
X0022322Y0107249D02*
X0022254D01*
X0022510Y0107534D02*
Y0107425D01*
X0022483Y0107534D02*
Y0107391D01*
X0022456Y0107534D02*
Y0107361D01*
X0022429Y0107534D02*
Y0107334D01*
X0022402Y0107534D02*
Y0107309D01*
X0022375Y0107534D02*
Y0107287D01*
X0022348Y0107534D02*
Y0107267D01*
X0022321Y0107534D02*
Y0107248D01*
X0022294Y0107534D02*
Y0107231D01*
X0022267Y0107534D02*
Y0107216D01*
X0022278Y0107222D02*
X0022254D01*
X0022579Y0107534D02*
X0022254D01*
Y0107209D01*
X0022564Y0107534D02*
Y0107506D01*
X0022537Y0107534D02*
Y0107463D01*
X0030577Y0123518D02*
Y0123326D01*
X0030550Y0123488D02*
Y0123326D01*
X0030523Y0123456D02*
Y0123326D01*
X0030496Y0123422D02*
Y0123326D01*
X0030469Y0123386D02*
Y0123326D01*
X0030442Y0123346D02*
Y0123326D01*
X0031154Y0123852D02*
X0031081D01*
X0031154Y0123825D02*
X0031013D01*
X0031154Y0123798D02*
X0030954D01*
X0031154Y0123771D02*
X0030902D01*
X0031154Y0123744D02*
X0030855D01*
X0031154Y0123717D02*
X0030813D01*
X0031154Y0123690D02*
X0030773D01*
X0031154Y0123663D02*
X0030737D01*
X0031154Y0123636D02*
X0030702D01*
X0031154Y0123609D02*
X0030671D01*
X0031154Y0123582D02*
X0030641D01*
X0031154Y0123555D02*
X0030613D01*
X0031154Y0123528D02*
X0030586D01*
X0031154Y0123501D02*
X0030561D01*
X0031154Y0123474D02*
X0030538D01*
X0031154Y0123447D02*
X0030515D01*
X0031154Y0123420D02*
X0030494D01*
X0031154Y0123393D02*
X0030474D01*
X0031154Y0123366D02*
X0030455D01*
X0031154Y0123339D02*
X0030437D01*
X0031154Y0123876D02*
Y0123326D01*
X0030429D01*
X0031144Y0123873D02*
Y0123326D01*
X0031117Y0123864D02*
Y0123326D01*
X0031090Y0123855D02*
Y0123326D01*
X0031063Y0123845D02*
Y0123326D01*
X0031036Y0123834D02*
Y0123326D01*
X0031009Y0123823D02*
Y0123326D01*
X0030982Y0123811D02*
Y0123326D01*
X0030955Y0123798D02*
Y0123326D01*
X0030928Y0123784D02*
Y0123326D01*
X0030901Y0123770D02*
Y0123326D01*
X0030874Y0123755D02*
Y0123326D01*
X0030847Y0123739D02*
Y0123326D01*
X0030820Y0123722D02*
Y0123326D01*
X0030793Y0123704D02*
Y0123326D01*
X0030766Y0123685D02*
Y0123326D01*
X0030739Y0123665D02*
Y0123326D01*
X0030712Y0123643D02*
Y0123326D01*
X0030685Y0123621D02*
Y0123326D01*
X0030658Y0123597D02*
Y0123326D01*
X0030631Y0123572D02*
Y0123326D01*
X0030604Y0123546D02*
Y0123326D01*
X0031975Y0123835D02*
Y0123326D01*
X0031948Y0123846D02*
Y0123326D01*
X0031921Y0123855D02*
Y0123326D01*
X0031894Y0123864D02*
Y0123326D01*
X0031867Y0123872D02*
Y0123326D01*
X0031931Y0123852D02*
X0031854D01*
X0032000Y0123825D02*
X0031854D01*
X0032059Y0123798D02*
X0031854D01*
X0032110Y0123771D02*
X0031854D01*
X0032156Y0123744D02*
X0031854D01*
X0032198Y0123717D02*
X0031854D01*
X0032235Y0123690D02*
X0031854D01*
X0032270Y0123663D02*
X0031854D01*
X0032303Y0123636D02*
X0031854D01*
X0032333Y0123609D02*
X0031854D01*
X0032361Y0123582D02*
X0031854D01*
X0032387Y0123555D02*
X0031854D01*
X0032411Y0123528D02*
X0031854D01*
X0032434Y0123501D02*
X0031854D01*
X0032456Y0123474D02*
X0031854D01*
X0032476Y0123447D02*
X0031854D01*
X0032496Y0123420D02*
X0031854D01*
X0032514Y0123393D02*
X0031854D01*
X0032531Y0123366D02*
X0031854D01*
Y0123876D02*
Y0123326D01*
X0032554D02*
X0031854D01*
X0032542Y0123347D02*
Y0123326D01*
X0032515Y0123391D02*
Y0123326D01*
X0032488Y0123431D02*
Y0123326D01*
X0032461Y0123468D02*
Y0123326D01*
X0032434Y0123502D02*
Y0123326D01*
X0032407Y0123533D02*
Y0123326D01*
X0032380Y0123562D02*
Y0123326D01*
X0032353Y0123590D02*
Y0123326D01*
X0032326Y0123615D02*
Y0123326D01*
X0032299Y0123639D02*
Y0123326D01*
X0032272Y0123662D02*
Y0123326D01*
X0032245Y0123683D02*
Y0123326D01*
X0032218Y0123703D02*
Y0123326D01*
X0032191Y0123721D02*
Y0123326D01*
X0032164Y0123739D02*
Y0123326D01*
X0032137Y0123756D02*
Y0123326D01*
X0032110Y0123771D02*
Y0123326D01*
X0032083Y0123786D02*
Y0123326D01*
X0032056Y0123799D02*
Y0123326D01*
X0032029Y0123812D02*
Y0123326D01*
X0032002Y0123824D02*
Y0123326D01*
X0032547Y0123339D02*
X0031854D01*
X0019285Y0102720D02*
X0019258D01*
X0019329Y0102693D02*
X0019258D01*
X0019367Y0102666D02*
X0019258D01*
X0019401Y0102639D02*
X0019258D01*
X0019431Y0102612D02*
X0019258D01*
X0019458Y0102585D02*
X0019258D01*
X0019482Y0102558D02*
X0019258D01*
X0019505Y0102531D02*
X0019258D01*
X0019525Y0102504D02*
X0019258D01*
X0019544Y0102477D02*
X0019258D01*
X0019561Y0102450D02*
X0019258D01*
X0019514Y0102519D02*
Y0102410D01*
X0019487Y0102553D02*
Y0102410D01*
X0019460Y0102583D02*
Y0102410D01*
X0019433Y0102610D02*
Y0102410D01*
X0019406Y0102634D02*
Y0102410D01*
X0019379Y0102657D02*
Y0102410D01*
X0019352Y0102677D02*
Y0102410D01*
X0019325Y0102696D02*
Y0102410D01*
X0019298Y0102713D02*
Y0102410D01*
X0019271Y0102728D02*
Y0102410D01*
X0019576Y0102423D02*
X0019258D01*
X0019583Y0102410D02*
X0019258D01*
Y0102735D02*
Y0102410D01*
X0019568Y0102437D02*
Y0102410D01*
X0019541Y0102481D02*
Y0102410D01*
X0019575Y0101695D02*
X0019258D01*
X0019559Y0101668D02*
X0019258D01*
X0019542Y0101641D02*
X0019258D01*
X0019524Y0101614D02*
X0019258D01*
X0019503Y0101587D02*
X0019258D01*
X0019481Y0101560D02*
X0019258D01*
X0019456Y0101533D02*
X0019258D01*
X0019429Y0101506D02*
X0019258D01*
X0019398Y0101479D02*
X0019258D01*
X0019364Y0101452D02*
X0019258D01*
X0019326Y0101425D02*
X0019258D01*
X0019514Y0101710D02*
Y0101601D01*
X0019487Y0101710D02*
Y0101567D01*
X0019460Y0101710D02*
Y0101537D01*
X0019433Y0101710D02*
Y0101510D01*
X0019406Y0101710D02*
Y0101485D01*
X0019379Y0101710D02*
Y0101463D01*
X0019352Y0101710D02*
Y0101443D01*
X0019325Y0101710D02*
Y0101424D01*
X0019298Y0101710D02*
Y0101407D01*
X0019271Y0101710D02*
Y0101392D01*
X0019282Y0101398D02*
X0019258D01*
X0019583Y0101710D02*
X0019258D01*
Y0101385D01*
X0019568Y0101710D02*
Y0101682D01*
X0019541Y0101710D02*
Y0101639D01*
X0022284Y0123652D02*
X0021884Y0123252D01*
Y0124052D01*
X0022284Y0123652D01*
X0021717Y0105148D02*
X0021690D01*
X0021761Y0105121D02*
X0021690D01*
X0021799Y0105094D02*
X0021690D01*
X0021833Y0105067D02*
X0021690D01*
X0021863Y0105040D02*
X0021690D01*
X0021890Y0105013D02*
X0021690D01*
X0021914Y0104986D02*
X0021690D01*
X0021937Y0104959D02*
X0021690D01*
X0021957Y0104932D02*
X0021690D01*
X0021976Y0104905D02*
X0021690D01*
X0021993Y0104878D02*
X0021690D01*
X0021946Y0104947D02*
Y0104838D01*
X0021919Y0104981D02*
Y0104838D01*
X0021892Y0105011D02*
Y0104838D01*
X0021865Y0105038D02*
Y0104838D01*
X0021838Y0105062D02*
Y0104838D01*
X0021811Y0105085D02*
Y0104838D01*
X0021784Y0105105D02*
Y0104838D01*
X0021757Y0105124D02*
Y0104838D01*
X0021730Y0105141D02*
Y0104838D01*
X0021703Y0105156D02*
Y0104838D01*
X0022008Y0104851D02*
X0021690D01*
X0022015Y0104838D02*
X0021690D01*
Y0105163D02*
Y0104838D01*
X0022000Y0104865D02*
Y0104838D01*
X0021973Y0104909D02*
Y0104838D01*
X0022007Y0104123D02*
X0021690D01*
X0021991Y0104096D02*
X0021690D01*
X0021974Y0104069D02*
X0021690D01*
X0021956Y0104042D02*
X0021690D01*
X0021935Y0104015D02*
X0021690D01*
X0021913Y0103988D02*
X0021690D01*
X0021888Y0103961D02*
X0021690D01*
X0021861Y0103934D02*
X0021690D01*
X0021830Y0103907D02*
X0021690D01*
X0021796Y0103880D02*
X0021690D01*
X0021758Y0103853D02*
X0021690D01*
X0021946Y0104138D02*
Y0104029D01*
X0021919Y0104138D02*
Y0103995D01*
X0021892Y0104138D02*
Y0103965D01*
X0021865Y0104138D02*
Y0103938D01*
X0021838Y0104138D02*
Y0103913D01*
X0021811Y0104138D02*
Y0103891D01*
X0021784Y0104138D02*
Y0103871D01*
X0021757Y0104138D02*
Y0103852D01*
X0021730Y0104138D02*
Y0103835D01*
X0021703Y0104138D02*
Y0103820D01*
X0021714Y0103826D02*
X0021690D01*
X0022015Y0104138D02*
X0021690D01*
Y0103813D01*
X0022000Y0104138D02*
Y0104110D01*
X0021973Y0104138D02*
Y0104067D01*
G01X0022579Y0108234D02*
G03X0022254Y0108559I0000675J0000350D01*
Y0107209D02*
G03X0022579Y0107534I0000350J0000675D01*
G01X0031154Y0123876D02*
G03X0030429Y0123326I0000371J0001242D01*
G01X0032554D02*
G03X0031854Y0123876I0001003J0000556D01*
G01X0019583Y0102410D02*
G03X0019258Y0102735I0000675J0000350D01*
Y0101385D02*
G03X0019583Y0101710I0000350J0000675D01*
G01X0022015Y0104838D02*
G03X0021690Y0105163I0000675J0000350D01*
Y0103813D02*
G03X0022015Y0104138I0000350J0000675D01*
G54D123*
G01X0038686Y0122513D02*
Y0122688D01*
X0038744Y0122717D01*
X0038802D01*
X0038861Y0122688D01*
Y0122513D01*
X0038802Y0122484D01*
X0038744D01*
X0038511Y0122601D01*
X0038744Y0122231D02*
X0038802D01*
X0038861Y0122260D01*
Y0122376D01*
X0038802Y0122406D01*
X0038511D01*
Y0122435D02*
Y0122318D01*
X0025897Y0104313D02*
X0026919D01*
Y0106595D01*
X0025897D01*
Y0104313D01*
G54D124*
G01X0017724Y0106310D02*
Y0105961D01*
X0017679Y0106290D02*
Y0105982D01*
X0017634Y0106250D02*
Y0106022D01*
X0017832Y0106309D02*
X0017719D01*
X0017905Y0106264D02*
X0017646D01*
X0017938Y0106219D02*
X0017614D01*
X0017954Y0106174D02*
X0017598D01*
X0017958Y0106129D02*
X0017594D01*
X0017950Y0106084D02*
X0017601D01*
X0017930Y0106039D02*
X0017622D01*
X0017949Y0106192D02*
Y0106079D01*
X0017904Y0106265D02*
Y0106006D01*
X0017859Y0106298D02*
Y0105974D01*
X0017814Y0106314D02*
Y0105958D01*
X0017769Y0106318D02*
Y0105954D01*
X0017890Y0105994D02*
X0017662D01*
G01X0017776Y0105954D02*
G03X0017958Y0106136I0000000J0000182D01*
G01X0017594D02*
G03X0017776Y0105954I0000182J0000000D01*
Y0106318D02*
G03X0017594Y0106136I0000000J0000182D01*
G01X0017958D02*
G03X0017776Y0106318I0000182J0000000D01*
G54D125*
G01X0004576Y0114554D02*
Y0115110D01*
X0005696D01*
Y0114648D01*
X0006762D01*
Y0111658D01*
X0005676D01*
Y0111212D01*
X0004576D01*
Y0114582D01*
G54D126*
G01X0010944Y0115671D02*
Y0115540D01*
X0010900Y0115518D01*
X0010856D01*
X0010812Y0115540D01*
Y0115671D01*
X0010856Y0115693D01*
X0010900D01*
X0011075Y0115606D01*
X0010812Y0115402D02*
X0011031D01*
X0011075Y0115380D01*
Y0115249D01*
X0011031Y0115227D01*
X0010812D01*
X0010143Y0116147D02*
Y0116060D01*
Y0116103D02*
X0009880D01*
X0009924Y0116060D01*
X0009786Y0119205D02*
X0009655Y0118943D01*
X0009830D01*
X0009946Y0119205D02*
X0010033D01*
X0009989D02*
Y0118943D01*
X0010033Y0118986D01*
X0007043Y0118848D02*
X0006999Y0118804D01*
Y0118717D01*
X0007043Y0118673D01*
X0007086D01*
X0007174Y0118760D01*
X0007261Y0118673D01*
Y0118848D01*
X0007043Y0119139D02*
X0006999Y0119095D01*
Y0119008D01*
X0007043Y0118964D01*
X0007086D01*
X0007174Y0119051D01*
X0007261Y0118964D01*
Y0119139D01*
X0007634Y0116067D02*
X0007503D01*
X0007481Y0116111D01*
Y0116155D01*
X0007503Y0116198D01*
X0007634D01*
X0007656Y0116155D01*
Y0116111D01*
X0007568Y0115936D01*
X0007365Y0116023D02*
X0007190D01*
X0007277Y0116198D01*
X0007321D01*
Y0115936D01*
X0010060Y0113043D02*
X0010082Y0112999D01*
X0010213D01*
X0010235Y0113043D01*
Y0113130D01*
X0010191Y0113174D01*
X0010060D01*
Y0113262D01*
X0010235D01*
X0009769Y0113043D02*
X0009791Y0112999D01*
X0009922D01*
X0009944Y0113043D01*
Y0113130D01*
X0009900Y0113174D01*
X0009769D01*
Y0113262D01*
X0009944D01*
X0009587Y0113130D02*
X0009653Y0112999D01*
X0009478Y0113130D02*
X0009609D01*
X0009653Y0113174D01*
Y0113218D01*
X0009609Y0113262D01*
X0009478D01*
Y0112999D01*
X0010914Y0110305D02*
X0011045Y0110568D01*
X0010870D01*
X0010601Y0110393D02*
Y0110349D01*
X0010623Y0110305D01*
X0010710D01*
X0010732Y0110349D01*
Y0110568D01*
X0010754D02*
X0010666D01*
X0010175Y0111935D02*
X0010088D01*
X0010132D02*
Y0112198D01*
X0010088Y0112154D01*
X0009753Y0111979D02*
X0009775Y0111935D01*
X0009906D01*
X0009928Y0111979D01*
Y0112066D01*
X0009884Y0112110D01*
X0009753D01*
Y0112198D01*
X0009928D01*
X0009571Y0112066D02*
X0009637Y0111935D01*
X0009462Y0112066D02*
X0009593D01*
X0009637Y0112110D01*
Y0112154D01*
X0009593Y0112198D01*
X0009462D01*
Y0111935D01*
X0006445Y0111257D02*
X0006489Y0111213D01*
X0006576D01*
X0006620Y0111257D01*
Y0111301D01*
X0006533Y0111388D01*
X0006620Y0111476D01*
X0006445D01*
X0006329Y0111213D02*
X0006242D01*
X0006285D02*
Y0111476D01*
X0006242Y0111432D01*
X0005929Y0111301D02*
Y0111257D01*
X0005951Y0111213D01*
X0006038D01*
X0006060Y0111257D01*
Y0111476D01*
X0006082D02*
X0005994D01*
X0010359Y0114343D02*
X0010403Y0114299D01*
X0010490D01*
X0010534Y0114343D01*
Y0114387D01*
X0010446Y0114474D01*
X0010534Y0114562D01*
X0010359D01*
X0010243Y0114299D02*
X0010090D01*
Y0114562D01*
X0009135Y0114479D02*
X0008960D01*
X0009135Y0114654D01*
Y0114698D01*
X0009113Y0114742D01*
X0008982D01*
X0008960Y0114698D01*
X0008669Y0114523D02*
X0008691Y0114479D01*
X0008822D01*
X0008844Y0114523D01*
Y0114610D01*
X0008800Y0114654D01*
X0008669D01*
Y0114742D01*
X0008844D01*
X0008487Y0114610D02*
X0008553Y0114479D01*
X0008378Y0114610D02*
X0008509D01*
X0008553Y0114654D01*
Y0114698D01*
X0008509Y0114742D01*
X0008378D01*
Y0114479D01*
X0012102Y0100937D02*
X0012015D01*
X0012059D02*
Y0101200D01*
X0012015Y0101156D01*
X0011855Y0100937D02*
X0011767D01*
X0011811D02*
Y0101200D01*
X0011767Y0101156D01*
X0011455Y0101025D02*
Y0100981D01*
X0011476Y0100937D01*
X0011564D01*
X0011586Y0100981D01*
Y0101200D01*
X0011608D02*
X0011520D01*
X0007949Y0111121D02*
X0007774D01*
X0007949Y0111296D01*
Y0111339D01*
X0007927Y0111383D01*
X0007796D01*
X0007774Y0111339D01*
X0007658Y0111121D02*
X0007571D01*
X0007615D02*
Y0111383D01*
X0007571Y0111339D01*
X0007258Y0111208D02*
Y0111164D01*
X0007280Y0111121D01*
X0007367D01*
X0007389Y0111164D01*
Y0111383D01*
X0007411D02*
X0007323D01*
X0034807Y0106351D02*
X0034720D01*
X0034764D02*
Y0106614D01*
X0034720Y0106570D01*
X0034560Y0106439D02*
X0034385D01*
X0034472Y0106614D01*
X0034516D01*
Y0106351D01*
X0034203Y0106482D02*
X0034269Y0106351D01*
X0034094Y0106482D02*
X0034225D01*
X0034269Y0106526D01*
Y0106570D01*
X0034225Y0106614D01*
X0034094D01*
Y0106351D01*
X0031892Y0120588D02*
X0031717D01*
X0031804Y0120763D01*
X0031848D01*
Y0120500D01*
X0031448Y0120588D02*
Y0120544D01*
X0031470Y0120500D01*
X0031557D01*
X0031579Y0120544D01*
Y0120763D01*
X0031601D02*
X0031513D01*
X0017500Y0108347D02*
X0017631Y0108610D01*
X0017456D01*
X0017165Y0108391D02*
X0017209Y0108347D01*
X0017296D01*
X0017340Y0108391D01*
Y0108435D01*
X0017252Y0108522D01*
X0017340Y0108610D01*
X0017165D01*
X0016983Y0108478D02*
X0017049Y0108347D01*
X0016874Y0108478D02*
X0017005D01*
X0017049Y0108522D01*
Y0108566D01*
X0017005Y0108610D01*
X0016874D01*
Y0108347D01*
X0016849Y0117232D02*
X0016871Y0117188D01*
X0017002D01*
X0017024Y0117232D01*
Y0117319D01*
X0016980Y0117363D01*
X0016849D01*
Y0117451D01*
X0017024D01*
X0016733D02*
Y0117232D01*
X0016711Y0117188D01*
X0016580D01*
X0016558Y0117232D01*
Y0117451D01*
X0035059Y0110071D02*
X0034884D01*
X0035059Y0110246D01*
Y0110290D01*
X0035037Y0110334D01*
X0034906D01*
X0034884Y0110290D01*
X0034768Y0110071D02*
X0034593D01*
X0034768Y0110246D01*
Y0110290D01*
X0034746Y0110334D01*
X0034615D01*
X0034593Y0110290D01*
X0034411Y0110202D02*
X0034477Y0110071D01*
X0034302Y0110202D02*
X0034433D01*
X0034477Y0110246D01*
Y0110290D01*
X0034433Y0110334D01*
X0034302D01*
Y0110071D01*
X0020863Y0108612D02*
Y0108437D01*
X0020951Y0108524D02*
X0020776D01*
X0022440Y0108938D02*
X0022462Y0108981D01*
Y0109025D01*
X0022440Y0109069D01*
X0022309D01*
X0022287Y0109025D01*
Y0108981D01*
X0022309Y0108938D01*
X0022440D01*
X0022462Y0108894D01*
Y0108850D01*
X0022440Y0108807D01*
X0022309D01*
X0022287Y0108850D01*
Y0108894D01*
X0022309Y0108938D01*
X0021996Y0108850D02*
X0022040Y0108807D01*
X0022127D01*
X0022171Y0108850D01*
Y0108894D01*
X0022083Y0108981D01*
X0022171Y0109069D01*
X0021996D01*
X0021880Y0108850D02*
X0021858Y0108807D01*
X0021727D01*
X0021705Y0108850D01*
Y0109025D01*
X0021727Y0109069D01*
X0021858D01*
X0021880Y0109025D01*
X0020863Y0108612D02*
Y0108437D01*
X0020951Y0108524D02*
X0020776D01*
X0037058Y0107074D02*
X0036796D01*
Y0107162D02*
Y0106987D01*
X0036927Y0106827D02*
Y0106695D01*
X0037058Y0106870D02*
Y0106695D01*
X0036796D01*
Y0106870D01*
X0036840Y0106579D02*
X0036796Y0106557D01*
Y0106426D01*
X0036840Y0106404D01*
X0036883D01*
X0036927Y0106426D01*
Y0106557D01*
X0036971Y0106579D01*
X0037015D01*
X0037058Y0106557D01*
Y0106426D01*
X0037015Y0106404D01*
X0036927Y0106244D02*
Y0106113D01*
X0037058Y0106288D02*
Y0106113D01*
X0036796D01*
Y0106288D01*
X0036927Y0105931D02*
X0037058Y0105997D01*
X0036927Y0105822D02*
Y0105953D01*
X0036883Y0105997D01*
X0036840D01*
X0036796Y0105953D01*
Y0105822D01*
X0037058D01*
X0016391Y0106559D02*
Y0106471D01*
Y0106515D02*
X0016128D01*
X0016172Y0106471D01*
X0016259Y0106311D02*
Y0106136D01*
X0016391Y0106311D02*
X0016128D01*
X0016391Y0106136D02*
X0016128D01*
Y0106020D02*
X0016347D01*
X0016391Y0105998D01*
Y0105867D01*
X0016347Y0105845D01*
X0016128D01*
X0016391Y0105619D02*
X0016347Y0105576D01*
X0016303Y0105554D01*
X0016216D01*
X0016172Y0105576D01*
X0016128Y0105619D01*
Y0105663D01*
X0016172Y0105707D01*
X0016216Y0105729D01*
X0016303D01*
X0016347Y0105707D01*
X0016391Y0105663D01*
Y0105619D01*
Y0105438D02*
Y0105350D01*
Y0105394D02*
X0016128D01*
X0016172Y0105350D01*
X0016303Y0104801D02*
Y0104626D01*
X0016128Y0104713D01*
Y0104757D01*
X0016391D01*
Y0104510D02*
Y0104357D01*
X0016128D01*
X0033177Y0118576D02*
X0032914Y0118707D01*
Y0118532D01*
X0033177Y0118416D02*
Y0118329D01*
Y0118372D02*
X0032914D01*
X0032958Y0118329D01*
X0033045Y0118103D02*
X0033177Y0118169D01*
X0033045Y0117994D02*
Y0118125D01*
X0033002Y0118169D01*
X0032958D01*
X0032914Y0118125D01*
Y0117994D01*
X0033177D01*
X0034958Y0111147D02*
X0034914Y0111191D01*
X0034892Y0111235D01*
Y0111322D01*
X0034914Y0111366D01*
X0034958Y0111410D01*
X0035001D01*
X0035045Y0111366D01*
X0035067Y0111322D01*
Y0111235D01*
X0035045Y0111191D01*
X0035001Y0111147D01*
X0034958D01*
X0034776D02*
X0034601D01*
X0034776Y0111322D01*
Y0111366D01*
X0034754Y0111410D01*
X0034623D01*
X0034601Y0111366D01*
X0034419Y0111278D02*
X0034485Y0111147D01*
X0034310Y0111278D02*
X0034441D01*
X0034485Y0111322D01*
Y0111366D01*
X0034441Y0111410D01*
X0034310D01*
Y0111147D01*
X0037592Y0112131D02*
Y0111956D01*
X0037417Y0112131D01*
X0037373D01*
X0037329Y0112109D01*
Y0111978D01*
X0037373Y0111956D01*
X0037592Y0111840D02*
Y0111665D01*
X0037417Y0111840D01*
X0037373D01*
X0037329Y0111818D01*
Y0111687D01*
X0037373Y0111665D01*
X0037504Y0111396D02*
X0037548D01*
X0037592Y0111418D01*
Y0111505D01*
X0037548Y0111527D01*
X0037329D01*
Y0111549D02*
Y0111461D01*
X0022372Y0113109D02*
X0022328Y0113153D01*
X0022306Y0113197D01*
Y0113284D01*
X0022328Y0113328D01*
X0022372Y0113372D01*
X0022416D01*
X0022459Y0113328D01*
X0022481Y0113284D01*
Y0113197D01*
X0022459Y0113153D01*
X0022416Y0113109D01*
X0022372D01*
X0022190D02*
X0022103D01*
X0022146D02*
Y0113372D01*
X0022103Y0113328D01*
X0021943Y0113153D02*
X0021921Y0113109D01*
X0021790D01*
X0021768Y0113153D01*
Y0113328D01*
X0021790Y0113372D01*
X0021921D01*
X0021943Y0113328D01*
X0036973Y0122125D02*
X0036798D01*
X0036886Y0122300D01*
X0036929D01*
Y0122037D01*
X0036507Y0122081D02*
X0036551Y0122037D01*
X0036638D01*
X0036682Y0122081D01*
Y0122125D01*
X0036594Y0122212D01*
X0036682Y0122300D01*
X0036507D01*
X0036325Y0122168D02*
X0036391Y0122037D01*
X0036216Y0122168D02*
X0036347D01*
X0036391Y0122212D01*
Y0122256D01*
X0036347Y0122300D01*
X0036216D01*
Y0122037D01*
X0034603Y0116238D02*
X0034734D01*
X0034756Y0116195D01*
Y0116151D01*
X0034734Y0116107D01*
X0034603D01*
X0034581Y0116151D01*
Y0116195D01*
X0034668Y0116370D01*
X0034399Y0116238D02*
X0034465Y0116107D01*
X0034290Y0116238D02*
X0034421D01*
X0034465Y0116282D01*
Y0116326D01*
X0034421Y0116370D01*
X0034290D01*
Y0116107D01*
X0034836Y0112203D02*
X0034880Y0112159D01*
X0034967D01*
X0035011Y0112203D01*
Y0112247D01*
X0034924Y0112334D01*
X0035011Y0112422D01*
X0034836D01*
X0034720Y0112159D02*
X0034633D01*
X0034676D02*
Y0112422D01*
X0034633Y0112378D01*
X0034407Y0112290D02*
X0034473Y0112159D01*
X0034298Y0112290D02*
X0034429D01*
X0034473Y0112334D01*
Y0112378D01*
X0034429Y0112422D01*
X0034298D01*
Y0112159D01*
X0034105Y0118554D02*
Y0118685D01*
X0034149Y0118707D01*
X0034193D01*
X0034237Y0118685D01*
Y0118554D01*
X0034193Y0118532D01*
X0034149D01*
X0033974Y0118620D01*
X0034237Y0118416D02*
Y0118329D01*
Y0118372D02*
X0033974D01*
X0034018Y0118329D01*
X0034105Y0118103D02*
X0034237Y0118169D01*
X0034105Y0117994D02*
Y0118125D01*
X0034062Y0118169D01*
X0034018D01*
X0033974Y0118125D01*
Y0117994D01*
X0034237D01*
X0034641Y0115527D02*
X0034772Y0115790D01*
X0034597D01*
X0034415Y0115658D02*
X0034481Y0115527D01*
X0034306Y0115658D02*
X0034437D01*
X0034481Y0115702D01*
Y0115746D01*
X0034437Y0115790D01*
X0034306D01*
Y0115527D01*
X0034892Y0109031D02*
X0034936Y0108987D01*
X0035023D01*
X0035067Y0109031D01*
Y0109075D01*
X0034980Y0109162D01*
X0035067Y0109250D01*
X0034892D01*
X0034776Y0108987D02*
X0034601D01*
X0034776Y0109162D01*
Y0109206D01*
X0034754Y0109250D01*
X0034623D01*
X0034601Y0109206D01*
X0034419Y0109118D02*
X0034485Y0108987D01*
X0034310Y0109118D02*
X0034441D01*
X0034485Y0109162D01*
Y0109206D01*
X0034441Y0109250D01*
X0034310D01*
Y0108987D01*
X0034959Y0113363D02*
X0034872D01*
X0034916D02*
Y0113626D01*
X0034872Y0113582D01*
X0034712Y0113363D02*
X0034625D01*
X0034668D02*
Y0113626D01*
X0034625Y0113582D01*
X0034399Y0113494D02*
X0034465Y0113363D01*
X0034290Y0113494D02*
X0034421D01*
X0034465Y0113538D01*
Y0113582D01*
X0034421Y0113626D01*
X0034290D01*
Y0113363D01*
X0028061Y0112240D02*
X0028105Y0112196D01*
X0028193D01*
X0028236Y0112240D01*
Y0112284D01*
X0028149Y0112371D01*
X0028236Y0112458D01*
X0028061D01*
X0027945D02*
Y0112240D01*
X0027923Y0112196D01*
X0027792D01*
X0027770Y0112240D01*
Y0112458D01*
X0024124Y0108693D02*
X0024037D01*
X0024080D02*
Y0108955D01*
X0024037Y0108912D01*
X0032513Y0109175D02*
X0032557Y0109197D01*
Y0109328D01*
X0032513Y0109350D01*
X0032426D01*
X0032382Y0109306D01*
Y0109175D01*
X0032295D01*
Y0109350D01*
X0032469Y0109059D02*
Y0108884D01*
X0032295Y0108971D01*
Y0109015D01*
X0032557D01*
X0031860Y0117206D02*
X0031991D01*
X0032013Y0117162D01*
Y0117118D01*
X0031991Y0117075D01*
X0031860D01*
X0031838Y0117118D01*
Y0117162D01*
X0031925Y0117337D01*
X0032151Y0117206D02*
X0032129Y0117162D01*
Y0117118D01*
X0032151Y0117075D01*
X0032282D01*
X0032304Y0117118D01*
Y0117162D01*
X0032282Y0117206D01*
X0032151D01*
X0032129Y0117249D01*
Y0117293D01*
X0032151Y0117337D01*
X0032282D01*
X0032304Y0117293D01*
Y0117249D01*
X0032282Y0117206D01*
X0023957Y0116371D02*
X0023913Y0116328D01*
Y0116240D01*
X0023957Y0116196D01*
X0024000D01*
X0024088Y0116284D01*
X0024175Y0116196D01*
Y0116371D01*
X0023957Y0116662D02*
X0023913Y0116619D01*
Y0116531D01*
X0023957Y0116487D01*
X0024000D01*
X0024088Y0116575D01*
X0024175Y0116487D01*
Y0116662D01*
X0023913Y0116779D02*
Y0116866D01*
Y0116822D02*
X0024175D01*
X0024132Y0116866D01*
X0038964Y0118699D02*
X0038789D01*
X0038964Y0118874D01*
Y0118918D01*
X0038942Y0118962D01*
X0038811D01*
X0038789Y0118918D01*
X0038520Y0118787D02*
Y0118743D01*
X0038542Y0118699D01*
X0038630D01*
X0038651Y0118743D01*
Y0118962D01*
X0038673D02*
X0038586D01*
X0036710Y0103087D02*
X0036623D01*
X0036666D02*
Y0103350D01*
X0036623Y0103306D01*
X0036463Y0103350D02*
Y0103131D01*
X0036441Y0103087D01*
X0036310D01*
X0036288Y0103131D01*
Y0103350D01*
X0021571Y0111678D02*
Y0111503D01*
X0021396Y0111678D01*
X0021352D01*
X0021308Y0111656D01*
Y0111525D01*
X0021352Y0111503D01*
X0021439Y0111321D02*
X0021571Y0111387D01*
X0021439Y0111212D02*
Y0111343D01*
X0021396Y0111387D01*
X0021352D01*
X0021308Y0111343D01*
Y0111212D01*
X0021571D01*
X0036609Y0118686D02*
Y0118817D01*
X0036653Y0118839D01*
X0036697D01*
X0036741Y0118817D01*
Y0118686D01*
X0036697Y0118664D01*
X0036653D01*
X0036478Y0118752D01*
X0036741Y0118548D02*
Y0118373D01*
X0036566Y0118548D01*
X0036522D01*
X0036478Y0118526D01*
Y0118395D01*
X0036522Y0118373D01*
X0036609Y0118191D02*
X0036741Y0118257D01*
X0036609Y0118082D02*
Y0118213D01*
X0036566Y0118257D01*
X0036522D01*
X0036478Y0118213D01*
Y0118082D01*
X0036741D01*
X0037600Y0116931D02*
Y0116844D01*
Y0116888D02*
X0037337D01*
X0037381Y0116844D01*
X0037600Y0116684D02*
Y0116509D01*
X0037425Y0116684D01*
X0037381D01*
X0037337Y0116662D01*
Y0116531D01*
X0037381Y0116509D01*
X0037512Y0116240D02*
X0037556D01*
X0037600Y0116262D01*
Y0116349D01*
X0037556Y0116371D01*
X0037337D01*
Y0116393D02*
Y0116305D01*
X0034738Y0114598D02*
X0034607D01*
X0034585Y0114642D01*
Y0114686D01*
X0034607Y0114730D01*
X0034738D01*
X0034760Y0114686D01*
Y0114642D01*
X0034672Y0114467D01*
X0034403Y0114598D02*
X0034469Y0114467D01*
X0034294Y0114598D02*
X0034425D01*
X0034469Y0114642D01*
Y0114686D01*
X0034425Y0114730D01*
X0034294D01*
Y0114467D01*
X0035007Y0112771D02*
X0034832D01*
X0035007Y0112946D01*
Y0112990D01*
X0034985Y0113034D01*
X0034854D01*
X0034832Y0112990D01*
X0034716Y0112771D02*
X0034629D01*
X0034672D02*
Y0113034D01*
X0034629Y0112990D01*
X0034403Y0112902D02*
X0034469Y0112771D01*
X0034294Y0112902D02*
X0034425D01*
X0034469Y0112946D01*
Y0112990D01*
X0034425Y0113034D01*
X0034294D01*
Y0112771D01*
X0035186Y0102197D02*
X0035011D01*
X0035099Y0102372D01*
X0035143D01*
Y0102109D01*
X0034742D02*
Y0102372D01*
X0034720Y0102109D02*
X0034851D01*
X0034895Y0102197D01*
Y0102284D01*
X0034851Y0102372D01*
X0034720D01*
X0035145Y0103103D02*
X0034970D01*
X0035145Y0103278D01*
Y0103321D01*
X0035123Y0103365D01*
X0034992D01*
X0034970Y0103321D01*
X0034854Y0103365D02*
Y0103146D01*
X0034832Y0103103D01*
X0034701D01*
X0034679Y0103146D01*
Y0103365D01*
X0036635Y0122657D02*
X0036679Y0122613D01*
X0036766D01*
X0036810Y0122657D01*
Y0122701D01*
X0036722Y0122788D01*
X0036810Y0122876D01*
X0036635D01*
X0036366Y0122613D02*
Y0122876D01*
X0036344Y0122613D02*
X0036475D01*
X0036519Y0122701D01*
Y0122788D01*
X0036475Y0122876D01*
X0036344D01*
X0021523Y0110919D02*
X0021567Y0110963D01*
Y0111050D01*
X0021523Y0111094D01*
X0021479D01*
X0021392Y0111006D01*
X0021304Y0111094D01*
Y0110919D01*
X0021435Y0110737D02*
X0021567Y0110803D01*
X0021435Y0110628D02*
Y0110759D01*
X0021392Y0110803D01*
X0021348D01*
X0021304Y0110759D01*
Y0110628D01*
X0021567D01*
X0035927Y0107144D02*
X0035949Y0107188D01*
Y0107232D01*
X0035927Y0107276D01*
X0035796D01*
X0035774Y0107232D01*
Y0107188D01*
X0035796Y0107144D01*
X0035927D01*
X0035949Y0107101D01*
Y0107057D01*
X0035927Y0107013D01*
X0035796D01*
X0035774Y0107057D01*
Y0107101D01*
X0035796Y0107144D01*
X0035483Y0107057D02*
X0035505Y0107013D01*
X0035636D01*
X0035658Y0107057D01*
Y0107144D01*
X0035614Y0107188D01*
X0035483D01*
Y0107276D01*
X0035658D01*
X0035367Y0107057D02*
X0035345Y0107013D01*
X0035214D01*
X0035192Y0107057D01*
Y0107232D01*
X0035214Y0107276D01*
X0035345D01*
X0035367Y0107232D01*
X0008962Y0122317D02*
X0009006Y0122339D01*
Y0122470D01*
X0008962Y0122492D01*
X0008874D01*
X0008831Y0122448D01*
Y0122317D01*
X0008743D01*
Y0122492D01*
X0008918Y0122048D02*
X0008962D01*
X0009006Y0122070D01*
Y0122157D01*
X0008962Y0122179D01*
X0008743D01*
Y0122201D02*
Y0122113D01*
X0009635Y0124736D02*
X0009766Y0124801D01*
X0009635Y0124626D02*
Y0124758D01*
X0009591Y0124801D01*
X0009548D01*
X0009504Y0124758D01*
Y0124626D01*
X0009766D01*
X0009635Y0124466D02*
Y0124335D01*
X0009766Y0124510D02*
Y0124335D01*
X0009504D01*
Y0124510D01*
Y0124219D02*
X0009723D01*
X0009766Y0124197D01*
X0009635Y0124132D01*
X0009591D02*
X0009635D01*
X0009766Y0124066D01*
X0009723Y0124044D01*
X0009504D01*
X0009766Y0123775D02*
X0009723Y0123753D01*
X0009548D01*
X0009504Y0123775D01*
Y0123906D01*
X0009548Y0123928D01*
X0009723D01*
X0009766Y0123906D01*
Y0123775D01*
X0009635Y0123462D02*
Y0123593D01*
X0009591Y0123637D01*
X0009548D01*
X0009504Y0123593D01*
Y0123462D01*
X0009766D01*
X0036340Y0102249D02*
X0036472D01*
X0036494Y0102205D01*
Y0102161D01*
X0036472Y0102117D01*
X0036340D01*
X0036319Y0102161D01*
Y0102205D01*
X0036406Y0102380D01*
X0036027Y0102161D02*
X0036071Y0102117D01*
X0036159D01*
X0036202Y0102161D01*
Y0102205D01*
X0036115Y0102292D01*
X0036202Y0102380D01*
X0036027D01*
X0035846Y0102249D02*
X0035911Y0102117D01*
X0035736Y0102249D02*
X0035867D01*
X0035911Y0102292D01*
Y0102336D01*
X0035867Y0102380D01*
X0035736D01*
Y0102117D01*
X0034910Y0113907D02*
X0034866Y0113951D01*
X0034844Y0113995D01*
Y0114082D01*
X0034866Y0114126D01*
X0034910Y0114170D01*
X0034954D01*
X0034997Y0114126D01*
X0035019Y0114082D01*
Y0113995D01*
X0034997Y0113951D01*
X0034954Y0113907D01*
X0034910D01*
X0034728D02*
X0034641D01*
X0034684D02*
Y0114170D01*
X0034641Y0114126D01*
X0034415Y0114038D02*
X0034481Y0113907D01*
X0034306Y0114038D02*
X0034437D01*
X0034481Y0114082D01*
Y0114126D01*
X0034437Y0114170D01*
X0034306D01*
Y0113907D01*
X0022302Y0116409D02*
X0022346Y0116365D01*
X0022433D01*
X0022477Y0116409D01*
Y0116453D01*
X0022390Y0116540D01*
X0022477Y0116628D01*
X0022302D01*
X0022011Y0116409D02*
X0022055Y0116365D01*
X0022142D01*
X0022186Y0116409D01*
Y0116453D01*
X0022098Y0116540D01*
X0022186Y0116628D01*
X0022011D01*
X0021895Y0116409D02*
X0021873Y0116365D01*
X0021742D01*
X0021720Y0116409D01*
Y0116584D01*
X0021742Y0116628D01*
X0021873D01*
X0021895Y0116584D01*
X0017867Y0102788D02*
Y0102613D01*
X0017955Y0102700D02*
X0017780D01*
X0019243Y0103102D02*
X0019265Y0103059D01*
X0019396D01*
X0019418Y0103102D01*
Y0103190D01*
X0019374Y0103233D01*
X0019243D01*
Y0103321D01*
X0019418D01*
X0019127Y0103059D02*
X0018952D01*
X0019127Y0103233D01*
Y0103277D01*
X0019105Y0103321D01*
X0018974D01*
X0018952Y0103277D01*
X0018836Y0103102D02*
X0018814Y0103059D01*
X0018683D01*
X0018661Y0103102D01*
Y0103277D01*
X0018683Y0103321D01*
X0018814D01*
X0018836Y0103277D01*
X0017867Y0102788D02*
Y0102613D01*
X0017955Y0102700D02*
X0017780D01*
X0033452Y0124263D02*
X0033474Y0124220D01*
X0033605D01*
X0033627Y0124263D01*
Y0124351D01*
X0033583Y0124395D01*
X0033452D01*
Y0124482D01*
X0033627D01*
X0033161Y0124263D02*
X0033204Y0124220D01*
X0033292D01*
X0033336Y0124263D01*
Y0124307D01*
X0033248Y0124395D01*
X0033336Y0124482D01*
X0033161D01*
X0032979Y0124351D02*
X0033045Y0124220D01*
X0032870Y0124351D02*
X0033001D01*
X0033045Y0124395D01*
Y0124438D01*
X0033001Y0124482D01*
X0032870D01*
Y0124220D01*
X0026630Y0103981D02*
X0026542D01*
X0026586D02*
Y0104244D01*
X0026542Y0104200D01*
X0026295Y0103981D02*
Y0104112D01*
X0026382Y0104244D02*
X0026317Y0104112D01*
X0026273D01*
X0026207Y0104244D01*
X0022563Y0105715D02*
Y0105540D01*
X0022388Y0105627D01*
Y0105671D01*
X0022651D01*
X0022388Y0105424D02*
X0022607D01*
X0022651Y0105402D01*
Y0105271D01*
X0022607Y0105249D01*
X0022388D01*
X0025644Y0105352D02*
Y0105177D01*
X0025469Y0105352D01*
X0025425D01*
X0025381Y0105330D01*
Y0105199D01*
X0025425Y0105177D01*
X0025644Y0104973D02*
X0025512D01*
X0025381Y0105061D02*
X0025512Y0104995D01*
Y0104951D01*
X0025381Y0104886D01*
X0035011Y0110607D02*
X0034924D01*
X0034968D02*
Y0110870D01*
X0034924Y0110826D01*
X0034764Y0110607D02*
X0034589D01*
X0034764Y0110782D01*
Y0110826D01*
X0034742Y0110870D01*
X0034611D01*
X0034589Y0110826D01*
X0034407Y0110738D02*
X0034473Y0110607D01*
X0034298Y0110738D02*
X0034429D01*
X0034473Y0110782D01*
Y0110826D01*
X0034429Y0110870D01*
X0034298D01*
Y0110607D01*
X0038393Y0118031D02*
Y0117856D01*
X0038218Y0117944D01*
Y0117987D01*
X0038481D01*
Y0117740D02*
Y0117653D01*
Y0117696D02*
X0038218D01*
X0038262Y0117653D01*
X0038349Y0117427D02*
X0038481Y0117493D01*
X0038349Y0117318D02*
Y0117449D01*
X0038306Y0117493D01*
X0038262D01*
X0038218Y0117449D01*
Y0117318D01*
X0038481D01*
X0033221Y0121271D02*
X0033243Y0121228D01*
X0033374D01*
X0033396Y0121271D01*
Y0121359D01*
X0033352Y0121403D01*
X0033221D01*
Y0121490D01*
X0033396D01*
X0032951Y0121228D02*
Y0121490D01*
X0032930Y0121228D02*
X0033061D01*
X0033105Y0121315D01*
Y0121403D01*
X0033061Y0121490D01*
X0032930D01*
X0034582Y0124641D02*
X0034626Y0124597D01*
X0034713D01*
X0034757Y0124641D01*
Y0124685D01*
X0034670Y0124772D01*
X0034757Y0124860D01*
X0034582D01*
X0034291Y0124641D02*
X0034313Y0124597D01*
X0034444D01*
X0034466Y0124641D01*
Y0124728D01*
X0034422Y0124772D01*
X0034291D01*
Y0124860D01*
X0034466D01*
X0034175Y0124641D02*
X0034153Y0124597D01*
X0034022D01*
X0034000Y0124641D01*
Y0124816D01*
X0034022Y0124860D01*
X0034153D01*
X0034175Y0124816D01*
X0021569Y0112531D02*
Y0112356D01*
X0021394Y0112531D01*
X0021350D01*
X0021306Y0112509D01*
Y0112378D01*
X0021350Y0112356D01*
X0021525Y0112065D02*
X0021569Y0112109D01*
Y0112196D01*
X0021525Y0112240D01*
X0021481D01*
X0021394Y0112152D01*
X0021306Y0112240D01*
Y0112065D01*
X0021525Y0111949D02*
X0021569Y0111927D01*
Y0111796D01*
X0021525Y0111774D01*
X0021350D01*
X0021306Y0111796D01*
Y0111927D01*
X0021350Y0111949D01*
X0019719Y0107113D02*
X0019632D01*
X0019675D02*
Y0107376D01*
X0019632Y0107332D01*
X0019319Y0107113D02*
Y0107376D01*
X0019297Y0107113D02*
X0019428D01*
X0019472Y0107201D01*
Y0107288D01*
X0019428Y0107376D01*
X0019297D01*
X0034836Y0111699D02*
X0034858Y0111655D01*
X0034989D01*
X0035011Y0111699D01*
Y0111786D01*
X0034967Y0111830D01*
X0034836D01*
Y0111918D01*
X0035011D01*
X0034720Y0111655D02*
X0034633D01*
X0034676D02*
Y0111918D01*
X0034633Y0111874D01*
X0034407Y0111786D02*
X0034473Y0111655D01*
X0034298Y0111786D02*
X0034429D01*
X0034473Y0111830D01*
Y0111874D01*
X0034429Y0111918D01*
X0034298D01*
Y0111655D01*
X0023192Y0120097D02*
X0023148Y0120141D01*
X0023126Y0120185D01*
Y0120272D01*
X0023148Y0120316D01*
X0023192Y0120360D01*
X0023235D01*
X0023279Y0120316D01*
X0023301Y0120272D01*
Y0120185D01*
X0023279Y0120141D01*
X0023235Y0120097D01*
X0023192D01*
X0022835Y0120141D02*
X0022857Y0120097D01*
X0022988D01*
X0023010Y0120141D01*
Y0120228D01*
X0022966Y0120272D01*
X0022835D01*
Y0120360D01*
X0023010D01*
X0022719Y0120141D02*
X0022697Y0120097D01*
X0022566D01*
X0022544Y0120141D01*
Y0120316D01*
X0022566Y0120360D01*
X0022697D01*
X0022719Y0120316D01*
X0035643Y0117580D02*
X0035665Y0117624D01*
Y0117668D01*
X0035643Y0117712D01*
X0035512D01*
X0035490Y0117668D01*
Y0117624D01*
X0035512Y0117580D01*
X0035643D01*
X0035665Y0117537D01*
Y0117493D01*
X0035643Y0117449D01*
X0035512D01*
X0035490Y0117493D01*
Y0117537D01*
X0035512Y0117580D01*
X0035374Y0117449D02*
X0035287D01*
X0035330D02*
Y0117712D01*
X0035287Y0117668D01*
X0035061Y0117580D02*
X0035127Y0117449D01*
X0034952Y0117580D02*
X0035083D01*
X0035127Y0117624D01*
Y0117668D01*
X0035083Y0117712D01*
X0034952D01*
Y0117449D01*
X0022913Y0124461D02*
X0022738D01*
X0022913Y0124636D01*
Y0124680D01*
X0022891Y0124724D01*
X0022760D01*
X0022738Y0124680D01*
X0022447Y0124505D02*
X0022469Y0124461D01*
X0022600D01*
X0022622Y0124505D01*
Y0124592D01*
X0022578Y0124636D01*
X0022447D01*
Y0124724D01*
X0022622D01*
X0022331Y0124505D02*
X0022309Y0124461D01*
X0022178D01*
X0022156Y0124505D01*
Y0124680D01*
X0022178Y0124724D01*
X0022309D01*
X0022331Y0124680D01*
X0034593Y0116703D02*
X0034615Y0116659D01*
X0034746D01*
X0034768Y0116703D01*
Y0116790D01*
X0034724Y0116834D01*
X0034593D01*
Y0116922D01*
X0034768D01*
X0034411Y0116790D02*
X0034477Y0116659D01*
X0034302Y0116790D02*
X0034433D01*
X0034477Y0116834D01*
Y0116878D01*
X0034433Y0116922D01*
X0034302D01*
Y0116659D01*
X0018716Y0107489D02*
X0018672Y0107533D01*
X0018650Y0107577D01*
Y0107664D01*
X0018672Y0107708D01*
X0018716Y0107752D01*
X0018759D01*
X0018803Y0107708D01*
X0018825Y0107664D01*
Y0107577D01*
X0018803Y0107533D01*
X0018759Y0107489D01*
X0018716D01*
X0018534Y0107577D02*
X0018359D01*
X0018446Y0107752D01*
X0018490D01*
Y0107489D01*
X0018243Y0107533D02*
X0018221Y0107489D01*
X0018090D01*
X0018068Y0107533D01*
Y0107708D01*
X0018090Y0107752D01*
X0018221D01*
X0018243Y0107708D01*
X0037547Y0118404D02*
X0037416D01*
X0037394Y0118448D01*
Y0118492D01*
X0037416Y0118536D01*
X0037547D01*
X0037569Y0118492D01*
Y0118448D01*
X0037482Y0118273D01*
X0037278D02*
X0037191D01*
X0037234D02*
Y0118536D01*
X0037191Y0118492D01*
X0036965Y0118404D02*
X0037031Y0118273D01*
X0036856Y0118404D02*
X0036987D01*
X0037031Y0118448D01*
Y0118492D01*
X0036987Y0118536D01*
X0036856D01*
Y0118273D01*
X0036650Y0105885D02*
X0036563D01*
X0036606D02*
Y0106148D01*
X0036563Y0106104D01*
X0036403Y0105929D02*
X0036381Y0105885D01*
X0036250D01*
X0036228Y0105929D01*
Y0106104D01*
X0036250Y0106148D01*
X0036381D01*
X0036403Y0106104D01*
X0034754Y0115102D02*
X0034776Y0115146D01*
Y0115190D01*
X0034754Y0115234D01*
X0034623D01*
X0034601Y0115190D01*
Y0115146D01*
X0034623Y0115102D01*
X0034754D01*
X0034776Y0115059D01*
Y0115015D01*
X0034754Y0114971D01*
X0034623D01*
X0034601Y0115015D01*
Y0115059D01*
X0034623Y0115102D01*
X0034419D02*
X0034485Y0114971D01*
X0034310Y0115102D02*
X0034441D01*
X0034485Y0115146D01*
Y0115190D01*
X0034441Y0115234D01*
X0034310D01*
Y0114971D01*
X0021565Y0110583D02*
Y0110496D01*
Y0110540D02*
X0021302D01*
X0021346Y0110496D01*
X0021521Y0110161D02*
X0021565Y0110205D01*
Y0110292D01*
X0021521Y0110336D01*
X0021477D01*
X0021390Y0110248D01*
X0021302Y0110336D01*
Y0110161D01*
X0021521Y0110045D02*
X0021565Y0110023D01*
Y0109892D01*
X0021521Y0109870D01*
X0021346D01*
X0021302Y0109892D01*
Y0110023D01*
X0021346Y0110045D01*
X0018955Y0104340D02*
Y0104471D01*
X0018999Y0104493D01*
X0019043D01*
X0019087Y0104471D01*
Y0104340D01*
X0019043Y0104318D01*
X0018999D01*
X0018824Y0104406D01*
X0019043Y0104027D02*
X0019087Y0104071D01*
Y0104158D01*
X0019043Y0104202D01*
X0018999D01*
X0018912Y0104114D01*
X0018824Y0104202D01*
Y0104027D01*
X0019043Y0103911D02*
X0019087Y0103889D01*
Y0103758D01*
X0019043Y0103736D01*
X0018868D01*
X0018824Y0103758D01*
Y0103889D01*
X0018868Y0103911D01*
X0022326Y0117533D02*
X0022370Y0117489D01*
X0022457D01*
X0022501Y0117533D01*
Y0117577D01*
X0022414Y0117664D01*
X0022501Y0117752D01*
X0022326D01*
X0022210Y0117489D02*
X0022035D01*
X0022210Y0117664D01*
Y0117708D01*
X0022188Y0117752D01*
X0022057D01*
X0022035Y0117708D01*
X0021919Y0117533D02*
X0021897Y0117489D01*
X0021766D01*
X0021744Y0117533D01*
Y0117708D01*
X0021766Y0117752D01*
X0021897D01*
X0021919Y0117708D01*
X0035063Y0108519D02*
X0034888D01*
X0034976Y0108694D01*
X0035019D01*
Y0108431D01*
X0034772D02*
X0034597D01*
X0034772Y0108606D01*
Y0108650D01*
X0034750Y0108694D01*
X0034619D01*
X0034597Y0108650D01*
X0034415Y0108562D02*
X0034481Y0108431D01*
X0034306Y0108562D02*
X0034437D01*
X0034481Y0108606D01*
Y0108650D01*
X0034437Y0108694D01*
X0034306D01*
Y0108431D01*
X0033138Y0120798D02*
X0033160Y0120842D01*
Y0120886D01*
X0033138Y0120929D01*
X0033007D01*
X0032985Y0120886D01*
Y0120842D01*
X0033007Y0120798D01*
X0033138D01*
X0033160Y0120754D01*
Y0120711D01*
X0033138Y0120667D01*
X0033007D01*
X0032985Y0120711D01*
Y0120754D01*
X0033007Y0120798D01*
X0032869Y0120929D02*
Y0120711D01*
X0032847Y0120667D01*
X0032716D01*
X0032694Y0120711D01*
Y0120929D01*
X0034888Y0109511D02*
X0034910Y0109467D01*
X0035041D01*
X0035063Y0109511D01*
Y0109598D01*
X0035019Y0109642D01*
X0034888D01*
Y0109730D01*
X0035063D01*
X0034772Y0109467D02*
X0034597D01*
X0034772Y0109642D01*
Y0109686D01*
X0034750Y0109730D01*
X0034619D01*
X0034597Y0109686D01*
X0034415Y0109598D02*
X0034481Y0109467D01*
X0034306Y0109598D02*
X0034437D01*
X0034481Y0109642D01*
Y0109686D01*
X0034437Y0109730D01*
X0034306D01*
Y0109467D01*
X0020290Y0108301D02*
X0020421Y0108564D01*
X0020246D01*
X0019955Y0108345D02*
X0019999Y0108301D01*
X0020086D01*
X0020130Y0108345D01*
Y0108389D01*
X0020042Y0108476D01*
X0020130Y0108564D01*
X0019955D01*
X0019839Y0108345D02*
X0019817Y0108301D01*
X0019686D01*
X0019664Y0108345D01*
Y0108520D01*
X0019686Y0108564D01*
X0019817D01*
X0019839Y0108520D01*
X0022485Y0115421D02*
X0022310D01*
X0022485Y0115596D01*
Y0115640D01*
X0022463Y0115684D01*
X0022332D01*
X0022310Y0115640D01*
X0022194Y0115421D02*
X0022019D01*
X0022194Y0115596D01*
Y0115640D01*
X0022172Y0115684D01*
X0022041D01*
X0022019Y0115640D01*
X0021903Y0115465D02*
X0021881Y0115421D01*
X0021750D01*
X0021728Y0115465D01*
Y0115640D01*
X0021750Y0115684D01*
X0021881D01*
X0021903Y0115640D01*
X0022417Y0109097D02*
X0022330D01*
X0022374D02*
Y0109360D01*
X0022330Y0109316D01*
X0022170Y0109097D02*
X0022083D01*
X0022126D02*
Y0109360D01*
X0022083Y0109316D01*
X0021923Y0109141D02*
X0021901Y0109097D01*
X0021770D01*
X0021748Y0109141D01*
Y0109316D01*
X0021770Y0109360D01*
X0021901D01*
X0021923Y0109316D01*
X0020299Y0105216D02*
Y0105041D01*
X0020387Y0105128D02*
X0020212D01*
X0022774Y0104818D02*
Y0104687D01*
X0022731Y0104665D01*
X0022687D01*
X0022643Y0104687D01*
Y0104818D01*
X0022687Y0104840D01*
X0022731D01*
X0022906Y0104753D01*
X0022862Y0104374D02*
X0022906Y0104418D01*
Y0104505D01*
X0022862Y0104549D01*
X0022818D01*
X0022731Y0104462D01*
X0022643Y0104549D01*
Y0104374D01*
X0022862Y0104258D02*
X0022906Y0104236D01*
Y0104105D01*
X0022862Y0104083D01*
X0022687D01*
X0022643Y0104105D01*
Y0104236D01*
X0022687Y0104258D01*
X0020299Y0105216D02*
Y0105041D01*
X0020387Y0105128D02*
X0020212D01*
X0030905Y0120544D02*
X0030949Y0120500D01*
X0031036D01*
X0031080Y0120544D01*
Y0120588D01*
X0030992Y0120675D01*
X0031080Y0120763D01*
X0030905D01*
X0030636Y0120588D02*
Y0120544D01*
X0030658Y0120500D01*
X0030745D01*
X0030767Y0120544D01*
Y0120763D01*
X0030789D02*
X0030701D01*
X0037678Y0123817D02*
X0037722Y0123773D01*
X0037809D01*
X0037853Y0123817D01*
Y0123861D01*
X0037766Y0123948D01*
X0037853Y0124036D01*
X0037678D01*
X0037387Y0123817D02*
X0037431Y0123773D01*
X0037518D01*
X0037562Y0123817D01*
Y0123861D01*
X0037474Y0123948D01*
X0037562Y0124036D01*
X0037387D01*
X0037205Y0123904D02*
X0037271Y0123773D01*
X0037096Y0123904D02*
X0037227D01*
X0037271Y0123948D01*
Y0123992D01*
X0037227Y0124036D01*
X0037096D01*
Y0123773D01*
G54D127*
G01X0029203Y0122740D02*
X0028941Y0122871D01*
Y0122696D01*
Y0122556D02*
X0029159D01*
X0029203Y0122534D01*
Y0122403D01*
X0029159Y0122381D01*
X0028941D01*
G54D128*
G01X0005819Y0116989D02*
Y0117094D01*
X0005854Y0117112D01*
X0005889D01*
X0005924Y0117094D01*
Y0116989D01*
X0005889Y0116972D01*
X0005854D01*
X0005714Y0117042D01*
X0005924Y0116753D02*
X0005714D01*
X0005924Y0116735D02*
Y0116840D01*
X0005854Y0116875D01*
X0005784D01*
X0005714Y0116840D01*
Y0116735D01*
X0008599Y0120292D02*
X0008717Y0120528D01*
X0008559D01*
X0008303Y0120332D02*
X0008323Y0120292D01*
X0008441D01*
X0008461Y0120332D01*
Y0120410D01*
X0008421Y0120450D01*
X0008303D01*
Y0120528D01*
X0008461D01*
X0008146Y0120410D02*
X0008205Y0120292D01*
X0008048Y0120410D02*
X0008166D01*
X0008205Y0120450D01*
Y0120489D01*
X0008166Y0120528D01*
X0008048D01*
Y0120292D01*
X0007379Y0120398D02*
X0007497D01*
X0007517Y0120359D01*
Y0120320D01*
X0007497Y0120280D01*
X0007379D01*
X0007359Y0120320D01*
Y0120359D01*
X0007438Y0120516D01*
X0007103Y0120320D02*
X0007123Y0120280D01*
X0007241D01*
X0007261Y0120320D01*
Y0120398D01*
X0007221Y0120438D01*
X0007103D01*
Y0120516D01*
X0007261D01*
X0006946Y0120398D02*
X0007005Y0120280D01*
X0006848Y0120398D02*
X0006966D01*
X0007005Y0120438D01*
Y0120477D01*
X0006966Y0120516D01*
X0006848D01*
Y0120280D01*
X0005126Y0120524D02*
X0005021D01*
X0005004Y0120559D01*
Y0120594D01*
X0005021Y0120629D01*
X0005126D01*
X0005144Y0120594D01*
Y0120559D01*
X0005074Y0120419D01*
X0004768Y0120454D02*
X0004785Y0120419D01*
X0004890D01*
X0004908Y0120454D01*
Y0120524D01*
X0004873Y0120559D01*
X0004768D01*
Y0120629D01*
X0004908D01*
X0004619Y0120524D02*
X0004671Y0120419D01*
X0004531Y0120524D02*
X0004636D01*
X0004671Y0120559D01*
Y0120594D01*
X0004636Y0120629D01*
X0004531D01*
Y0120419D01*
X0005946Y0120540D02*
X0005964Y0120575D01*
Y0120610D01*
X0005946Y0120645D01*
X0005841D01*
X0005824Y0120610D01*
Y0120575D01*
X0005841Y0120540D01*
X0005946D01*
X0005964Y0120505D01*
Y0120470D01*
X0005946Y0120435D01*
X0005841D01*
X0005824Y0120470D01*
Y0120505D01*
X0005841Y0120540D01*
X0005588Y0120470D02*
X0005605Y0120435D01*
X0005710D01*
X0005728Y0120470D01*
Y0120540D01*
X0005693Y0120575D01*
X0005588D01*
Y0120645D01*
X0005728D01*
X0005439Y0120540D02*
X0005491Y0120435D01*
X0005351Y0120540D02*
X0005456D01*
X0005491Y0120575D01*
Y0120610D01*
X0005456Y0120645D01*
X0005351D01*
Y0120435D01*
X0005110Y0120852D02*
X0005128Y0120887D01*
Y0120922D01*
X0005110Y0120957D01*
X0005005D01*
X0004988Y0120922D01*
Y0120887D01*
X0005005Y0120852D01*
X0005110D01*
X0005128Y0120817D01*
Y0120782D01*
X0005110Y0120747D01*
X0005005D01*
X0004988Y0120782D01*
Y0120817D01*
X0005005Y0120852D01*
X0004892Y0120817D02*
X0004752D01*
X0004822Y0120957D01*
X0004857D01*
Y0120747D01*
X0004603Y0120852D02*
X0004655Y0120747D01*
X0004515Y0120852D02*
X0004620D01*
X0004655Y0120887D01*
Y0120922D01*
X0004620Y0120957D01*
X0004515D01*
Y0120747D01*
X0005037Y0115332D02*
X0005142D01*
X0005160Y0115297D01*
Y0115262D01*
X0005142Y0115227D01*
X0005037D01*
X0005020Y0115262D01*
Y0115297D01*
X0005090Y0115437D01*
X0004924Y0115297D02*
X0004784D01*
X0004854Y0115437D01*
X0004889D01*
Y0115227D01*
X0004635Y0115332D02*
X0004687Y0115227D01*
X0004547Y0115332D02*
X0004652D01*
X0004687Y0115367D01*
Y0115402D01*
X0004652Y0115437D01*
X0004547D01*
Y0115227D01*
X0009901Y0120406D02*
X0009783D01*
X0009763Y0120446D01*
Y0120485D01*
X0009783Y0120524D01*
X0009901D01*
X0009921Y0120485D01*
Y0120446D01*
X0009842Y0120288D01*
X0009665Y0120367D02*
X0009507D01*
X0009586Y0120524D01*
X0009625D01*
Y0120288D01*
X0009350Y0120406D02*
X0009409Y0120288D01*
X0009252Y0120406D02*
X0009370D01*
X0009409Y0120446D01*
Y0120485D01*
X0009370Y0120524D01*
X0009252D01*
Y0120288D01*
X0005920Y0117792D02*
X0005885Y0117757D01*
X0005850Y0117740D01*
X0005780D01*
X0005745Y0117757D01*
X0005710Y0117792D01*
Y0117827D01*
X0005745Y0117862D01*
X0005780Y0117880D01*
X0005850D01*
X0005885Y0117862D01*
X0005920Y0117827D01*
Y0117792D01*
X0005885Y0117504D02*
X0005920Y0117521D01*
Y0117626D01*
X0005885Y0117644D01*
X0005815D01*
X0005780Y0117609D01*
Y0117504D01*
X0005710D01*
Y0117644D01*
X0005815Y0117355D02*
X0005920Y0117407D01*
X0005815Y0117267D02*
Y0117372D01*
X0005780Y0117407D01*
X0005745D01*
X0005710Y0117372D01*
Y0117267D01*
X0005920D01*
X0005867Y0120743D02*
X0005972Y0120953D01*
X0005832D01*
X0005736Y0120813D02*
X0005596D01*
X0005666Y0120953D01*
X0005701D01*
Y0120743D01*
X0005447Y0120848D02*
X0005499Y0120743D01*
X0005359Y0120848D02*
X0005464D01*
X0005499Y0120883D01*
Y0120918D01*
X0005464Y0120953D01*
X0005359D01*
Y0120743D01*
X0005736Y0115254D02*
X0005753Y0115219D01*
X0005858D01*
X0005876Y0115254D01*
Y0115324D01*
X0005841Y0115359D01*
X0005736D01*
Y0115429D01*
X0005876D01*
X0005640Y0115289D02*
X0005500D01*
X0005570Y0115429D01*
X0005605D01*
Y0115219D01*
X0005351Y0115324D02*
X0005403Y0115219D01*
X0005263Y0115324D02*
X0005368D01*
X0005403Y0115359D01*
Y0115394D01*
X0005368Y0115429D01*
X0005263D01*
Y0115219D01*
G54D58*
X0044500Y0124244D03*
X0045000Y0123744D03*
X0044500Y0101956D03*
X0045000Y0101456D03*
X-0001184Y0101956D03*
X-0000684Y0101456D03*
X-0001184Y0124244D03*
X-0000684Y0123744D03*
M02*
