*
G04 Mass Parameters ***
*
G04 Image ***
*
%INC:\CAINPCB\ECB_BF532\BF532_V2\ECB_532_V3.SMT*%
%ICAS*%
%MOIN*%
%IPPOS*%
%ASAXBY*%
G74*%FSLAN2X34Y34*%
*
G04 Aperture Definitions ***
*
%ADD10R,0.0350X0.0300*%
%ADD11R,0.1000X0.0600*%
%ADD12R,0.0300X0.0350*%
%ADD13R,0.0600X0.1370*%
%ADD14R,0.0450X0.0350*%
%ADD15R,0.0320X0.0380*%
%ADD16R,0.0380X0.0320*%
%ADD17R,0.0500X0.0500*%
%ADD18C,0.0930*%
%ADD19C,0.0775*%
%ADD20C,0.0669*%
%ADD21C,0.0550*%
%ADD22R,0.0550X0.0550*%
%ADD23C,0.0433*%
%ADD24C,0.1340*%
%ADD25C,0.0551*%
%ADD26R,0.0394X0.0709*%
%ADD27R,0.0709X0.0669*%
%ADD28R,0.0165X0.0630*%
%ADD29R,0.0709X0.0748*%
%ADD30R,0.0787X0.0787*%
%ADD31R,0.0512X0.0512*%
%ADD32R,0.0531X0.0157*%
%ADD33R,0.0400X0.0500*%
%ADD34R,0.1600X0.0750*%
%ADD35R,0.0236X0.0590*%
%ADD36O,0.0700X0.0110*%
%ADD37R,0.0700X0.0110*%
%ADD38O,0.0110X0.0700*%
%ADD39R,0.0110X0.0700*%
%ADD40R,0.0500X0.0160*%
%ADD41R,0.0100X0.0600*%
%ADD42R,0.1500X0.0450*%
%ADD43R,0.0160X0.0700*%
%ADD44R,0.0866X0.0512*%
%ADD45C,0.0600*%
%ADD46C,0.0236*%
%ADD47C,0.0080*%
%ADD48C,0.0100*%
%ADD49C,0.0079*%
%ADD50C,0.0236*%
%ADD51C,0.0315*%
%ADD52C,0.0157*%
%ADD53C,0.0394*%
%ADD54R,0.0350X0.0300*%
%ADD55R,0.0300X0.0350*%
%ADD56R,0.1000X0.0600*%
%ADD57R,0.0600X0.0600*%
%ADD58R,0.0500X0.0500*%
%ADD59C,0.0930*%
%ADD60C,0.0775*%
%ADD61C,0.0669*%
%ADD62C,0.0550*%
%ADD63R,0.0550X0.0550*%
%ADD64C,0.0433*%
%ADD65C,0.1340*%
%ADD66C,0.0551*%
%ADD67R,0.0787X0.0787*%
%ADD68R,0.0512X0.0512*%
%ADD69R,0.0400X0.0500*%
%ADD70R,0.0197X0.0551*%
%ADD71R,0.0800X0.0250*%
%ADD72C,0.0600*%
%ADD73R,0.0709X0.0787*%
%ADD74C,0.0236*%
%ADD75C,0.0776*%
%ADD76C,0.0750*%
%ADD77R,0.0750X0.0750*%
%ADD78C,0.1400*%
%ADD79C,0.0866*%
%ADD80C,0.0590*%
%ADD81C,0.0650*%
%ADD82C,0.0060*%
%ADD83C,0.0236*%
%ADD84C,0.0236*%
%ADD85C,0.0929*%
%ADD86C,0.1401*%
%ADD87C,0.0752*%
%ADD88R,0.0752X0.0752*%
%ADD89R,0.0400X0.0350*%
%ADD90R,0.1050X0.0650*%
%ADD91R,0.0350X0.0400*%
%ADD92R,0.0650X0.1420*%
%ADD93R,0.0500X0.0400*%
%ADD94R,0.0320X0.0380*%
%ADD95R,0.0380X0.0320*%
%ADD96C,0.0980*%
%ADD97C,0.0827*%
%ADD98C,0.0768*%
%ADD99C,0.0492*%
%ADD100C,0.1390*%
%ADD101R,0.0394X0.0709*%
%ADD102R,0.0709X0.0669*%
%ADD103R,0.0236X0.0669*%
%ADD104R,0.0709X0.0748*%
%ADD105R,0.0905X0.0905*%
%ADD106R,0.0590X0.0590*%
%ADD107R,0.0590X0.0216*%
%ADD108R,0.0450X0.0550*%
%ADD109R,0.1650X0.0800*%
%ADD110R,0.0276X0.0630*%
%ADD111O,0.0700X0.0110*%
%ADD112R,0.0700X0.0110*%
%ADD113O,0.0110X0.0700*%
%ADD114R,0.0110X0.0700*%
%ADD115R,0.0550X0.0210*%
%ADD116R,0.0140X0.0650*%
%ADD117R,0.1550X0.0500*%
%ADD118R,0.0210X0.0750*%
%ADD119R,0.0905X0.0551*%
*
G04 Plot Data ***
*
G54D47*
G01X0028734Y0124802D02*
X0024634D01*
Y0123352D01*
X0024184Y0122902D01*
X0022584D01*
Y0122402D01*
X0024184D02*
X0022584D01*
X0024184D02*
X0024634Y0121952D01*
Y0120502D01*
X0028734D02*
X0024634D01*
X0028734Y0124802D02*
Y0120502D01*
X0028708Y0124802D02*
Y0120502D01*
X0028636Y0124802D02*
Y0120502D01*
X0028564Y0124802D02*
Y0120502D01*
X0028492Y0124802D02*
Y0120502D01*
X0028420Y0124802D02*
Y0120502D01*
X0028348Y0124802D02*
Y0120502D01*
X0028276Y0124802D02*
Y0120502D01*
X0028204Y0124802D02*
Y0120502D01*
X0028132Y0124802D02*
Y0120502D01*
X0028060Y0124802D02*
Y0120502D01*
X0027988Y0124802D02*
Y0120502D01*
X0027916Y0124802D02*
Y0120502D01*
X0027844Y0124802D02*
Y0120502D01*
X0027772Y0124802D02*
Y0120502D01*
X0027700Y0124802D02*
Y0120502D01*
X0027628Y0124802D02*
Y0120502D01*
X0027556Y0124802D02*
Y0120502D01*
X0027484Y0124802D02*
Y0120502D01*
X0027412Y0124802D02*
Y0120502D01*
X0027340Y0124802D02*
Y0120502D01*
X0027268Y0124802D02*
Y0120502D01*
X0027196Y0124802D02*
Y0120502D01*
X0027124Y0124802D02*
Y0120502D01*
X0027052Y0124802D02*
Y0120502D01*
X0026980Y0124802D02*
Y0120502D01*
X0026908Y0124802D02*
Y0120502D01*
X0026836Y0124802D02*
Y0120502D01*
X0026764Y0124802D02*
Y0120502D01*
X0026692Y0124802D02*
Y0120502D01*
X0026620Y0124802D02*
Y0120502D01*
X0026548Y0124802D02*
Y0120502D01*
X0026476Y0124802D02*
Y0120502D01*
X0026404Y0124802D02*
Y0120502D01*
X0026332Y0124802D02*
Y0120502D01*
X0026260Y0124802D02*
Y0120502D01*
X0026188Y0124802D02*
Y0120502D01*
X0026116Y0124802D02*
Y0120502D01*
X0026044Y0124802D02*
Y0120502D01*
X0025972Y0124802D02*
Y0120502D01*
X0025900Y0124802D02*
Y0120502D01*
X0025828Y0124802D02*
Y0120502D01*
X0025756Y0124802D02*
Y0120502D01*
X0025684Y0124802D02*
Y0120502D01*
X0025612Y0124802D02*
Y0120502D01*
X0025540Y0124802D02*
Y0120502D01*
X0025468Y0124802D02*
Y0120502D01*
X0025396Y0124802D02*
Y0120502D01*
X0025324Y0124802D02*
Y0120502D01*
X0025252Y0124802D02*
Y0120502D01*
X0025180Y0124802D02*
Y0120502D01*
X0025108Y0124802D02*
Y0120502D01*
X0025036Y0124802D02*
Y0120502D01*
X0024964Y0124802D02*
Y0120502D01*
X0024892Y0124802D02*
Y0120502D01*
X0024820Y0124802D02*
Y0120502D01*
X0024748Y0124802D02*
Y0120502D01*
X0024676Y0124802D02*
Y0120502D01*
X0024604Y0123322D02*
Y0121982D01*
X0024532Y0123250D02*
Y0122054D01*
X0024460Y0123178D02*
Y0122126D01*
X0024388Y0123106D02*
Y0122198D01*
X0024316Y0123034D02*
Y0122270D01*
X0024244Y0122962D02*
Y0122342D01*
X0024172Y0122902D02*
Y0122402D01*
X0024100Y0122902D02*
Y0122402D01*
X0024028Y0122902D02*
Y0122402D01*
X0023956Y0122902D02*
Y0122402D01*
X0023884Y0122902D02*
Y0122402D01*
X0023812Y0122902D02*
Y0122402D01*
X0023740Y0122902D02*
Y0122402D01*
X0023668Y0122902D02*
Y0122402D01*
X0023596Y0122902D02*
Y0122402D01*
X0023524Y0122902D02*
Y0122402D01*
X0023452Y0122902D02*
Y0122402D01*
X0023380Y0122902D02*
Y0122402D01*
X0023308Y0122902D02*
Y0122402D01*
X0023236Y0122902D02*
Y0122402D01*
X0023164Y0122902D02*
Y0122402D01*
X0023092Y0122902D02*
Y0122402D01*
X0023020Y0122902D02*
Y0122402D01*
X0022948Y0122902D02*
Y0122402D01*
X0022876Y0122902D02*
Y0122402D01*
X0022804Y0122902D02*
Y0122402D01*
X0022732Y0122902D02*
Y0122402D01*
X0022660Y0122902D02*
Y0122402D01*
X0028734Y0124754D02*
X0024634D01*
X0028734Y0124682D02*
X0024634D01*
X0028734Y0124610D02*
X0024634D01*
X0028734Y0124538D02*
X0024634D01*
X0028734Y0124466D02*
X0024634D01*
X0028734Y0124394D02*
X0024634D01*
X0028734Y0124322D02*
X0024634D01*
X0028734Y0124250D02*
X0024634D01*
X0028734Y0124178D02*
X0024634D01*
X0028734Y0124106D02*
X0024634D01*
X0028734Y0124034D02*
X0024634D01*
X0028734Y0123962D02*
X0024634D01*
X0028734Y0123890D02*
X0024634D01*
X0028734Y0123818D02*
X0024634D01*
X0028734Y0123746D02*
X0024634D01*
X0028734Y0123674D02*
X0024634D01*
X0028734Y0123602D02*
X0024634D01*
X0028734Y0123530D02*
X0024634D01*
X0028734Y0123458D02*
X0024634D01*
X0028734Y0123386D02*
X0024634D01*
X0028734Y0123314D02*
X0024596D01*
X0028734Y0123242D02*
X0024524D01*
X0028734Y0123170D02*
X0024452D01*
X0028734Y0123098D02*
X0024380D01*
X0028734Y0123026D02*
X0024308D01*
X0028734Y0122954D02*
X0024236D01*
X0028734Y0122882D02*
X0022584D01*
X0028734Y0122810D02*
X0022584D01*
X0028734Y0122738D02*
X0022584D01*
X0028734Y0122666D02*
X0022584D01*
X0028734Y0122594D02*
X0022584D01*
X0028734Y0122522D02*
X0022584D01*
X0028734Y0122450D02*
X0022584D01*
X0028734Y0122378D02*
X0024208D01*
X0028734Y0122306D02*
X0024280D01*
X0028734Y0122234D02*
X0024352D01*
X0028734Y0122162D02*
X0024424D01*
X0028734Y0122090D02*
X0024496D01*
X0028734Y0122018D02*
X0024568D01*
X0028734Y0121946D02*
X0024634D01*
X0028734Y0121874D02*
X0024634D01*
X0028734Y0121802D02*
X0024634D01*
X0028734Y0121730D02*
X0024634D01*
X0028734Y0121658D02*
X0024634D01*
X0028734Y0121586D02*
X0024634D01*
X0028734Y0121514D02*
X0024634D01*
X0028734Y0121442D02*
X0024634D01*
X0028734Y0121370D02*
X0024634D01*
X0028734Y0121298D02*
X0024634D01*
X0028734Y0121226D02*
X0024634D01*
X0028734Y0121154D02*
X0024634D01*
X0028734Y0121082D02*
X0024634D01*
X0028734Y0121010D02*
X0024634D01*
X0028734Y0120938D02*
X0024634D01*
X0028734Y0120866D02*
X0024634D01*
X0028734Y0120794D02*
X0024634D01*
X0028734Y0120722D02*
X0024634D01*
X0028734Y0120650D02*
X0024634D01*
X0028734Y0120578D02*
X0024634D01*
G54D58*
X0044500Y0124244D03*
X0045000Y0123744D03*
X0044500Y0101956D03*
X0045000Y0101456D03*
X-0001184Y0101956D03*
X-0000684Y0101456D03*
X-0001184Y0124244D03*
X-0000684Y0123744D03*
G54D62*
X0007616Y0113080D03*
Y0114080D03*
X0038744Y0121964D03*
Y0122964D03*
Y0123964D03*
X0037660Y0119660D03*
X0036660D03*
X0035660D03*
X0034660D03*
X0033660D03*
X0032660D03*
G54D63*
X0007616Y0112080D03*
X0038744Y0120964D03*
X0038660Y0119660D03*
G54D66*
X0009972Y0110372D03*
Y0108230D03*
X0007421Y0110372D03*
Y0108230D03*
X0007610Y0109301D03*
X0008397D03*
X0009185D03*
X0009972D03*
G54D81*
X0024220Y0104056D03*
Y0105976D03*
G54D89*
X0008685Y0120892D03*
X0008035D03*
X0006823Y0120884D03*
X0007473D03*
X0008483Y0113080D03*
X0009133D03*
X0008483Y0114076D03*
X0009133D03*
X0008479Y0112076D03*
X0009129D03*
X0005489Y0117516D03*
X0004839D03*
X0009889Y0120896D03*
X0009239D03*
X0034733Y0105932D03*
X0034083D03*
X0017409Y0107976D03*
X0016759D03*
X0037821Y0122148D03*
X0037171D03*
X0037167Y0123356D03*
X0037817D03*
X0035949Y0109632D03*
X0035299D03*
X0035953Y0108544D03*
X0035303D03*
X0036553Y0109092D03*
X0035903D03*
X0036557Y0110180D03*
X0035907D03*
X0035949Y0110724D03*
X0035299D03*
X0036541Y0111264D03*
X0035891D03*
X0035945Y0111804D03*
X0035295D03*
X0036545Y0112340D03*
X0035895D03*
X0035933Y0112888D03*
X0035283D03*
X0036541Y0113436D03*
X0035891D03*
X0035945Y0113972D03*
X0035295D03*
X0036553Y0114516D03*
X0035903D03*
X0035953Y0115056D03*
X0035303D03*
X0036561Y0115588D03*
X0035911D03*
X0035957Y0116128D03*
X0035307D03*
X0036565Y0116672D03*
X0035915D03*
X0021779Y0110872D03*
X0022429D03*
X0021779Y0111464D03*
X0022429D03*
X0004839Y0116924D03*
X0005489D03*
X0037171Y0122744D03*
X0037821D03*
X0035267Y0106584D03*
X0035917D03*
X0034621Y0124148D03*
X0033971D03*
X0023877Y0124580D03*
X0023227D03*
X0023237Y0120796D03*
X0022587D03*
X0018107Y0108180D03*
X0018757D03*
X0020345Y0107880D03*
X0019695D03*
X0022413Y0115972D03*
X0021763D03*
X0022449Y0112036D03*
X0021799D03*
X0022437Y0110328D03*
X0021787D03*
X0022445Y0117052D03*
X0021795D03*
X0022457Y0114972D03*
X0021807D03*
X0022449Y0109720D03*
X0021799D03*
X0022445Y0112640D03*
X0021795D03*
X0035263Y0106028D03*
X0035913D03*
G54D90*
X0020590Y0104488D03*
X0022090D03*
X0021154Y0107884D03*
X0022654D03*
X0018158Y0102060D03*
X0019658D03*
G54D91*
X0004864Y0118737D03*
Y0118087D03*
X0005456Y0118729D03*
Y0118079D03*
X0004856Y0119937D03*
Y0119287D03*
X0005456Y0119933D03*
Y0119283D03*
X0004872Y0115699D03*
Y0116349D03*
X0005472Y0115699D03*
Y0116349D03*
X0036000Y0118721D03*
Y0118071D03*
X0037224Y0117331D03*
Y0117981D03*
X0035260Y0118067D03*
Y0118717D03*
X0033612Y0118055D03*
Y0118705D03*
X0034660Y0118067D03*
Y0118717D03*
X0037796Y0117977D03*
Y0117327D03*
X0019556Y0103839D03*
Y0104489D03*
G54D92*
X0031504Y0121576D03*
Y0123776D03*
G54D93*
X0019504Y0106810D03*
Y0105470D03*
G54D94*
X0036416Y0101680D03*
X0035856D03*
X0035200D03*
X0034640D03*
G54D95*
X0033208Y0123632D03*
Y0123072D03*
X0033204Y0122460D03*
Y0121900D03*
G54D96*
X0014236Y0102362D03*
X0038382Y0102360D03*
X0014248Y0123092D03*
X0037516Y0121068D03*
G54D97*
X0037888Y0103988D03*
Y0106744D03*
G54D98*
X0038872Y0104480D03*
Y0106251D03*
G54D99*
X0038860Y0111820D03*
X0038073D03*
X0038860Y0111033D03*
X0038073D03*
X0038860Y0110245D03*
X0038073D03*
X0038860Y0109458D03*
X0038073D03*
X0038860Y0108670D03*
X0038073D03*
X0038860Y0107883D03*
X0038073D03*
X0038856Y0116544D03*
X0038069D03*
X0038856Y0115757D03*
X0038069D03*
X0038856Y0114969D03*
X0038069D03*
X0038856Y0114182D03*
X0038069D03*
X0038856Y0113394D03*
X0038069D03*
X0038856Y0112607D03*
X0038069D03*
X0014288Y0120304D03*
X0013501D03*
X0014288Y0119517D03*
X0013501D03*
X0014288Y0118729D03*
X0013501D03*
X0014288Y0117942D03*
X0013501D03*
X0014288Y0117154D03*
X0013501D03*
X0014288Y0116367D03*
X0013501D03*
X0014288Y0115580D03*
X0013501D03*
X0014288Y0114792D03*
X0013501D03*
X0014288Y0114005D03*
X0013501D03*
X0014288Y0113217D03*
X0013501D03*
X0014288Y0112430D03*
X0013501D03*
X0014288Y0111642D03*
X0013501D03*
X0014288Y0110855D03*
X0013501D03*
X0014288Y0110068D03*
X0013501D03*
X0014288Y0109280D03*
X0013501D03*
X0014288Y0108493D03*
X0013501D03*
X0014288Y0107705D03*
X0013501D03*
X0014288Y0106918D03*
X0013501D03*
X0014288Y0106131D03*
X0013501D03*
X0014288Y0105343D03*
X0013501D03*
X0014288Y0104556D03*
X0013501D03*
X0033548Y0101248D03*
Y0102035D03*
X0032761Y0101248D03*
Y0102035D03*
X0031973Y0101248D03*
Y0102035D03*
X0031186Y0101248D03*
Y0102035D03*
X0030398Y0101248D03*
Y0102035D03*
X0029611Y0101248D03*
Y0102035D03*
X0028824Y0101248D03*
Y0102035D03*
X0028036Y0101248D03*
Y0102035D03*
X0027249Y0101248D03*
Y0102035D03*
X0026461Y0101248D03*
Y0102035D03*
X0025674Y0101248D03*
Y0102035D03*
X0024886Y0101248D03*
Y0102035D03*
X0024099Y0101248D03*
Y0102035D03*
X0031788Y0119200D03*
Y0119987D03*
X0031012Y0119200D03*
Y0119987D03*
G54D100*
X0006036Y0123492D03*
X0008536D03*
X0007536Y0121992D03*
G54D101*
X0004894Y0102846D03*
G54D102*
X0010760Y0101212D03*
Y0106999D03*
X0005209Y0101212D03*
G54D103*
X0010012D03*
X0009697D03*
X0009382D03*
X0009067D03*
X0008752D03*
X0010012Y0106999D03*
X0009697D03*
X0009382D03*
X0009067D03*
X0008752D03*
G54D104*
X0005209Y0106960D03*
G54D105*
X0005150Y0114565D03*
Y0111731D03*
G54D106*
X0006397Y0114103D03*
Y0112193D03*
G54D107*
X0006200Y0113660D03*
Y0113404D03*
Y0113148D03*
Y0112892D03*
Y0112636D03*
G54D108*
X0010794Y0113840D03*
X0009934D03*
G54D109*
X0017776Y0106811D03*
Y0104061D03*
G54D110*
X0034523Y0105181D03*
X0034897D03*
X0035271D03*
Y0103999D03*
X0034897D03*
X0034523D03*
X0036032Y0105173D03*
X0036406D03*
X0036780D03*
Y0103992D03*
X0036406D03*
X0036032D03*
G54D111*
X0010828Y0116353D03*
Y0116550D03*
Y0116747D03*
Y0116944D03*
Y0117141D03*
Y0117338D03*
Y0117535D03*
Y0117732D03*
Y0118126D03*
Y0118323D03*
Y0118520D03*
Y0118717D03*
Y0118914D03*
Y0119111D03*
X0006313D03*
Y0118914D03*
Y0118717D03*
Y0118520D03*
Y0118323D03*
Y0118126D03*
Y0117929D03*
Y0117535D03*
Y0117338D03*
Y0117141D03*
Y0116944D03*
Y0116747D03*
Y0116550D03*
Y0116353D03*
Y0116156D03*
X0033251Y0108780D03*
Y0108977D03*
Y0109174D03*
Y0109371D03*
Y0109568D03*
Y0109962D03*
Y0110159D03*
Y0110356D03*
Y0110553D03*
Y0110750D03*
Y0110947D03*
Y0111144D03*
Y0111341D03*
Y0111538D03*
Y0111932D03*
Y0112129D03*
Y0112326D03*
Y0112523D03*
Y0112720D03*
Y0112917D03*
Y0113114D03*
Y0113311D03*
Y0113508D03*
Y0113902D03*
Y0114099D03*
Y0114296D03*
Y0114493D03*
Y0114690D03*
Y0114887D03*
Y0115084D03*
Y0115281D03*
Y0115478D03*
Y0115872D03*
Y0116069D03*
Y0116266D03*
Y0116463D03*
Y0116660D03*
Y0116857D03*
Y0117054D03*
Y0117251D03*
X0023220D03*
Y0117054D03*
Y0116857D03*
Y0116660D03*
Y0116463D03*
Y0116266D03*
Y0116069D03*
Y0115675D03*
Y0115478D03*
Y0115281D03*
Y0115084D03*
Y0114887D03*
Y0114690D03*
Y0114493D03*
Y0114296D03*
Y0114099D03*
Y0113705D03*
Y0113508D03*
Y0113311D03*
Y0113114D03*
Y0112917D03*
Y0112720D03*
Y0112523D03*
Y0112326D03*
Y0112129D03*
Y0111735D03*
Y0111538D03*
Y0111341D03*
Y0111144D03*
Y0110947D03*
Y0110750D03*
Y0110553D03*
Y0110356D03*
Y0110159D03*
Y0109765D03*
Y0109568D03*
Y0109371D03*
Y0109174D03*
Y0108977D03*
Y0108780D03*
G54D112*
X0010828Y0116156D03*
Y0117929D03*
X0006313Y0117732D03*
X0033251Y0109765D03*
Y0111735D03*
Y0113705D03*
Y0115675D03*
X0023220Y0115872D03*
Y0113902D03*
Y0111932D03*
Y0109962D03*
G54D113*
X0010048Y0119891D03*
X0009851D03*
X0009654D03*
X0009260D03*
X0009063D03*
X0008866D03*
X0008669D03*
X0008472D03*
X0008275D03*
X0008078D03*
X0007881D03*
X0007684D03*
X0007290D03*
X0007093D03*
Y0115376D03*
X0007487D03*
X0007684D03*
X0007881D03*
X0008078D03*
X0008275D03*
X0008472D03*
X0008669D03*
X0008866D03*
X0009063D03*
X0009457D03*
X0009654D03*
X0009851D03*
X0010048D03*
X0024197Y0108000D03*
X0024394D03*
X0024591D03*
X0024788D03*
X0024985D03*
X0025182D03*
X0025379D03*
X0025576D03*
X0025970D03*
X0026167D03*
X0026364D03*
X0026561D03*
X0026758D03*
X0026955D03*
X0027152D03*
X0027349D03*
X0027546D03*
X0027940D03*
X0028137D03*
X0028334D03*
X0028531D03*
X0028728D03*
X0028925D03*
X0029122D03*
X0029319D03*
X0029516D03*
X0029910D03*
X0030107D03*
X0030304D03*
X0030501D03*
X0030698D03*
X0030895D03*
X0031092D03*
X0031289D03*
X0031486D03*
X0031880D03*
X0032077D03*
X0032274D03*
X0032471D03*
Y0118031D03*
X0032077D03*
X0031880D03*
X0031683D03*
X0031486D03*
X0031289D03*
X0031092D03*
X0030895D03*
X0030698D03*
X0030501D03*
X0030107D03*
X0029910D03*
X0029713D03*
X0029516D03*
X0029319D03*
X0029122D03*
X0028925D03*
X0028728D03*
X0028531D03*
X0028137D03*
X0027940D03*
X0027743D03*
X0027546D03*
X0027349D03*
X0027152D03*
X0026955D03*
X0026758D03*
X0026561D03*
X0026167D03*
X0025970D03*
X0025773D03*
X0025576D03*
X0025379D03*
X0025182D03*
X0024985D03*
X0024788D03*
X0024591D03*
X0024197D03*
X0024000D03*
G54D114*
X0009457Y0119891D03*
X0007487D03*
X0007290Y0115376D03*
X0009260D03*
X0024000Y0108000D03*
X0025773D03*
X0027743D03*
X0029713D03*
X0031683D03*
X0032274Y0118031D03*
X0030304D03*
X0028334D03*
X0026364D03*
X0024394D03*
G54D115*
X0022246Y0105857D03*
Y0106113D03*
Y0106368D03*
Y0106624D03*
X0020346D03*
Y0106368D03*
Y0106113D03*
Y0105857D03*
G54D116*
X0016598Y0109058D03*
X0016795D03*
X0016992D03*
X0017188D03*
X0017385D03*
X0017582D03*
X0017779D03*
X0017976D03*
X0018173D03*
X0018369D03*
X0018566D03*
X0018763D03*
X0018960D03*
X0019157D03*
X0019354D03*
X0019550D03*
X0019747D03*
X0019944D03*
X0020141D03*
X0020338D03*
X0020535D03*
X0020731D03*
X0020928D03*
X0021125D03*
Y0116758D03*
X0020928D03*
X0020731D03*
X0020535D03*
X0020338D03*
X0020141D03*
X0019944D03*
X0019747D03*
X0019550D03*
X0019354D03*
X0019157D03*
X0018960D03*
X0018763D03*
X0018566D03*
X0018369D03*
X0018173D03*
X0017976D03*
X0017779D03*
X0017582D03*
X0017385D03*
X0017188D03*
X0016992D03*
X0016795D03*
X0016598D03*
G54D117*
X0023284Y0123652D03*
Y0122652D03*
Y0121652D03*
G54D118*
X0033741Y0120874D03*
X0033996D03*
X0034252D03*
X0034508D03*
X0034764D03*
X0035020D03*
X0035275D03*
X0035531D03*
X0035788D03*
X0036043D03*
Y0123214D03*
X0035788D03*
X0035531D03*
X0035275D03*
X0035020D03*
X0034764D03*
X0034508D03*
X0034252D03*
X0033996D03*
X0033741D03*
G54D119*
X0026408Y0104628D03*
Y0106281D03*
M02*
