*
G04 Mass Parameters ***
*
G04 Image ***
*
%INC:\CAINPCB\ECB_BF532\BF532_V2\ECB_532_V3.BOT*%
%ICAS*%
%MOIN*%
%IPPOS*%
%ASAXBY*%
G74*%FSLAN2X34Y34*%
*
G04 Aperture Definitions ***
*
%ADD10R,0.0350X0.0300*%
%ADD11R,0.1000X0.0600*%
%ADD12R,0.0300X0.0350*%
%ADD13R,0.0600X0.1370*%
%ADD14R,0.0450X0.0350*%
%ADD15R,0.0320X0.0380*%
%ADD16R,0.0380X0.0320*%
%ADD17R,0.0500X0.0500*%
%ADD18C,0.0930*%
%ADD19C,0.0775*%
%ADD20C,0.0669*%
%ADD21C,0.0550*%
%ADD22R,0.0550X0.0550*%
%ADD23C,0.0433*%
%ADD24C,0.1340*%
%ADD25C,0.0551*%
%ADD26R,0.0394X0.0709*%
%ADD27R,0.0709X0.0669*%
%ADD28R,0.0165X0.0630*%
%ADD29R,0.0709X0.0748*%
%ADD30R,0.0787X0.0787*%
%ADD31R,0.0512X0.0512*%
%ADD32R,0.0531X0.0157*%
%ADD33R,0.0400X0.0500*%
%ADD34R,0.1600X0.0750*%
%ADD35R,0.0236X0.0590*%
%ADD36O,0.0700X0.0110*%
%ADD37R,0.0700X0.0110*%
%ADD38O,0.0110X0.0700*%
%ADD39R,0.0110X0.0700*%
%ADD40R,0.0500X0.0160*%
%ADD41R,0.0100X0.0600*%
%ADD42R,0.1500X0.0450*%
%ADD43R,0.0160X0.0700*%
%ADD44R,0.0866X0.0512*%
%ADD45C,0.0600*%
%ADD46C,0.0236*%
%ADD47C,0.0080*%
%ADD48C,0.0100*%
%ADD49C,0.0079*%
%ADD50C,0.0236*%
%ADD51C,0.0315*%
%ADD52C,0.0157*%
%ADD53C,0.0394*%
%ADD54R,0.0350X0.0300*%
%ADD55R,0.0300X0.0350*%
%ADD56R,0.1000X0.0600*%
%ADD57R,0.0600X0.0600*%
%ADD58R,0.0500X0.0500*%
%ADD59C,0.0930*%
%ADD60C,0.0775*%
%ADD61C,0.0669*%
%ADD62C,0.0550*%
%ADD63R,0.0550X0.0550*%
%ADD64C,0.0433*%
%ADD65C,0.1340*%
%ADD66C,0.0551*%
%ADD67R,0.0787X0.0787*%
%ADD68R,0.0512X0.0512*%
%ADD69R,0.0400X0.0500*%
%ADD70R,0.0197X0.0551*%
%ADD71R,0.0800X0.0250*%
%ADD72C,0.0600*%
%ADD73R,0.0709X0.0787*%
%ADD74C,0.0236*%
*
G04 Plot Data ***
*
G54D47*
G01X0031186Y0101248D02*
X0031372D01*
X0031788Y0101664D01*
X0032164D01*
X0032320Y0101820D01*
Y0102540D01*
X0032144Y0102716D01*
X0023712D01*
X0023152Y0102156D01*
X0021464D01*
X0020620Y0101312D01*
X0012168D01*
X0009944Y0103536D01*
X0023852Y0112188D02*
X0023392Y0112648D01*
X0022328D01*
X0021956Y0112276D01*
X0018660D01*
X0014460Y0108076D01*
X0012936D01*
X0011936Y0109076D01*
Y0114296D01*
X0011220Y0115012D01*
X0010524D01*
X0009952Y0115584D01*
Y0116112D01*
X0009068Y0116996D01*
Y0118168D01*
X0009056Y0118180D01*
X0023204Y0101372D02*
Y0101364D01*
X0023680Y0100888D01*
X0027912D01*
X0028036Y0101012D01*
Y0101248D01*
X0015212Y0112260D02*
X0015396D01*
X0021160Y0118024D01*
X0024712D01*
X0025252Y0117484D01*
X0017464Y0108284D02*
X0017480Y0108268D01*
X0019260D01*
X0019579Y0108587D01*
X0023141D01*
X0023796Y0107932D01*
X0029884D01*
X0030656Y0108704D01*
X0028036Y0101248D02*
X0028396Y0100888D01*
X0033812D01*
X0034256Y0101332D01*
Y0101676D01*
X0012680Y0111148D02*
X0012504Y0111324D01*
Y0115144D01*
X0011880Y0115768D01*
X0011712D01*
X0036726Y0106930D02*
X0036724Y0106928D01*
X0036492D01*
X0036267Y0107153D01*
Y0107916D01*
X0005693Y0110320D02*
X0005697Y0110316D01*
Y0109712D01*
X0005209Y0106115D02*
Y0105526D01*
X0005211Y0105524D01*
X0009185Y0109301D02*
X0008715Y0108832D01*
X0006440D02*
X0006168Y0109104D01*
X0005701D01*
X0026200Y0104040D02*
X0029644D01*
X0032004Y0106400D01*
Y0108840D01*
X0031996Y0108848D01*
X0005593Y0112768D02*
Y0112717D01*
X0005428Y0112552D01*
X0034742Y0106930D02*
Y0107918D01*
X0034396Y0108264D01*
X0034388D01*
X0008752Y0106384D02*
Y0105597D01*
X0008753Y0105596D01*
X0014288Y0106918D02*
X0014294D01*
X0015680Y0108304D01*
Y0108308D01*
X0018604Y0111232D01*
X0020912D01*
X0021328Y0111648D01*
X0023776D01*
X0023900Y0111772D01*
X0036726Y0106930D02*
X0036130D01*
X0010744Y0123709D02*
X0010808D01*
X0010820Y0123697D01*
X0010465D01*
X0010016Y0123248D01*
Y0122525D01*
X0009848Y0122357D01*
X0025184Y0118556D02*
X0024856Y0118228D01*
X0021084D01*
X0015418Y0112564D01*
X0014420D01*
X0014288Y0112430D01*
Y0113217D02*
X0014295Y0113224D01*
X0015800D01*
X0021380Y0118804D01*
X0025388D01*
X0025560Y0118632D01*
Y0117516D01*
X0025652Y0117424D01*
X0007892Y0116684D02*
Y0116673D01*
X0008257Y0116308D01*
X0007076Y0117208D02*
Y0117228D01*
X0007124Y0117276D01*
X0007216D01*
X0008164Y0118224D01*
Y0121144D01*
X0008727Y0121707D01*
X0009848D01*
X0011421Y0109036D02*
X0011240D01*
X0011096Y0109180D01*
Y0114268D01*
X0010884Y0114480D01*
X0007588D01*
X0006952Y0115116D01*
Y0116156D01*
X0006908Y0116200D01*
X0010771Y0109036D02*
X0010587Y0108852D01*
X0009584D01*
X0009185Y0109251D01*
Y0109301D01*
X0007607Y0116308D02*
X0007676Y0116239D01*
Y0116024D01*
X0031652Y0108668D02*
X0031820Y0108500D01*
Y0106524D01*
X0030024Y0104728D01*
X0027888D01*
X0027884Y0104724D01*
X0031973Y0102035D02*
X0031775D01*
X0031412Y0101672D01*
X0021284D01*
X0020748Y0101136D01*
X0010052D01*
X0009380Y0101808D01*
X0017464Y0108284D02*
X0017463Y0108283D01*
Y0107592D01*
X0008397Y0109301D02*
X0008876Y0109780D01*
X0010639D01*
X0010767Y0109652D01*
X0005697Y0109712D02*
X0007986D01*
X0008397Y0109301D01*
X0011417Y0109652D02*
Y0114231D01*
X0010996Y0114652D01*
X0010344D01*
X0009596Y0115400D01*
Y0115896D01*
X0008564Y0116928D01*
X0007080D01*
X0006888Y0116736D01*
X0025944Y0118632D02*
Y0118772D01*
X0025752Y0118964D01*
X0021312D01*
X0015956Y0113608D01*
X0013891D01*
X0013501Y0113217D01*
X0008752Y0101959D02*
Y0101652D01*
X0007236Y0116052D02*
X0007386Y0115902D01*
Y0115544D01*
X0005304Y0113632D02*
X0005325D01*
X0005593Y0113364D01*
X0010876Y0123709D02*
X0010744D01*
X0005701Y0109104D02*
Y0108492D01*
X0012432Y0110724D02*
X0012328Y0110828D01*
Y0114892D01*
X0011764Y0115456D01*
G54D49*
G01X0028054Y0105990D02*
Y0105912D01*
X0028428Y0108580D02*
X0028761Y0108247D01*
X0028828D01*
X0032703Y0110159D02*
X0032929Y0109933D01*
X0033360D01*
X0032589Y0112917D02*
X0032733Y0112773D01*
X0033228D01*
X0032612Y0115628D02*
X0032751D01*
X0033007Y0115372D01*
X0027960Y0118856D02*
X0027231Y0118127D01*
Y0117796D01*
X0010305Y0118717D02*
X0009968D01*
X0031683Y0117489D02*
Y0117168D01*
X0030708Y0115400D02*
Y0115084D01*
X0034127Y0110992D02*
X0033860D01*
X0029763Y0110524D02*
Y0110161D01*
X0028189Y0110524D02*
Y0110151D01*
X0032283Y0110524D02*
Y0110125D01*
X0021137Y0110233D02*
Y0109960D01*
X0031557Y0109744D02*
Y0109437D01*
X0036913Y0108516D02*
Y0108223D01*
X0034026Y0106930D02*
Y0106430D01*
X0037318Y0105930D02*
X0036726D01*
X0006188Y0105524D02*
X0005861D01*
X0008103Y0105596D02*
Y0105317D01*
X0034946Y0103146D02*
Y0102744D01*
X0034252D01*
X0008752Y0102928D02*
Y0102609D01*
X0034946Y0102744D02*
Y0102354D01*
X0010181Y0102384D02*
Y0101917D01*
X0010012Y0101748D01*
X0035629Y0104832D02*
X0035944D01*
X0036032Y0104744D01*
X0034620Y0106544D02*
X0034506Y0106430D01*
X0034026D01*
X0018757Y0107903D02*
X0018446Y0107592D01*
X0018113D01*
X0036913Y0108223D02*
Y0107920D01*
X0036917Y0107916D01*
X0033251Y0108553D02*
Y0108262D01*
X0033252Y0108261D01*
X0025536Y0108672D02*
X0025855D01*
X0025860Y0108667D01*
X0027748Y0108671D02*
X0027745Y0108668D01*
X0027432D01*
X0024712Y0108688D02*
X0024979D01*
X0024988Y0108679D01*
X0029632Y0108680D02*
X0029907D01*
X0029908Y0108679D01*
X0031653Y0110524D02*
Y0109840D01*
X0031557Y0109744D01*
X0032283Y0110125D02*
X0032296Y0110112D01*
Y0109845D01*
X0024116Y0110132D02*
X0024176Y0110072D01*
Y0109889D01*
X0028189Y0110151D02*
X0028169Y0110132D01*
Y0109904D01*
X0029763Y0110161D02*
Y0109910D01*
X0029765Y0109908D01*
X0024099Y0110523D02*
Y0110149D01*
X0024116Y0110132D01*
X0033927Y0113804D02*
X0033840D01*
X0033824Y0113788D01*
X0007943Y0115088D02*
X0007860D01*
X0007684Y0114912D01*
X0028812Y0115731D02*
Y0115090D01*
X0028818Y0115084D01*
X0030700Y0115703D02*
Y0115409D01*
X0030708Y0115400D01*
X0010928Y0116979D02*
X0010523D01*
X0010320Y0116776D01*
X0029060Y0117436D02*
X0028933Y0117309D01*
Y0117180D01*
X0026757Y0117152D02*
X0026758Y0117153D01*
Y0117350D01*
X0026696Y0117412D01*
X0031288Y0117895D02*
Y0117884D01*
X0031683Y0117489D01*
X0031888Y0117911D02*
Y0117694D01*
X0031683Y0117489D01*
X0018875Y0117824D02*
X0018856Y0117805D01*
Y0117528D01*
X0007360Y0118155D02*
X0007111D01*
X0006964Y0118008D01*
X0008488Y0119232D02*
X0008483Y0119227D01*
Y0118876D01*
X0012744Y0123709D02*
X0012808D01*
X0012820Y0123697D01*
X0013257D01*
X0013520Y0123960D01*
X0013344Y0122284D02*
X0013324D01*
X0013084Y0122044D01*
X0012820D01*
X0012808Y0122056D01*
X0012744D01*
X0007943Y0115684D02*
Y0115755D01*
X0008180Y0115992D01*
X0008704D01*
X0008808Y0116096D01*
X0029476Y0114512D02*
X0029376Y0114612D01*
X0028992D01*
X0028818Y0114785D01*
Y0115084D01*
X0013501Y0106131D02*
X0013906Y0106536D01*
X0014516D01*
X0016528Y0108548D01*
X0018056D01*
X0009312Y0117884D02*
X0009324Y0117872D01*
Y0117048D01*
X0010128Y0116244D01*
Y0115728D01*
X0010660Y0115196D01*
X0011336D01*
X0012112Y0114420D01*
Y0109908D01*
X0012708Y0109312D01*
X0025496Y0106361D02*
X0025743D01*
X0025822Y0106281D01*
X0026929Y0115084D02*
Y0113853D01*
X0026796Y0113720D01*
X0020004Y0107296D02*
X0019976D01*
X0018420Y0105740D01*
X0014128D01*
X0013731Y0105343D01*
X0013501D01*
X0033976Y0115768D02*
Y0116776D01*
X0035172Y0117972D01*
Y0119856D01*
X0035032Y0119996D01*
Y0120716D01*
X0035116Y0120800D01*
Y0122140D01*
X0035536Y0122560D01*
X0008593Y0115088D02*
X0008984D01*
X0009160Y0115264D01*
Y0115888D01*
X0009140Y0115908D01*
X0028283Y0117180D02*
Y0117715D01*
X0029008Y0118440D01*
Y0118568D01*
X0028964Y0118612D01*
X0010744Y0122056D02*
X0011224Y0121576D01*
Y0121460D01*
X0009724Y0119224D02*
X0009376Y0118876D01*
X0009133D01*
X0006859Y0118323D02*
Y0118523D01*
X0007141Y0118805D01*
X0007360D01*
X0019524Y0118100D02*
X0019525Y0118099D01*
Y0117824D01*
X0028283Y0117180D02*
X0028104D01*
X0027881Y0117403D01*
Y0117796D01*
X0009968Y0118067D02*
Y0118024D01*
X0010260Y0117732D01*
X0010363Y0117629D01*
X0010928D01*
X0026107Y0117152D02*
X0025987Y0117032D01*
X0025708D01*
X0028189Y0115084D02*
Y0115975D01*
X0027468Y0116696D01*
X0026916D01*
X0029136Y0116500D02*
X0029017Y0116381D01*
X0028812D01*
X0037236Y0116948D02*
X0037057Y0116769D01*
Y0116140D01*
X0032240Y0115624D02*
X0032283Y0115581D01*
Y0115084D01*
X0024099Y0115085D02*
X0023865D01*
X0023788Y0115008D01*
X0037188Y0113424D02*
Y0113675D01*
X0036977Y0113886D01*
Y0113980D01*
X0034816Y0114116D02*
X0034577Y0113877D01*
Y0113804D01*
X0033228Y0112123D02*
X0032711D01*
X0032704Y0112116D01*
X0034777Y0110992D02*
X0036316D01*
X0036973Y0111649D01*
Y0111808D01*
X0037243Y0112615D02*
X0036973Y0112345D01*
Y0111808D01*
X0030907Y0109744D02*
X0030640D01*
X0030608Y0109712D01*
X0005043Y0110033D02*
Y0109716D01*
X0005047Y0109712D01*
X0025320Y0109272D02*
Y0109296D01*
X0025287Y0109329D01*
X0024988D01*
X0026144Y0109272D02*
Y0109290D01*
X0026117Y0109317D01*
X0025860D01*
X0026880Y0109236D02*
X0026876D01*
X0026799Y0109313D01*
X0026556D01*
X0033360Y0109283D02*
X0032384D01*
X0032296Y0109195D01*
X0005047Y0109413D02*
X0005051Y0109409D01*
Y0109104D01*
X0032296Y0109195D02*
Y0108696D01*
X0032312Y0108680D01*
X0036969Y0109636D02*
Y0109091D01*
X0037382Y0108678D01*
X0023504Y0106900D02*
X0023334Y0106730D01*
Y0106363D01*
X0029816Y0106476D02*
X0029554Y0106214D01*
Y0105912D01*
X0025496Y0105711D02*
X0025491D01*
X0025216Y0105436D01*
X0029554Y0105912D02*
Y0105630D01*
X0029816Y0105368D01*
X0025216Y0105436D02*
X0025491Y0105161D01*
X0025496D01*
X0036446Y0102744D02*
Y0102342D01*
X0009531Y0102735D02*
Y0102384D01*
X0037116Y0102744D02*
X0036446D01*
Y0103158D02*
Y0102744D01*
X0022679Y0103788D02*
X0022416D01*
X0037330Y0105430D02*
X0036726D01*
X0008036Y0107460D02*
Y0106980D01*
X0033252Y0107611D02*
Y0107324D01*
X0008472Y0107460D02*
X0008036D01*
X0005051Y0108801D02*
Y0108492D01*
Y0109104D02*
Y0108801D01*
X0028828Y0109264D02*
Y0108897D01*
X0024176Y0109239D02*
Y0108944D01*
X0027987Y0109321D02*
X0027748D01*
X0029908Y0109329D02*
X0029601D01*
X0005047Y0109712D02*
Y0109413D01*
X0027519Y0109904D02*
X0027212D01*
X0029115Y0109908D02*
X0028836D01*
X0005043Y0110320D02*
Y0110033D01*
X0028818Y0111110D02*
Y0110524D01*
X0030708Y0111136D02*
Y0110524D01*
X0004943Y0113073D02*
Y0112768D01*
Y0113364D02*
Y0113073D01*
X0031653Y0115084D02*
Y0114559D01*
X0029763Y0115511D02*
Y0115084D01*
X0008593Y0115684D02*
Y0115088D01*
X0033948Y0115372D02*
X0033657D01*
X0006526Y0115544D02*
X0006160D01*
X0030700Y0116664D02*
Y0116353D01*
X0032333Y0117168D02*
Y0116839D01*
X0036824Y0120396D02*
X0036437D01*
X0033103Y0120400D02*
X0032812D01*
X0013501Y0120304D02*
X0013913Y0119892D01*
X0014656D01*
X0014892Y0120128D01*
X0030088D01*
X0030248Y0119968D01*
X0014288Y0106131D02*
X0014043D01*
X0013648Y0105736D01*
X0012784D01*
X0011772Y0106748D01*
Y0114168D01*
X0011108Y0114832D01*
X0010412D01*
X0009780Y0115464D01*
Y0116012D01*
X0008768Y0117024D01*
Y0118400D01*
X0008760Y0118408D01*
X0030200Y0119616D02*
X0030188D01*
X0029844Y0119960D01*
X0015004D01*
X0014560Y0119517D01*
X0014288D01*
X0028964Y0119000D02*
X0028836Y0119128D01*
X0016076D01*
X0014540Y0117592D01*
X0013850D01*
X0013501Y0117942D01*
X0014288Y0118729D02*
X0015179Y0119620D01*
X0029444D01*
X0029716Y0119348D01*
X0036726Y0106430D02*
X0035750D01*
X0035528Y0106208D01*
Y0105520D01*
X0035144Y0105136D01*
X0034196D01*
X0033824Y0104764D01*
X0031216D01*
X0029352Y0102900D01*
X0022216D01*
X0021720Y0102404D01*
X0021364D01*
X0021060Y0102708D01*
Y0102796D01*
X0029768Y0119680D02*
X0029648Y0119800D01*
X0015108D01*
X0014488Y0119180D01*
X0013837D01*
X0013501Y0119517D01*
X0014288Y0120304D02*
X0014304Y0120288D01*
X0030304D01*
X0030492Y0120100D01*
Y0118920D01*
X0030748Y0118664D01*
X0027332Y0113628D02*
X0027304D01*
X0027244Y0113688D01*
Y0115084D01*
X0021616Y0102980D02*
X0021892Y0103256D01*
X0029148D01*
X0029704Y0103812D01*
X0029708D01*
X0031800Y0105904D01*
X0034000D01*
X0034026Y0105930D01*
X0014288Y0106131D02*
X0017679D01*
X0019144Y0107596D01*
Y0107624D01*
X0019812Y0108292D01*
X0029368Y0119336D02*
X0029244Y0119460D01*
X0015516D01*
X0014408Y0118352D01*
X0013878D01*
X0013501Y0118729D01*
X0036263Y0108516D02*
X0035876D01*
X0035724Y0108364D01*
Y0106912D01*
X0036206Y0106430D01*
X0036726D01*
X0026364Y0107156D02*
X0026480Y0107040D01*
X0031540D01*
X0034340Y0104420D02*
X0034352D01*
X0034764Y0104832D01*
X0034979D01*
X0025672Y0115085D02*
Y0114680D01*
X0025060Y0114068D01*
X0018588D01*
X0015012Y0110492D01*
X0013925D01*
X0013501Y0110068D01*
X0026614Y0115084D02*
Y0114298D01*
X0025892Y0113576D01*
X0019076D01*
X0014396Y0108896D01*
X0013904D01*
X0013501Y0108493D01*
X0034744Y0106240D02*
X0034996Y0106492D01*
Y0109108D01*
X0034232Y0109872D01*
X0026220Y0105195D02*
Y0105012D01*
X0025836Y0104628D01*
X0028503Y0110524D02*
X0028496Y0110531D01*
Y0113904D01*
X0028948Y0114356D01*
X0029156D01*
X0023792Y0115388D02*
X0023144Y0114740D01*
X0018148D01*
X0015396Y0111988D01*
X0013846D01*
X0013501Y0111642D01*
X0024220Y0105976D02*
X0023957Y0105713D01*
X0023334D01*
X0024728Y0115085D02*
Y0114804D01*
X0024488Y0114564D01*
X0018248D01*
X0015326Y0111642D01*
X0014288D01*
X0025357Y0115085D02*
Y0114725D01*
X0024868Y0114236D01*
X0018480D01*
X0015099Y0110855D01*
X0014288D01*
X0010998Y0107862D02*
Y0107460D01*
X0033936Y0110452D02*
X0034748D01*
X0035724Y0109476D01*
Y0108364D01*
X0035876Y0108516D01*
X0036263D01*
X0021492Y0102676D02*
X0021560Y0102744D01*
X0021720D01*
X0022052Y0103076D01*
X0029248D01*
X0029824Y0103652D01*
X0029828D01*
X0031604Y0105430D01*
X0034026D01*
X0036328Y0121040D02*
X0036100Y0120812D01*
Y0118376D01*
X0034340Y0116616D01*
Y0115864D01*
X0034336Y0115860D01*
X0020487Y0109960D02*
X0020396D01*
X0020264Y0109828D01*
X0025669Y0110524D02*
X0025660Y0110533D01*
Y0111408D01*
X0025664Y0111412D01*
X0034264Y0110192D02*
X0035176Y0109280D01*
Y0105860D01*
X0034756Y0105440D01*
X0034036D01*
X0034026Y0105430D01*
X0027240Y0112412D02*
X0027248Y0112404D01*
Y0111948D01*
X0026564Y0111264D01*
Y0111128D01*
X0026560Y0111124D01*
X0014288Y0117942D02*
X0014346D01*
X0015696Y0119292D01*
X0029028D01*
X0029332Y0118988D01*
X0021936Y0113324D02*
X0022024Y0113412D01*
X0024824D01*
X0024940Y0113296D01*
X0027364D01*
X0027580Y0113512D01*
Y0115065D01*
X0027560Y0115085D01*
X0019160Y0112608D02*
X0019168Y0112600D01*
X0020772D01*
X0032184Y0104468D02*
X0032232Y0104420D01*
X0034340D01*
X0025043Y0115085D02*
Y0114731D01*
X0024716Y0114404D01*
X0018380D01*
X0015252Y0111276D01*
X0013921D01*
X0013501Y0110855D01*
X0010998Y0108218D02*
Y0107862D01*
X0025984Y0115084D02*
Y0114600D01*
X0025284Y0113900D01*
X0018704D01*
X0014872Y0110068D01*
X0014288D01*
X0026299Y0115084D02*
Y0114407D01*
X0025628Y0113736D01*
X0018880D01*
X0014424Y0109280D01*
X0014288D01*
X0035787Y0120396D02*
X0035714Y0120323D01*
X0035275D01*
X0033753Y0120400D02*
X0034181D01*
X0034252Y0120328D01*
X0025822Y0106281D02*
X0026220Y0105884D01*
Y0105845D01*
X0026614Y0110524D02*
Y0109846D01*
X0026612Y0109844D01*
X0023330Y0104433D02*
Y0103789D01*
X0023329Y0103788D01*
X0034779Y0121876D02*
Y0121487D01*
X0034764Y0121472D01*
X0028503Y0115084D02*
Y0116639D01*
X0028728Y0116864D01*
X0029228D01*
X0031344Y0112556D02*
X0031338Y0112550D01*
Y0110524D01*
X0024413Y0115085D02*
Y0115411D01*
X0024312Y0115512D01*
X0023916D01*
X0023792Y0115388D01*
X0036400Y0116312D02*
X0036407Y0116305D01*
Y0116140D01*
X0032472Y0118740D02*
X0034084D01*
X0034672Y0119328D01*
Y0119648D01*
X0034660Y0119660D01*
X0036332Y0114152D02*
X0036327Y0114147D01*
Y0113980D01*
X0026704Y0112636D02*
X0026980Y0112360D01*
Y0112144D01*
X0025573Y0109924D02*
X0025932D01*
X0025972Y0109964D01*
Y0110000D01*
X0034744Y0106240D02*
X0034434Y0105930D01*
X0034026D01*
X0027872Y0111292D02*
X0027874Y0111290D01*
Y0110524D01*
X0036319Y0109817D02*
Y0109636D01*
X0036328Y0111960D02*
X0036323Y0111955D01*
Y0111808D01*
X0024220Y0104056D02*
X0023952Y0103788D01*
X0023329D01*
X0027432Y0111664D02*
X0027559Y0111537D01*
Y0110524D01*
X0025836Y0104628D02*
X0025719Y0104511D01*
X0025496D01*
X0027148Y0111444D02*
X0027244Y0111348D01*
Y0110524D01*
X0024640Y0115604D02*
X0024728Y0115516D01*
Y0115085D01*
X0026868Y0111204D02*
X0026929Y0111143D01*
Y0110524D01*
X0024624Y0109932D02*
X0024915D01*
X0024923Y0109924D01*
X0026048Y0112260D02*
X0025984Y0112196D01*
Y0110524D01*
X0030393D02*
X0030392Y0110525D01*
Y0113104D01*
X0030400Y0113112D01*
X0031288Y0118545D02*
Y0118944D01*
X0031032Y0119200D01*
X0031012D01*
X0020648Y0111708D02*
X0018460D01*
X0023334Y0105713D02*
Y0105087D01*
X0023330Y0105083D01*
X0038872Y0106251D02*
X0037032Y0104411D01*
X0035429Y0121876D02*
X0035432Y0121873D01*
Y0121572D01*
X0034233Y0121868D02*
X0034240Y0121861D01*
Y0121580D01*
X0026312Y0108664D02*
X0026555D01*
X0026556Y0108663D01*
X0026612Y0115716D02*
Y0115086D01*
X0026614Y0115084D01*
X0024968Y0115736D02*
X0025043Y0115661D01*
Y0115085D01*
X0024788Y0112520D02*
X0024728Y0112460D01*
Y0110523D01*
X0024712Y0112848D02*
X0024413Y0112549D01*
Y0110523D01*
X0029640Y0113532D02*
X0029448Y0113340D01*
Y0110524D01*
X0030076Y0115992D02*
Y0115086D01*
X0030078Y0115084D01*
X0030072Y0113280D02*
X0030078Y0113274D01*
Y0110524D01*
X0029133D02*
X0029140Y0110530D01*
Y0113980D01*
X0029144Y0113984D01*
X0031328Y0116196D02*
Y0115094D01*
X0031338Y0115084D01*
X0025272Y0115912D02*
X0025357Y0115827D01*
Y0115085D01*
X0031788Y0119200D02*
X0031888Y0119100D01*
Y0118561D01*
X0029133Y0115084D02*
X0029136Y0115086D01*
Y0116076D01*
X0029216Y0116156D01*
X0030393Y0115084D02*
X0030356Y0115121D01*
Y0116260D01*
X0030264Y0116352D01*
X0011386Y0108218D02*
X0010998D01*
X0031340Y0112564D02*
X0031344Y0112560D01*
Y0112556D01*
X0026296Y0115896D02*
X0026299Y0115893D01*
Y0115084D01*
X0026232Y0112544D02*
X0026299Y0112477D01*
Y0110524D01*
X0033583Y0121868D02*
X0033584Y0121867D01*
Y0121576D01*
X0025040Y0112168D02*
X0025043Y0112165D01*
Y0110523D01*
X0025356Y0111924D02*
X0025357Y0111923D01*
Y0110523D01*
X0025668Y0115844D02*
X0025672Y0115840D01*
Y0115085D01*
X0031012Y0116036D02*
Y0115095D01*
X0031023Y0115084D01*
Y0110524D02*
X0031016Y0110531D01*
Y0112884D01*
X0031000Y0112900D01*
X0031972Y0116148D02*
Y0115088D01*
X0031968Y0115084D01*
X0029608Y0116024D02*
X0029448Y0115864D01*
Y0115084D01*
X0031968Y0110524D02*
Y0111964D01*
X0031672Y0112260D01*
Y0112268D01*
X0025980Y0115656D02*
X0025984Y0115652D01*
Y0115084D01*
X0033192Y0105020D02*
X0032276D01*
G54D51*
G01X0009336Y0107460D02*
Y0107588D01*
X0008836Y0108088D01*
X0008440D01*
X0008032Y0108496D01*
Y0108712D01*
X0007610Y0109134D01*
Y0109301D01*
X0010138Y0107460D02*
X0009336D01*
G54D52*
G01X0027616Y0106428D02*
X0028054Y0105990D01*
X0010370Y0113426D02*
X0010064D01*
X0009820Y0113672D01*
X0008832D01*
Y0112372D02*
X0008808Y0112348D01*
Y0111636D01*
X0008832Y0113672D02*
X0008732Y0113572D01*
X0007220D01*
X0006952Y0113840D01*
X0005716Y0113832D02*
Y0113828D01*
X0005860Y0113684D01*
X0006792D01*
X0006948Y0113840D01*
X0006952D01*
X0010370Y0113426D02*
X0010794D01*
G54D50*
X0023204Y0101372D03*
X0027332Y0113628D03*
X0008715Y0108832D03*
X0006440D03*
X0027884Y0104724D03*
X0034240Y0121580D03*
X0033584Y0121576D03*
G54D54*
X0005701Y0109104D03*
X0005051D03*
X0005697Y0109712D03*
X0005047D03*
X0010767Y0109652D03*
X0011417D03*
X0010771Y0109036D03*
X0011421D03*
X0005211Y0105524D03*
X0005861D03*
X0008753Y0105596D03*
X0008103D03*
X0036267Y0107916D03*
X0036917D03*
X0036263Y0108516D03*
X0036913D03*
X0018113Y0107592D03*
X0017463D03*
X0020487Y0109960D03*
X0021137D03*
X0024923Y0109924D03*
X0025573D03*
X0035629Y0104832D03*
X0034979D03*
X0010181Y0102384D03*
X0009531D03*
X0009133Y0118876D03*
X0008483D03*
X0008593Y0115684D03*
X0007943D03*
X0008593Y0115088D03*
X0007943D03*
X0004943Y0113364D03*
X0005593D03*
X0004943Y0112768D03*
X0005593D03*
X0005051Y0108492D03*
X0005701D03*
X0005043Y0110320D03*
X0005693D03*
X0008257Y0116308D03*
X0007607D03*
X0035429Y0121876D03*
X0034779D03*
X0035787Y0120396D03*
X0036437D03*
X0033753Y0120400D03*
X0033103D03*
X0034233Y0121868D03*
X0033583D03*
X0028169Y0109904D03*
X0027519D03*
X0031557Y0109744D03*
X0030907D03*
X0029765Y0109908D03*
X0029115D03*
X0019525Y0117824D03*
X0018875D03*
X0033007Y0115372D03*
X0033657D03*
X0027231Y0117796D03*
X0027881D03*
X0026757Y0117152D03*
X0026107D03*
X0028933Y0117180D03*
X0028283D03*
X0031683Y0117168D03*
X0032333D03*
X0033927Y0113804D03*
X0034577D03*
X0034127Y0110992D03*
X0034777D03*
X0022679Y0103788D03*
X0023329D03*
X0036319Y0109636D03*
X0036969D03*
X0036323Y0111808D03*
X0036973D03*
X0036327Y0113980D03*
X0036977D03*
X0036407Y0116140D03*
X0037057D03*
G54D55*
X0009848Y0122357D03*
Y0121707D03*
X0008752Y0101959D03*
Y0102609D03*
X0023330Y0104433D03*
Y0105083D03*
X0031888Y0118561D03*
Y0117911D03*
X0031288Y0118545D03*
Y0117895D03*
X0026220Y0105195D03*
Y0105845D03*
X0026556Y0108663D03*
Y0109313D03*
X0009968Y0118067D03*
Y0118717D03*
X0007360Y0118805D03*
Y0118155D03*
X0010928Y0117629D03*
Y0116979D03*
X0024176Y0109889D03*
Y0109239D03*
X0032296Y0109845D03*
Y0109195D03*
X0028812Y0115731D03*
Y0116381D03*
X0030700Y0115703D03*
Y0116353D03*
X0028828Y0108247D03*
Y0108897D03*
X0033360Y0109933D03*
Y0109283D03*
X0033228Y0112773D03*
Y0112123D03*
X0033252Y0108261D03*
Y0107611D03*
X0029908Y0108679D03*
Y0109329D03*
X0027748Y0108671D03*
Y0109321D03*
X0025860Y0108667D03*
Y0109317D03*
X0024988Y0108679D03*
Y0109329D03*
X0023334Y0105713D03*
Y0106363D03*
X0025496Y0105161D03*
Y0104511D03*
Y0106361D03*
Y0105711D03*
G54D56*
X0028054Y0105912D03*
X0029554D03*
X0034946Y0102744D03*
X0036446D03*
G54D57*
X0008036Y0107460D03*
X0009336D03*
X0008832Y0112372D03*
Y0113672D03*
G54D58*
X0044500Y0124244D03*
X0045000Y0123744D03*
X0044500Y0101956D03*
X0045000Y0101456D03*
X-0001184Y0101956D03*
X-0000684Y0101456D03*
X-0001184Y0124244D03*
X-0000684Y0123744D03*
G54D59*
X0014236Y0102362D03*
X0038382Y0102360D03*
X0014248Y0123092D03*
X0037516Y0121068D03*
G54D60*
X0037888Y0103988D03*
Y0106744D03*
G54D61*
X0038872Y0104480D03*
Y0106251D03*
G54D62*
X0007616Y0113080D03*
Y0114080D03*
X0038744Y0121964D03*
Y0122964D03*
Y0123964D03*
X0037660Y0119660D03*
X0036660D03*
X0035660D03*
X0034660D03*
X0033660D03*
X0032660D03*
G54D63*
X0007616Y0112080D03*
X0038744Y0120964D03*
X0038660Y0119660D03*
G54D64*
X0038860Y0111820D03*
X0038073D03*
X0038860Y0111033D03*
X0038073D03*
X0038860Y0110245D03*
X0038073D03*
X0038860Y0109458D03*
X0038073D03*
X0038860Y0108670D03*
X0038073D03*
X0038860Y0107883D03*
X0038073D03*
X0038856Y0116544D03*
X0038069D03*
X0038856Y0115757D03*
X0038069D03*
X0038856Y0114969D03*
X0038069D03*
X0038856Y0114182D03*
X0038069D03*
X0038856Y0113394D03*
X0038069D03*
X0038856Y0112607D03*
X0038069D03*
X0014288Y0120304D03*
X0013501D03*
X0014288Y0119517D03*
X0013501D03*
X0014288Y0118729D03*
X0013501D03*
X0014288Y0117942D03*
X0013501D03*
X0014288Y0117154D03*
X0013501D03*
X0014288Y0116367D03*
X0013501D03*
X0014288Y0115580D03*
X0013501D03*
X0014288Y0114792D03*
X0013501D03*
X0014288Y0114005D03*
X0013501D03*
X0014288Y0113217D03*
X0013501D03*
X0014288Y0112430D03*
X0013501D03*
X0014288Y0111642D03*
X0013501D03*
X0014288Y0110855D03*
X0013501D03*
X0014288Y0110068D03*
X0013501D03*
X0014288Y0109280D03*
X0013501D03*
X0014288Y0108493D03*
X0013501D03*
X0014288Y0107705D03*
X0013501D03*
X0014288Y0106918D03*
X0013501D03*
X0014288Y0106131D03*
X0013501D03*
X0014288Y0105343D03*
X0013501D03*
X0014288Y0104556D03*
X0013501D03*
X0033548Y0101248D03*
Y0102035D03*
X0032761Y0101248D03*
Y0102035D03*
X0031973Y0101248D03*
Y0102035D03*
X0031186Y0101248D03*
Y0102035D03*
X0030398Y0101248D03*
Y0102035D03*
X0029611Y0101248D03*
Y0102035D03*
X0028824Y0101248D03*
Y0102035D03*
X0028036Y0101248D03*
Y0102035D03*
X0027249Y0101248D03*
Y0102035D03*
X0026461Y0101248D03*
Y0102035D03*
X0025674Y0101248D03*
Y0102035D03*
X0024886Y0101248D03*
Y0102035D03*
X0024099Y0101248D03*
Y0102035D03*
X0031788Y0119200D03*
Y0119987D03*
X0031012Y0119200D03*
Y0119987D03*
G54D65*
X0006036Y0123492D03*
X0008536D03*
X0007536Y0121992D03*
G54D66*
X0009972Y0110372D03*
Y0108230D03*
X0007421Y0110372D03*
Y0108230D03*
X0007610Y0109301D03*
X0008397D03*
X0009185D03*
X0009972D03*
G54D67*
X0005150Y0114565D03*
Y0111731D03*
G54D68*
X0006397Y0114103D03*
Y0112193D03*
G54D69*
X0010998Y0107460D03*
X0010138D03*
X0007386Y0115544D03*
X0006526D03*
G54D70*
X0032283Y0110524D03*
X0031968D03*
X0031653D03*
X0031338D03*
X0031023D03*
X0030708D03*
X0030393D03*
X0030078D03*
X0029763D03*
X0029448D03*
X0029133D03*
X0028818D03*
X0028503D03*
X0028189D03*
X0027874D03*
X0027559D03*
X0027244D03*
X0026929D03*
X0026614D03*
X0026299D03*
X0025984D03*
X0025669D03*
X0025672Y0115085D03*
X0025984Y0115084D03*
X0026299D03*
X0026614D03*
X0026929D03*
X0027244D03*
X0027560Y0115085D03*
X0027874Y0115084D03*
X0028189D03*
X0028503D03*
X0028818D03*
X0029133D03*
X0029448D03*
X0029763D03*
X0030078D03*
X0030393D03*
X0030708D03*
X0031023D03*
X0031338D03*
X0031653D03*
X0031968D03*
X0032283D03*
X0025357Y0110523D03*
X0025043D03*
X0024728D03*
X0024413D03*
X0024099D03*
Y0115085D03*
X0024413D03*
X0024728D03*
X0025043D03*
X0025357D03*
G54D71*
X0036726Y0106930D03*
Y0106430D03*
Y0105930D03*
Y0105430D03*
X0034026D03*
Y0105930D03*
Y0106430D03*
Y0106930D03*
G54D72*
X0024220Y0104056D03*
Y0105976D03*
G54D73*
X0012744Y0122056D03*
X0010744D03*
Y0123709D03*
X0012744D03*
G54D74*
X0022416Y0103788D03*
X0009944Y0103536D03*
X0009531Y0102735D03*
X0006188Y0105524D03*
X0005209Y0106115D03*
X0008103Y0105317D03*
X0008752Y0102928D03*
Y0101652D03*
Y0106384D03*
X0009380Y0101808D03*
X0032276Y0105020D03*
X0032184Y0104468D03*
X0021616Y0102980D03*
X0021060Y0102796D03*
X0021492Y0102676D03*
X0026200Y0104040D03*
X0007236Y0116052D03*
X0011386Y0108218D03*
X0010998D03*
Y0107862D03*
X0012432Y0110724D03*
X0012680Y0111148D03*
X0011712Y0115768D03*
X0011764Y0115456D03*
X0029148Y0108588D03*
X0029440Y0108980D03*
X0010012Y0101748D03*
X0012708Y0109312D03*
X0023852Y0112188D03*
X0009056Y0118180D03*
X0009312Y0117884D03*
X0008760Y0118408D03*
X0009340Y0113080D03*
X0006908Y0116200D03*
X0006888Y0116736D03*
X0008808Y0111636D03*
X0008472Y0107460D03*
X0008036Y0106980D03*
X0009697Y0106567D03*
X0011224Y0121460D03*
X0013344Y0122284D03*
X0013520Y0123960D03*
X0007684Y0114912D03*
X0010320Y0116776D03*
X0010305Y0118717D03*
X0006160Y0115544D03*
X0005864Y0112236D03*
X0004943Y0113073D03*
X0005051Y0108801D03*
X0005047Y0109413D03*
X0005043Y0110033D03*
X0007892Y0116684D03*
X0007676Y0116024D03*
X0008808Y0116096D03*
X0009140Y0115908D03*
X0011428Y0116064D03*
X0010260Y0117732D03*
X0006964Y0118008D03*
X0006859Y0118323D03*
X0005157Y0118079D03*
X0007924Y0119216D03*
X0009724Y0119224D03*
X0008488Y0119232D03*
X0010164Y0120896D03*
X0008685Y0121177D03*
X0006552Y0120884D03*
X0005151Y0119937D03*
X0005741Y0115699D03*
X0007076Y0117208D03*
X0005428Y0112552D03*
X0005304Y0113632D03*
X0005716Y0113832D03*
X0006952Y0113840D03*
X0010370Y0113426D03*
X0010794D03*
X0034744Y0106240D03*
X0036913Y0108223D03*
X0020004Y0107296D03*
X0027616Y0106428D03*
X0029816Y0106476D03*
Y0105368D03*
X0034946Y0102354D03*
X0034252Y0102744D03*
X0034946Y0103146D03*
X0036446Y0102342D03*
Y0103158D03*
X0037116Y0102744D03*
X0018764Y0102060D03*
X0017468D03*
X0018158Y0101642D03*
Y0102462D03*
X0019658Y0101618D03*
Y0102502D03*
X0020332Y0102060D03*
X0038104Y0122148D03*
X0038120Y0122744D03*
X0023900Y0111772D03*
X0018056Y0108548D03*
X0019812Y0108292D03*
X0015212Y0112260D03*
X0025652Y0117424D03*
X0029768Y0119680D03*
X0029716Y0119348D03*
X0029368Y0119336D03*
X0029332Y0118988D03*
X0028964Y0119000D03*
X0030200Y0119616D03*
X0030248Y0119968D03*
X0030748Y0118664D03*
X0027240Y0112412D03*
X0025944Y0118632D03*
X0025252Y0117484D03*
X0025184Y0118556D03*
X0019524Y0118100D03*
X0018856Y0117528D03*
X0037382Y0108678D03*
X0037243Y0112615D03*
X0037188Y0113424D03*
X0036796Y0101680D03*
X0034256Y0101676D03*
X0031652Y0108668D03*
X0031557Y0109437D03*
X0031996Y0108848D03*
X0031540Y0107040D03*
X0025216Y0105436D03*
X0025836Y0104628D03*
X0025822Y0106281D03*
X0023504Y0106900D03*
X0028428Y0108580D03*
X0017464Y0108284D03*
X0030656Y0108704D03*
X0034388Y0108264D03*
X0034742Y0106930D03*
X0036130D03*
X0037318Y0105930D03*
X0033192Y0105020D03*
X0037330Y0105430D03*
X0034620Y0106544D03*
X0034264Y0110192D03*
X0033936Y0110452D03*
X0034232Y0109872D03*
X0035913Y0105783D03*
X0037032Y0104411D03*
X0034340Y0104420D03*
X0036032Y0104744D03*
X0034268Y0104836D03*
X0034897Y0104397D03*
X0036406Y0104426D03*
X0033208Y0124008D03*
X0020088Y0104820D03*
X0020092Y0104484D03*
X0020076Y0104156D03*
X0020610Y0104178D03*
X0021078D03*
Y0104498D03*
Y0104834D03*
X0020590D03*
X0035416Y0107880D03*
X0021286Y0106983D03*
X0021679Y0106195D03*
X0021176Y0106204D03*
X0021400Y0105748D03*
X0020644Y0108224D03*
Y0107564D03*
X0021644D03*
X0021636Y0108224D03*
X0021154Y0108226D03*
X0022559Y0105857D03*
X0022800Y0106112D03*
X0022596Y0106368D03*
X0027960Y0118856D03*
X0032612Y0115628D03*
X0033948Y0115372D03*
X0032704Y0112116D03*
X0032589Y0112917D03*
X0032703Y0110159D03*
X0028828Y0109264D03*
X0021520Y0110328D03*
X0022656Y0110356D03*
X0021516Y0112036D03*
X0022624D03*
X0021476Y0115972D03*
X0022668Y0115412D03*
X0037236Y0116948D03*
X0030523Y0124337D03*
X0029735D03*
X0028948D03*
X0030129Y0123549D03*
X0029342D03*
X0030523Y0122762D03*
X0029735D03*
X0028948D03*
X0030129Y0121975D03*
X0029342D03*
X0030523Y0121187D03*
X0029735D03*
X0028948D03*
X0031184Y0121212D03*
X0031188Y0120876D03*
X0031524Y0120872D03*
X0031856Y0120876D03*
Y0121216D03*
X0031196Y0121564D03*
Y0121900D03*
Y0122272D03*
X0031536D03*
X0031856D03*
Y0121908D03*
Y0121576D03*
X0031864Y0123408D03*
X0031816Y0123076D03*
X0031480D03*
X0031164D03*
Y0123432D03*
Y0123808D03*
Y0124152D03*
Y0124500D03*
X0031536D03*
X0031860D03*
X0031856Y0124104D03*
X0031896Y0123776D03*
X0024120Y0124580D03*
X0022584Y0121144D03*
X0022208Y0120796D03*
X0022040Y0107884D03*
X0022654Y0107490D03*
Y0108310D03*
X0023268Y0107884D03*
X0019504Y0105192D03*
Y0105732D03*
X0019182Y0105470D03*
X0019818D03*
X0019556Y0104792D03*
X0022090Y0104898D03*
X0021504Y0104488D03*
X0022664D03*
X0022084Y0104080D03*
X0026980Y0112144D03*
X0026704Y0112636D03*
X0026796Y0113720D03*
X0021936Y0113324D03*
X0036824Y0120396D03*
X0038045Y0117977D03*
X0036981Y0117981D03*
X0036000Y0117812D03*
X0034375Y0118067D03*
X0033297Y0118055D03*
X0025972Y0110000D03*
X0026560Y0111124D03*
X0024624Y0109932D03*
X0029476Y0114512D03*
X0029136Y0116500D03*
X0030700Y0116664D03*
X0030708Y0115400D03*
X0028836Y0109908D03*
X0029763Y0110161D03*
X0032283Y0110125D03*
X0030608Y0109712D03*
X0027212Y0109904D03*
X0028189Y0110151D03*
X0024176Y0108944D03*
X0024116Y0110132D03*
X0035275Y0123767D03*
X0032812Y0120400D03*
X0033526Y0120874D03*
X0034368Y0122624D03*
X0034940Y0124148D03*
X0033996Y0123748D03*
X0018757Y0107903D03*
X0017828Y0107932D03*
X0019240Y0117360D03*
X0018548Y0117244D03*
X0021137Y0110233D03*
X0020264Y0109828D03*
X0019696Y0107572D03*
X0018960Y0109576D03*
X0017582Y0109574D03*
X0029763Y0115511D03*
X0022420Y0109460D03*
X0021488Y0110780D03*
X0022440Y0112384D03*
X0022329Y0115321D03*
X0022448Y0117572D03*
X0021795Y0116845D03*
X0021324Y0115204D03*
X0023788Y0115008D03*
X0021504Y0112640D03*
X0022676Y0113064D03*
X0023788Y0109968D03*
X0021804Y0109440D03*
X0023788Y0109076D03*
X0023824Y0108688D03*
X0027546Y0107402D03*
X0026676Y0107320D03*
X0025528Y0107468D03*
X0025182Y0107466D03*
X0024000Y0107496D03*
X0024394Y0108518D03*
X0025320Y0109272D03*
X0026144D03*
X0026880Y0109236D03*
X0029601Y0109329D03*
X0027987Y0109321D03*
X0029828Y0107336D03*
X0032312Y0108680D03*
X0031052Y0108584D03*
X0028818Y0111110D03*
X0030708Y0111136D03*
X0031653Y0114559D03*
X0032240Y0115624D03*
X0032348Y0117444D03*
X0033251Y0117509D03*
X0032333Y0116839D03*
X0031184Y0117388D03*
X0028964Y0118612D03*
X0026916Y0116696D03*
X0025708Y0117032D03*
X0024656Y0117380D03*
X0023220Y0117596D03*
X0024000Y0117564D03*
X0029632Y0108680D03*
X0027432Y0108668D03*
X0025536Y0108672D03*
X0024712Y0108688D03*
X0032759Y0110947D03*
X0033860Y0110992D03*
X0033252Y0107324D03*
X0033251Y0108553D03*
X0034816Y0114116D03*
X0033824Y0113788D03*
X0032747Y0113705D03*
X0031683Y0117489D03*
X0029060Y0117436D03*
X0029156Y0114356D03*
X0026696Y0117412D03*
X0036319Y0109817D03*
X0036328Y0111960D03*
X0036332Y0114152D03*
X0036400Y0116312D03*
X0036328Y0121040D03*
X0035536Y0122560D03*
X0034336Y0115860D03*
X0033976Y0115768D03*
X0035275Y0120323D03*
X0034252Y0120328D03*
X0035432Y0121572D03*
X0034764Y0121472D03*
X0026364Y0107156D03*
X0032472Y0118740D03*
X0026312Y0108664D03*
X0020772Y0112600D03*
X0019160Y0112608D03*
X0020648Y0111708D03*
X0018460D03*
X0029144Y0113984D03*
X0029640Y0113532D03*
X0029228Y0116864D03*
X0030072Y0113280D03*
X0030400Y0113112D03*
X0031000Y0112900D03*
X0031344Y0112556D03*
X0031672Y0112268D03*
X0026612Y0109844D03*
X0029216Y0116156D03*
X0029608Y0116024D03*
X0030076Y0115992D03*
X0030264Y0116352D03*
X0031012Y0116036D03*
X0031328Y0116196D03*
X0031972Y0116148D03*
X0026048Y0112260D03*
X0026232Y0112544D03*
X0026868Y0111204D03*
X0027148Y0111444D03*
X0027432Y0111664D03*
X0025664Y0111412D03*
X0027872Y0111292D03*
X0024712Y0112848D03*
X0024788Y0112520D03*
X0025040Y0112168D03*
X0025356Y0111924D03*
X0026612Y0115716D03*
X0023792Y0115388D03*
X0024640Y0115604D03*
X0024968Y0115736D03*
X0025272Y0115912D03*
X0025668Y0115844D03*
X0025980Y0115656D03*
X0026296Y0115896D03*
M02*
