*
G04 Mass Parameters ***
*
G04 Image ***
*
%INC:\CAINPCB\ECB_BF532\BF532_V2\ECB_532_V3.SMB*%
%ICAS*%
%MOIN*%
%IPPOS*%
%ASAXBY*%
G74*%FSLAN2X34Y34*%
*
G04 Aperture Definitions ***
*
%ADD10R,0.0350X0.0300*%
%ADD11R,0.1000X0.0600*%
%ADD12R,0.0300X0.0350*%
%ADD13R,0.0600X0.1370*%
%ADD14R,0.0450X0.0350*%
%ADD15R,0.0320X0.0380*%
%ADD16R,0.0380X0.0320*%
%ADD17R,0.0500X0.0500*%
%ADD18C,0.0930*%
%ADD19C,0.0775*%
%ADD20C,0.0669*%
%ADD21C,0.0550*%
%ADD22R,0.0550X0.0550*%
%ADD23C,0.0433*%
%ADD24C,0.1340*%
%ADD25C,0.0551*%
%ADD26R,0.0394X0.0709*%
%ADD27R,0.0709X0.0669*%
%ADD28R,0.0165X0.0630*%
%ADD29R,0.0709X0.0748*%
%ADD30R,0.0787X0.0787*%
%ADD31R,0.0512X0.0512*%
%ADD32R,0.0531X0.0157*%
%ADD33R,0.0400X0.0500*%
%ADD34R,0.1600X0.0750*%
%ADD35R,0.0236X0.0590*%
%ADD36O,0.0700X0.0110*%
%ADD37R,0.0700X0.0110*%
%ADD38O,0.0110X0.0700*%
%ADD39R,0.0110X0.0700*%
%ADD40R,0.0500X0.0160*%
%ADD41R,0.0100X0.0600*%
%ADD42R,0.1500X0.0450*%
%ADD43R,0.0160X0.0700*%
%ADD44R,0.0866X0.0512*%
%ADD45C,0.0600*%
%ADD46C,0.0236*%
%ADD47C,0.0080*%
%ADD48C,0.0100*%
%ADD49C,0.0079*%
%ADD50C,0.0236*%
%ADD51C,0.0315*%
%ADD52C,0.0157*%
%ADD53C,0.0394*%
%ADD54R,0.0350X0.0300*%
%ADD55R,0.0300X0.0350*%
%ADD56R,0.1000X0.0600*%
%ADD57R,0.0600X0.0600*%
%ADD58R,0.0500X0.0500*%
%ADD59C,0.0930*%
%ADD60C,0.0775*%
%ADD61C,0.0669*%
%ADD62C,0.0550*%
%ADD63R,0.0550X0.0550*%
%ADD64C,0.0433*%
%ADD65C,0.1340*%
%ADD66C,0.0551*%
%ADD67R,0.0787X0.0787*%
%ADD68R,0.0512X0.0512*%
%ADD69R,0.0400X0.0500*%
%ADD70R,0.0197X0.0551*%
%ADD71R,0.0800X0.0250*%
%ADD72C,0.0600*%
%ADD73R,0.0709X0.0787*%
%ADD74C,0.0236*%
%ADD75C,0.0776*%
%ADD76C,0.0750*%
%ADD77R,0.0750X0.0750*%
%ADD78C,0.1400*%
%ADD79C,0.0866*%
%ADD80C,0.0590*%
%ADD81C,0.0650*%
%ADD82C,0.0060*%
%ADD83C,0.0236*%
%ADD84C,0.0236*%
%ADD85C,0.0929*%
%ADD86C,0.1401*%
%ADD87C,0.0752*%
%ADD88R,0.0752X0.0752*%
%ADD89R,0.0400X0.0350*%
%ADD90R,0.1050X0.0650*%
%ADD91R,0.0350X0.0400*%
%ADD92R,0.0650X0.1420*%
%ADD93R,0.0500X0.0400*%
%ADD94R,0.0320X0.0380*%
%ADD95R,0.0380X0.0320*%
%ADD96C,0.0980*%
%ADD97C,0.0827*%
%ADD98C,0.0768*%
%ADD99C,0.0492*%
%ADD100C,0.1390*%
%ADD101R,0.0394X0.0709*%
%ADD102R,0.0709X0.0669*%
%ADD103R,0.0236X0.0669*%
%ADD104R,0.0709X0.0748*%
%ADD105R,0.0905X0.0905*%
%ADD106R,0.0590X0.0590*%
%ADD107R,0.0590X0.0216*%
%ADD108R,0.0450X0.0550*%
%ADD109R,0.1650X0.0800*%
%ADD110R,0.0276X0.0630*%
%ADD111O,0.0700X0.0110*%
%ADD112R,0.0700X0.0110*%
%ADD113O,0.0110X0.0700*%
%ADD114R,0.0110X0.0700*%
%ADD115R,0.0550X0.0210*%
%ADD116R,0.0140X0.0650*%
%ADD117R,0.1550X0.0500*%
%ADD118R,0.0210X0.0750*%
%ADD119R,0.0905X0.0551*%
%ADD120R,0.0236X0.0590*%
%ADD121R,0.0850X0.0300*%
*
G04 Plot Data ***
*
G54D57*
X0008036Y0107460D03*
X0009336D03*
X0008832Y0112372D03*
Y0113672D03*
G54D58*
X0044500Y0124244D03*
X0045000Y0123744D03*
X0044500Y0101956D03*
X0045000Y0101456D03*
X-0001184Y0101956D03*
X-0000684Y0101456D03*
X-0001184Y0124244D03*
X-0000684Y0123744D03*
G54D62*
X0007616Y0113080D03*
Y0114080D03*
X0038744Y0121964D03*
Y0122964D03*
Y0123964D03*
X0037660Y0119660D03*
X0036660D03*
X0035660D03*
X0034660D03*
X0033660D03*
X0032660D03*
G54D63*
X0007616Y0112080D03*
X0038744Y0120964D03*
X0038660Y0119660D03*
G54D73*
X0012744Y0122056D03*
X0010744D03*
Y0123709D03*
X0012744D03*
G54D81*
X0024220Y0104056D03*
Y0105976D03*
G54D89*
X0005701Y0109104D03*
X0005051D03*
X0005697Y0109712D03*
X0005047D03*
X0010767Y0109652D03*
X0011417D03*
X0010771Y0109036D03*
X0011421D03*
X0005211Y0105524D03*
X0005861D03*
X0008753Y0105596D03*
X0008103D03*
X0036267Y0107916D03*
X0036917D03*
X0036263Y0108516D03*
X0036913D03*
X0018113Y0107592D03*
X0017463D03*
X0020487Y0109960D03*
X0021137D03*
X0024923Y0109924D03*
X0025573D03*
X0035629Y0104832D03*
X0034979D03*
X0010181Y0102384D03*
X0009531D03*
X0009133Y0118876D03*
X0008483D03*
X0008593Y0115684D03*
X0007943D03*
X0008593Y0115088D03*
X0007943D03*
X0004943Y0113364D03*
X0005593D03*
X0004943Y0112768D03*
X0005593D03*
X0005051Y0108492D03*
X0005701D03*
X0005043Y0110320D03*
X0005693D03*
X0008257Y0116308D03*
X0007607D03*
X0035429Y0121876D03*
X0034779D03*
X0035787Y0120396D03*
X0036437D03*
X0033753Y0120400D03*
X0033103D03*
X0034233Y0121868D03*
X0033583D03*
X0028169Y0109904D03*
X0027519D03*
X0031557Y0109744D03*
X0030907D03*
X0029765Y0109908D03*
X0029115D03*
X0019525Y0117824D03*
X0018875D03*
X0033007Y0115372D03*
X0033657D03*
X0027231Y0117796D03*
X0027881D03*
X0026757Y0117152D03*
X0026107D03*
X0028933Y0117180D03*
X0028283D03*
X0031683Y0117168D03*
X0032333D03*
X0033927Y0113804D03*
X0034577D03*
X0034127Y0110992D03*
X0034777D03*
X0022679Y0103788D03*
X0023329D03*
X0036319Y0109636D03*
X0036969D03*
X0036323Y0111808D03*
X0036973D03*
X0036327Y0113980D03*
X0036977D03*
X0036407Y0116140D03*
X0037057D03*
G54D90*
X0028054Y0105912D03*
X0029554D03*
X0034946Y0102744D03*
X0036446D03*
G54D91*
X0009848Y0122357D03*
Y0121707D03*
X0008752Y0101959D03*
Y0102609D03*
X0023330Y0104433D03*
Y0105083D03*
X0031888Y0118561D03*
Y0117911D03*
X0031288Y0118545D03*
Y0117895D03*
X0026220Y0105195D03*
Y0105845D03*
X0026556Y0108663D03*
Y0109313D03*
X0009968Y0118067D03*
Y0118717D03*
X0007360Y0118805D03*
Y0118155D03*
X0010928Y0117629D03*
Y0116979D03*
X0024176Y0109889D03*
Y0109239D03*
X0032296Y0109845D03*
Y0109195D03*
X0028812Y0115731D03*
Y0116381D03*
X0030700Y0115703D03*
Y0116353D03*
X0028828Y0108247D03*
Y0108897D03*
X0033360Y0109933D03*
Y0109283D03*
X0033228Y0112773D03*
Y0112123D03*
X0033252Y0108261D03*
Y0107611D03*
X0029908Y0108679D03*
Y0109329D03*
X0027748Y0108671D03*
Y0109321D03*
X0025860Y0108667D03*
Y0109317D03*
X0024988Y0108679D03*
Y0109329D03*
X0023334Y0105713D03*
Y0106363D03*
X0025496Y0105161D03*
Y0104511D03*
Y0106361D03*
Y0105711D03*
G54D96*
X0014236Y0102362D03*
X0038382Y0102360D03*
X0014248Y0123092D03*
X0037516Y0121068D03*
G54D97*
X0037888Y0103988D03*
Y0106744D03*
G54D98*
X0038872Y0104480D03*
Y0106251D03*
G54D99*
X0038860Y0111820D03*
X0038073D03*
X0038860Y0111033D03*
X0038073D03*
X0038860Y0110245D03*
X0038073D03*
X0038860Y0109458D03*
X0038073D03*
X0038860Y0108670D03*
X0038073D03*
X0038860Y0107883D03*
X0038073D03*
X0038856Y0116544D03*
X0038069D03*
X0038856Y0115757D03*
X0038069D03*
X0038856Y0114969D03*
X0038069D03*
X0038856Y0114182D03*
X0038069D03*
X0038856Y0113394D03*
X0038069D03*
X0038856Y0112607D03*
X0038069D03*
X0014288Y0120304D03*
X0013501D03*
X0014288Y0119517D03*
X0013501D03*
X0014288Y0118729D03*
X0013501D03*
X0014288Y0117942D03*
X0013501D03*
X0014288Y0117154D03*
X0013501D03*
X0014288Y0116367D03*
X0013501D03*
X0014288Y0115580D03*
X0013501D03*
X0014288Y0114792D03*
X0013501D03*
X0014288Y0114005D03*
X0013501D03*
X0014288Y0113217D03*
X0013501D03*
X0014288Y0112430D03*
X0013501D03*
X0014288Y0111642D03*
X0013501D03*
X0014288Y0110855D03*
X0013501D03*
X0014288Y0110068D03*
X0013501D03*
X0014288Y0109280D03*
X0013501D03*
X0014288Y0108493D03*
X0013501D03*
X0014288Y0107705D03*
X0013501D03*
X0014288Y0106918D03*
X0013501D03*
X0014288Y0106131D03*
X0013501D03*
X0014288Y0105343D03*
X0013501D03*
X0014288Y0104556D03*
X0013501D03*
X0033548Y0101248D03*
Y0102035D03*
X0032761Y0101248D03*
Y0102035D03*
X0031973Y0101248D03*
Y0102035D03*
X0031186Y0101248D03*
Y0102035D03*
X0030398Y0101248D03*
Y0102035D03*
X0029611Y0101248D03*
Y0102035D03*
X0028824Y0101248D03*
Y0102035D03*
X0028036Y0101248D03*
Y0102035D03*
X0027249Y0101248D03*
Y0102035D03*
X0026461Y0101248D03*
Y0102035D03*
X0025674Y0101248D03*
Y0102035D03*
X0024886Y0101248D03*
Y0102035D03*
X0024099Y0101248D03*
Y0102035D03*
X0031788Y0119200D03*
Y0119987D03*
X0031012Y0119200D03*
Y0119987D03*
G54D100*
X0006036Y0123492D03*
X0008536D03*
X0007536Y0121992D03*
G54D105*
X0005150Y0114565D03*
Y0111731D03*
G54D106*
X0006397Y0114103D03*
Y0112193D03*
G54D108*
X0010998Y0107460D03*
X0010138D03*
X0007386Y0115544D03*
X0006526D03*
G54D120*
X0032283Y0110524D03*
X0031968D03*
X0031653D03*
X0031338D03*
X0031023D03*
X0030708D03*
X0030393D03*
X0030078D03*
X0029763D03*
X0029448D03*
X0029133D03*
X0028818D03*
X0028503D03*
X0028189D03*
X0027874D03*
X0027559D03*
X0027244D03*
X0026929D03*
X0026614D03*
X0026299D03*
X0025984D03*
X0025669D03*
X0025672Y0115085D03*
X0025984Y0115084D03*
X0026299D03*
X0026614D03*
X0026929D03*
X0027244D03*
X0027560Y0115085D03*
X0027874Y0115084D03*
X0028189D03*
X0028503D03*
X0028818D03*
X0029133D03*
X0029448D03*
X0029763D03*
X0030078D03*
X0030393D03*
X0030708D03*
X0031023D03*
X0031338D03*
X0031653D03*
X0031968D03*
X0032283D03*
X0025357Y0110523D03*
X0025043D03*
X0024728D03*
X0024413D03*
X0024099D03*
Y0115085D03*
X0024413D03*
X0024728D03*
X0025043D03*
X0025357D03*
G54D121*
X0036726Y0106930D03*
Y0106430D03*
Y0105930D03*
Y0105430D03*
X0034026D03*
Y0105930D03*
Y0106430D03*
Y0106930D03*
M02*
