*
G04 Mass Parameters ***
*
G04 Image ***
*
%INC:\CAINPCB\ECB_BF532\BF532_V1\ECB_532.BOT*%
%ICAS*%
%MOIN*%
%IPPOS*%
%ASAXBY*%
G74*%FSLAN2X34Y34*%
*
G04 Aperture Definitions ***
*
%ADD10R,0.0350X0.0300*%
%ADD11R,0.1000X0.0600*%
%ADD12R,0.0300X0.0350*%
%ADD13R,0.0600X0.1370*%
%ADD14R,0.0450X0.0350*%
%ADD15R,0.0320X0.0380*%
%ADD16R,0.0380X0.0320*%
%ADD17C,0.0775*%
%ADD18C,0.0669*%
%ADD19C,0.0550*%
%ADD20R,0.0550X0.0550*%
%ADD21C,0.1340*%
%ADD22C,0.0433*%
%ADD23R,0.1600X0.0750*%
%ADD24R,0.0236X0.0590*%
%ADD25O,0.0700X0.0110*%
%ADD26R,0.0700X0.0110*%
%ADD27O,0.0110X0.0700*%
%ADD28R,0.0110X0.0700*%
%ADD29R,0.0500X0.0160*%
%ADD30R,0.0100X0.0600*%
%ADD31R,0.1500X0.0450*%
%ADD32R,0.0160X0.0700*%
%ADD33R,0.0866X0.0512*%
%ADD34C,0.0600*%
%ADD35C,0.0236*%
%ADD36C,0.0080*%
%ADD37C,0.0100*%
%ADD38C,0.0079*%
%ADD39C,0.0236*%
%ADD40C,0.0315*%
%ADD41C,0.0157*%
%ADD42C,0.0394*%
%ADD43R,0.0350X0.0300*%
%ADD44R,0.0300X0.0350*%
%ADD45R,0.1000X0.0600*%
%ADD46R,0.0600X0.1000*%
%ADD47C,0.0775*%
%ADD48C,0.0669*%
%ADD49C,0.0550*%
%ADD50R,0.0550X0.0550*%
%ADD51C,0.1340*%
%ADD52C,0.0433*%
%ADD53R,0.0197X0.0551*%
%ADD54R,0.0800X0.0250*%
%ADD55C,0.0600*%
%ADD56C,0.0236*%
*
G04 Plot Data ***
*
G54D36*
G01X0030656Y0108704D02*
X0029884Y0107932D01*
X0023796D01*
X0023141Y0108587D01*
X0017779D01*
X0017476Y0108284D01*
X0017464D01*
X0034742Y0106930D02*
Y0107918D01*
X0034396Y0108264D01*
X0034388D01*
X0017464Y0108284D02*
X0017463Y0108283D01*
Y0107592D01*
X0031996Y0108848D02*
X0032004Y0108840D01*
Y0106688D01*
X0027672Y0102356D01*
Y0101956D01*
X0027392Y0101676D01*
X0025316D01*
X0024886Y0101248D01*
X0034256Y0101676D02*
X0028464D01*
X0028036Y0101248D01*
X0036726Y0106930D02*
X0036130D01*
X0031652Y0108668D02*
X0031820Y0108500D01*
Y0106748D01*
X0027724Y0102652D01*
X0026220D01*
X0025674Y0102106D01*
Y0102035D01*
G54D38*
G01X0026364Y0107156D02*
X0026480Y0107040D01*
X0031540D01*
X0033103Y0120400D02*
X0032812D01*
X0036824Y0120396D02*
X0036437D01*
X0032333Y0117168D02*
Y0116839D01*
X0030700Y0116664D02*
Y0116353D01*
X0019696Y0115612D02*
X0019421D01*
X0033948Y0115372D02*
X0033657D01*
X0029763Y0115511D02*
Y0115084D01*
X0031653D02*
Y0114559D01*
X0020760Y0114588D02*
Y0114030D01*
X0020366D01*
X0017428Y0113988D02*
X0016866D01*
Y0114346D02*
Y0113988D01*
X0016292D01*
X0016866D02*
Y0113610D01*
X0030708Y0111136D02*
Y0110524D01*
X0028818Y0111110D02*
Y0110524D01*
X0029115Y0109908D02*
X0028836D01*
X0027519Y0109904D02*
X0027212D01*
X0029908Y0109329D02*
X0029601D01*
X0027987Y0109321D02*
X0027748D01*
X0024176Y0109239D02*
Y0108944D01*
X0028828Y0109264D02*
Y0108897D01*
X0033252Y0107611D02*
Y0107324D01*
X0037330Y0105430D02*
X0036726D01*
X0023326Y0103149D02*
X0022969D01*
X0025216Y0105436D02*
X0025491Y0105161D01*
X0025496D01*
Y0105711D02*
X0025491D01*
X0025216Y0105436D01*
X0023504Y0106900D02*
X0023334Y0106730D01*
Y0106363D01*
X0032296Y0109195D02*
Y0108696D01*
X0032312Y0108680D01*
X0033360Y0109283D02*
X0032384D01*
X0032296Y0109195D01*
X0026880Y0109236D02*
X0026876D01*
X0026799Y0109313D01*
X0026556D01*
X0026144Y0109272D02*
Y0109290D01*
X0026117Y0109317D01*
X0025860D01*
X0025320Y0109272D02*
Y0109296D01*
X0025287Y0109329D01*
X0024988D01*
X0037461Y0108678D02*
X0037382D01*
X0036969Y0109091D01*
Y0109636D01*
X0030907Y0109744D02*
X0030640D01*
X0030608Y0109712D01*
X0034777Y0110992D02*
X0036316D01*
X0036973Y0111649D01*
Y0111808D01*
X0033228Y0112123D02*
X0032711D01*
X0032704Y0112116D01*
X0036973Y0111808D02*
Y0112345D01*
X0037243Y0112615D01*
X0037461D01*
X0036977Y0113980D02*
Y0113886D01*
X0037461Y0113402D01*
X0034816Y0114116D02*
X0034577Y0113877D01*
Y0113804D01*
X0024099Y0115085D02*
X0023865D01*
X0023788Y0115008D01*
X0032240Y0115624D02*
X0032283Y0115581D01*
Y0115084D01*
X0037236Y0116948D02*
X0037057Y0116769D01*
Y0116140D01*
X0029136Y0116500D02*
X0029017Y0116381D01*
X0028812D01*
X0028189Y0115084D02*
Y0115975D01*
X0027468Y0116696D01*
X0026916D01*
X0025684Y0117308D02*
X0025840Y0117152D01*
X0026107D01*
X0028283Y0117180D02*
X0028104D01*
X0027881Y0117403D01*
Y0117796D01*
X0028283Y0117180D02*
Y0117715D01*
X0029048Y0118480D01*
Y0118488D01*
X0029122Y0118562D01*
X0029476Y0114512D02*
X0029376Y0114612D01*
X0028992D01*
X0028818Y0114785D01*
Y0115084D01*
X0026757Y0117152D02*
X0026758Y0117153D01*
Y0117350D01*
X0026696Y0117412D01*
X0029060Y0117436D02*
X0028933Y0117309D01*
Y0117180D01*
X0018763Y0116173D02*
Y0115620D01*
X0018771Y0115612D01*
X0030700Y0115703D02*
Y0115409D01*
X0030708Y0115400D01*
X0028812Y0115731D02*
Y0115090D01*
X0028818Y0115084D01*
X0033927Y0113804D02*
X0033840D01*
X0033824Y0113788D01*
X0024099Y0110523D02*
Y0110149D01*
X0024116Y0110132D01*
X0029763Y0110161D02*
Y0109910D01*
X0029765Y0109908D01*
X0028189Y0110151D02*
X0028169Y0110132D01*
Y0109904D01*
X0024116Y0110132D02*
X0024176Y0110072D01*
Y0109889D01*
X0032283Y0110125D02*
X0032296Y0110112D01*
Y0109845D01*
X0031653Y0110524D02*
Y0109840D01*
X0031557Y0109744D01*
X0029608Y0108680D02*
X0029907D01*
X0029908Y0108679D01*
X0024712Y0108688D02*
X0024979D01*
X0024988Y0108679D01*
X0027748Y0108671D02*
X0027745Y0108668D01*
X0027432D01*
X0025536Y0108672D02*
X0025855D01*
X0025860Y0108667D01*
X0033251Y0108553D02*
Y0108262D01*
X0033252Y0108261D01*
X0034620Y0106544D02*
X0034506Y0106430D01*
X0034026D01*
X0035629Y0104832D02*
X0035944D01*
X0036032Y0104744D01*
X0037318Y0105930D02*
X0036726D01*
X0034026Y0106930D02*
Y0106430D01*
X0018464Y0107592D02*
X0018113D01*
X0031557Y0109744D02*
Y0109437D01*
X0021137Y0110233D02*
Y0109960D01*
X0032283Y0110524D02*
Y0110125D01*
X0028189Y0110524D02*
Y0110151D01*
X0029763Y0110524D02*
Y0110161D01*
X0034127Y0110992D02*
X0033860D01*
X0018366Y0113988D02*
Y0113626D01*
Y0113988D02*
X0017768D01*
X0018366Y0114350D02*
Y0113988D01*
X0018964D02*
X0018366D01*
X0030708Y0115400D02*
Y0115084D01*
X0031683Y0117489D02*
Y0117168D01*
X0027860Y0118952D02*
X0027231Y0118323D01*
Y0117796D01*
X0032612Y0115628D02*
X0032751D01*
X0033007Y0115372D01*
X0032589Y0112917D02*
X0032733Y0112773D01*
X0033228D01*
X0032703Y0110159D02*
X0032929Y0109933D01*
X0033360D01*
X0028428Y0108580D02*
X0028761Y0108247D01*
X0028828D01*
X0033976Y0115768D02*
Y0116776D01*
X0035172Y0117972D01*
Y0119856D01*
X0035032Y0119996D01*
Y0120716D01*
X0035116Y0120800D01*
Y0122140D01*
X0035536Y0122560D01*
X0034340Y0104420D02*
X0033120D01*
X0032476Y0105064D01*
Y0106896D01*
X0026929Y0115084D02*
Y0113853D01*
X0026796Y0113720D01*
X0034340Y0104420D02*
X0034352D01*
X0034764Y0104832D01*
X0034979D01*
X0026220Y0105195D02*
Y0105012D01*
X0025836Y0104628D01*
X0032472Y0118740D02*
X0034084D01*
X0034672Y0119328D01*
Y0119648D01*
X0034660Y0119660D01*
X0028503Y0110524D02*
X0028496Y0110531D01*
Y0113904D01*
X0028948Y0114356D01*
X0029156D01*
X0027244Y0115084D02*
Y0113688D01*
X0027304Y0113628D01*
X0027332D01*
X0026560Y0112364D02*
Y0111124D01*
X0022604Y0113776D02*
X0022736Y0113908D01*
X0026192D01*
X0026848Y0113252D01*
X0027320D01*
X0027580Y0113512D01*
Y0115065D01*
X0027560Y0115085D01*
X0025496Y0106361D02*
X0025743D01*
X0025822Y0106281D01*
X0036328Y0121040D02*
X0036100Y0120812D01*
Y0118376D01*
X0034340Y0116616D01*
Y0115864D01*
X0034336Y0115860D01*
X0030393Y0115084D02*
X0030356Y0115121D01*
Y0116260D01*
X0030264Y0116352D01*
X0025822Y0106281D02*
X0026220Y0105884D01*
Y0105845D01*
X0034779Y0121876D02*
Y0121487D01*
X0034764Y0121472D01*
X0024220Y0105976D02*
X0023957Y0105713D01*
X0023334D01*
X0020487Y0109960D02*
X0020396D01*
X0020264Y0109828D01*
X0033936Y0110452D02*
X0034056Y0110332D01*
X0034868D01*
X0035724Y0109476D01*
Y0106912D01*
X0036206Y0106430D01*
X0036726D01*
X0029133Y0115084D02*
X0029136Y0115086D01*
Y0116076D01*
X0029216Y0116156D01*
X0035429Y0121876D02*
X0035432Y0121873D01*
Y0121572D01*
X0032740Y0107108D02*
Y0105620D01*
X0033192Y0105168D01*
X0027120Y0111484D02*
X0027244Y0111360D01*
Y0110524D01*
X0026868Y0111204D02*
X0026929Y0111143D01*
Y0110524D01*
X0019228Y0113296D02*
X0020976D01*
X0021040Y0113232D01*
X0033753Y0120400D02*
X0034181D01*
X0034252Y0120328D01*
X0034026Y0105430D02*
X0033374D01*
X0033216Y0105588D01*
Y0106948D01*
X0033688Y0107420D01*
Y0110556D01*
X0033820Y0110688D01*
X0034116D01*
X0034232Y0110572D01*
X0034026Y0105930D02*
X0034434D01*
X0035028Y0106524D01*
Y0109212D01*
X0034164Y0110076D01*
X0023330Y0104433D02*
Y0103803D01*
X0023326Y0103799D01*
X0028503Y0115084D02*
Y0116639D01*
X0028728Y0116864D01*
X0029228D01*
X0035787Y0120396D02*
X0035714Y0120323D01*
X0035275D01*
X0031344Y0112556D02*
X0031338Y0112550D01*
Y0110524D01*
X0024413Y0115085D02*
Y0115411D01*
X0024312Y0115512D01*
X0023916D01*
X0023792Y0115388D01*
X0031023Y0110524D02*
X0031016Y0110531D01*
Y0112884D01*
X0031000Y0112900D01*
X0031012Y0116036D02*
Y0115095D01*
X0031023Y0115084D01*
X0025836Y0104628D02*
X0025719Y0104511D01*
X0025496D01*
X0030393Y0110524D02*
X0030392Y0110525D01*
Y0113104D01*
X0030400Y0113112D01*
X0027432Y0111664D02*
X0027559Y0111537D01*
Y0110524D01*
X0025660Y0111972D02*
Y0110533D01*
X0025669Y0110524D01*
X0031972Y0116148D02*
Y0115088D01*
X0031968Y0115084D01*
X0030072Y0113280D02*
X0030078Y0113274D01*
Y0110524D01*
X0025356Y0113036D02*
X0025357Y0113035D01*
Y0110523D01*
X0025980Y0115656D02*
X0025984Y0115652D01*
Y0115084D01*
X0024484Y0113356D02*
X0024413Y0113285D01*
Y0110523D01*
X0029608Y0116024D02*
X0029448Y0115864D01*
Y0115084D01*
X0036319Y0109817D02*
Y0109636D01*
X0038872Y0106251D02*
X0037032Y0104411D01*
X0024728Y0113080D02*
Y0110523D01*
X0025272Y0115912D02*
X0025357Y0115827D01*
Y0115085D01*
X0036400Y0116312D02*
X0036407Y0116305D01*
Y0116140D01*
X0029640Y0113532D02*
X0029448Y0113340D01*
Y0110524D01*
X0036332Y0114152D02*
X0036327Y0114147D01*
Y0113980D01*
X0025044Y0113280D02*
X0025043Y0113279D01*
Y0110523D01*
X0026056Y0112700D02*
X0025984Y0112628D01*
Y0110524D01*
X0024968Y0115736D02*
X0025043Y0115661D01*
Y0115085D01*
X0033583Y0121868D02*
X0033584Y0121867D01*
Y0121576D01*
X0024220Y0104056D02*
X0023963Y0103799D01*
X0023326D01*
X0026296Y0115896D02*
X0026299Y0115893D01*
Y0115084D01*
X0023334Y0105713D02*
Y0105087D01*
X0023330Y0105083D01*
X0024624Y0109932D02*
X0024915D01*
X0024923Y0109924D01*
X0026612Y0115716D02*
Y0115086D01*
X0026614Y0115084D01*
X0026192Y0113112D02*
X0026299Y0113005D01*
Y0110524D01*
X0034233Y0121868D02*
X0034240Y0121861D01*
Y0121580D01*
X0025668Y0115844D02*
X0025672Y0115840D01*
Y0115085D01*
X0029133Y0110524D02*
X0029140Y0110530D01*
Y0113980D01*
X0029144Y0113984D01*
X0026312Y0108664D02*
X0026555D01*
X0026556Y0108663D01*
X0025573Y0109924D02*
X0025932D01*
X0025972Y0109964D01*
Y0110000D01*
X0031328Y0116196D02*
Y0115094D01*
X0031338Y0115084D01*
X0036328Y0111960D02*
X0036323Y0111955D01*
Y0111808D01*
X0031340Y0112564D02*
X0031344Y0112560D01*
Y0112556D01*
X0030076Y0115992D02*
Y0115086D01*
X0030078Y0115084D01*
X0026614Y0110524D02*
Y0109846D01*
X0026612Y0109844D01*
X0031968Y0110524D02*
Y0111964D01*
X0031672Y0112260D01*
Y0112268D01*
X0027872Y0111764D02*
X0027874Y0111762D01*
Y0110524D01*
X0024640Y0115604D02*
X0024728Y0115516D01*
Y0115085D01*
X0020648Y0111708D02*
X0018460D01*
X0026540Y0113116D02*
X0026980Y0112676D01*
Y0112360D01*
G54D41*
G01X0020760Y0115530D02*
X0022550D01*
X0022668Y0115412D01*
G54D39*
X0027332Y0113628D03*
X0026560Y0112364D03*
X0033584Y0121576D03*
X0034240Y0121580D03*
G54D43*
X0018113Y0107592D03*
X0017463D03*
X0020487Y0109960D03*
X0021137D03*
X0024923Y0109924D03*
X0025573D03*
X0035629Y0104832D03*
X0034979D03*
X0035429Y0121876D03*
X0034779D03*
X0035787Y0120396D03*
X0036437D03*
X0033753Y0120400D03*
X0033103D03*
X0034233Y0121868D03*
X0033583D03*
X0028169Y0109904D03*
X0027519D03*
X0031557Y0109744D03*
X0030907D03*
X0029765Y0109908D03*
X0029115D03*
X0019421Y0115612D03*
X0018771D03*
X0033007Y0115372D03*
X0033657D03*
X0027231Y0117796D03*
X0027881D03*
X0026757Y0117152D03*
X0026107D03*
X0028933Y0117180D03*
X0028283D03*
X0031683Y0117168D03*
X0032333D03*
X0033927Y0113804D03*
X0034577D03*
X0034127Y0110992D03*
X0034777D03*
X0036319Y0109636D03*
X0036969D03*
X0036323Y0111808D03*
X0036973D03*
X0036327Y0113980D03*
X0036977D03*
X0036407Y0116140D03*
X0037057D03*
G54D44*
X0023330Y0104433D03*
Y0105083D03*
X0026220Y0105195D03*
Y0105845D03*
X0026556Y0108663D03*
Y0109313D03*
X0024176Y0109889D03*
Y0109239D03*
X0032296Y0109845D03*
Y0109195D03*
X0028812Y0115731D03*
Y0116381D03*
X0030700Y0115703D03*
Y0116353D03*
X0028828Y0108247D03*
Y0108897D03*
X0033360Y0109933D03*
Y0109283D03*
X0033228Y0112773D03*
Y0112123D03*
X0033252Y0108261D03*
Y0107611D03*
X0029908Y0108679D03*
Y0109329D03*
X0027748Y0108671D03*
Y0109321D03*
X0025860Y0108667D03*
Y0109317D03*
X0024988Y0108679D03*
Y0109329D03*
X0023326Y0103149D03*
Y0103799D03*
X0023334Y0105713D03*
Y0106363D03*
X0025496Y0105161D03*
Y0104511D03*
Y0106361D03*
Y0105711D03*
G54D45*
X0018366Y0113988D03*
X0016866D03*
G54D46*
X0020760Y0115530D03*
Y0114030D03*
G54D47*
X0037888Y0103988D03*
Y0106744D03*
G54D48*
X0038872Y0104480D03*
Y0106251D03*
G54D49*
X0038744Y0121964D03*
Y0122964D03*
Y0123964D03*
X0031532Y0119692D03*
X0028480Y0119696D03*
X0037660Y0119660D03*
X0036660D03*
X0035660D03*
X0034660D03*
X0033660D03*
X0032660D03*
G54D50*
X0038744Y0120964D03*
X0030532Y0119692D03*
X0029480Y0119696D03*
X0038660Y0119660D03*
G54D51*
X0018676Y0122592D03*
X0021176D03*
X0020176Y0121092D03*
G54D52*
X0033548Y0101248D03*
Y0102035D03*
X0032761Y0101248D03*
Y0102035D03*
X0031973Y0101248D03*
Y0102035D03*
X0031186Y0101248D03*
Y0102035D03*
X0030398Y0101248D03*
Y0102035D03*
X0029611Y0101248D03*
Y0102035D03*
X0028824Y0101248D03*
Y0102035D03*
X0028036Y0101248D03*
Y0102035D03*
X0027249Y0101248D03*
Y0102035D03*
X0026461Y0101248D03*
Y0102035D03*
X0025674Y0101248D03*
Y0102035D03*
X0024886Y0101248D03*
Y0102035D03*
X0024099Y0101248D03*
Y0102035D03*
X0038248Y0111828D03*
X0037461D03*
X0038248Y0111041D03*
X0037461D03*
X0038248Y0110253D03*
X0037461D03*
X0038248Y0109466D03*
X0037461D03*
X0038248Y0108678D03*
X0037461D03*
X0038248Y0107891D03*
X0037461D03*
X0038248Y0116552D03*
X0037461D03*
X0038248Y0115765D03*
X0037461D03*
X0038248Y0114977D03*
X0037461D03*
X0038248Y0114190D03*
X0037461D03*
X0038248Y0113402D03*
X0037461D03*
X0038248Y0112615D03*
X0037461D03*
G54D53*
X0032283Y0110524D03*
X0031968D03*
X0031653D03*
X0031338D03*
X0031023D03*
X0030708D03*
X0030393D03*
X0030078D03*
X0029763D03*
X0029448D03*
X0029133D03*
X0028818D03*
X0028503D03*
X0028189D03*
X0027874D03*
X0027559D03*
X0027244D03*
X0026929D03*
X0026614D03*
X0026299D03*
X0025984D03*
X0025669D03*
X0025672Y0115085D03*
X0025984Y0115084D03*
X0026299D03*
X0026614D03*
X0026929D03*
X0027244D03*
X0027560Y0115085D03*
X0027874Y0115084D03*
X0028189D03*
X0028503D03*
X0028818D03*
X0029133D03*
X0029448D03*
X0029763D03*
X0030078D03*
X0030393D03*
X0030708D03*
X0031023D03*
X0031338D03*
X0031653D03*
X0031968D03*
X0032283D03*
X0025357Y0110523D03*
X0025043D03*
X0024728D03*
X0024413D03*
X0024099D03*
Y0115085D03*
X0024413D03*
X0024728D03*
X0025043D03*
X0025357D03*
G54D54*
X0036726Y0106930D03*
Y0106430D03*
Y0105930D03*
Y0105430D03*
X0034026D03*
Y0105930D03*
Y0106430D03*
Y0106930D03*
G54D55*
X0024220Y0104056D03*
Y0105976D03*
G54D56*
X0036796Y0101680D03*
X0034256Y0101676D03*
X0031652Y0108668D03*
X0031557Y0109437D03*
X0031996Y0108848D03*
X0032476Y0106896D03*
X0031540Y0107040D03*
X0025216Y0105436D03*
X0025836Y0104628D03*
X0025822Y0106281D03*
X0023504Y0106900D03*
X0022969Y0103149D03*
X0028428Y0108580D03*
X0018464Y0107592D03*
X0017464Y0108284D03*
X0030656Y0108704D03*
X0034388Y0108264D03*
X0034742Y0106930D03*
X0036130D03*
X0037318Y0105930D03*
X0033192Y0105168D03*
X0032740Y0107108D03*
X0037330Y0105430D03*
X0034620Y0106544D03*
X0034232Y0110572D03*
X0033936Y0110452D03*
X0034164Y0110076D03*
X0035913Y0105783D03*
X0037032Y0104411D03*
X0034340Y0104420D03*
X0036032Y0104744D03*
X0034228Y0104972D03*
X0034897Y0104397D03*
Y0103999D03*
X0036406Y0104426D03*
X0033208Y0124008D03*
X0020366Y0114030D03*
X0020760Y0114588D03*
X0016292Y0113988D03*
X0017428D03*
X0016866Y0114346D03*
Y0113610D03*
X0018366Y0113626D03*
X0017768Y0113988D03*
X0018366Y0114350D03*
X0018964Y0113988D03*
X0016012Y0119280D03*
X0017136D03*
X0016578Y0119630D03*
Y0118922D03*
X0018078Y0118894D03*
X0017516Y0119280D03*
X0018078Y0119654D03*
X0018672Y0119268D03*
X0020088Y0104820D03*
X0020092Y0104484D03*
X0020076Y0104156D03*
X0020610Y0104178D03*
X0021078D03*
Y0104498D03*
Y0104834D03*
X0020590D03*
X0035416Y0107880D03*
X0021286Y0106983D03*
X0021679Y0106195D03*
X0021176Y0106204D03*
X0021400Y0105748D03*
X0020644Y0108224D03*
Y0107564D03*
X0021644D03*
X0021636Y0108224D03*
X0021154Y0108226D03*
X0022559Y0105857D03*
X0022800Y0106112D03*
X0022596Y0106368D03*
X0027860Y0118952D03*
X0032612Y0115628D03*
X0033948Y0115372D03*
X0032704Y0112116D03*
X0032589Y0112917D03*
X0032703Y0110159D03*
X0028828Y0109264D03*
X0021520Y0110328D03*
X0022656Y0110356D03*
X0021516Y0112036D03*
X0022624D03*
X0021476Y0115972D03*
X0022668Y0115412D03*
X0037236Y0116948D03*
X0030523Y0124337D03*
X0029735D03*
X0028948D03*
X0030129Y0123549D03*
X0029342D03*
X0030523Y0122762D03*
X0029735D03*
X0028948D03*
X0030129Y0121975D03*
X0029342D03*
X0030523Y0121187D03*
X0029735D03*
X0028948D03*
X0030129Y0120400D03*
X0029342D03*
X0031184Y0121212D03*
X0031188Y0120876D03*
X0031524Y0120872D03*
X0031856Y0120876D03*
Y0121216D03*
X0031196Y0121564D03*
Y0121900D03*
Y0122272D03*
X0031536D03*
X0031856D03*
Y0121908D03*
Y0121576D03*
X0031864Y0123408D03*
X0031816Y0123076D03*
X0031480D03*
X0031164D03*
Y0123432D03*
Y0123808D03*
Y0124152D03*
Y0124500D03*
X0031536D03*
X0031860D03*
X0031856Y0124104D03*
X0031896Y0123776D03*
X0024120Y0124580D03*
X0022587Y0120457D03*
X0022208Y0120796D03*
X0022040Y0107884D03*
X0022654Y0107490D03*
Y0108310D03*
X0023268Y0107884D03*
X0019504Y0105192D03*
Y0105732D03*
X0019182Y0105470D03*
X0019818D03*
X0019556Y0104792D03*
X0022090Y0104898D03*
X0021504Y0104488D03*
X0022664D03*
X0022084Y0104080D03*
X0026980Y0112360D03*
X0026540Y0113116D03*
X0026796Y0113720D03*
X0022604Y0113776D03*
X0037792Y0124076D03*
X0037501Y0123231D03*
X0036824Y0120396D03*
X0038045Y0117977D03*
X0036981Y0117981D03*
X0036000Y0117812D03*
X0034375Y0118067D03*
X0033297Y0118055D03*
X0032089Y0119205D03*
X0029988Y0118836D03*
X0025972Y0110000D03*
X0026560Y0111124D03*
X0024624Y0109932D03*
X0029476Y0114512D03*
X0029136Y0116500D03*
X0030700Y0116664D03*
X0030708Y0115400D03*
X0028836Y0109908D03*
X0029763Y0110161D03*
X0032283Y0110125D03*
X0030608Y0109712D03*
X0027212Y0109904D03*
X0028189Y0110151D03*
X0024176Y0108944D03*
X0024116Y0110132D03*
X0035275Y0123767D03*
X0032812Y0120400D03*
X0033526Y0120874D03*
X0034368Y0122624D03*
X0034940Y0124148D03*
X0033996Y0123748D03*
X0019696Y0115612D03*
X0018763Y0116173D03*
X0018757Y0107903D03*
X0017844Y0108180D03*
X0018960Y0117236D03*
X0018566Y0117234D03*
X0021137Y0110233D03*
X0020264Y0109828D03*
X0019695Y0107521D03*
X0018960Y0109576D03*
X0017582Y0109574D03*
X0029763Y0115511D03*
X0022420Y0109460D03*
X0021488Y0110780D03*
X0022440Y0112384D03*
X0022453Y0115133D03*
X0022445Y0116731D03*
X0021795Y0116845D03*
X0021532Y0114892D03*
X0023788Y0115008D03*
X0021504Y0112640D03*
X0022676Y0113064D03*
X0023788Y0109968D03*
X0021464Y0109660D03*
X0023788Y0109076D03*
X0023824Y0108688D03*
X0027546Y0107402D03*
X0026676Y0107320D03*
X0025528Y0107468D03*
X0025182Y0107466D03*
X0024000Y0107496D03*
X0024394Y0108518D03*
X0025320Y0109272D03*
X0026144D03*
X0026880Y0109236D03*
X0029601Y0109329D03*
X0027987Y0109321D03*
X0029828Y0107336D03*
X0032312Y0108680D03*
X0031052Y0108584D03*
X0028818Y0111110D03*
X0030708Y0111136D03*
X0031653Y0114559D03*
X0032240Y0115624D03*
X0032348Y0117444D03*
X0033251Y0117509D03*
X0032333Y0116839D03*
X0031184Y0117388D03*
X0029122Y0118562D03*
X0026916Y0116696D03*
X0025684Y0117308D03*
X0024656Y0117380D03*
X0023220Y0117596D03*
X0024000Y0117564D03*
X0029608Y0108680D03*
X0027432Y0108668D03*
X0025536Y0108672D03*
X0024712Y0108688D03*
X0032759Y0110947D03*
X0033860Y0110992D03*
X0033252Y0107324D03*
X0033251Y0108553D03*
X0034816Y0114116D03*
X0033824Y0113788D03*
X0032747Y0113705D03*
X0031683Y0117489D03*
X0029060Y0117436D03*
X0029156Y0114356D03*
X0026696Y0117412D03*
X0036319Y0109817D03*
X0036328Y0111960D03*
X0036332Y0114152D03*
X0036400Y0116312D03*
X0036328Y0121040D03*
X0035536Y0122560D03*
X0034336Y0115860D03*
X0033976Y0115768D03*
X0035275Y0120323D03*
X0034252Y0120328D03*
X0035432Y0121572D03*
X0034764Y0121472D03*
X0026364Y0107156D03*
X0032472Y0118740D03*
X0026312Y0108664D03*
X0021040Y0113232D03*
X0019228Y0113296D03*
X0020648Y0111708D03*
X0018460D03*
X0029144Y0113984D03*
X0029640Y0113532D03*
X0029228Y0116864D03*
X0030072Y0113280D03*
X0030400Y0113112D03*
X0031000Y0112900D03*
X0031344Y0112556D03*
X0031672Y0112268D03*
X0026612Y0109844D03*
X0029216Y0116156D03*
X0029608Y0116024D03*
X0030076Y0115992D03*
X0030264Y0116352D03*
X0031012Y0116036D03*
X0031328Y0116196D03*
X0031972Y0116148D03*
X0026056Y0112700D03*
X0026192Y0113112D03*
X0026868Y0111204D03*
X0027120Y0111484D03*
X0027432Y0111664D03*
X0025660Y0111972D03*
X0027872Y0111764D03*
X0024484Y0113356D03*
X0024728Y0113080D03*
X0025044Y0113280D03*
X0025356Y0113036D03*
X0026612Y0115716D03*
X0023792Y0115388D03*
X0024640Y0115604D03*
X0024968Y0115736D03*
X0025272Y0115912D03*
X0025668Y0115844D03*
X0025980Y0115656D03*
X0026296Y0115896D03*
M02*
