*
G04 Mass Parameters ***
*
G04 Image ***
*
%INC:\CAINPCB\ECB_BF532\BF532_V1\ECB_532.FAB*%
%ICAS*%
%MOIN*%
%IPPOS*%
%ASAXBY*%
G74*%FSLAN2X34Y34*%
*
G04 Aperture Definitions ***
*
%ADD10R,0.0350X0.0300*%
%ADD11R,0.1000X0.0600*%
%ADD12R,0.0300X0.0350*%
%ADD13R,0.0600X0.1370*%
%ADD14R,0.0450X0.0350*%
%ADD15R,0.0320X0.0380*%
%ADD16R,0.0380X0.0320*%
%ADD17C,0.0775*%
%ADD18C,0.0669*%
%ADD19C,0.0550*%
%ADD20R,0.0550X0.0550*%
%ADD21C,0.1340*%
%ADD22C,0.0433*%
%ADD23R,0.1600X0.0750*%
%ADD24R,0.0236X0.0590*%
%ADD25O,0.0700X0.0110*%
%ADD26R,0.0700X0.0110*%
%ADD27O,0.0110X0.0700*%
%ADD28R,0.0110X0.0700*%
%ADD29R,0.0500X0.0160*%
%ADD30R,0.0100X0.0600*%
%ADD31R,0.1500X0.0450*%
%ADD32R,0.0160X0.0700*%
%ADD33R,0.0866X0.0512*%
%ADD34C,0.0600*%
%ADD35C,0.0236*%
%ADD36C,0.0080*%
%ADD37C,0.0100*%
%ADD38C,0.0079*%
%ADD39C,0.0236*%
%ADD40C,0.0315*%
%ADD41C,0.0157*%
%ADD42C,0.0394*%
%ADD43R,0.0350X0.0300*%
%ADD44R,0.0300X0.0350*%
%ADD45R,0.1000X0.0600*%
%ADD46R,0.0600X0.1000*%
%ADD47C,0.0775*%
%ADD48C,0.0669*%
%ADD49C,0.0550*%
%ADD50R,0.0550X0.0550*%
%ADD51C,0.1340*%
%ADD52C,0.0433*%
%ADD53R,0.0197X0.0551*%
%ADD54R,0.0800X0.0250*%
%ADD55C,0.0600*%
%ADD56C,0.0236*%
%ADD57C,0.0776*%
%ADD58C,0.0750*%
%ADD59R,0.0750X0.0750*%
%ADD60C,0.1400*%
%ADD61C,0.0650*%
%ADD62C,0.0060*%
%ADD63C,0.0236*%
%ADD64C,0.0752*%
%ADD65R,0.0752X0.0752*%
%ADD66C,0.1401*%
%ADD67R,0.0400X0.0350*%
%ADD68R,0.1050X0.0650*%
%ADD69R,0.0350X0.0400*%
%ADD70R,0.0650X0.1420*%
%ADD71R,0.0500X0.0400*%
%ADD72R,0.0320X0.0380*%
%ADD73R,0.0380X0.0320*%
%ADD74C,0.0827*%
%ADD75C,0.0768*%
%ADD76C,0.1390*%
%ADD77C,0.0492*%
%ADD78R,0.1650X0.0800*%
%ADD79R,0.0276X0.0630*%
%ADD80O,0.0700X0.0110*%
%ADD81R,0.0700X0.0110*%
%ADD82O,0.0110X0.0700*%
%ADD83R,0.0110X0.0700*%
%ADD84R,0.0550X0.0210*%
%ADD85R,0.0140X0.0650*%
%ADD86R,0.1550X0.0500*%
%ADD87R,0.0210X0.0750*%
%ADD88R,0.0905X0.0551*%
%ADD89R,0.0650X0.1050*%
%ADD90R,0.0236X0.0590*%
%ADD91R,0.0850X0.0300*%
%ADD92C,0.0030*%
%ADD93C,0.0010*%
%ADD94C,0.0050*%
%ADD95C,0.0047*%
%ADD96C,0.0059*%
%ADD97C,0.0280*%
%ADD98C,0.0280*%
*
G04 Plot Data ***
*
G54D38*
G01X0015748Y0125128D02*
X0039532D01*
Y0103284D01*
X0039548Y0100724D01*
X0015792D01*
Y0103440D01*
X0015748Y0125128D01*
G54D97*
X0036796Y0101680D03*
X0034256Y0101676D03*
X0031652Y0108668D03*
X0031557Y0109437D03*
X0031996Y0108848D03*
X0032476Y0106896D03*
X0031540Y0107040D03*
X0025216Y0105436D03*
X0025836Y0104628D03*
X0025822Y0106281D03*
X0023504Y0106900D03*
X0022969Y0103149D03*
X0028428Y0108580D03*
X0018464Y0107592D03*
X0017464Y0108284D03*
X0030656Y0108704D03*
X0034388Y0108264D03*
X0034742Y0106930D03*
X0036130D03*
X0037318Y0105930D03*
X0033192Y0105168D03*
X0032740Y0107108D03*
X0037330Y0105430D03*
X0034620Y0106544D03*
X0034232Y0110572D03*
X0033936Y0110452D03*
X0034164Y0110076D03*
X0035913Y0105783D03*
X0037032Y0104411D03*
X0034340Y0104420D03*
X0036032Y0104744D03*
X0034228Y0104972D03*
X0034897Y0104397D03*
Y0103999D03*
X0036406Y0104426D03*
X0033208Y0124008D03*
X0020366Y0114030D03*
X0020760Y0114588D03*
X0016292Y0113988D03*
X0017428D03*
X0016866Y0114346D03*
Y0113610D03*
X0018366Y0113626D03*
X0017768Y0113988D03*
X0018366Y0114350D03*
X0018964Y0113988D03*
X0016012Y0119280D03*
X0017136D03*
X0016578Y0119630D03*
Y0118922D03*
X0018078Y0118894D03*
X0017516Y0119280D03*
X0018078Y0119654D03*
X0018672Y0119268D03*
X0020088Y0104820D03*
X0020092Y0104484D03*
X0020076Y0104156D03*
X0020610Y0104178D03*
X0021078D03*
Y0104498D03*
Y0104834D03*
X0020590D03*
X0035416Y0107880D03*
X0021286Y0106983D03*
X0021679Y0106195D03*
X0021176Y0106204D03*
X0021400Y0105748D03*
X0020644Y0108224D03*
Y0107564D03*
X0021644D03*
X0021636Y0108224D03*
X0021154Y0108226D03*
X0022559Y0105857D03*
X0022800Y0106112D03*
X0022596Y0106368D03*
X0027860Y0118952D03*
X0032612Y0115628D03*
X0033948Y0115372D03*
X0032704Y0112116D03*
X0032589Y0112917D03*
X0032703Y0110159D03*
X0028828Y0109264D03*
X0021520Y0110328D03*
X0022656Y0110356D03*
X0021516Y0112036D03*
X0022624D03*
X0021476Y0115972D03*
X0022668Y0115412D03*
X0037236Y0116948D03*
X0030523Y0124337D03*
X0029735D03*
X0028948D03*
X0030129Y0123549D03*
X0029342D03*
X0030523Y0122762D03*
X0029735D03*
X0028948D03*
X0030129Y0121975D03*
X0029342D03*
X0030523Y0121187D03*
X0029735D03*
X0028948D03*
X0030129Y0120400D03*
X0029342D03*
X0031184Y0121212D03*
X0031188Y0120876D03*
X0031524Y0120872D03*
X0031856Y0120876D03*
Y0121216D03*
X0031196Y0121564D03*
Y0121900D03*
Y0122272D03*
X0031536D03*
X0031856D03*
Y0121908D03*
Y0121576D03*
X0031864Y0123408D03*
X0031816Y0123076D03*
X0031480D03*
X0031164D03*
Y0123432D03*
Y0123808D03*
Y0124152D03*
Y0124500D03*
X0031536D03*
X0031860D03*
X0031856Y0124104D03*
X0031896Y0123776D03*
X0024120Y0124580D03*
X0022587Y0120457D03*
X0022208Y0120796D03*
X0022040Y0107884D03*
X0022654Y0107490D03*
Y0108310D03*
X0023268Y0107884D03*
X0019504Y0105192D03*
Y0105732D03*
X0019182Y0105470D03*
X0019818D03*
X0019556Y0104792D03*
X0022090Y0104898D03*
X0021504Y0104488D03*
X0022664D03*
X0022084Y0104080D03*
X0026980Y0112360D03*
X0026540Y0113116D03*
X0026796Y0113720D03*
X0022604Y0113776D03*
X0037792Y0124076D03*
X0037501Y0123231D03*
X0036824Y0120396D03*
X0038045Y0117977D03*
X0036981Y0117981D03*
X0036000Y0117812D03*
X0034375Y0118067D03*
X0033297Y0118055D03*
X0032089Y0119205D03*
X0029988Y0118836D03*
X0025972Y0110000D03*
X0026560Y0111124D03*
X0024624Y0109932D03*
X0029476Y0114512D03*
X0029136Y0116500D03*
X0030700Y0116664D03*
X0030708Y0115400D03*
X0028836Y0109908D03*
X0029763Y0110161D03*
X0032283Y0110125D03*
X0030608Y0109712D03*
X0027212Y0109904D03*
X0028189Y0110151D03*
X0024176Y0108944D03*
X0024116Y0110132D03*
X0035275Y0123767D03*
X0032812Y0120400D03*
X0033526Y0120874D03*
X0034368Y0122624D03*
X0034940Y0124148D03*
X0033996Y0123748D03*
X0019696Y0115612D03*
X0018763Y0116173D03*
X0018757Y0107903D03*
X0017844Y0108180D03*
X0018960Y0117236D03*
X0018566Y0117234D03*
X0021137Y0110233D03*
X0020264Y0109828D03*
X0019695Y0107521D03*
X0018960Y0109576D03*
X0017582Y0109574D03*
X0029763Y0115511D03*
X0022420Y0109460D03*
X0021488Y0110780D03*
X0022440Y0112384D03*
X0022453Y0115133D03*
X0022445Y0116731D03*
X0021795Y0116845D03*
X0021532Y0114892D03*
X0023788Y0115008D03*
X0021504Y0112640D03*
X0022676Y0113064D03*
X0023788Y0109968D03*
X0021464Y0109660D03*
X0023788Y0109076D03*
X0023824Y0108688D03*
X0027546Y0107402D03*
X0026676Y0107320D03*
X0025528Y0107468D03*
X0025182Y0107466D03*
X0024000Y0107496D03*
X0024394Y0108518D03*
X0025320Y0109272D03*
X0026144D03*
X0026880Y0109236D03*
X0029601Y0109329D03*
X0027987Y0109321D03*
X0029828Y0107336D03*
X0032312Y0108680D03*
X0031052Y0108584D03*
X0028818Y0111110D03*
X0030708Y0111136D03*
X0031653Y0114559D03*
X0032240Y0115624D03*
X0032348Y0117444D03*
X0033251Y0117509D03*
X0032333Y0116839D03*
X0031184Y0117388D03*
X0029122Y0118562D03*
X0026916Y0116696D03*
X0025684Y0117308D03*
X0024656Y0117380D03*
X0023220Y0117596D03*
X0024000Y0117564D03*
X0029608Y0108680D03*
X0027432Y0108668D03*
X0025536Y0108672D03*
X0024712Y0108688D03*
X0032759Y0110947D03*
X0033860Y0110992D03*
X0033252Y0107324D03*
X0033251Y0108553D03*
X0034816Y0114116D03*
X0033824Y0113788D03*
X0032747Y0113705D03*
X0031683Y0117489D03*
X0029060Y0117436D03*
X0029156Y0114356D03*
X0026696Y0117412D03*
X0036319Y0109817D03*
X0036328Y0111960D03*
X0036332Y0114152D03*
X0036400Y0116312D03*
X0036328Y0121040D03*
X0035536Y0122560D03*
X0034336Y0115860D03*
X0033976Y0115768D03*
X0035275Y0120323D03*
X0034252Y0120328D03*
X0035432Y0121572D03*
X0034764Y0121472D03*
X0026364Y0107156D03*
X0032472Y0118740D03*
X0026312Y0108664D03*
X0021040Y0113232D03*
X0019228Y0113296D03*
X0020648Y0111708D03*
X0018460D03*
X0029144Y0113984D03*
X0029640Y0113532D03*
X0029228Y0116864D03*
X0030072Y0113280D03*
X0030400Y0113112D03*
X0031000Y0112900D03*
X0031344Y0112556D03*
X0031672Y0112268D03*
X0026612Y0109844D03*
X0029216Y0116156D03*
X0029608Y0116024D03*
X0030076Y0115992D03*
X0030264Y0116352D03*
X0031012Y0116036D03*
X0031328Y0116196D03*
X0031972Y0116148D03*
X0026056Y0112700D03*
X0026192Y0113112D03*
X0026868Y0111204D03*
X0027120Y0111484D03*
X0027432Y0111664D03*
X0025660Y0111972D03*
X0027872Y0111764D03*
X0024484Y0113356D03*
X0024728Y0113080D03*
X0025044Y0113280D03*
X0025356Y0113036D03*
X0026612Y0115716D03*
X0023792Y0115388D03*
X0024640Y0115604D03*
X0024968Y0115736D03*
X0025272Y0115912D03*
X0025668Y0115844D03*
X0025980Y0115656D03*
X0026296Y0115896D03*
G54D98*
X0027332Y0113628D03*
X0026560Y0112364D03*
X0033584Y0121576D03*
X0034240Y0121580D03*
M02*
