*
G04 Mass Parameters ***
*
G04 Image ***
*
%INC:\CAINPCB\ECB_BF532\BF532_V1\ECB_532.SSB*%
%ICAS*%
%MOIN*%
%IPPOS*%
%ASAXBY*%
G74*%FSLAN2X34Y34*%
*
G04 Aperture Definitions ***
*
%ADD10R,0.0350X0.0300*%
%ADD11R,0.1000X0.0600*%
%ADD12R,0.0300X0.0350*%
%ADD13R,0.0600X0.1370*%
%ADD14R,0.0450X0.0350*%
%ADD15R,0.0320X0.0380*%
%ADD16R,0.0380X0.0320*%
%ADD17C,0.0775*%
%ADD18C,0.0669*%
%ADD19C,0.0550*%
%ADD20R,0.0550X0.0550*%
%ADD21C,0.1340*%
%ADD22C,0.0433*%
%ADD23R,0.1600X0.0750*%
%ADD24R,0.0236X0.0590*%
%ADD25O,0.0700X0.0110*%
%ADD26R,0.0700X0.0110*%
%ADD27O,0.0110X0.0700*%
%ADD28R,0.0110X0.0700*%
%ADD29R,0.0500X0.0160*%
%ADD30R,0.0100X0.0600*%
%ADD31R,0.1500X0.0450*%
%ADD32R,0.0160X0.0700*%
%ADD33R,0.0866X0.0512*%
%ADD34C,0.0600*%
%ADD35C,0.0236*%
%ADD36C,0.0080*%
%ADD37C,0.0100*%
%ADD38C,0.0079*%
%ADD39C,0.0236*%
%ADD40C,0.0315*%
%ADD41C,0.0157*%
%ADD42C,0.0394*%
%ADD43R,0.0350X0.0300*%
%ADD44R,0.0300X0.0350*%
%ADD45R,0.1000X0.0600*%
%ADD46R,0.0600X0.1000*%
%ADD47C,0.0775*%
%ADD48C,0.0669*%
%ADD49C,0.0550*%
%ADD50R,0.0550X0.0550*%
%ADD51C,0.1340*%
%ADD52C,0.0433*%
%ADD53R,0.0197X0.0551*%
%ADD54R,0.0800X0.0250*%
%ADD55C,0.0600*%
%ADD56C,0.0236*%
%ADD57C,0.0776*%
%ADD58C,0.0750*%
%ADD59R,0.0750X0.0750*%
%ADD60C,0.1400*%
%ADD61C,0.0650*%
%ADD62C,0.0060*%
%ADD63C,0.0236*%
%ADD64C,0.0752*%
%ADD65R,0.0752X0.0752*%
%ADD66C,0.1401*%
%ADD67R,0.0400X0.0350*%
%ADD68R,0.1050X0.0650*%
%ADD69R,0.0350X0.0400*%
%ADD70R,0.0650X0.1420*%
%ADD71R,0.0500X0.0400*%
%ADD72R,0.0320X0.0380*%
%ADD73R,0.0380X0.0320*%
%ADD74C,0.0827*%
%ADD75C,0.0768*%
%ADD76C,0.1390*%
%ADD77C,0.0492*%
%ADD78R,0.1650X0.0800*%
%ADD79R,0.0276X0.0630*%
%ADD80O,0.0700X0.0110*%
%ADD81R,0.0700X0.0110*%
%ADD82O,0.0110X0.0700*%
%ADD83R,0.0110X0.0700*%
%ADD84R,0.0550X0.0210*%
%ADD85R,0.0140X0.0650*%
%ADD86R,0.1550X0.0500*%
%ADD87R,0.0210X0.0750*%
%ADD88R,0.0905X0.0551*%
%ADD89R,0.0650X0.1050*%
%ADD90R,0.0236X0.0590*%
%ADD91R,0.0850X0.0300*%
%ADD92C,0.0030*%
%ADD93C,0.0010*%
%ADD94C,0.0050*%
%ADD95C,0.0047*%
%ADD96C,0.0059*%
*
G04 Plot Data ***
*
G54D36*
G01X0036376Y0107180D02*
Y0105180D01*
X0034376D01*
Y0107180D01*
X0035126D01*
X0035626D02*
X0036376D01*
X0036776Y0107430D02*
X0037276D01*
X0037026Y0107180D01*
X0036776Y0107430D01*
G01X0035376Y0106930D02*
G03X0035626Y0107180I0000000J0000250D01*
G01X0035126D02*
G03X0035376Y0106930I0000250J0000000D01*
G54D62*
G01X0017488Y0107342D02*
Y0107292D01*
X0018088D01*
Y0107342D01*
X0017488Y0107842D02*
Y0107892D01*
X0018088D01*
Y0107842D01*
X0032595Y0110854D02*
X0023863D01*
Y0114754D01*
X0032595D01*
Y0113004D01*
X0032326D01*
Y0112604D01*
X0032595D01*
Y0110854D01*
X0032511Y0110448D02*
X0032711Y0110248D01*
Y0110648D01*
X0032511Y0110448D01*
X0035004Y0105082D02*
Y0105132D01*
X0035604D01*
Y0105082D01*
X0035004Y0104582D02*
Y0104532D01*
X0035604D01*
Y0104582D01*
X0030932Y0109994D02*
Y0110044D01*
X0031532D01*
Y0109994D01*
X0030932Y0109494D02*
Y0109444D01*
X0031532D01*
Y0109494D01*
X0029140Y0109658D02*
Y0109608D01*
X0029740D01*
Y0109658D01*
X0037032Y0115890D02*
Y0115840D01*
X0036432D01*
Y0115890D01*
X0037032Y0116390D02*
Y0116440D01*
X0036432D01*
Y0116390D01*
X0032978Y0112148D02*
X0032928D01*
Y0112748D01*
X0032978D01*
X0033478Y0112148D02*
X0033528D01*
Y0112748D01*
X0033478D01*
X0030158Y0109304D02*
X0030208D01*
Y0108704D01*
X0030158D01*
X0029658Y0109304D02*
X0029608D01*
Y0108704D01*
X0029658D01*
X0016766Y0114338D02*
Y0114838D01*
X0018116D01*
X0018466Y0114488D01*
Y0114338D01*
X0016766Y0113638D02*
Y0113138D01*
X0018116D01*
X0018466Y0113488D01*
Y0113638D01*
X0016766D02*
X0016779Y0113488D01*
X0018466D01*
Y0113638D01*
Y0114338D02*
Y0114488D01*
X0016766Y0114495D01*
Y0114338D01*
X0030950Y0116328D02*
X0031000D01*
Y0115728D01*
X0030950D01*
X0030450Y0116328D02*
X0030400D01*
Y0115728D01*
X0030450D01*
X0029062Y0116356D02*
X0029112D01*
Y0115756D01*
X0029062D01*
X0028562Y0116356D02*
X0028512D01*
Y0115756D01*
X0028562D01*
X0033608Y0122118D02*
Y0122168D01*
X0034208D01*
Y0122118D01*
X0033608Y0121618D02*
Y0121568D01*
X0034208D01*
Y0121618D01*
X0033128Y0120650D02*
Y0120700D01*
X0033728D01*
Y0120650D01*
X0020410Y0113930D02*
X0019910D01*
Y0115280D01*
X0020260Y0115630D01*
X0020410D01*
X0021110Y0113930D02*
X0021610D01*
Y0115280D01*
X0021260Y0115630D01*
X0021110D01*
Y0113930D02*
X0021260Y0113943D01*
Y0115630D01*
X0021110D01*
X0020410D02*
X0020260D01*
X0020253Y0113930D01*
X0020410D01*
X0027998Y0109296D02*
X0028048D01*
Y0108696D01*
X0027998D01*
X0027498Y0109296D02*
X0027448D01*
Y0108696D01*
X0027498D01*
X0023576Y0103774D02*
X0023626D01*
Y0103174D01*
X0023576D01*
X0023076Y0103774D02*
X0023026D01*
Y0103174D01*
X0023076D01*
X0028308Y0117430D02*
Y0117480D01*
X0028908D01*
Y0117430D01*
X0028308Y0116930D02*
Y0116880D01*
X0028908D01*
Y0116930D01*
X0033128Y0120150D02*
Y0120100D01*
X0033728D01*
Y0120150D01*
X0036412Y0120146D02*
Y0120096D01*
X0035812D01*
Y0120146D01*
X0036412Y0120646D02*
Y0120696D01*
X0035812D01*
Y0120646D01*
X0027856Y0117546D02*
Y0117496D01*
X0027256D01*
Y0117546D01*
X0027856Y0118046D02*
Y0118096D01*
X0027256D01*
Y0118046D01*
X0036944Y0109386D02*
Y0109336D01*
X0036344D01*
Y0109386D01*
X0036944Y0109886D02*
Y0109936D01*
X0036344D01*
Y0109886D01*
X0034804Y0122126D02*
Y0122176D01*
X0035404D01*
Y0122126D01*
X0034804Y0121626D02*
Y0121576D01*
X0035404D01*
Y0121626D01*
X0036952Y0113730D02*
Y0113680D01*
X0036352D01*
Y0113730D01*
X0036952Y0114230D02*
Y0114280D01*
X0036352D01*
Y0114230D01*
X0032308Y0116918D02*
Y0116868D01*
X0031708D01*
Y0116918D01*
X0032308Y0117418D02*
Y0117468D01*
X0031708D01*
Y0117418D01*
X0023584Y0106338D02*
X0023634D01*
Y0105738D01*
X0023584D01*
X0023084Y0106338D02*
X0023034D01*
Y0105738D01*
X0023084D01*
X0033632Y0115122D02*
Y0115072D01*
X0033032D01*
Y0115122D01*
X0033632Y0115622D02*
Y0115672D01*
X0033032D01*
Y0115622D01*
X0029140Y0110158D02*
Y0110208D01*
X0029740D01*
Y0110158D01*
X0033110Y0109308D02*
X0033060D01*
Y0109908D01*
X0033110D01*
X0034552Y0113554D02*
Y0113504D01*
X0033952D01*
Y0113554D01*
X0034552Y0114054D02*
Y0114104D01*
X0033952D01*
Y0114054D01*
X0025548Y0109674D02*
Y0109624D01*
X0024948D01*
Y0109674D01*
X0025548Y0110174D02*
Y0110224D01*
X0024948D01*
Y0110174D01*
X0033002Y0107636D02*
X0032952D01*
Y0108236D01*
X0033002D01*
X0033502Y0107636D02*
X0033552D01*
Y0108236D01*
X0033502D01*
X0033610Y0109308D02*
X0033660D01*
Y0109908D01*
X0033610D01*
X0036948Y0111558D02*
Y0111508D01*
X0036348D01*
Y0111558D01*
X0036948Y0112058D02*
Y0112108D01*
X0036348D01*
Y0112058D01*
X0034752Y0110742D02*
Y0110692D01*
X0034152D01*
Y0110742D01*
X0034752Y0111242D02*
Y0111292D01*
X0034152D01*
Y0111242D01*
X0027544Y0110154D02*
Y0110204D01*
X0028144D01*
Y0110154D01*
X0027544Y0109654D02*
Y0109604D01*
X0028144D01*
Y0109654D01*
X0032046Y0109220D02*
X0031996D01*
Y0109820D01*
X0032046D01*
X0032546Y0109220D02*
X0032596D01*
Y0109820D01*
X0032546D01*
X0023926Y0109264D02*
X0023876D01*
Y0109864D01*
X0023926D01*
X0024426Y0109264D02*
X0024476D01*
Y0109864D01*
X0024426D01*
X0026110Y0109292D02*
X0026160D01*
Y0108692D01*
X0026110D01*
X0025610Y0109292D02*
X0025560D01*
Y0108692D01*
X0025610D01*
X0026470Y0105820D02*
X0026520D01*
Y0105220D01*
X0026470D01*
X0025970Y0105820D02*
X0025920D01*
Y0105220D01*
X0025970D01*
X0026132Y0117402D02*
Y0117452D01*
X0026732D01*
Y0117402D01*
X0026132Y0116902D02*
Y0116852D01*
X0026732D01*
Y0116902D01*
X0021112Y0109710D02*
Y0109660D01*
X0020512D01*
Y0109710D01*
X0021112Y0110210D02*
Y0110260D01*
X0020512D01*
Y0110210D01*
X0025246Y0104536D02*
X0025196D01*
Y0105136D01*
X0025246D01*
X0025746Y0104536D02*
X0025796D01*
Y0105136D01*
X0025746D01*
X0025238Y0109304D02*
X0025288D01*
Y0108704D01*
X0025238D01*
X0024738Y0109304D02*
X0024688D01*
Y0108704D01*
X0024738D01*
X0023580Y0105058D02*
X0023630D01*
Y0104458D01*
X0023580D01*
X0023080Y0105058D02*
X0023030D01*
Y0104458D01*
X0023080D01*
X0029078Y0108872D02*
X0029128D01*
Y0108272D01*
X0029078D01*
X0028578Y0108872D02*
X0028528D01*
Y0108272D01*
X0028578D01*
X0018796Y0115862D02*
Y0115912D01*
X0019396D01*
Y0115862D01*
X0018796Y0115362D02*
Y0115312D01*
X0019396D01*
Y0115362D01*
X0025246Y0105736D02*
X0025196D01*
Y0106336D01*
X0025246D01*
X0025746Y0105736D02*
X0025796D01*
Y0106336D01*
X0025746D01*
X0026806Y0109288D02*
X0026856D01*
Y0108688D01*
X0026806D01*
X0026306Y0109288D02*
X0026256D01*
Y0108688D01*
X0026306D01*
G01X0017641Y0113187D02*
G03X0018316Y0113638I0000000J0000731D01*
G01X0016966D02*
G03X0017641Y0113187I0000675J0000280D01*
Y0114792D02*
G03X0016966Y0114338I0000000J0000729D01*
G01X0018316D02*
G03X0017641Y0114792I0000675J0000275D01*
G01X0021560Y0114805D02*
G03X0021110Y0115480I0000731J0000000D01*
Y0114130D02*
G03X0021560Y0114805I0000281J0000675D01*
G01X0019956D02*
G03X0020410Y0114130I0000729J0000000D01*
Y0115480D02*
G03X0019956Y0114805I0000275J0000675D01*
G54D92*
G01X0017266Y0114648D02*
X0017238D01*
X0017266Y0114621D02*
X0017195D01*
X0017266Y0114594D02*
X0017157D01*
X0017266Y0114567D02*
X0017123D01*
X0017266Y0114540D02*
X0017093D01*
X0017266Y0114513D02*
X0017066D01*
X0017266Y0114486D02*
X0017041D01*
X0017266Y0114459D02*
X0017019D01*
X0017266Y0114432D02*
X0016999D01*
X0017266Y0114405D02*
X0016980D01*
X0017266Y0114378D02*
X0016963D01*
X0017197Y0114622D02*
Y0114338D01*
X0017170Y0114604D02*
Y0114338D01*
X0017143Y0114583D02*
Y0114338D01*
X0017116Y0114561D02*
Y0114338D01*
X0017089Y0114536D02*
Y0114338D01*
X0017062Y0114509D02*
Y0114338D01*
X0017035Y0114478D02*
Y0114338D01*
X0017008Y0114444D02*
Y0114338D01*
X0016981Y0114406D02*
Y0114338D01*
X0016954Y0114362D02*
Y0114338D01*
X0017266Y0114351D02*
X0016948D01*
X0017266Y0114338D02*
X0016941D01*
X0017266Y0114663D02*
Y0114338D01*
X0017251Y0114655D02*
Y0114338D01*
X0017224Y0114639D02*
Y0114338D01*
X0017266Y0113623D02*
X0016949D01*
X0017266Y0113596D02*
X0016964D01*
X0017266Y0113569D02*
X0016981D01*
X0017266Y0113542D02*
X0017000D01*
X0017266Y0113515D02*
X0017021D01*
X0017266Y0113488D02*
X0017043D01*
X0017266Y0113461D02*
X0017068D01*
X0017266Y0113434D02*
X0017095D01*
X0017266Y0113407D02*
X0017125D01*
X0017266Y0113380D02*
X0017159D01*
X0017266Y0113353D02*
X0017198D01*
X0017197Y0113638D02*
Y0113353D01*
X0017170Y0113638D02*
Y0113372D01*
X0017143Y0113638D02*
Y0113393D01*
X0017116Y0113638D02*
Y0113415D01*
X0017089Y0113638D02*
Y0113440D01*
X0017062Y0113638D02*
Y0113467D01*
X0017035Y0113638D02*
Y0113497D01*
X0017008Y0113638D02*
Y0113531D01*
X0016981Y0113638D02*
Y0113570D01*
X0016954Y0113638D02*
Y0113614D01*
X0017266Y0113326D02*
X0017242D01*
X0017266Y0113638D02*
X0016941D01*
X0017266D02*
Y0113313D01*
X0017251Y0113638D02*
Y0113321D01*
X0017224Y0113638D02*
Y0113336D01*
X0020410Y0114415D02*
X0020093D01*
X0020410Y0114388D02*
X0020108D01*
X0020410Y0114361D02*
X0020125D01*
X0020410Y0114334D02*
X0020144D01*
X0020410Y0114307D02*
X0020165D01*
X0020410Y0114280D02*
X0020187D01*
X0020410Y0114253D02*
X0020212D01*
X0020410Y0114226D02*
X0020239D01*
X0020410Y0114199D02*
X0020269D01*
X0020410Y0114172D02*
X0020303D01*
X0020410Y0114145D02*
X0020342D01*
X0020341Y0114430D02*
Y0114145D01*
X0020314Y0114430D02*
Y0114164D01*
X0020287Y0114430D02*
Y0114185D01*
X0020260Y0114430D02*
Y0114207D01*
X0020233Y0114430D02*
Y0114232D01*
X0020206Y0114430D02*
Y0114259D01*
X0020179Y0114430D02*
Y0114289D01*
X0020152Y0114430D02*
Y0114323D01*
X0020125Y0114430D02*
Y0114362D01*
X0020098Y0114430D02*
Y0114406D01*
X0020410Y0114118D02*
X0020386D01*
X0020410Y0114430D02*
Y0114105D01*
Y0114430D02*
X0020085D01*
X0020395D02*
Y0114113D01*
X0020368Y0114430D02*
Y0114128D01*
X0021427Y0114415D02*
X0021110D01*
X0021411Y0114388D02*
X0021110D01*
X0021394Y0114361D02*
X0021110D01*
X0021376Y0114334D02*
X0021110D01*
X0021355Y0114307D02*
X0021110D01*
X0021333Y0114280D02*
X0021110D01*
X0021308Y0114253D02*
X0021110D01*
X0021281Y0114226D02*
X0021110D01*
X0021250Y0114199D02*
X0021110D01*
X0021216Y0114172D02*
X0021110D01*
X0021178Y0114145D02*
X0021110D01*
X0021366Y0114430D02*
Y0114321D01*
X0021339Y0114430D02*
Y0114287D01*
X0021312Y0114430D02*
Y0114257D01*
X0021285Y0114430D02*
Y0114230D01*
X0021258Y0114430D02*
Y0114205D01*
X0021231Y0114430D02*
Y0114183D01*
X0021204Y0114430D02*
Y0114163D01*
X0021177Y0114430D02*
Y0114144D01*
X0021150Y0114430D02*
Y0114127D01*
X0021123Y0114430D02*
Y0114112D01*
X0021134Y0114118D02*
X0021110D01*
Y0114430D02*
Y0114105D01*
X0021435Y0114430D02*
X0021110D01*
X0021420D02*
Y0114402D01*
X0021393Y0114430D02*
Y0114359D01*
G01X0017266Y0114663D02*
G03X0016941Y0114338I0000350J0000675D01*
Y0113638D02*
G03X0017266Y0113313I0000675J0000350D01*
G01X0020085Y0114430D02*
G03X0020410Y0114105I0000675J0000350D01*
G01X0021110D02*
G03X0021435Y0114430I0000350J0000675D01*
G54D95*
G01X0017451Y0108154D02*
X0017429Y0108198D01*
Y0108242D01*
X0017451Y0108286D01*
X0017582D01*
X0017604Y0108242D01*
Y0108198D01*
X0017582Y0108154D01*
X0017451D01*
X0017429Y0108111D01*
Y0108067D01*
X0017451Y0108023D01*
X0017582D01*
X0017604Y0108067D01*
Y0108111D01*
X0017582Y0108154D01*
X0017895Y0108067D02*
X0017851Y0108023D01*
X0017764D01*
X0017720Y0108067D01*
Y0108111D01*
X0017807Y0108198D01*
X0017720Y0108286D01*
X0017895D01*
X0018077Y0108154D02*
X0018011Y0108023D01*
X0018186Y0108154D02*
X0018055D01*
X0018011Y0108198D01*
Y0108242D01*
X0018055Y0108286D01*
X0018186D01*
Y0108023D01*
X0036486Y0116617D02*
X0036661D01*
X0036486Y0116792D01*
Y0116836D01*
X0036508Y0116880D01*
X0036639D01*
X0036661Y0116836D01*
X0036777Y0116661D02*
X0036799Y0116617D01*
X0036930D01*
X0036952Y0116661D01*
Y0116836D01*
X0036930Y0116880D01*
X0036799D01*
X0036777Y0116836D01*
X0033768Y0112839D02*
X0033812Y0112861D01*
X0033856D01*
X0033900Y0112839D01*
Y0112708D01*
X0033856Y0112686D01*
X0033812D01*
X0033768Y0112708D01*
Y0112839D01*
X0033725Y0112861D01*
X0033681D01*
X0033637Y0112839D01*
Y0112708D01*
X0033681Y0112686D01*
X0033725D01*
X0033768Y0112708D01*
X0033637Y0112570D02*
Y0112395D01*
X0033812Y0112570D01*
X0033856D01*
X0033900Y0112548D01*
Y0112417D01*
X0033856Y0112395D01*
X0033681Y0112279D02*
X0033637Y0112257D01*
Y0112126D01*
X0033681Y0112104D01*
X0033856D01*
X0033900Y0112126D01*
Y0112257D01*
X0033856Y0112279D01*
X0030349Y0109202D02*
X0030305Y0109224D01*
Y0109355D01*
X0030349Y0109377D01*
X0030436D01*
X0030480Y0109333D01*
Y0109202D01*
X0030568D01*
Y0109377D01*
X0030305Y0109086D02*
Y0108999D01*
Y0109042D02*
X0030568D01*
X0030524Y0108999D01*
X0030349Y0108839D02*
X0030305Y0108817D01*
Y0108686D01*
X0030349Y0108664D01*
X0030524D01*
X0030568Y0108686D01*
Y0108817D01*
X0030524Y0108839D01*
X0018657Y0114716D02*
Y0114541D01*
X0018569Y0114628D02*
X0018744D01*
X0017106Y0115074D02*
X0017281D01*
X0017193Y0115249D01*
X0017150D01*
Y0114987D01*
X0017397D02*
X0017572D01*
X0017397Y0115161D01*
Y0115205D01*
X0017419Y0115249D01*
X0017550D01*
X0017572Y0115205D01*
X0017688Y0115030D02*
X0017710Y0114987D01*
X0017841D01*
X0017863Y0115030D01*
Y0115205D01*
X0017841Y0115249D01*
X0017710D01*
X0017688Y0115205D01*
X0018657Y0114716D02*
Y0114541D01*
X0018569Y0114628D02*
X0018744D01*
X0035856Y0120968D02*
X0035725D01*
X0035703Y0120925D01*
Y0120881D01*
X0035725Y0120837D01*
X0035856D01*
X0035878Y0120881D01*
Y0120925D01*
X0035790Y0121100D01*
X0036169Y0120881D02*
X0036147Y0120837D01*
X0036016D01*
X0035994Y0120881D01*
Y0120968D01*
X0036038Y0121012D01*
X0036169D01*
Y0121100D01*
X0035994D01*
X0036285Y0120881D02*
X0036307Y0120837D01*
X0036438D01*
X0036460Y0120881D01*
Y0121056D01*
X0036438Y0121100D01*
X0036307D01*
X0036285Y0121056D01*
X0031042Y0109101D02*
X0031020Y0109057D01*
X0030889D01*
X0030867Y0109101D01*
Y0109188D01*
X0030911Y0109232D01*
X0031042D01*
Y0109320D01*
X0030867D01*
X0031158Y0109145D02*
X0031333D01*
X0031245Y0109320D01*
X0031202D01*
Y0109057D01*
X0031449Y0109101D02*
X0031471Y0109057D01*
X0031602D01*
X0031624Y0109101D01*
Y0109276D01*
X0031602Y0109320D01*
X0031471D01*
X0031449Y0109276D01*
X0033876Y0109991D02*
Y0109860D01*
X0033920Y0109838D01*
X0033964D01*
X0034008Y0109860D01*
Y0109991D01*
X0033964Y0110013D01*
X0033920D01*
X0033745Y0109926D01*
Y0109722D02*
Y0109547D01*
X0033920Y0109722D01*
X0033964D01*
X0034008Y0109700D01*
Y0109569D01*
X0033964Y0109547D01*
X0033789Y0109431D02*
X0033745Y0109409D01*
Y0109278D01*
X0033789Y0109256D01*
X0033964D01*
X0034008Y0109278D01*
Y0109409D01*
X0033964Y0109431D01*
X0020032Y0115821D02*
X0020207D01*
X0020119Y0115733D02*
Y0115908D01*
X0020503Y0113126D02*
X0020678D01*
X0020591Y0113301D01*
X0020547D01*
Y0113038D01*
X0020970Y0113082D02*
X0020926Y0113038D01*
X0020838D01*
X0020795Y0113082D01*
Y0113126D01*
X0020882Y0113213D01*
X0020795Y0113301D01*
X0020970D01*
X0021086Y0113082D02*
X0021108Y0113038D01*
X0021239D01*
X0021261Y0113082D01*
Y0113257D01*
X0021239Y0113301D01*
X0021108D01*
X0021086Y0113257D01*
X0020032Y0115821D02*
X0020207D01*
X0020119Y0115733D02*
Y0115908D01*
X0028237Y0109349D02*
Y0109174D01*
X0028412Y0109262D01*
Y0109305D01*
X0028149D01*
Y0109058D02*
Y0108971D01*
Y0109014D02*
X0028412D01*
X0028368Y0108971D01*
X0028193Y0108811D02*
X0028149Y0108789D01*
Y0108658D01*
X0028193Y0108636D01*
X0028368D01*
X0028412Y0108658D01*
Y0108789D01*
X0028368Y0108811D01*
X0023886Y0103694D02*
Y0103563D01*
X0023930Y0103541D01*
X0023974D01*
X0024018Y0103563D01*
Y0103694D01*
X0023974Y0103716D01*
X0023930D01*
X0023755Y0103628D01*
X0023799Y0103425D02*
X0023755Y0103403D01*
Y0103272D01*
X0023799Y0103250D01*
X0023974D01*
X0024018Y0103272D01*
Y0103403D01*
X0023974Y0103425D01*
X0028388Y0117649D02*
X0028432Y0117693D01*
X0028454Y0117737D01*
Y0117824D01*
X0028432Y0117868D01*
X0028388Y0117912D01*
X0028344D01*
X0028301Y0117868D01*
X0028279Y0117824D01*
Y0117737D01*
X0028301Y0117693D01*
X0028344Y0117649D01*
X0028388D01*
X0028570D02*
X0028745D01*
X0028570Y0117824D01*
Y0117868D01*
X0028592Y0117912D01*
X0028723D01*
X0028745Y0117868D01*
X0028861Y0117693D02*
X0028883Y0117649D01*
X0029014D01*
X0029036Y0117693D01*
Y0117868D01*
X0029014Y0117912D01*
X0028883D01*
X0028861Y0117868D01*
X0026147Y0117621D02*
X0026234D01*
X0026190D02*
Y0117884D01*
X0026234Y0117840D01*
X0026394Y0117621D02*
X0026569D01*
X0026394Y0117796D01*
Y0117840D01*
X0026416Y0117884D01*
X0026547D01*
X0026569Y0117840D01*
X0026685Y0117665D02*
X0026707Y0117621D01*
X0026838D01*
X0026860Y0117665D01*
Y0117840D01*
X0026838Y0117884D01*
X0026707D01*
X0026685Y0117840D01*
X0027300Y0118320D02*
X0027169D01*
X0027147Y0118277D01*
Y0118233D01*
X0027169Y0118189D01*
X0027300D01*
X0027322Y0118233D01*
Y0118277D01*
X0027234Y0118452D01*
X0027438Y0118189D02*
X0027613D01*
X0027438Y0118364D01*
Y0118408D01*
X0027460Y0118452D01*
X0027591D01*
X0027613Y0118408D01*
X0027729Y0118233D02*
X0027751Y0118189D01*
X0027882D01*
X0027904Y0118233D01*
Y0118408D01*
X0027882Y0118452D01*
X0027751D01*
X0027729Y0118408D01*
X0036601Y0110081D02*
X0036579Y0110037D01*
X0036448D01*
X0036426Y0110081D01*
Y0110168D01*
X0036470Y0110212D01*
X0036601D01*
Y0110300D01*
X0036426D01*
X0036717Y0110081D02*
X0036739Y0110037D01*
X0036870D01*
X0036892Y0110081D01*
Y0110256D01*
X0036870Y0110300D01*
X0036739D01*
X0036717Y0110256D01*
X0020429Y0110423D02*
X0020604D01*
X0020429Y0110598D01*
Y0110642D01*
X0020451Y0110686D01*
X0020582D01*
X0020604Y0110642D01*
X0020895Y0110467D02*
X0020851Y0110423D01*
X0020764D01*
X0020720Y0110467D01*
Y0110511D01*
X0020807Y0110598D01*
X0020720Y0110686D01*
X0020895D01*
X0021077Y0110554D02*
X0021011Y0110423D01*
X0021186Y0110554D02*
X0021055D01*
X0021011Y0110598D01*
Y0110642D01*
X0021055Y0110686D01*
X0021186D01*
Y0110423D01*
X0032842Y0110298D02*
X0032929D01*
X0032886D02*
Y0110560D01*
X0032929Y0110516D01*
X0033089Y0110560D02*
Y0110298D01*
X0033133Y0110341D01*
X0033221Y0110516D01*
X0033264Y0110560D01*
Y0110298D01*
X0033380D02*
Y0110560D01*
X0033424Y0110516D01*
X0033468Y0110429D01*
X0033512Y0110516D01*
X0033555Y0110560D01*
Y0110298D01*
X0036629Y0114401D02*
X0036585Y0114357D01*
X0036498D01*
X0036454Y0114401D01*
Y0114445D01*
X0036541Y0114532D01*
X0036454Y0114620D01*
X0036629D01*
X0036745Y0114401D02*
X0036767Y0114357D01*
X0036898D01*
X0036920Y0114401D01*
Y0114576D01*
X0036898Y0114620D01*
X0036767D01*
X0036745Y0114576D01*
X0031665Y0117804D02*
X0031796D01*
X0031818Y0117848D01*
Y0117892D01*
X0031796Y0117936D01*
X0031665D01*
X0031643Y0117892D01*
Y0117848D01*
X0031730Y0117673D01*
X0031934D02*
X0032021D01*
X0031977D02*
Y0117936D01*
X0032021Y0117892D01*
X0032181Y0117717D02*
X0032203Y0117673D01*
X0032334D01*
X0032356Y0117717D01*
Y0117892D01*
X0032334Y0117936D01*
X0032203D01*
X0032181Y0117892D01*
X0023886Y0106286D02*
X0023930Y0106308D01*
X0023974D01*
X0024018Y0106286D01*
Y0106155D01*
X0023974Y0106133D01*
X0023930D01*
X0023886Y0106155D01*
Y0106286D01*
X0023843Y0106308D01*
X0023799D01*
X0023755Y0106286D01*
Y0106155D01*
X0023799Y0106133D01*
X0023843D01*
X0023886Y0106155D01*
X0023799Y0106017D02*
X0023755Y0105995D01*
Y0105864D01*
X0023799Y0105842D01*
X0023974D01*
X0024018Y0105864D01*
Y0105995D01*
X0023974Y0106017D01*
X0033062Y0115817D02*
X0032931Y0116080D01*
X0033106D01*
X0033222Y0115817D02*
X0033397D01*
X0033222Y0115992D01*
Y0116036D01*
X0033244Y0116080D01*
X0033375D01*
X0033397Y0116036D01*
X0033513Y0115861D02*
X0033535Y0115817D01*
X0033666D01*
X0033688Y0115861D01*
Y0116036D01*
X0033666Y0116080D01*
X0033535D01*
X0033513Y0116036D01*
X0035076Y0104151D02*
X0035163D01*
X0035119D02*
Y0104414D01*
X0035163Y0104370D01*
X0035389Y0104282D02*
X0035323Y0104151D01*
X0035498Y0104282D02*
X0035367D01*
X0035323Y0104326D01*
Y0104370D01*
X0035367Y0104414D01*
X0035498D01*
Y0104151D01*
X0033929Y0114344D02*
X0033907Y0114388D01*
Y0114432D01*
X0033929Y0114476D01*
X0034060D01*
X0034082Y0114432D01*
Y0114388D01*
X0034060Y0114344D01*
X0033929D01*
X0033907Y0114301D01*
Y0114257D01*
X0033929Y0114213D01*
X0034060D01*
X0034082Y0114257D01*
Y0114301D01*
X0034060Y0114344D01*
X0034198Y0114213D02*
X0034285D01*
X0034241D02*
Y0114476D01*
X0034285Y0114432D01*
X0034445Y0114257D02*
X0034467Y0114213D01*
X0034598D01*
X0034620Y0114257D01*
Y0114432D01*
X0034598Y0114476D01*
X0034467D01*
X0034445Y0114432D01*
X0026001Y0110210D02*
Y0110035D01*
X0026176Y0110122D01*
Y0110166D01*
X0025913D01*
X0026044Y0109853D02*
X0025913Y0109919D01*
X0026044Y0109744D02*
Y0109875D01*
X0026088Y0109919D01*
X0026132D01*
X0026176Y0109875D01*
Y0109744D01*
X0025913D01*
X0032561Y0108186D02*
X0032824Y0108317D01*
Y0108142D01*
X0032561Y0108026D02*
Y0107939D01*
Y0107982D02*
X0032824D01*
X0032780Y0107939D01*
X0032605Y0107779D02*
X0032561Y0107757D01*
Y0107626D01*
X0032605Y0107604D01*
X0032780D01*
X0032824Y0107626D01*
Y0107757D01*
X0032780Y0107779D01*
X0034906Y0122345D02*
X0034775Y0122608D01*
X0034950D01*
X0035241Y0122389D02*
X0035219Y0122345D01*
X0035088D01*
X0035066Y0122389D01*
Y0122476D01*
X0035110Y0122520D01*
X0035241D01*
Y0122608D01*
X0035066D01*
X0035357Y0122389D02*
X0035379Y0122345D01*
X0035510D01*
X0035532Y0122389D01*
Y0122564D01*
X0035510Y0122608D01*
X0035379D01*
X0035357Y0122564D01*
X0035302Y0107472D02*
X0035171D01*
X0035149Y0107429D01*
Y0107385D01*
X0035171Y0107341D01*
X0035302D01*
X0035324Y0107385D01*
Y0107429D01*
X0035236Y0107604D01*
X0035440D02*
Y0107385D01*
X0035462Y0107341D01*
X0035593D01*
X0035615Y0107385D01*
Y0107604D01*
X0036410Y0112297D02*
X0036585D01*
X0036497Y0112472D01*
X0036454D01*
Y0112209D01*
X0036701Y0112253D02*
X0036723Y0112209D01*
X0036854D01*
X0036876Y0112253D01*
Y0112428D01*
X0036854Y0112472D01*
X0036723D01*
X0036701Y0112428D01*
X0034216Y0111600D02*
X0034085D01*
X0034063Y0111557D01*
Y0111513D01*
X0034085Y0111469D01*
X0034216D01*
X0034238Y0111513D01*
Y0111557D01*
X0034150Y0111732D01*
X0034354Y0111469D02*
X0034441D01*
X0034397D02*
Y0111732D01*
X0034441Y0111688D01*
X0034601Y0111513D02*
X0034623Y0111469D01*
X0034754D01*
X0034776Y0111513D01*
Y0111688D01*
X0034754Y0111732D01*
X0034623D01*
X0034601Y0111688D01*
X0026572Y0109940D02*
X0026441D01*
X0026419Y0109897D01*
Y0109853D01*
X0026441Y0109809D01*
X0026572D01*
X0026594Y0109853D01*
Y0109897D01*
X0026506Y0110072D01*
X0026710Y0109897D02*
X0026885D01*
X0026797Y0110072D01*
X0026754D01*
Y0109809D01*
X0027001Y0109853D02*
X0027023Y0109809D01*
X0027154D01*
X0027176Y0109853D01*
Y0110028D01*
X0027154Y0110072D01*
X0027023D01*
X0027001Y0110028D01*
X0032697Y0109790D02*
X0032960Y0109921D01*
Y0109746D01*
X0032785Y0109630D02*
Y0109455D01*
X0032960Y0109542D01*
Y0109586D01*
X0032697D01*
X0032741Y0109339D02*
X0032697Y0109317D01*
Y0109186D01*
X0032741Y0109164D01*
X0032916D01*
X0032960Y0109186D01*
Y0109317D01*
X0032916Y0109339D01*
X0029369Y0116385D02*
Y0116210D01*
X0029544Y0116298D01*
Y0116341D01*
X0029281D01*
X0029369Y0116094D02*
Y0115919D01*
X0029544Y0116006D01*
Y0116050D01*
X0029281D01*
X0029325Y0115803D02*
X0029281Y0115781D01*
Y0115650D01*
X0029325Y0115628D01*
X0029500D01*
X0029544Y0115650D01*
Y0115781D01*
X0029500Y0115803D01*
X0023596Y0109915D02*
X0023640Y0109937D01*
X0023684D01*
X0023728Y0109915D01*
Y0109784D01*
X0023684Y0109762D01*
X0023640D01*
X0023596Y0109784D01*
Y0109915D01*
X0023553Y0109937D01*
X0023509D01*
X0023465Y0109915D01*
Y0109784D01*
X0023509Y0109762D01*
X0023553D01*
X0023596Y0109784D01*
X0023553Y0109646D02*
Y0109471D01*
X0023728Y0109558D01*
Y0109602D01*
X0023465D01*
X0023509Y0109355D02*
X0023465Y0109333D01*
Y0109202D01*
X0023509Y0109180D01*
X0023684D01*
X0023728Y0109202D01*
Y0109333D01*
X0023684Y0109355D01*
X0025797Y0108114D02*
X0025753Y0108158D01*
Y0108245D01*
X0025797Y0108289D01*
X0025841D01*
X0025928Y0108202D01*
X0026016Y0108289D01*
Y0108114D01*
X0025753Y0107998D02*
Y0107911D01*
Y0107954D02*
X0026016D01*
X0025972Y0107911D01*
X0025797Y0107751D02*
X0025753Y0107729D01*
Y0107598D01*
X0025797Y0107576D01*
X0025972D01*
X0026016Y0107598D01*
Y0107729D01*
X0025972Y0107751D01*
X0031213Y0116182D02*
X0031169Y0116226D01*
Y0116313D01*
X0031213Y0116357D01*
X0031257D01*
X0031344Y0116270D01*
X0031432Y0116357D01*
Y0116182D01*
X0031257Y0116066D02*
Y0115891D01*
X0031432Y0115978D01*
Y0116022D01*
X0031169D01*
X0031213Y0115775D02*
X0031169Y0115753D01*
Y0115622D01*
X0031213Y0115600D01*
X0031388D01*
X0031432Y0115622D01*
Y0115753D01*
X0031388Y0115775D01*
X0026701Y0105512D02*
X0026679Y0105556D01*
Y0105600D01*
X0026701Y0105644D01*
X0026832D01*
X0026854Y0105600D01*
Y0105556D01*
X0026832Y0105512D01*
X0026701D01*
X0026679Y0105469D01*
Y0105425D01*
X0026701Y0105381D01*
X0026832D01*
X0026854Y0105425D01*
Y0105469D01*
X0026832Y0105512D01*
X0026970Y0105381D02*
X0027145D01*
X0026970Y0105556D01*
Y0105600D01*
X0026992Y0105644D01*
X0027123D01*
X0027145Y0105600D01*
X0027327Y0105512D02*
X0027261Y0105381D01*
X0027436Y0105512D02*
X0027305D01*
X0027261Y0105556D01*
Y0105600D01*
X0027305Y0105644D01*
X0027436D01*
Y0105381D01*
X0025387Y0103963D02*
X0025256Y0104226D01*
X0025431D01*
X0025547Y0104007D02*
X0025569Y0103963D01*
X0025700D01*
X0025722Y0104007D01*
Y0104182D01*
X0025700Y0104226D01*
X0025569D01*
X0025547Y0104182D01*
X0024857Y0108337D02*
Y0108162D01*
X0025032Y0108337D01*
X0025076D01*
X0025120Y0108315D01*
Y0108184D01*
X0025076Y0108162D01*
X0024857Y0108046D02*
Y0107959D01*
Y0108002D02*
X0025120D01*
X0025076Y0107959D01*
X0024901Y0107799D02*
X0024857Y0107777D01*
Y0107646D01*
X0024901Y0107624D01*
X0025076D01*
X0025120Y0107646D01*
Y0107777D01*
X0025076Y0107799D01*
X0033579Y0122425D02*
X0033754D01*
X0033666Y0122600D01*
X0033623D01*
Y0122337D01*
X0034045Y0122381D02*
X0034023Y0122337D01*
X0033892D01*
X0033870Y0122381D01*
Y0122468D01*
X0033914Y0122512D01*
X0034045D01*
Y0122600D01*
X0033870D01*
X0034161Y0122381D02*
X0034183Y0122337D01*
X0034314D01*
X0034336Y0122381D01*
Y0122556D01*
X0034314Y0122600D01*
X0034183D01*
X0034161Y0122556D01*
X0033274Y0120913D02*
X0033252Y0120869D01*
X0033121D01*
X0033099Y0120913D01*
Y0121000D01*
X0033143Y0121044D01*
X0033274D01*
Y0121132D01*
X0033099D01*
X0033565Y0120913D02*
X0033543Y0120869D01*
X0033412D01*
X0033390Y0120913D01*
Y0121000D01*
X0033434Y0121044D01*
X0033565D01*
Y0121132D01*
X0033390D01*
X0033681Y0120913D02*
X0033703Y0120869D01*
X0033834D01*
X0033856Y0120913D01*
Y0121088D01*
X0033834Y0121132D01*
X0033703D01*
X0033681Y0121088D01*
X0023765Y0105173D02*
Y0105086D01*
Y0105130D02*
X0024028D01*
X0023984Y0105086D01*
X0023809Y0104751D02*
X0023765Y0104795D01*
Y0104882D01*
X0023809Y0104926D01*
X0023853D01*
X0023940Y0104838D01*
X0024028Y0104926D01*
Y0104751D01*
X0023896Y0104569D02*
X0023765Y0104635D01*
X0023896Y0104460D02*
Y0104591D01*
X0023940Y0104635D01*
X0023984D01*
X0024028Y0104591D01*
Y0104460D01*
X0023765D01*
X0029229Y0108872D02*
X0029273Y0108828D01*
X0029317Y0108806D01*
X0029404D01*
X0029448Y0108828D01*
X0029492Y0108872D01*
Y0108915D01*
X0029448Y0108959D01*
X0029404Y0108981D01*
X0029317D01*
X0029273Y0108959D01*
X0029229Y0108915D01*
Y0108872D01*
X0029273Y0108515D02*
X0029229Y0108559D01*
Y0108646D01*
X0029273Y0108690D01*
X0029317D01*
X0029404Y0108602D01*
X0029492Y0108690D01*
Y0108515D01*
X0029273Y0108399D02*
X0029229Y0108377D01*
Y0108246D01*
X0029273Y0108224D01*
X0029448D01*
X0029492Y0108246D01*
Y0108377D01*
X0029448Y0108399D01*
X0028651Y0109241D02*
X0028826D01*
X0028651Y0109416D01*
Y0109460D01*
X0028673Y0109504D01*
X0028804D01*
X0028826Y0109460D01*
X0028942Y0109329D02*
X0029117D01*
X0029029Y0109504D01*
X0028986D01*
Y0109241D01*
X0029233Y0109285D02*
X0029255Y0109241D01*
X0029386D01*
X0029408Y0109285D01*
Y0109460D01*
X0029386Y0109504D01*
X0029255D01*
X0029233Y0109460D01*
X0018811Y0116081D02*
X0018898D01*
X0018854D02*
Y0116344D01*
X0018898Y0116300D01*
X0019058Y0116169D02*
X0019233D01*
X0019145Y0116344D01*
X0019102D01*
Y0116081D01*
X0019349Y0116125D02*
X0019371Y0116081D01*
X0019502D01*
X0019524Y0116125D01*
Y0116300D01*
X0019502Y0116344D01*
X0019371D01*
X0019349Y0116300D01*
X0025357Y0106834D02*
X0025226D01*
X0025204Y0106791D01*
Y0106747D01*
X0025226Y0106703D01*
X0025357D01*
X0025379Y0106747D01*
Y0106791D01*
X0025291Y0106966D01*
X0025495Y0106747D02*
X0025517Y0106703D01*
X0025648D01*
X0025670Y0106747D01*
Y0106922D01*
X0025648Y0106966D01*
X0025517D01*
X0025495Y0106922D01*
X0026407Y0108208D02*
X0026670Y0108339D01*
Y0108164D01*
X0026407Y0108048D02*
Y0107873D01*
X0026582Y0108048D01*
X0026626D01*
X0026670Y0108026D01*
Y0107895D01*
X0026626Y0107873D01*
X0026538Y0107691D02*
X0026407Y0107757D01*
X0026538Y0107582D02*
Y0107713D01*
X0026582Y0107757D01*
X0026626D01*
X0026670Y0107713D01*
Y0107582D01*
X0026407D01*
M02*
