*
G04 Mass Parameters ***
*
G04 Image ***
*
%INC:\CAINPCB\ECB_BF532\BF532_V1\ECB_532.SMB*%
%ICAS*%
%MOIN*%
%IPPOS*%
%ASAXBY*%
G74*%FSLAN2X34Y34*%
*
G04 Aperture Definitions ***
*
%ADD10R,0.0350X0.0300*%
%ADD11R,0.1000X0.0600*%
%ADD12R,0.0300X0.0350*%
%ADD13R,0.0600X0.1370*%
%ADD14R,0.0450X0.0350*%
%ADD15R,0.0320X0.0380*%
%ADD16R,0.0380X0.0320*%
%ADD17C,0.0775*%
%ADD18C,0.0669*%
%ADD19C,0.0550*%
%ADD20R,0.0550X0.0550*%
%ADD21C,0.1340*%
%ADD22C,0.0433*%
%ADD23R,0.1600X0.0750*%
%ADD24R,0.0236X0.0590*%
%ADD25O,0.0700X0.0110*%
%ADD26R,0.0700X0.0110*%
%ADD27O,0.0110X0.0700*%
%ADD28R,0.0110X0.0700*%
%ADD29R,0.0500X0.0160*%
%ADD30R,0.0100X0.0600*%
%ADD31R,0.1500X0.0450*%
%ADD32R,0.0160X0.0700*%
%ADD33R,0.0866X0.0512*%
%ADD34C,0.0600*%
%ADD35C,0.0236*%
%ADD36C,0.0080*%
%ADD37C,0.0100*%
%ADD38C,0.0079*%
%ADD39C,0.0236*%
%ADD40C,0.0315*%
%ADD41C,0.0157*%
%ADD42C,0.0394*%
%ADD43R,0.0350X0.0300*%
%ADD44R,0.0300X0.0350*%
%ADD45R,0.1000X0.0600*%
%ADD46R,0.0600X0.1000*%
%ADD47C,0.0775*%
%ADD48C,0.0669*%
%ADD49C,0.0550*%
%ADD50R,0.0550X0.0550*%
%ADD51C,0.1340*%
%ADD52C,0.0433*%
%ADD53R,0.0197X0.0551*%
%ADD54R,0.0800X0.0250*%
%ADD55C,0.0600*%
%ADD56C,0.0236*%
%ADD57C,0.0776*%
%ADD58C,0.0750*%
%ADD59R,0.0750X0.0750*%
%ADD60C,0.1400*%
%ADD61C,0.0650*%
%ADD62C,0.0060*%
%ADD63C,0.0236*%
%ADD64C,0.0752*%
%ADD65R,0.0752X0.0752*%
%ADD66C,0.1401*%
%ADD67R,0.0400X0.0350*%
%ADD68R,0.1050X0.0650*%
%ADD69R,0.0350X0.0400*%
%ADD70R,0.0650X0.1420*%
%ADD71R,0.0500X0.0400*%
%ADD72R,0.0320X0.0380*%
%ADD73R,0.0380X0.0320*%
%ADD74C,0.0827*%
%ADD75C,0.0768*%
%ADD76C,0.1390*%
%ADD77C,0.0492*%
%ADD78R,0.1650X0.0800*%
%ADD79R,0.0276X0.0630*%
%ADD80O,0.0700X0.0110*%
%ADD81R,0.0700X0.0110*%
%ADD82O,0.0110X0.0700*%
%ADD83R,0.0110X0.0700*%
%ADD84R,0.0550X0.0210*%
%ADD85R,0.0140X0.0650*%
%ADD86R,0.1550X0.0500*%
%ADD87R,0.0210X0.0750*%
%ADD88R,0.0905X0.0551*%
%ADD89R,0.0650X0.1050*%
%ADD90R,0.0236X0.0590*%
%ADD91R,0.0850X0.0300*%
*
G04 Plot Data ***
*
G54D36*
G01X0028734Y0120502D02*
X0024634D01*
Y0121952D02*
Y0120502D01*
X0024184Y0122402D02*
X0024634Y0121952D01*
X0024184Y0122402D02*
X0022584D01*
Y0122902D02*
Y0122402D01*
X0024184Y0122902D02*
X0022584D01*
X0024634Y0123352D02*
X0024184Y0122902D01*
X0024634Y0124802D02*
Y0123352D01*
X0028734Y0124802D02*
X0024634D01*
X0028734D02*
Y0120502D01*
X0028708Y0124802D02*
Y0120502D01*
X0028636Y0124802D02*
Y0120502D01*
X0028564Y0124802D02*
Y0120502D01*
X0028492Y0124802D02*
Y0120502D01*
X0028420Y0124802D02*
Y0120502D01*
X0028348Y0124802D02*
Y0120502D01*
X0028276Y0124802D02*
Y0120502D01*
X0028204Y0124802D02*
Y0120502D01*
X0028132Y0124802D02*
Y0120502D01*
X0028060Y0124802D02*
Y0120502D01*
X0027988Y0124802D02*
Y0120502D01*
X0027916Y0124802D02*
Y0120502D01*
X0027844Y0124802D02*
Y0120502D01*
X0027772Y0124802D02*
Y0120502D01*
X0027700Y0124802D02*
Y0120502D01*
X0027628Y0124802D02*
Y0120502D01*
X0027556Y0124802D02*
Y0120502D01*
X0027484Y0124802D02*
Y0120502D01*
X0027412Y0124802D02*
Y0120502D01*
X0027340Y0124802D02*
Y0120502D01*
X0027268Y0124802D02*
Y0120502D01*
X0027196Y0124802D02*
Y0120502D01*
X0027124Y0124802D02*
Y0120502D01*
X0027052Y0124802D02*
Y0120502D01*
X0026980Y0124802D02*
Y0120502D01*
X0026908Y0124802D02*
Y0120502D01*
X0026836Y0124802D02*
Y0120502D01*
X0026764Y0124802D02*
Y0120502D01*
X0026692Y0124802D02*
Y0120502D01*
X0026620Y0124802D02*
Y0120502D01*
X0026548Y0124802D02*
Y0120502D01*
X0026476Y0124802D02*
Y0120502D01*
X0026404Y0124802D02*
Y0120502D01*
X0026332Y0124802D02*
Y0120502D01*
X0026260Y0124802D02*
Y0120502D01*
X0026188Y0124802D02*
Y0120502D01*
X0026116Y0124802D02*
Y0120502D01*
X0026044Y0124802D02*
Y0120502D01*
X0025972Y0124802D02*
Y0120502D01*
X0025900Y0124802D02*
Y0120502D01*
X0025828Y0124802D02*
Y0120502D01*
X0025756Y0124802D02*
Y0120502D01*
X0025684Y0124802D02*
Y0120502D01*
X0025612Y0124802D02*
Y0120502D01*
X0025540Y0124802D02*
Y0120502D01*
X0025468Y0124802D02*
Y0120502D01*
X0025396Y0124802D02*
Y0120502D01*
X0025324Y0124802D02*
Y0120502D01*
X0025252Y0124802D02*
Y0120502D01*
X0025180Y0124802D02*
Y0120502D01*
X0025108Y0124802D02*
Y0120502D01*
X0025036Y0124802D02*
Y0120502D01*
X0024964Y0124802D02*
Y0120502D01*
X0024892Y0124802D02*
Y0120502D01*
X0024820Y0124802D02*
Y0120502D01*
X0024748Y0124802D02*
Y0120502D01*
X0024676Y0124802D02*
Y0120502D01*
X0024604Y0123322D02*
Y0121982D01*
X0024532Y0123250D02*
Y0122054D01*
X0024460Y0123178D02*
Y0122126D01*
X0024388Y0123106D02*
Y0122198D01*
X0024316Y0123034D02*
Y0122270D01*
X0024244Y0122962D02*
Y0122342D01*
X0024172Y0122902D02*
Y0122402D01*
X0024100Y0122902D02*
Y0122402D01*
X0024028Y0122902D02*
Y0122402D01*
X0023956Y0122902D02*
Y0122402D01*
X0023884Y0122902D02*
Y0122402D01*
X0023812Y0122902D02*
Y0122402D01*
X0023740Y0122902D02*
Y0122402D01*
X0023668Y0122902D02*
Y0122402D01*
X0023596Y0122902D02*
Y0122402D01*
X0023524Y0122902D02*
Y0122402D01*
X0023452Y0122902D02*
Y0122402D01*
X0023380Y0122902D02*
Y0122402D01*
X0023308Y0122902D02*
Y0122402D01*
X0023236Y0122902D02*
Y0122402D01*
X0023164Y0122902D02*
Y0122402D01*
X0023092Y0122902D02*
Y0122402D01*
X0023020Y0122902D02*
Y0122402D01*
X0022948Y0122902D02*
Y0122402D01*
X0022876Y0122902D02*
Y0122402D01*
X0022804Y0122902D02*
Y0122402D01*
X0022732Y0122902D02*
Y0122402D01*
X0022660Y0122902D02*
Y0122402D01*
X0028734Y0124754D02*
X0024634D01*
X0028734Y0124682D02*
X0024634D01*
X0028734Y0124610D02*
X0024634D01*
X0028734Y0124538D02*
X0024634D01*
X0028734Y0124466D02*
X0024634D01*
X0028734Y0124394D02*
X0024634D01*
X0028734Y0124322D02*
X0024634D01*
X0028734Y0124250D02*
X0024634D01*
X0028734Y0124178D02*
X0024634D01*
X0028734Y0124106D02*
X0024634D01*
X0028734Y0124034D02*
X0024634D01*
X0028734Y0123962D02*
X0024634D01*
X0028734Y0123890D02*
X0024634D01*
X0028734Y0123818D02*
X0024634D01*
X0028734Y0123746D02*
X0024634D01*
X0028734Y0123674D02*
X0024634D01*
X0028734Y0123602D02*
X0024634D01*
X0028734Y0123530D02*
X0024634D01*
X0028734Y0123458D02*
X0024634D01*
X0028734Y0123386D02*
X0024634D01*
X0028734Y0123314D02*
X0024596D01*
X0028734Y0123242D02*
X0024524D01*
X0028734Y0123170D02*
X0024452D01*
X0028734Y0123098D02*
X0024380D01*
X0028734Y0123026D02*
X0024308D01*
X0028734Y0122954D02*
X0024236D01*
X0028734Y0122882D02*
X0022584D01*
X0028734Y0122810D02*
X0022584D01*
X0028734Y0122738D02*
X0022584D01*
X0028734Y0122666D02*
X0022584D01*
X0028734Y0122594D02*
X0022584D01*
X0028734Y0122522D02*
X0022584D01*
X0028734Y0122450D02*
X0022584D01*
X0028734Y0122378D02*
X0024208D01*
X0028734Y0122306D02*
X0024280D01*
X0028734Y0122234D02*
X0024352D01*
X0028734Y0122162D02*
X0024424D01*
X0028734Y0122090D02*
X0024496D01*
X0028734Y0122018D02*
X0024568D01*
X0028734Y0121946D02*
X0024634D01*
X0028734Y0121874D02*
X0024634D01*
X0028734Y0121802D02*
X0024634D01*
X0028734Y0121730D02*
X0024634D01*
X0028734Y0121658D02*
X0024634D01*
X0028734Y0121586D02*
X0024634D01*
X0028734Y0121514D02*
X0024634D01*
X0028734Y0121442D02*
X0024634D01*
X0028734Y0121370D02*
X0024634D01*
X0028734Y0121298D02*
X0024634D01*
X0028734Y0121226D02*
X0024634D01*
X0028734Y0121154D02*
X0024634D01*
X0028734Y0121082D02*
X0024634D01*
X0028734Y0121010D02*
X0024634D01*
X0028734Y0120938D02*
X0024634D01*
X0028734Y0120866D02*
X0024634D01*
X0028734Y0120794D02*
X0024634D01*
X0028734Y0120722D02*
X0024634D01*
X0028734Y0120650D02*
X0024634D01*
X0028734Y0120578D02*
X0024634D01*
G54D49*
X0038744Y0121964D03*
Y0122964D03*
Y0123964D03*
X0031532Y0119692D03*
X0028480Y0119696D03*
X0037660Y0119660D03*
X0036660D03*
X0035660D03*
X0034660D03*
X0033660D03*
X0032660D03*
G54D50*
X0038744Y0120964D03*
X0030532Y0119692D03*
X0029480Y0119696D03*
X0038660Y0119660D03*
G54D61*
X0024220Y0104056D03*
Y0105976D03*
G54D67*
X0018113Y0107592D03*
X0017463D03*
X0020487Y0109960D03*
X0021137D03*
X0024923Y0109924D03*
X0025573D03*
X0035629Y0104832D03*
X0034979D03*
X0035429Y0121876D03*
X0034779D03*
X0035787Y0120396D03*
X0036437D03*
X0033753Y0120400D03*
X0033103D03*
X0034233Y0121868D03*
X0033583D03*
X0028169Y0109904D03*
X0027519D03*
X0031557Y0109744D03*
X0030907D03*
X0029765Y0109908D03*
X0029115D03*
X0019421Y0115612D03*
X0018771D03*
X0033007Y0115372D03*
X0033657D03*
X0027231Y0117796D03*
X0027881D03*
X0026757Y0117152D03*
X0026107D03*
X0028933Y0117180D03*
X0028283D03*
X0031683Y0117168D03*
X0032333D03*
X0033927Y0113804D03*
X0034577D03*
X0034127Y0110992D03*
X0034777D03*
X0036319Y0109636D03*
X0036969D03*
X0036323Y0111808D03*
X0036973D03*
X0036327Y0113980D03*
X0036977D03*
X0036407Y0116140D03*
X0037057D03*
G54D68*
X0018366Y0113988D03*
X0016866D03*
G54D69*
X0023330Y0104433D03*
Y0105083D03*
X0026220Y0105195D03*
Y0105845D03*
X0026556Y0108663D03*
Y0109313D03*
X0024176Y0109889D03*
Y0109239D03*
X0032296Y0109845D03*
Y0109195D03*
X0028812Y0115731D03*
Y0116381D03*
X0030700Y0115703D03*
Y0116353D03*
X0028828Y0108247D03*
Y0108897D03*
X0033360Y0109933D03*
Y0109283D03*
X0033228Y0112773D03*
Y0112123D03*
X0033252Y0108261D03*
Y0107611D03*
X0029908Y0108679D03*
Y0109329D03*
X0027748Y0108671D03*
Y0109321D03*
X0025860Y0108667D03*
Y0109317D03*
X0024988Y0108679D03*
Y0109329D03*
X0023326Y0103149D03*
Y0103799D03*
X0023334Y0105713D03*
Y0106363D03*
X0025496Y0105161D03*
Y0104511D03*
Y0106361D03*
Y0105711D03*
G54D74*
X0037888Y0103988D03*
Y0106744D03*
G54D75*
X0038872Y0104480D03*
Y0106251D03*
G54D76*
X0018676Y0122592D03*
X0021176D03*
X0020176Y0121092D03*
G54D77*
X0033548Y0101248D03*
Y0102035D03*
X0032761Y0101248D03*
Y0102035D03*
X0031973Y0101248D03*
Y0102035D03*
X0031186Y0101248D03*
Y0102035D03*
X0030398Y0101248D03*
Y0102035D03*
X0029611Y0101248D03*
Y0102035D03*
X0028824Y0101248D03*
Y0102035D03*
X0028036Y0101248D03*
Y0102035D03*
X0027249Y0101248D03*
Y0102035D03*
X0026461Y0101248D03*
Y0102035D03*
X0025674Y0101248D03*
Y0102035D03*
X0024886Y0101248D03*
Y0102035D03*
X0024099Y0101248D03*
Y0102035D03*
X0038248Y0111828D03*
X0037461D03*
X0038248Y0111041D03*
X0037461D03*
X0038248Y0110253D03*
X0037461D03*
X0038248Y0109466D03*
X0037461D03*
X0038248Y0108678D03*
X0037461D03*
X0038248Y0107891D03*
X0037461D03*
X0038248Y0116552D03*
X0037461D03*
X0038248Y0115765D03*
X0037461D03*
X0038248Y0114977D03*
X0037461D03*
X0038248Y0114190D03*
X0037461D03*
X0038248Y0113402D03*
X0037461D03*
X0038248Y0112615D03*
X0037461D03*
G54D89*
X0020760Y0115530D03*
Y0114030D03*
G54D90*
X0032283Y0110524D03*
X0031968D03*
X0031653D03*
X0031338D03*
X0031023D03*
X0030708D03*
X0030393D03*
X0030078D03*
X0029763D03*
X0029448D03*
X0029133D03*
X0028818D03*
X0028503D03*
X0028189D03*
X0027874D03*
X0027559D03*
X0027244D03*
X0026929D03*
X0026614D03*
X0026299D03*
X0025984D03*
X0025669D03*
X0025672Y0115085D03*
X0025984Y0115084D03*
X0026299D03*
X0026614D03*
X0026929D03*
X0027244D03*
X0027560Y0115085D03*
X0027874Y0115084D03*
X0028189D03*
X0028503D03*
X0028818D03*
X0029133D03*
X0029448D03*
X0029763D03*
X0030078D03*
X0030393D03*
X0030708D03*
X0031023D03*
X0031338D03*
X0031653D03*
X0031968D03*
X0032283D03*
X0025357Y0110523D03*
X0025043D03*
X0024728D03*
X0024413D03*
X0024099D03*
Y0115085D03*
X0024413D03*
X0024728D03*
X0025043D03*
X0025357D03*
G54D91*
X0036726Y0106930D03*
Y0106430D03*
Y0105930D03*
Y0105430D03*
X0034026D03*
Y0105930D03*
Y0106430D03*
Y0106930D03*
M02*
