*
G04 Mass Parameters ***
*
G04 Image ***
*
%INC:\CAINPCB\ECB_BF532\BF532_V1\ECB_532.SST*%
%ICAS*%
%MOIN*%
%IPPOS*%
%ASAXBY*%
G74*%FSLAN2X34Y34*%
*
G04 Aperture Definitions ***
*
%ADD10R,0.0350X0.0300*%
%ADD11R,0.1000X0.0600*%
%ADD12R,0.0300X0.0350*%
%ADD13R,0.0600X0.1370*%
%ADD14R,0.0450X0.0350*%
%ADD15R,0.0320X0.0380*%
%ADD16R,0.0380X0.0320*%
%ADD17C,0.0775*%
%ADD18C,0.0669*%
%ADD19C,0.0550*%
%ADD20R,0.0550X0.0550*%
%ADD21C,0.1340*%
%ADD22C,0.0433*%
%ADD23R,0.1600X0.0750*%
%ADD24R,0.0236X0.0590*%
%ADD25O,0.0700X0.0110*%
%ADD26R,0.0700X0.0110*%
%ADD27O,0.0110X0.0700*%
%ADD28R,0.0110X0.0700*%
%ADD29R,0.0500X0.0160*%
%ADD30R,0.0100X0.0600*%
%ADD31R,0.1500X0.0450*%
%ADD32R,0.0160X0.0700*%
%ADD33R,0.0866X0.0512*%
%ADD34C,0.0600*%
%ADD35C,0.0236*%
%ADD36C,0.0080*%
%ADD37C,0.0100*%
%ADD38C,0.0079*%
%ADD39C,0.0236*%
%ADD40C,0.0315*%
%ADD41C,0.0157*%
%ADD42C,0.0394*%
%ADD43R,0.0350X0.0300*%
%ADD44R,0.0300X0.0350*%
%ADD45R,0.1000X0.0600*%
%ADD46R,0.0600X0.1000*%
%ADD47C,0.0775*%
%ADD48C,0.0669*%
%ADD49C,0.0550*%
%ADD50R,0.0550X0.0550*%
%ADD51C,0.1340*%
%ADD52C,0.0433*%
%ADD53R,0.0197X0.0551*%
%ADD54R,0.0800X0.0250*%
%ADD55C,0.0600*%
%ADD56C,0.0236*%
%ADD57C,0.0776*%
%ADD58C,0.0750*%
%ADD59R,0.0750X0.0750*%
%ADD60C,0.1400*%
%ADD61C,0.0650*%
%ADD62C,0.0060*%
%ADD63C,0.0236*%
%ADD64C,0.0752*%
%ADD65R,0.0752X0.0752*%
%ADD66C,0.1401*%
%ADD67R,0.0400X0.0350*%
%ADD68R,0.1050X0.0650*%
%ADD69R,0.0350X0.0400*%
%ADD70R,0.0650X0.1420*%
%ADD71R,0.0500X0.0400*%
%ADD72R,0.0320X0.0380*%
%ADD73R,0.0380X0.0320*%
%ADD74C,0.0827*%
%ADD75C,0.0768*%
%ADD76C,0.1390*%
%ADD77C,0.0492*%
%ADD78R,0.1650X0.0800*%
%ADD79R,0.0276X0.0630*%
%ADD80O,0.0700X0.0110*%
%ADD81R,0.0700X0.0110*%
%ADD82O,0.0110X0.0700*%
%ADD83R,0.0110X0.0700*%
%ADD84R,0.0550X0.0210*%
%ADD85R,0.0140X0.0650*%
%ADD86R,0.1550X0.0500*%
%ADD87R,0.0210X0.0750*%
%ADD88R,0.0905X0.0551*%
%ADD89R,0.0650X0.1050*%
%ADD90R,0.0236X0.0590*%
%ADD91R,0.0850X0.0300*%
%ADD92C,0.0030*%
%ADD93C,0.0010*%
%ADD94C,0.0050*%
%ADD95C,0.0047*%
%ADD96C,0.0059*%
*
G04 Plot Data ***
*
G54D36*
G01X0034742Y0101036D02*
X0034576D01*
X0034548Y0101092D01*
Y0101148D01*
X0034576Y0101203D01*
X0034742D01*
X0034770Y0101148D01*
Y0101092D01*
X0034659Y0100870D01*
X0034166Y0100981D02*
Y0100925D01*
X0034193Y0100870D01*
X0034305D01*
X0034332Y0100925D01*
Y0101203D01*
X0034360D02*
X0034249D01*
X0024134Y0123652D02*
X0024534D01*
Y0124902D01*
X0028834D01*
Y0120402D01*
X0024534D01*
Y0121652D01*
X0024134D01*
X0018651Y0104411D02*
X0019026Y0104786D01*
Y0106086D01*
X0018651Y0106461D01*
X0016901D02*
X0016526Y0106086D01*
Y0104786D01*
X0016901Y0104411D01*
X0039160Y0120160D02*
X0032160D01*
Y0119160D01*
X0039160D01*
Y0120160D01*
X0039210Y0120210D01*
X0039268Y0116927D02*
Y0116177D01*
X0038893Y0116552D01*
X0039268Y0116927D01*
Y0112203D02*
Y0111453D01*
X0038893Y0111828D01*
X0039268Y0112203D01*
X0021871Y0105707D02*
Y0106757D01*
X0021771Y0106857D01*
X0020821D01*
X0020721Y0106757D01*
Y0105707D01*
X0020821Y0105607D01*
X0021771D01*
X0021871Y0105707D01*
X0025220Y0103786D02*
Y0106276D01*
X0023220D02*
Y0103786D01*
X0033542Y0120794D02*
X0033342Y0120594D01*
Y0120994D01*
X0033542Y0120794D01*
G01X0021671Y0105757D02*
G03X0021771Y0105857I0000000J0000100D01*
G01X0021571D02*
G03X0021671Y0105757I0000100J0000000D01*
Y0105957D02*
G03X0021571Y0105857I0000000J0000100D01*
G01X0021771D02*
G03X0021671Y0105957I0000100J0000000D01*
G01X0024220Y0102834D02*
G03X0025220Y0103786I0000000J0001001D01*
G01X0023220D02*
G03X0024220Y0102834I0001000J0000049D01*
Y0107203D02*
G03X0023220Y0106276I0000000J0001003D01*
G01X0025220D02*
G03X0024220Y0107203I0001000J0000076D01*
G54D37*
G01X0023735Y0107765D02*
Y0108265D01*
X0023485Y0108515D01*
X0023735Y0117765D02*
X0023485D01*
Y0117515D01*
X0032735Y0117765D02*
X0032985D01*
Y0117515D01*
Y0108515D02*
Y0108265D01*
X0032735D01*
X0021176Y0124092D02*
X0016176D01*
Y0121092D01*
X0021176D01*
Y0124092D01*
G54D38*
G01X0035838Y0103616D02*
Y0105550D01*
X0036970D01*
Y0103616D01*
X0035846D01*
X0034329Y0103623D02*
Y0105557D01*
X0035461D01*
Y0103623D01*
X0034337D01*
G54D62*
G01X0029932Y0123214D02*
Y0123047D01*
X0029877Y0123020D01*
X0029821D01*
X0029766Y0123047D01*
Y0123214D01*
X0029821Y0123242D01*
X0029877D01*
X0030099Y0123131D01*
X0030044Y0122650D02*
X0030099Y0122677D01*
Y0122844D01*
X0030044Y0122872D01*
X0029932D01*
X0029877Y0122816D01*
Y0122650D01*
X0029766D01*
Y0122872D01*
X0030044Y0122502D02*
X0030099Y0122474D01*
Y0122307D01*
X0030044Y0122280D01*
X0029821D01*
X0029766Y0122307D01*
Y0122474D01*
X0029821Y0122502D01*
X0030237Y0121365D02*
X0030460D01*
X0030348Y0121476D02*
Y0121254D01*
X0027491Y0119853D02*
X0027546Y0119798D01*
X0027657D01*
X0027713Y0119853D01*
Y0119909D01*
X0027602Y0120020D01*
X0027713Y0120131D01*
X0027491D01*
X0027287Y0119798D02*
X0027343D01*
Y0119853D01*
X0027287D01*
Y0119798D01*
X0026862Y0119853D02*
X0026917Y0119798D01*
X0027028D01*
X0027084Y0119853D01*
Y0119909D01*
X0026973Y0120020D01*
X0027084Y0120131D01*
X0026862D01*
X0026714Y0119964D02*
X0026492D01*
X0026122Y0119853D02*
X0026150Y0119798D01*
X0026316D01*
X0026344Y0119853D01*
Y0119964D01*
X0026288Y0120020D01*
X0026122D01*
Y0120131D01*
X0026344D01*
X0025946Y0119964D02*
X0025974Y0120020D01*
Y0120076D01*
X0025946Y0120131D01*
X0025780D01*
X0025752Y0120076D01*
Y0120020D01*
X0025780Y0119964D01*
X0025946D01*
X0025974Y0119909D01*
Y0119853D01*
X0025946Y0119798D01*
X0025780D01*
X0025752Y0119853D01*
Y0119909D01*
X0025780Y0119964D01*
X0025382Y0119853D02*
X0025410Y0119798D01*
X0025576D01*
X0025604Y0119853D01*
Y0119964D01*
X0025548Y0120020D01*
X0025382D01*
Y0120131D01*
X0025604D01*
X0025234Y0119798D02*
X0025123D01*
X0025179D02*
Y0120131D01*
X0025123Y0120076D01*
X0024920D02*
X0024892Y0120131D01*
X0024725D01*
X0024697Y0120076D01*
Y0120020D01*
X0024725Y0119964D01*
X0024892D01*
X0024920Y0119909D01*
Y0119853D01*
X0024892Y0119798D01*
X0024725D01*
X0024697Y0119853D01*
X0024550Y0119798D02*
Y0120131D01*
X0024494Y0120076D01*
X0024439Y0119964D01*
X0024383Y0120076D01*
X0024327Y0120131D01*
Y0119798D01*
X0024180D02*
X0023985D01*
Y0120131D01*
X0016784Y0107726D02*
Y0107676D01*
X0017384D01*
Y0107726D01*
X0016784Y0108226D02*
Y0108276D01*
X0017384D01*
Y0108226D01*
X0035892Y0106834D02*
Y0106884D01*
X0035292D01*
Y0106834D01*
X0035892Y0106334D02*
Y0106284D01*
X0035292D01*
Y0106334D01*
X0035916Y0113186D02*
Y0113136D01*
X0036516D01*
Y0113186D01*
X0035916Y0113686D02*
Y0113736D01*
X0036516D01*
Y0113686D01*
X0035010Y0118692D02*
X0034960D01*
Y0118092D01*
X0035010D01*
X0035510Y0118692D02*
X0035560D01*
Y0118092D01*
X0035510D01*
X0023252Y0124330D02*
Y0124280D01*
X0023852D01*
Y0124330D01*
X0023252Y0124830D02*
Y0124880D01*
X0023852D01*
Y0124830D01*
X0035888Y0106278D02*
Y0106328D01*
X0035288D01*
Y0106278D01*
X0035888Y0105778D02*
Y0105728D01*
X0035288D01*
Y0105778D01*
X0019720Y0107630D02*
Y0107580D01*
X0020320D01*
Y0107630D01*
X0019720Y0108130D02*
Y0108180D01*
X0020320D01*
Y0108130D01*
X0016448Y0109508D02*
Y0116358D01*
X0021248D01*
Y0109508D01*
X0016448D01*
X0016598Y0108588D02*
X0016798Y0108388D01*
X0016398D01*
X0016598Y0108588D01*
X0035932Y0109930D02*
Y0109880D01*
X0036532D01*
Y0109930D01*
X0035932Y0110430D02*
Y0110480D01*
X0036532D01*
Y0110430D01*
X0022754Y0108234D02*
Y0108734D01*
X0021404D01*
X0021054Y0108384D01*
Y0108234D01*
X0022754Y0107534D02*
Y0107034D01*
X0021404D01*
X0021054Y0107384D01*
Y0107534D01*
X0022754D02*
X0022741Y0107384D01*
X0021054D01*
Y0107534D01*
Y0108234D02*
Y0108384D01*
X0022754Y0108391D01*
Y0108234D01*
X0033362Y0118680D02*
X0033312D01*
Y0118080D01*
X0033362D01*
X0033862Y0118680D02*
X0033912D01*
Y0118080D01*
X0033862D01*
X0035916Y0111014D02*
Y0110964D01*
X0036516D01*
Y0111014D01*
X0035916Y0111514D02*
Y0111564D01*
X0036516D01*
Y0111514D01*
X0030328Y0118586D02*
Y0118536D01*
X0030928D01*
Y0118586D01*
X0030328Y0119086D02*
Y0119136D01*
X0030928D01*
Y0119086D01*
X0035332Y0115878D02*
Y0115828D01*
X0035932D01*
Y0115878D01*
X0035332Y0116378D02*
Y0116428D01*
X0035932D01*
Y0116378D01*
X0035920Y0112090D02*
Y0112040D01*
X0036520D01*
Y0112090D01*
X0035920Y0112590D02*
Y0112640D01*
X0036520D01*
Y0112590D01*
X0037476Y0124326D02*
Y0124376D01*
X0036876D01*
Y0124326D01*
X0037476Y0123826D02*
Y0123776D01*
X0036876D01*
Y0123826D01*
X0036396Y0124326D02*
Y0124376D01*
X0035796D01*
Y0124326D01*
X0036396Y0123826D02*
Y0123776D01*
X0035796D01*
Y0123826D01*
X0034410Y0118692D02*
X0034360D01*
Y0118092D01*
X0034410D01*
X0034910Y0118692D02*
X0034960D01*
Y0118092D01*
X0034910D01*
X0035936Y0115338D02*
Y0115288D01*
X0036536D01*
Y0115338D01*
X0035936Y0115838D02*
Y0115888D01*
X0036536D01*
Y0115838D01*
X0035928Y0108842D02*
Y0108792D01*
X0036528D01*
Y0108842D01*
X0035928Y0109342D02*
Y0109392D01*
X0036528D01*
Y0109342D01*
X0036876Y0123230D02*
Y0123180D01*
X0037476D01*
Y0123230D01*
X0036876Y0123730D02*
Y0123780D01*
X0037476D01*
Y0123730D01*
X0035678Y0103796D02*
X0035542Y0103636D01*
Y0103952D01*
X0035678Y0103796D01*
X0022404Y0111714D02*
Y0111764D01*
X0021804D01*
Y0111714D01*
X0022404Y0111214D02*
Y0111164D01*
X0021804D01*
Y0111214D01*
X0031154Y0123976D02*
X0030204D01*
Y0121876D01*
X0030704Y0121376D01*
X0031154D01*
X0036250Y0118096D02*
X0036300D01*
Y0118696D01*
X0036250D01*
X0035750Y0118096D02*
X0035700D01*
Y0118696D01*
X0035750D01*
X0037076Y0117004D02*
Y0112244D01*
X0038616D01*
Y0116996D01*
X0037076Y0117004D01*
X0035928Y0114266D02*
Y0114216D01*
X0036528D01*
Y0114266D01*
X0035928Y0114766D02*
Y0114816D01*
X0036528D01*
Y0114766D01*
X0031854Y0123976D02*
X0032804D01*
Y0121876D01*
X0032304Y0121376D01*
X0031854D01*
X0035308Y0112638D02*
Y0112588D01*
X0035908D01*
Y0112638D01*
X0035308Y0113138D02*
Y0113188D01*
X0035908D01*
Y0113138D01*
X0032883Y0123927D02*
Y0122777D01*
X0033528D01*
Y0123927D01*
X0032883D01*
X0034169Y0103803D02*
X0034033Y0103643D01*
Y0103959D01*
X0034169Y0103803D01*
X0037076Y0112280D02*
Y0107484D01*
X0038616D01*
Y0112272D01*
X0037076Y0112280D01*
X0022404Y0111122D02*
Y0111172D01*
X0021804D01*
Y0111122D01*
X0022404Y0110622D02*
Y0110572D01*
X0021804D01*
Y0110622D01*
X0036711Y0102005D02*
X0035561D01*
Y0101360D01*
X0036711D01*
Y0102005D01*
X0035320Y0113722D02*
Y0113672D01*
X0035920D01*
Y0113722D01*
X0035320Y0114222D02*
Y0114272D01*
X0035920D01*
Y0114222D01*
X0021788Y0115722D02*
Y0115672D01*
X0022388D01*
Y0115722D01*
X0021788Y0116222D02*
Y0116272D01*
X0022388D01*
Y0116222D01*
X0018178Y0119630D02*
Y0120130D01*
X0016828D01*
X0016478Y0119780D01*
Y0119630D01*
X0018178Y0118930D02*
Y0118430D01*
X0016828D01*
X0016478Y0118780D01*
Y0118930D01*
X0018178D02*
X0018165Y0118780D01*
X0016478D01*
Y0118930D01*
Y0119630D02*
Y0119780D01*
X0018178Y0119787D01*
Y0119630D01*
X0034000Y0102420D02*
X0023740D01*
Y0100880D01*
X0033992D01*
X0034000Y0102420D01*
X0035324Y0110474D02*
Y0110424D01*
X0035924D01*
Y0110474D01*
X0035324Y0110974D02*
Y0111024D01*
X0035924D01*
Y0110974D01*
X0038046Y0117352D02*
X0038096D01*
Y0117952D01*
X0038046D01*
X0037546Y0117352D02*
X0037496D01*
Y0117952D01*
X0037546D01*
X0035495Y0102005D02*
X0034345D01*
Y0101360D01*
X0035495D01*
Y0102005D01*
X0021824Y0111786D02*
Y0111736D01*
X0022424D01*
Y0111786D01*
X0021824Y0112286D02*
Y0112336D01*
X0022424D01*
Y0112286D01*
X0019229Y0105590D02*
X0019154D01*
Y0106790D01*
X0019204D01*
Y0106515D01*
X0019804D01*
Y0106790D01*
X0019854D01*
Y0105590D01*
X0019779D01*
X0019572Y0106515D02*
Y0106340D01*
X0019518Y0106515D02*
Y0106340D01*
X0019464Y0106515D02*
Y0106340D01*
X0019410Y0106515D02*
Y0106340D01*
X0019356Y0106515D02*
Y0106340D01*
X0019302Y0106515D02*
Y0106340D01*
X0019248Y0106515D02*
Y0106340D01*
X0019194Y0106515D02*
Y0106340D01*
X0019854Y0106488D02*
X0019154D01*
X0019854Y0106434D02*
X0019154D01*
X0019854Y0106380D02*
X0019154D01*
X0019854Y0106515D02*
X0019154D01*
X0019854D02*
Y0106340D01*
X0019154D01*
Y0106515D02*
Y0106340D01*
X0019842Y0106515D02*
Y0106340D01*
X0019788Y0106515D02*
Y0106340D01*
X0019734Y0106515D02*
Y0106340D01*
X0019680Y0106515D02*
Y0106340D01*
X0019626Y0106515D02*
Y0106340D01*
X0035320Y0111554D02*
Y0111504D01*
X0035920D01*
Y0111554D01*
X0035320Y0112054D02*
Y0112104D01*
X0035920D01*
Y0112054D01*
X0022612Y0120546D02*
Y0120496D01*
X0023212D01*
Y0120546D01*
X0022612Y0121046D02*
Y0121096D01*
X0023212D01*
Y0121046D01*
X0021820Y0112390D02*
Y0112340D01*
X0022420D01*
Y0112390D01*
X0021820Y0112890D02*
Y0112940D01*
X0022420D01*
Y0112890D01*
X0035940Y0116422D02*
Y0116372D01*
X0036540D01*
Y0116422D01*
X0035940Y0116922D02*
Y0116972D01*
X0036540D01*
Y0116922D01*
X0018732Y0108430D02*
Y0108480D01*
X0018132D01*
Y0108430D01*
X0018732Y0107930D02*
Y0107880D01*
X0018132D01*
Y0107930D01*
X0036974Y0117956D02*
X0036924D01*
Y0117356D01*
X0036974D01*
X0037474Y0117956D02*
X0037524D01*
Y0117356D01*
X0037474D01*
X0035328Y0114806D02*
Y0114756D01*
X0035928D01*
Y0114806D01*
X0035328Y0115306D02*
Y0115356D01*
X0035928D01*
Y0115306D01*
X0021812Y0110078D02*
Y0110028D01*
X0022412D01*
Y0110078D01*
X0021812Y0110578D02*
Y0110628D01*
X0022412D01*
Y0110578D01*
X0019306Y0104464D02*
X0019256D01*
Y0103864D01*
X0019306D01*
X0019806Y0104464D02*
X0019856D01*
Y0103864D01*
X0019806D01*
X0021820Y0116802D02*
Y0116752D01*
X0022420D01*
Y0116802D01*
X0021820Y0117302D02*
Y0117352D01*
X0022420D01*
Y0117302D01*
X0035328Y0108294D02*
Y0108244D01*
X0035928D01*
Y0108294D01*
X0035328Y0108794D02*
Y0108844D01*
X0035928D01*
Y0108794D01*
X0033996Y0123898D02*
Y0123848D01*
X0034596D01*
Y0123898D01*
X0033996Y0124398D02*
Y0124448D01*
X0034596D01*
Y0124398D01*
X0033612Y0121284D02*
Y0121894D01*
X0033792D01*
Y0122194D01*
X0033612D01*
Y0122814D01*
X0036172D01*
Y0121284D01*
X0033612D01*
X0035324Y0109382D02*
Y0109332D01*
X0035924D01*
Y0109382D01*
X0035324Y0109882D02*
Y0109932D01*
X0035924D01*
Y0109882D01*
X0021828Y0114642D02*
Y0114592D01*
X0022428D01*
Y0114642D01*
X0021828Y0115142D02*
Y0115192D01*
X0022428D01*
Y0115142D01*
X0021796Y0109530D02*
Y0109480D01*
X0022396D01*
Y0109530D01*
X0021796Y0110030D02*
Y0110080D01*
X0022396D01*
Y0110030D01*
X0032064Y0119086D02*
Y0119136D01*
X0031464D01*
Y0119086D01*
X0032064Y0118586D02*
Y0118536D01*
X0031464D01*
Y0118586D01*
X0022190Y0104838D02*
Y0105338D01*
X0020840D01*
X0020490Y0104988D01*
Y0104838D01*
X0022190Y0104138D02*
Y0103638D01*
X0020840D01*
X0020490Y0103988D01*
Y0104138D01*
X0022190D02*
X0022177Y0103988D01*
X0020490D01*
Y0104138D01*
Y0104838D02*
Y0104988D01*
X0022190Y0104995D01*
Y0104838D01*
X0032879Y0122755D02*
Y0121605D01*
X0033524D01*
Y0122755D01*
X0032879D01*
G01X0021879Y0107083D02*
G03X0022554Y0107534I0000000J0000731D01*
G01X0021204D02*
G03X0021879Y0107083I0000675J0000280D01*
Y0108688D02*
G03X0021204Y0108234I0000000J0000729D01*
G01X0022554D02*
G03X0021879Y0108688I0000675J0000275D01*
G01X0030254Y0122651D02*
G03X0031104Y0121476I0001237J0000000D01*
Y0123826D02*
G03X0030254Y0122651I0000387J0001175D01*
G01X0032754D02*
G03X0031904Y0123826I0001237J0000000D01*
Y0121476D02*
G03X0032754Y0122651I0000387J0001175D01*
G01X0017303Y0118479D02*
G03X0017978Y0118930I0000000J0000731D01*
G01X0016628D02*
G03X0017303Y0118479I0000675J0000280D01*
Y0120084D02*
G03X0016628Y0119630I0000000J0000729D01*
G01X0017978D02*
G03X0017303Y0120084I0000675J0000275D01*
G01X0033782Y0121388D02*
G03X0033858Y0121464I0000000J0000076D01*
G01X0033706D02*
G03X0033782Y0121388I0000076J0000000D01*
Y0121540D02*
G03X0033706Y0121464I0000000J0000076D01*
G01X0033858D02*
G03X0033782Y0121540I0000076J0000000D01*
G01X0021315Y0103687D02*
G03X0021990Y0104138I0000000J0000731D01*
G01X0020640D02*
G03X0021315Y0103687I0000675J0000280D01*
Y0105292D02*
G03X0020640Y0104838I0000000J0000729D01*
G01X0021990D02*
G03X0021315Y0105292I0000675J0000275D01*
G54D92*
G01X0022281Y0108544D02*
X0022254D01*
X0022325Y0108517D02*
X0022254D01*
X0022363Y0108490D02*
X0022254D01*
X0022397Y0108463D02*
X0022254D01*
X0022427Y0108436D02*
X0022254D01*
X0022454Y0108409D02*
X0022254D01*
X0022478Y0108382D02*
X0022254D01*
X0022501Y0108355D02*
X0022254D01*
X0022521Y0108328D02*
X0022254D01*
X0022540Y0108301D02*
X0022254D01*
X0022557Y0108274D02*
X0022254D01*
X0022510Y0108343D02*
Y0108234D01*
X0022483Y0108377D02*
Y0108234D01*
X0022456Y0108407D02*
Y0108234D01*
X0022429Y0108434D02*
Y0108234D01*
X0022402Y0108458D02*
Y0108234D01*
X0022375Y0108481D02*
Y0108234D01*
X0022348Y0108501D02*
Y0108234D01*
X0022321Y0108520D02*
Y0108234D01*
X0022294Y0108537D02*
Y0108234D01*
X0022267Y0108552D02*
Y0108234D01*
X0022572Y0108247D02*
X0022254D01*
X0022579Y0108234D02*
X0022254D01*
Y0108559D02*
Y0108234D01*
X0022564Y0108261D02*
Y0108234D01*
X0022537Y0108305D02*
Y0108234D01*
X0022571Y0107519D02*
X0022254D01*
X0022555Y0107492D02*
X0022254D01*
X0022538Y0107465D02*
X0022254D01*
X0022520Y0107438D02*
X0022254D01*
X0022499Y0107411D02*
X0022254D01*
X0022477Y0107384D02*
X0022254D01*
X0022452Y0107357D02*
X0022254D01*
X0022425Y0107330D02*
X0022254D01*
X0022394Y0107303D02*
X0022254D01*
X0022360Y0107276D02*
X0022254D01*
X0022322Y0107249D02*
X0022254D01*
X0022510Y0107534D02*
Y0107425D01*
X0022483Y0107534D02*
Y0107391D01*
X0022456Y0107534D02*
Y0107361D01*
X0022429Y0107534D02*
Y0107334D01*
X0022402Y0107534D02*
Y0107309D01*
X0022375Y0107534D02*
Y0107287D01*
X0022348Y0107534D02*
Y0107267D01*
X0022321Y0107534D02*
Y0107248D01*
X0022294Y0107534D02*
Y0107231D01*
X0022267Y0107534D02*
Y0107216D01*
X0022278Y0107222D02*
X0022254D01*
X0022579Y0107534D02*
X0022254D01*
Y0107209D01*
X0022564Y0107534D02*
Y0107506D01*
X0022537Y0107534D02*
Y0107463D01*
X0030577Y0123518D02*
Y0123326D01*
X0030550Y0123488D02*
Y0123326D01*
X0030523Y0123456D02*
Y0123326D01*
X0030496Y0123422D02*
Y0123326D01*
X0030469Y0123386D02*
Y0123326D01*
X0030442Y0123346D02*
Y0123326D01*
X0031154Y0123852D02*
X0031081D01*
X0031154Y0123825D02*
X0031013D01*
X0031154Y0123798D02*
X0030954D01*
X0031154Y0123771D02*
X0030902D01*
X0031154Y0123744D02*
X0030855D01*
X0031154Y0123717D02*
X0030813D01*
X0031154Y0123690D02*
X0030773D01*
X0031154Y0123663D02*
X0030737D01*
X0031154Y0123636D02*
X0030702D01*
X0031154Y0123609D02*
X0030671D01*
X0031154Y0123582D02*
X0030641D01*
X0031154Y0123555D02*
X0030613D01*
X0031154Y0123528D02*
X0030586D01*
X0031154Y0123501D02*
X0030561D01*
X0031154Y0123474D02*
X0030538D01*
X0031154Y0123447D02*
X0030515D01*
X0031154Y0123420D02*
X0030494D01*
X0031154Y0123393D02*
X0030474D01*
X0031154Y0123366D02*
X0030455D01*
X0031154Y0123339D02*
X0030437D01*
X0031154Y0123876D02*
Y0123326D01*
X0030429D01*
X0031144Y0123873D02*
Y0123326D01*
X0031117Y0123864D02*
Y0123326D01*
X0031090Y0123855D02*
Y0123326D01*
X0031063Y0123845D02*
Y0123326D01*
X0031036Y0123834D02*
Y0123326D01*
X0031009Y0123823D02*
Y0123326D01*
X0030982Y0123811D02*
Y0123326D01*
X0030955Y0123798D02*
Y0123326D01*
X0030928Y0123784D02*
Y0123326D01*
X0030901Y0123770D02*
Y0123326D01*
X0030874Y0123755D02*
Y0123326D01*
X0030847Y0123739D02*
Y0123326D01*
X0030820Y0123722D02*
Y0123326D01*
X0030793Y0123704D02*
Y0123326D01*
X0030766Y0123685D02*
Y0123326D01*
X0030739Y0123665D02*
Y0123326D01*
X0030712Y0123643D02*
Y0123326D01*
X0030685Y0123621D02*
Y0123326D01*
X0030658Y0123597D02*
Y0123326D01*
X0030631Y0123572D02*
Y0123326D01*
X0030604Y0123546D02*
Y0123326D01*
X0031975Y0123835D02*
Y0123326D01*
X0031948Y0123846D02*
Y0123326D01*
X0031921Y0123855D02*
Y0123326D01*
X0031894Y0123864D02*
Y0123326D01*
X0031867Y0123872D02*
Y0123326D01*
X0031931Y0123852D02*
X0031854D01*
X0032000Y0123825D02*
X0031854D01*
X0032059Y0123798D02*
X0031854D01*
X0032110Y0123771D02*
X0031854D01*
X0032156Y0123744D02*
X0031854D01*
X0032198Y0123717D02*
X0031854D01*
X0032235Y0123690D02*
X0031854D01*
X0032270Y0123663D02*
X0031854D01*
X0032303Y0123636D02*
X0031854D01*
X0032333Y0123609D02*
X0031854D01*
X0032361Y0123582D02*
X0031854D01*
X0032387Y0123555D02*
X0031854D01*
X0032411Y0123528D02*
X0031854D01*
X0032434Y0123501D02*
X0031854D01*
X0032456Y0123474D02*
X0031854D01*
X0032476Y0123447D02*
X0031854D01*
X0032496Y0123420D02*
X0031854D01*
X0032514Y0123393D02*
X0031854D01*
X0032531Y0123366D02*
X0031854D01*
Y0123876D02*
Y0123326D01*
X0032554D02*
X0031854D01*
X0032542Y0123347D02*
Y0123326D01*
X0032515Y0123391D02*
Y0123326D01*
X0032488Y0123431D02*
Y0123326D01*
X0032461Y0123468D02*
Y0123326D01*
X0032434Y0123502D02*
Y0123326D01*
X0032407Y0123533D02*
Y0123326D01*
X0032380Y0123562D02*
Y0123326D01*
X0032353Y0123590D02*
Y0123326D01*
X0032326Y0123615D02*
Y0123326D01*
X0032299Y0123639D02*
Y0123326D01*
X0032272Y0123662D02*
Y0123326D01*
X0032245Y0123683D02*
Y0123326D01*
X0032218Y0123703D02*
Y0123326D01*
X0032191Y0123721D02*
Y0123326D01*
X0032164Y0123739D02*
Y0123326D01*
X0032137Y0123756D02*
Y0123326D01*
X0032110Y0123771D02*
Y0123326D01*
X0032083Y0123786D02*
Y0123326D01*
X0032056Y0123799D02*
Y0123326D01*
X0032029Y0123812D02*
Y0123326D01*
X0032002Y0123824D02*
Y0123326D01*
X0032547Y0123339D02*
X0031854D01*
X0017705Y0119940D02*
X0017678D01*
X0017749Y0119913D02*
X0017678D01*
X0017787Y0119886D02*
X0017678D01*
X0017821Y0119859D02*
X0017678D01*
X0017851Y0119832D02*
X0017678D01*
X0017878Y0119805D02*
X0017678D01*
X0017902Y0119778D02*
X0017678D01*
X0017925Y0119751D02*
X0017678D01*
X0017945Y0119724D02*
X0017678D01*
X0017964Y0119697D02*
X0017678D01*
X0017981Y0119670D02*
X0017678D01*
X0017934Y0119739D02*
Y0119630D01*
X0017907Y0119773D02*
Y0119630D01*
X0017880Y0119803D02*
Y0119630D01*
X0017853Y0119830D02*
Y0119630D01*
X0017826Y0119854D02*
Y0119630D01*
X0017799Y0119877D02*
Y0119630D01*
X0017772Y0119897D02*
Y0119630D01*
X0017745Y0119916D02*
Y0119630D01*
X0017718Y0119933D02*
Y0119630D01*
X0017691Y0119948D02*
Y0119630D01*
X0017996Y0119643D02*
X0017678D01*
X0018003Y0119630D02*
X0017678D01*
Y0119955D02*
Y0119630D01*
X0017988Y0119657D02*
Y0119630D01*
X0017961Y0119701D02*
Y0119630D01*
X0017995Y0118915D02*
X0017678D01*
X0017979Y0118888D02*
X0017678D01*
X0017962Y0118861D02*
X0017678D01*
X0017944Y0118834D02*
X0017678D01*
X0017923Y0118807D02*
X0017678D01*
X0017901Y0118780D02*
X0017678D01*
X0017876Y0118753D02*
X0017678D01*
X0017849Y0118726D02*
X0017678D01*
X0017818Y0118699D02*
X0017678D01*
X0017784Y0118672D02*
X0017678D01*
X0017746Y0118645D02*
X0017678D01*
X0017934Y0118930D02*
Y0118821D01*
X0017907Y0118930D02*
Y0118787D01*
X0017880Y0118930D02*
Y0118757D01*
X0017853Y0118930D02*
Y0118730D01*
X0017826Y0118930D02*
Y0118705D01*
X0017799Y0118930D02*
Y0118683D01*
X0017772Y0118930D02*
Y0118663D01*
X0017745Y0118930D02*
Y0118644D01*
X0017718Y0118930D02*
Y0118627D01*
X0017691Y0118930D02*
Y0118612D01*
X0017702Y0118618D02*
X0017678D01*
X0018003Y0118930D02*
X0017678D01*
Y0118605D01*
X0017988Y0118930D02*
Y0118902D01*
X0017961Y0118930D02*
Y0118859D01*
X0022284Y0123652D02*
X0021884Y0123252D01*
Y0124052D01*
X0022284Y0123652D01*
X0021717Y0105148D02*
X0021690D01*
X0021761Y0105121D02*
X0021690D01*
X0021799Y0105094D02*
X0021690D01*
X0021833Y0105067D02*
X0021690D01*
X0021863Y0105040D02*
X0021690D01*
X0021890Y0105013D02*
X0021690D01*
X0021914Y0104986D02*
X0021690D01*
X0021937Y0104959D02*
X0021690D01*
X0021957Y0104932D02*
X0021690D01*
X0021976Y0104905D02*
X0021690D01*
X0021993Y0104878D02*
X0021690D01*
X0021946Y0104947D02*
Y0104838D01*
X0021919Y0104981D02*
Y0104838D01*
X0021892Y0105011D02*
Y0104838D01*
X0021865Y0105038D02*
Y0104838D01*
X0021838Y0105062D02*
Y0104838D01*
X0021811Y0105085D02*
Y0104838D01*
X0021784Y0105105D02*
Y0104838D01*
X0021757Y0105124D02*
Y0104838D01*
X0021730Y0105141D02*
Y0104838D01*
X0021703Y0105156D02*
Y0104838D01*
X0022008Y0104851D02*
X0021690D01*
X0022015Y0104838D02*
X0021690D01*
Y0105163D02*
Y0104838D01*
X0022000Y0104865D02*
Y0104838D01*
X0021973Y0104909D02*
Y0104838D01*
X0022007Y0104123D02*
X0021690D01*
X0021991Y0104096D02*
X0021690D01*
X0021974Y0104069D02*
X0021690D01*
X0021956Y0104042D02*
X0021690D01*
X0021935Y0104015D02*
X0021690D01*
X0021913Y0103988D02*
X0021690D01*
X0021888Y0103961D02*
X0021690D01*
X0021861Y0103934D02*
X0021690D01*
X0021830Y0103907D02*
X0021690D01*
X0021796Y0103880D02*
X0021690D01*
X0021758Y0103853D02*
X0021690D01*
X0021946Y0104138D02*
Y0104029D01*
X0021919Y0104138D02*
Y0103995D01*
X0021892Y0104138D02*
Y0103965D01*
X0021865Y0104138D02*
Y0103938D01*
X0021838Y0104138D02*
Y0103913D01*
X0021811Y0104138D02*
Y0103891D01*
X0021784Y0104138D02*
Y0103871D01*
X0021757Y0104138D02*
Y0103852D01*
X0021730Y0104138D02*
Y0103835D01*
X0021703Y0104138D02*
Y0103820D01*
X0021714Y0103826D02*
X0021690D01*
X0022015Y0104138D02*
X0021690D01*
Y0103813D01*
X0022000Y0104138D02*
Y0104110D01*
X0021973Y0104138D02*
Y0104067D01*
G01X0022579Y0108234D02*
G03X0022254Y0108559I0000675J0000350D01*
Y0107209D02*
G03X0022579Y0107534I0000350J0000675D01*
G01X0031154Y0123876D02*
G03X0030429Y0123326I0000371J0001242D01*
G01X0032554D02*
G03X0031854Y0123876I0001003J0000556D01*
G01X0018003Y0119630D02*
G03X0017678Y0119955I0000675J0000350D01*
Y0118605D02*
G03X0018003Y0118930I0000350J0000675D01*
G01X0022015Y0104838D02*
G03X0021690Y0105163I0000675J0000350D01*
Y0103813D02*
G03X0022015Y0104138I0000350J0000675D01*
G54D93*
G01X0025897Y0104313D02*
X0026919D01*
Y0106595D01*
X0025897D01*
Y0104313D01*
G54D94*
G01X0017724Y0106310D02*
Y0105961D01*
X0017679Y0106290D02*
Y0105982D01*
X0017634Y0106250D02*
Y0106022D01*
X0017832Y0106309D02*
X0017719D01*
X0017905Y0106264D02*
X0017646D01*
X0017938Y0106219D02*
X0017614D01*
X0017954Y0106174D02*
X0017598D01*
X0017958Y0106129D02*
X0017594D01*
X0017950Y0106084D02*
X0017601D01*
X0017930Y0106039D02*
X0017622D01*
X0017949Y0106192D02*
Y0106079D01*
X0017904Y0106265D02*
Y0106006D01*
X0017859Y0106298D02*
Y0105974D01*
X0017814Y0106314D02*
Y0105958D01*
X0017769Y0106318D02*
Y0105954D01*
X0017890Y0105994D02*
X0017662D01*
G01X0017776Y0105954D02*
G03X0017958Y0106136I0000000J0000182D01*
G01X0017594D02*
G03X0017776Y0105954I0000182J0000000D01*
Y0106318D02*
G03X0017594Y0106136I0000000J0000182D01*
G01X0017958D02*
G03X0017776Y0106318I0000182J0000000D01*
G54D95*
G01X0017500Y0108347D02*
X0017631Y0108610D01*
X0017456D01*
X0017165Y0108391D02*
X0017209Y0108347D01*
X0017296D01*
X0017340Y0108391D01*
Y0108435D01*
X0017252Y0108522D01*
X0017340Y0108610D01*
X0017165D01*
X0016983Y0108478D02*
X0017049Y0108347D01*
X0016874Y0108478D02*
X0017005D01*
X0017049Y0108522D01*
Y0108566D01*
X0017005Y0108610D01*
X0016874D01*
Y0108347D01*
X0016849Y0117232D02*
X0016871Y0117188D01*
X0017002D01*
X0017024Y0117232D01*
Y0117319D01*
X0016980Y0117363D01*
X0016849D01*
Y0117451D01*
X0017024D01*
X0016733D02*
Y0117232D01*
X0016711Y0117188D01*
X0016580D01*
X0016558Y0117232D01*
Y0117451D01*
X0035059Y0110071D02*
X0034884D01*
X0035059Y0110246D01*
Y0110290D01*
X0035037Y0110334D01*
X0034906D01*
X0034884Y0110290D01*
X0034768Y0110071D02*
X0034593D01*
X0034768Y0110246D01*
Y0110290D01*
X0034746Y0110334D01*
X0034615D01*
X0034593Y0110290D01*
X0034411Y0110202D02*
X0034477Y0110071D01*
X0034302Y0110202D02*
X0034433D01*
X0034477Y0110246D01*
Y0110290D01*
X0034433Y0110334D01*
X0034302D01*
Y0110071D01*
X0020863Y0108612D02*
Y0108437D01*
X0020951Y0108524D02*
X0020776D01*
X0022440Y0108938D02*
X0022462Y0108981D01*
Y0109025D01*
X0022440Y0109069D01*
X0022309D01*
X0022287Y0109025D01*
Y0108981D01*
X0022309Y0108938D01*
X0022440D01*
X0022462Y0108894D01*
Y0108850D01*
X0022440Y0108807D01*
X0022309D01*
X0022287Y0108850D01*
Y0108894D01*
X0022309Y0108938D01*
X0021996Y0108850D02*
X0022040Y0108807D01*
X0022127D01*
X0022171Y0108850D01*
Y0108894D01*
X0022083Y0108981D01*
X0022171Y0109069D01*
X0021996D01*
X0021880Y0108850D02*
X0021858Y0108807D01*
X0021727D01*
X0021705Y0108850D01*
Y0109025D01*
X0021727Y0109069D01*
X0021858D01*
X0021880Y0109025D01*
X0020863Y0108612D02*
Y0108437D01*
X0020951Y0108524D02*
X0020776D01*
X0038970Y0102777D02*
Y0103040D01*
X0039057D02*
X0038882D01*
X0038722Y0102909D02*
X0038591D01*
X0038766Y0102777D02*
X0038591D01*
Y0103040D01*
X0038766D01*
X0038475Y0102996D02*
X0038453Y0103040D01*
X0038322D01*
X0038300Y0102996D01*
Y0102952D01*
X0038322Y0102909D01*
X0038453D01*
X0038475Y0102865D01*
Y0102821D01*
X0038453Y0102777D01*
X0038322D01*
X0038300Y0102821D01*
X0038140Y0102909D02*
X0038009D01*
X0038184Y0102777D02*
X0038009D01*
Y0103040D01*
X0038184D01*
X0037827Y0102909D02*
X0037892Y0102777D01*
X0037717Y0102909D02*
X0037849D01*
X0037892Y0102952D01*
Y0102996D01*
X0037849Y0103040D01*
X0037717D01*
Y0102777D01*
X0016391Y0106559D02*
Y0106471D01*
Y0106515D02*
X0016128D01*
X0016172Y0106471D01*
X0016259Y0106311D02*
Y0106136D01*
X0016391Y0106311D02*
X0016128D01*
X0016391Y0106136D02*
X0016128D01*
Y0106020D02*
X0016347D01*
X0016391Y0105998D01*
Y0105867D01*
X0016347Y0105845D01*
X0016128D01*
X0016391Y0105619D02*
X0016347Y0105576D01*
X0016303Y0105554D01*
X0016216D01*
X0016172Y0105576D01*
X0016128Y0105619D01*
Y0105663D01*
X0016172Y0105707D01*
X0016216Y0105729D01*
X0016303D01*
X0016347Y0105707D01*
X0016391Y0105663D01*
Y0105619D01*
Y0105438D02*
Y0105350D01*
Y0105394D02*
X0016128D01*
X0016172Y0105350D01*
X0016303Y0104801D02*
Y0104626D01*
X0016128Y0104713D01*
Y0104757D01*
X0016391D01*
Y0104510D02*
Y0104357D01*
X0016128D01*
X0033177Y0118576D02*
X0032914Y0118707D01*
Y0118532D01*
X0033177Y0118416D02*
Y0118329D01*
Y0118372D02*
X0032914D01*
X0032958Y0118329D01*
X0033045Y0118103D02*
X0033177Y0118169D01*
X0033045Y0117994D02*
Y0118125D01*
X0033002Y0118169D01*
X0032958D01*
X0032914Y0118125D01*
Y0117994D01*
X0033177D01*
X0034958Y0111147D02*
X0034914Y0111191D01*
X0034892Y0111235D01*
Y0111322D01*
X0034914Y0111366D01*
X0034958Y0111410D01*
X0035001D01*
X0035045Y0111366D01*
X0035067Y0111322D01*
Y0111235D01*
X0035045Y0111191D01*
X0035001Y0111147D01*
X0034958D01*
X0034776D02*
X0034601D01*
X0034776Y0111322D01*
Y0111366D01*
X0034754Y0111410D01*
X0034623D01*
X0034601Y0111366D01*
X0034419Y0111278D02*
X0034485Y0111147D01*
X0034310Y0111278D02*
X0034441D01*
X0034485Y0111322D01*
Y0111366D01*
X0034441Y0111410D01*
X0034310D01*
Y0111147D01*
X0029889Y0118826D02*
X0029758D01*
X0029736Y0118870D01*
Y0118914D01*
X0029758Y0118958D01*
X0029889D01*
X0029911Y0118914D01*
Y0118870D01*
X0029824Y0118695D01*
X0029620D02*
X0029445D01*
X0029620Y0118870D01*
Y0118914D01*
X0029598Y0118958D01*
X0029467D01*
X0029445Y0118914D01*
X0029263Y0118826D02*
X0029329Y0118695D01*
X0029154Y0118826D02*
X0029285D01*
X0029329Y0118870D01*
Y0118914D01*
X0029285Y0118958D01*
X0029154D01*
Y0118695D01*
X0038912Y0112522D02*
X0038869Y0112544D01*
X0038825D01*
X0038781Y0112522D01*
Y0112391D01*
X0038825Y0112369D01*
X0038869D01*
X0038912Y0112391D01*
Y0112522D01*
X0038956Y0112544D01*
X0039000D01*
X0039044Y0112522D01*
Y0112391D01*
X0039000Y0112369D01*
X0038956D01*
X0038912Y0112391D01*
X0038956Y0112100D02*
X0039000D01*
X0039044Y0112122D01*
Y0112209D01*
X0039000Y0112231D01*
X0038781D01*
Y0112253D02*
Y0112165D01*
X0022372Y0113109D02*
X0022328Y0113153D01*
X0022306Y0113197D01*
Y0113284D01*
X0022328Y0113328D01*
X0022372Y0113372D01*
X0022416D01*
X0022459Y0113328D01*
X0022481Y0113284D01*
Y0113197D01*
X0022459Y0113153D01*
X0022416Y0113109D01*
X0022372D01*
X0022190D02*
X0022103D01*
X0022146D02*
Y0113372D01*
X0022103Y0113328D01*
X0021943Y0113153D02*
X0021921Y0113109D01*
X0021790D01*
X0021768Y0113153D01*
Y0113328D01*
X0021790Y0113372D01*
X0021921D01*
X0021943Y0113328D01*
X0037565Y0122869D02*
X0037390D01*
X0037478Y0123044D01*
X0037521D01*
Y0122781D01*
X0037099Y0122825D02*
X0037143Y0122781D01*
X0037230D01*
X0037274Y0122825D01*
Y0122869D01*
X0037186Y0122956D01*
X0037274Y0123044D01*
X0037099D01*
X0036917Y0122912D02*
X0036983Y0122781D01*
X0036808Y0122912D02*
X0036939D01*
X0036983Y0122956D01*
Y0123000D01*
X0036939Y0123044D01*
X0036808D01*
Y0122781D01*
X0034603Y0116238D02*
X0034734D01*
X0034756Y0116195D01*
Y0116151D01*
X0034734Y0116107D01*
X0034603D01*
X0034581Y0116151D01*
Y0116195D01*
X0034668Y0116370D01*
X0034399Y0116238D02*
X0034465Y0116107D01*
X0034290Y0116238D02*
X0034421D01*
X0034465Y0116282D01*
Y0116326D01*
X0034421Y0116370D01*
X0034290D01*
Y0116107D01*
X0034836Y0112203D02*
X0034880Y0112159D01*
X0034967D01*
X0035011Y0112203D01*
Y0112247D01*
X0034924Y0112334D01*
X0035011Y0112422D01*
X0034836D01*
X0034720Y0112159D02*
X0034633D01*
X0034676D02*
Y0112422D01*
X0034633Y0112378D01*
X0034407Y0112290D02*
X0034473Y0112159D01*
X0034298Y0112290D02*
X0034429D01*
X0034473Y0112334D01*
Y0112378D01*
X0034429Y0112422D01*
X0034298D01*
Y0112159D01*
X0034105Y0118554D02*
Y0118685D01*
X0034149Y0118707D01*
X0034193D01*
X0034237Y0118685D01*
Y0118554D01*
X0034193Y0118532D01*
X0034149D01*
X0033974Y0118620D01*
X0034237Y0118416D02*
Y0118329D01*
Y0118372D02*
X0033974D01*
X0034018Y0118329D01*
X0034105Y0118103D02*
X0034237Y0118169D01*
X0034105Y0117994D02*
Y0118125D01*
X0034062Y0118169D01*
X0034018D01*
X0033974Y0118125D01*
Y0117994D01*
X0034237D01*
X0034641Y0115527D02*
X0034772Y0115790D01*
X0034597D01*
X0034415Y0115658D02*
X0034481Y0115527D01*
X0034306Y0115658D02*
X0034437D01*
X0034481Y0115702D01*
Y0115746D01*
X0034437Y0115790D01*
X0034306D01*
Y0115527D01*
X0034892Y0109031D02*
X0034936Y0108987D01*
X0035023D01*
X0035067Y0109031D01*
Y0109075D01*
X0034980Y0109162D01*
X0035067Y0109250D01*
X0034892D01*
X0034776Y0108987D02*
X0034601D01*
X0034776Y0109162D01*
Y0109206D01*
X0034754Y0109250D01*
X0034623D01*
X0034601Y0109206D01*
X0034419Y0109118D02*
X0034485Y0108987D01*
X0034310Y0109118D02*
X0034441D01*
X0034485Y0109162D01*
Y0109206D01*
X0034441Y0109250D01*
X0034310D01*
Y0108987D01*
X0034959Y0113363D02*
X0034872D01*
X0034916D02*
Y0113626D01*
X0034872Y0113582D01*
X0034712Y0113363D02*
X0034625D01*
X0034668D02*
Y0113626D01*
X0034625Y0113582D01*
X0034399Y0113494D02*
X0034465Y0113363D01*
X0034290Y0113494D02*
X0034421D01*
X0034465Y0113538D01*
Y0113582D01*
X0034421Y0113626D01*
X0034290D01*
Y0113363D01*
X0028061Y0112240D02*
X0028105Y0112196D01*
X0028193D01*
X0028236Y0112240D01*
Y0112284D01*
X0028149Y0112371D01*
X0028236Y0112458D01*
X0028061D01*
X0027945D02*
Y0112240D01*
X0027923Y0112196D01*
X0027792D01*
X0027770Y0112240D01*
Y0112458D01*
X0024124Y0108693D02*
X0024037D01*
X0024080D02*
Y0108955D01*
X0024037Y0108912D01*
X0032513Y0109175D02*
X0032557Y0109197D01*
Y0109328D01*
X0032513Y0109350D01*
X0032426D01*
X0032382Y0109306D01*
Y0109175D01*
X0032295D01*
Y0109350D01*
X0032469Y0109059D02*
Y0108884D01*
X0032295Y0108971D01*
Y0109015D01*
X0032557D01*
X0031860Y0117206D02*
X0031991D01*
X0032013Y0117162D01*
Y0117118D01*
X0031991Y0117075D01*
X0031860D01*
X0031838Y0117118D01*
Y0117162D01*
X0031925Y0117337D01*
X0032151Y0117206D02*
X0032129Y0117162D01*
Y0117118D01*
X0032151Y0117075D01*
X0032282D01*
X0032304Y0117118D01*
Y0117162D01*
X0032282Y0117206D01*
X0032151D01*
X0032129Y0117249D01*
Y0117293D01*
X0032151Y0117337D01*
X0032282D01*
X0032304Y0117293D01*
Y0117249D01*
X0032282Y0117206D01*
X0023957Y0116371D02*
X0023913Y0116328D01*
Y0116240D01*
X0023957Y0116196D01*
X0024000D01*
X0024088Y0116284D01*
X0024175Y0116196D01*
Y0116371D01*
X0023957Y0116662D02*
X0023913Y0116619D01*
Y0116531D01*
X0023957Y0116487D01*
X0024000D01*
X0024088Y0116575D01*
X0024175Y0116487D01*
Y0116662D01*
X0023913Y0116779D02*
Y0116866D01*
Y0116822D02*
X0024175D01*
X0024132Y0116866D01*
X0038964Y0118699D02*
X0038789D01*
X0038964Y0118874D01*
Y0118918D01*
X0038942Y0118962D01*
X0038811D01*
X0038789Y0118918D01*
X0038520Y0118787D02*
Y0118743D01*
X0038542Y0118699D01*
X0038630D01*
X0038651Y0118743D01*
Y0118962D01*
X0038673D02*
X0038586D01*
X0037486Y0103399D02*
X0037399D01*
X0037442D02*
Y0103662D01*
X0037399Y0103618D01*
X0037239Y0103662D02*
Y0103443D01*
X0037217Y0103399D01*
X0037086D01*
X0037064Y0103443D01*
Y0103662D01*
X0021571Y0111678D02*
Y0111503D01*
X0021396Y0111678D01*
X0021352D01*
X0021308Y0111656D01*
Y0111525D01*
X0021352Y0111503D01*
X0021439Y0111321D02*
X0021571Y0111387D01*
X0021439Y0111212D02*
Y0111343D01*
X0021396Y0111387D01*
X0021352D01*
X0021308Y0111343D01*
Y0111212D01*
X0021571D01*
X0036609Y0118686D02*
Y0118817D01*
X0036653Y0118839D01*
X0036697D01*
X0036741Y0118817D01*
Y0118686D01*
X0036697Y0118664D01*
X0036653D01*
X0036478Y0118752D01*
X0036741Y0118548D02*
Y0118373D01*
X0036566Y0118548D01*
X0036522D01*
X0036478Y0118526D01*
Y0118395D01*
X0036522Y0118373D01*
X0036609Y0118191D02*
X0036741Y0118257D01*
X0036609Y0118082D02*
Y0118213D01*
X0036566Y0118257D01*
X0036522D01*
X0036478Y0118213D01*
Y0118082D01*
X0036741D01*
X0038980Y0117101D02*
X0038717Y0117232D01*
Y0117057D01*
X0038892Y0116788D02*
X0038936D01*
X0038980Y0116810D01*
Y0116897D01*
X0038936Y0116919D01*
X0038717D01*
Y0116941D02*
Y0116853D01*
X0034738Y0114598D02*
X0034607D01*
X0034585Y0114642D01*
Y0114686D01*
X0034607Y0114730D01*
X0034738D01*
X0034760Y0114686D01*
Y0114642D01*
X0034672Y0114467D01*
X0034403Y0114598D02*
X0034469Y0114467D01*
X0034294Y0114598D02*
X0034425D01*
X0034469Y0114642D01*
Y0114686D01*
X0034425Y0114730D01*
X0034294D01*
Y0114467D01*
X0035007Y0112771D02*
X0034832D01*
X0035007Y0112946D01*
Y0112990D01*
X0034985Y0113034D01*
X0034854D01*
X0034832Y0112990D01*
X0034716Y0112771D02*
X0034629D01*
X0034672D02*
Y0113034D01*
X0034629Y0112990D01*
X0034403Y0112902D02*
X0034469Y0112771D01*
X0034294Y0112902D02*
X0034425D01*
X0034469Y0112946D01*
Y0112990D01*
X0034425Y0113034D01*
X0034294D01*
Y0112771D01*
X0035186Y0102197D02*
X0035011D01*
X0035099Y0102372D01*
X0035143D01*
Y0102109D01*
X0034742D02*
Y0102372D01*
X0034720Y0102109D02*
X0034851D01*
X0034895Y0102197D01*
Y0102284D01*
X0034851Y0102372D01*
X0034720D01*
X0034977Y0105731D02*
X0034802D01*
X0034977Y0105906D01*
Y0105949D01*
X0034955Y0105993D01*
X0034824D01*
X0034802Y0105949D01*
X0034686Y0105993D02*
Y0105774D01*
X0034664Y0105731D01*
X0034533D01*
X0034511Y0105774D01*
Y0105993D01*
X0037243Y0124569D02*
X0037287Y0124525D01*
X0037374D01*
X0037418Y0124569D01*
Y0124613D01*
X0037330Y0124700D01*
X0037418Y0124788D01*
X0037243D01*
X0036974Y0124525D02*
Y0124788D01*
X0036952Y0124525D02*
X0037083D01*
X0037127Y0124613D01*
Y0124700D01*
X0037083Y0124788D01*
X0036952D01*
X0021523Y0110919D02*
X0021567Y0110963D01*
Y0111050D01*
X0021523Y0111094D01*
X0021479D01*
X0021392Y0111006D01*
X0021304Y0111094D01*
Y0110919D01*
X0021435Y0110737D02*
X0021567Y0110803D01*
X0021435Y0110628D02*
Y0110759D01*
X0021392Y0110803D01*
X0021348D01*
X0021304Y0110759D01*
Y0110628D01*
X0021567D01*
X0035927Y0107144D02*
X0035949Y0107188D01*
Y0107232D01*
X0035927Y0107276D01*
X0035796D01*
X0035774Y0107232D01*
Y0107188D01*
X0035796Y0107144D01*
X0035927D01*
X0035949Y0107101D01*
Y0107057D01*
X0035927Y0107013D01*
X0035796D01*
X0035774Y0107057D01*
Y0107101D01*
X0035796Y0107144D01*
X0035483Y0107057D02*
X0035505Y0107013D01*
X0035636D01*
X0035658Y0107057D01*
Y0107144D01*
X0035614Y0107188D01*
X0035483D01*
Y0107276D01*
X0035658D01*
X0035367Y0107057D02*
X0035345Y0107013D01*
X0035214D01*
X0035192Y0107057D01*
Y0107232D01*
X0035214Y0107276D01*
X0035345D01*
X0035367Y0107232D01*
X0022326Y0121425D02*
X0022370Y0121447D01*
Y0121578D01*
X0022326Y0121600D01*
X0022238D01*
X0022195Y0121556D01*
Y0121425D01*
X0022107D01*
Y0121600D01*
X0022282Y0121156D02*
X0022326D01*
X0022370Y0121178D01*
Y0121265D01*
X0022326Y0121287D01*
X0022107D01*
Y0121309D02*
Y0121221D01*
X0022243Y0123132D02*
X0022374Y0123197D01*
X0022243Y0123022D02*
Y0123154D01*
X0022199Y0123197D01*
X0022156D01*
X0022112Y0123154D01*
Y0123022D01*
X0022374D01*
X0022243Y0122862D02*
Y0122731D01*
X0022374Y0122906D02*
Y0122731D01*
X0022112D01*
Y0122906D01*
Y0122615D02*
X0022331D01*
X0022374Y0122593D01*
X0022243Y0122528D01*
X0022199D02*
X0022243D01*
X0022374Y0122462D01*
X0022331Y0122440D01*
X0022112D01*
X0022374Y0122171D02*
X0022331Y0122149D01*
X0022156D01*
X0022112Y0122171D01*
Y0122302D01*
X0022156Y0122324D01*
X0022331D01*
X0022374Y0122302D01*
Y0122171D01*
X0022243Y0121858D02*
Y0121989D01*
X0022199Y0122033D01*
X0022156D01*
X0022112Y0121989D01*
Y0121858D01*
X0022374D01*
X0036384Y0102273D02*
X0036516D01*
X0036538Y0102229D01*
Y0102185D01*
X0036516Y0102141D01*
X0036384D01*
X0036363Y0102185D01*
Y0102229D01*
X0036450Y0102404D01*
X0036071Y0102185D02*
X0036115Y0102141D01*
X0036203D01*
X0036246Y0102185D01*
Y0102229D01*
X0036159Y0102316D01*
X0036246Y0102404D01*
X0036071D01*
X0035890Y0102273D02*
X0035955Y0102141D01*
X0035780Y0102273D02*
X0035911D01*
X0035955Y0102316D01*
Y0102360D01*
X0035911Y0102404D01*
X0035780D01*
Y0102141D01*
X0034910Y0113907D02*
X0034866Y0113951D01*
X0034844Y0113995D01*
Y0114082D01*
X0034866Y0114126D01*
X0034910Y0114170D01*
X0034954D01*
X0034997Y0114126D01*
X0035019Y0114082D01*
Y0113995D01*
X0034997Y0113951D01*
X0034954Y0113907D01*
X0034910D01*
X0034728D02*
X0034641D01*
X0034684D02*
Y0114170D01*
X0034641Y0114126D01*
X0034415Y0114038D02*
X0034481Y0113907D01*
X0034306Y0114038D02*
X0034437D01*
X0034481Y0114082D01*
Y0114126D01*
X0034437Y0114170D01*
X0034306D01*
Y0113907D01*
X0022302Y0116409D02*
X0022346Y0116365D01*
X0022433D01*
X0022477Y0116409D01*
Y0116453D01*
X0022390Y0116540D01*
X0022477Y0116628D01*
X0022302D01*
X0022011Y0116409D02*
X0022055Y0116365D01*
X0022142D01*
X0022186Y0116409D01*
Y0116453D01*
X0022098Y0116540D01*
X0022186Y0116628D01*
X0022011D01*
X0021895Y0116409D02*
X0021873Y0116365D01*
X0021742D01*
X0021720Y0116409D01*
Y0116584D01*
X0021742Y0116628D01*
X0021873D01*
X0021895Y0116584D01*
X0016287Y0120008D02*
Y0119833D01*
X0016375Y0119920D02*
X0016200D01*
X0017663Y0120322D02*
X0017685Y0120279D01*
X0017816D01*
X0017838Y0120322D01*
Y0120410D01*
X0017794Y0120453D01*
X0017663D01*
Y0120541D01*
X0017838D01*
X0017547Y0120279D02*
X0017372D01*
X0017547Y0120453D01*
Y0120497D01*
X0017525Y0120541D01*
X0017394D01*
X0017372Y0120497D01*
X0017256Y0120322D02*
X0017234Y0120279D01*
X0017103D01*
X0017081Y0120322D01*
Y0120497D01*
X0017103Y0120541D01*
X0017234D01*
X0017256Y0120497D01*
X0016287Y0120008D02*
Y0119833D01*
X0016375Y0119920D02*
X0016200D01*
X0033452Y0124263D02*
X0033474Y0124220D01*
X0033605D01*
X0033627Y0124263D01*
Y0124351D01*
X0033583Y0124395D01*
X0033452D01*
Y0124482D01*
X0033627D01*
X0033161Y0124263D02*
X0033204Y0124220D01*
X0033292D01*
X0033336Y0124263D01*
Y0124307D01*
X0033248Y0124395D01*
X0033336Y0124482D01*
X0033161D01*
X0032979Y0124351D02*
X0033045Y0124220D01*
X0032870Y0124351D02*
X0033001D01*
X0033045Y0124395D01*
Y0124438D01*
X0033001Y0124482D01*
X0032870D01*
Y0124220D01*
X0026630Y0103981D02*
X0026542D01*
X0026586D02*
Y0104244D01*
X0026542Y0104200D01*
X0026295Y0103981D02*
Y0104112D01*
X0026382Y0104244D02*
X0026317Y0104112D01*
X0026273D01*
X0026207Y0104244D01*
X0022563Y0105715D02*
Y0105540D01*
X0022388Y0105627D01*
Y0105671D01*
X0022651D01*
X0022388Y0105424D02*
X0022607D01*
X0022651Y0105402D01*
Y0105271D01*
X0022607Y0105249D01*
X0022388D01*
X0025354Y0104860D02*
Y0105035D01*
X0025529Y0104860D01*
X0025573D01*
X0025617Y0104882D01*
Y0105013D01*
X0025573Y0105035D01*
X0025354Y0105239D02*
X0025485D01*
X0025617Y0105151D02*
X0025485Y0105217D01*
Y0105261D01*
X0025617Y0105326D01*
X0035011Y0110607D02*
X0034924D01*
X0034968D02*
Y0110870D01*
X0034924Y0110826D01*
X0034764Y0110607D02*
X0034589D01*
X0034764Y0110782D01*
Y0110826D01*
X0034742Y0110870D01*
X0034611D01*
X0034589Y0110826D01*
X0034407Y0110738D02*
X0034473Y0110607D01*
X0034298Y0110738D02*
X0034429D01*
X0034473Y0110782D01*
Y0110826D01*
X0034429Y0110870D01*
X0034298D01*
Y0110607D01*
X0038393Y0118031D02*
Y0117856D01*
X0038218Y0117944D01*
Y0117987D01*
X0038481D01*
Y0117740D02*
Y0117653D01*
Y0117696D02*
X0038218D01*
X0038262Y0117653D01*
X0038349Y0117427D02*
X0038481Y0117493D01*
X0038349Y0117318D02*
Y0117449D01*
X0038306Y0117493D01*
X0038262D01*
X0038218Y0117449D01*
Y0117318D01*
X0038481D01*
X0033221Y0121271D02*
X0033243Y0121228D01*
X0033374D01*
X0033396Y0121271D01*
Y0121359D01*
X0033352Y0121403D01*
X0033221D01*
Y0121490D01*
X0033396D01*
X0032951Y0121228D02*
Y0121490D01*
X0032930Y0121228D02*
X0033061D01*
X0033105Y0121315D01*
Y0121403D01*
X0033061Y0121490D01*
X0032930D01*
X0034582Y0124641D02*
X0034626Y0124597D01*
X0034713D01*
X0034757Y0124641D01*
Y0124685D01*
X0034670Y0124772D01*
X0034757Y0124860D01*
X0034582D01*
X0034291Y0124641D02*
X0034313Y0124597D01*
X0034444D01*
X0034466Y0124641D01*
Y0124728D01*
X0034422Y0124772D01*
X0034291D01*
Y0124860D01*
X0034466D01*
X0034175Y0124641D02*
X0034153Y0124597D01*
X0034022D01*
X0034000Y0124641D01*
Y0124816D01*
X0034022Y0124860D01*
X0034153D01*
X0034175Y0124816D01*
X0021569Y0112531D02*
Y0112356D01*
X0021394Y0112531D01*
X0021350D01*
X0021306Y0112509D01*
Y0112378D01*
X0021350Y0112356D01*
X0021525Y0112065D02*
X0021569Y0112109D01*
Y0112196D01*
X0021525Y0112240D01*
X0021481D01*
X0021394Y0112152D01*
X0021306Y0112240D01*
Y0112065D01*
X0021525Y0111949D02*
X0021569Y0111927D01*
Y0111796D01*
X0021525Y0111774D01*
X0021350D01*
X0021306Y0111796D01*
Y0111927D01*
X0021350Y0111949D01*
X0019719Y0107113D02*
X0019632D01*
X0019675D02*
Y0107376D01*
X0019632Y0107332D01*
X0019319Y0107113D02*
Y0107376D01*
X0019297Y0107113D02*
X0019428D01*
X0019472Y0107201D01*
Y0107288D01*
X0019428Y0107376D01*
X0019297D01*
X0034836Y0111699D02*
X0034858Y0111655D01*
X0034989D01*
X0035011Y0111699D01*
Y0111786D01*
X0034967Y0111830D01*
X0034836D01*
Y0111918D01*
X0035011D01*
X0034720Y0111655D02*
X0034633D01*
X0034676D02*
Y0111918D01*
X0034633Y0111874D01*
X0034407Y0111786D02*
X0034473Y0111655D01*
X0034298Y0111786D02*
X0034429D01*
X0034473Y0111830D01*
Y0111874D01*
X0034429Y0111918D01*
X0034298D01*
Y0111655D01*
X0023192Y0120097D02*
X0023148Y0120141D01*
X0023126Y0120185D01*
Y0120272D01*
X0023148Y0120316D01*
X0023192Y0120360D01*
X0023235D01*
X0023279Y0120316D01*
X0023301Y0120272D01*
Y0120185D01*
X0023279Y0120141D01*
X0023235Y0120097D01*
X0023192D01*
X0022835Y0120141D02*
X0022857Y0120097D01*
X0022988D01*
X0023010Y0120141D01*
Y0120228D01*
X0022966Y0120272D01*
X0022835D01*
Y0120360D01*
X0023010D01*
X0022719Y0120141D02*
X0022697Y0120097D01*
X0022566D01*
X0022544Y0120141D01*
Y0120316D01*
X0022566Y0120360D01*
X0022697D01*
X0022719Y0120316D01*
X0035643Y0117580D02*
X0035665Y0117624D01*
Y0117668D01*
X0035643Y0117712D01*
X0035512D01*
X0035490Y0117668D01*
Y0117624D01*
X0035512Y0117580D01*
X0035643D01*
X0035665Y0117537D01*
Y0117493D01*
X0035643Y0117449D01*
X0035512D01*
X0035490Y0117493D01*
Y0117537D01*
X0035512Y0117580D01*
X0035374Y0117449D02*
X0035287D01*
X0035330D02*
Y0117712D01*
X0035287Y0117668D01*
X0035061Y0117580D02*
X0035127Y0117449D01*
X0034952Y0117580D02*
X0035083D01*
X0035127Y0117624D01*
Y0117668D01*
X0035083Y0117712D01*
X0034952D01*
Y0117449D01*
X0022913Y0124461D02*
X0022738D01*
X0022913Y0124636D01*
Y0124680D01*
X0022891Y0124724D01*
X0022760D01*
X0022738Y0124680D01*
X0022447Y0124505D02*
X0022469Y0124461D01*
X0022600D01*
X0022622Y0124505D01*
Y0124592D01*
X0022578Y0124636D01*
X0022447D01*
Y0124724D01*
X0022622D01*
X0022331Y0124505D02*
X0022309Y0124461D01*
X0022178D01*
X0022156Y0124505D01*
Y0124680D01*
X0022178Y0124724D01*
X0022309D01*
X0022331Y0124680D01*
X0034593Y0116703D02*
X0034615Y0116659D01*
X0034746D01*
X0034768Y0116703D01*
Y0116790D01*
X0034724Y0116834D01*
X0034593D01*
Y0116922D01*
X0034768D01*
X0034411Y0116790D02*
X0034477Y0116659D01*
X0034302Y0116790D02*
X0034433D01*
X0034477Y0116834D01*
Y0116878D01*
X0034433Y0116922D01*
X0034302D01*
Y0116659D01*
X0018716Y0107489D02*
X0018672Y0107533D01*
X0018650Y0107577D01*
Y0107664D01*
X0018672Y0107708D01*
X0018716Y0107752D01*
X0018759D01*
X0018803Y0107708D01*
X0018825Y0107664D01*
Y0107577D01*
X0018803Y0107533D01*
X0018759Y0107489D01*
X0018716D01*
X0018534Y0107577D02*
X0018359D01*
X0018446Y0107752D01*
X0018490D01*
Y0107489D01*
X0018243Y0107533D02*
X0018221Y0107489D01*
X0018090D01*
X0018068Y0107533D01*
Y0107708D01*
X0018090Y0107752D01*
X0018221D01*
X0018243Y0107708D01*
X0037547Y0118404D02*
X0037416D01*
X0037394Y0118448D01*
Y0118492D01*
X0037416Y0118536D01*
X0037547D01*
X0037569Y0118492D01*
Y0118448D01*
X0037482Y0118273D01*
X0037278D02*
X0037191D01*
X0037234D02*
Y0118536D01*
X0037191Y0118492D01*
X0036965Y0118404D02*
X0037031Y0118273D01*
X0036856Y0118404D02*
X0036987D01*
X0037031Y0118448D01*
Y0118492D01*
X0036987Y0118536D01*
X0036856D01*
Y0118273D01*
X0036650Y0105885D02*
X0036563D01*
X0036606D02*
Y0106148D01*
X0036563Y0106104D01*
X0036403Y0105929D02*
X0036381Y0105885D01*
X0036250D01*
X0036228Y0105929D01*
Y0106104D01*
X0036250Y0106148D01*
X0036381D01*
X0036403Y0106104D01*
X0034754Y0115102D02*
X0034776Y0115146D01*
Y0115190D01*
X0034754Y0115234D01*
X0034623D01*
X0034601Y0115190D01*
Y0115146D01*
X0034623Y0115102D01*
X0034754D01*
X0034776Y0115059D01*
Y0115015D01*
X0034754Y0114971D01*
X0034623D01*
X0034601Y0115015D01*
Y0115059D01*
X0034623Y0115102D01*
X0034419D02*
X0034485Y0114971D01*
X0034310Y0115102D02*
X0034441D01*
X0034485Y0115146D01*
Y0115190D01*
X0034441Y0115234D01*
X0034310D01*
Y0114971D01*
X0021565Y0110583D02*
Y0110496D01*
Y0110540D02*
X0021302D01*
X0021346Y0110496D01*
X0021521Y0110161D02*
X0021565Y0110205D01*
Y0110292D01*
X0021521Y0110336D01*
X0021477D01*
X0021390Y0110248D01*
X0021302Y0110336D01*
Y0110161D01*
X0021521Y0110045D02*
X0021565Y0110023D01*
Y0109892D01*
X0021521Y0109870D01*
X0021346D01*
X0021302Y0109892D01*
Y0110023D01*
X0021346Y0110045D01*
X0018955Y0104340D02*
Y0104471D01*
X0018999Y0104493D01*
X0019043D01*
X0019087Y0104471D01*
Y0104340D01*
X0019043Y0104318D01*
X0018999D01*
X0018824Y0104406D01*
X0019043Y0104027D02*
X0019087Y0104071D01*
Y0104158D01*
X0019043Y0104202D01*
X0018999D01*
X0018912Y0104114D01*
X0018824Y0104202D01*
Y0104027D01*
X0019043Y0103911D02*
X0019087Y0103889D01*
Y0103758D01*
X0019043Y0103736D01*
X0018868D01*
X0018824Y0103758D01*
Y0103889D01*
X0018868Y0103911D01*
X0022326Y0117533D02*
X0022370Y0117489D01*
X0022457D01*
X0022501Y0117533D01*
Y0117577D01*
X0022414Y0117664D01*
X0022501Y0117752D01*
X0022326D01*
X0022210Y0117489D02*
X0022035D01*
X0022210Y0117664D01*
Y0117708D01*
X0022188Y0117752D01*
X0022057D01*
X0022035Y0117708D01*
X0021919Y0117533D02*
X0021897Y0117489D01*
X0021766D01*
X0021744Y0117533D01*
Y0117708D01*
X0021766Y0117752D01*
X0021897D01*
X0021919Y0117708D01*
X0035063Y0108519D02*
X0034888D01*
X0034976Y0108694D01*
X0035019D01*
Y0108431D01*
X0034772D02*
X0034597D01*
X0034772Y0108606D01*
Y0108650D01*
X0034750Y0108694D01*
X0034619D01*
X0034597Y0108650D01*
X0034415Y0108562D02*
X0034481Y0108431D01*
X0034306Y0108562D02*
X0034437D01*
X0034481Y0108606D01*
Y0108650D01*
X0034437Y0108694D01*
X0034306D01*
Y0108431D01*
X0033138Y0120798D02*
X0033160Y0120842D01*
Y0120886D01*
X0033138Y0120929D01*
X0033007D01*
X0032985Y0120886D01*
Y0120842D01*
X0033007Y0120798D01*
X0033138D01*
X0033160Y0120754D01*
Y0120711D01*
X0033138Y0120667D01*
X0033007D01*
X0032985Y0120711D01*
Y0120754D01*
X0033007Y0120798D01*
X0032869Y0120929D02*
Y0120711D01*
X0032847Y0120667D01*
X0032716D01*
X0032694Y0120711D01*
Y0120929D01*
X0034888Y0109511D02*
X0034910Y0109467D01*
X0035041D01*
X0035063Y0109511D01*
Y0109598D01*
X0035019Y0109642D01*
X0034888D01*
Y0109730D01*
X0035063D01*
X0034772Y0109467D02*
X0034597D01*
X0034772Y0109642D01*
Y0109686D01*
X0034750Y0109730D01*
X0034619D01*
X0034597Y0109686D01*
X0034415Y0109598D02*
X0034481Y0109467D01*
X0034306Y0109598D02*
X0034437D01*
X0034481Y0109642D01*
Y0109686D01*
X0034437Y0109730D01*
X0034306D01*
Y0109467D01*
X0020290Y0108301D02*
X0020421Y0108564D01*
X0020246D01*
X0019955Y0108345D02*
X0019999Y0108301D01*
X0020086D01*
X0020130Y0108345D01*
Y0108389D01*
X0020042Y0108476D01*
X0020130Y0108564D01*
X0019955D01*
X0019839Y0108345D02*
X0019817Y0108301D01*
X0019686D01*
X0019664Y0108345D01*
Y0108520D01*
X0019686Y0108564D01*
X0019817D01*
X0019839Y0108520D01*
X0022481Y0115341D02*
X0022306D01*
X0022481Y0115516D01*
Y0115560D01*
X0022459Y0115604D01*
X0022328D01*
X0022306Y0115560D01*
X0022190Y0115341D02*
X0022015D01*
X0022190Y0115516D01*
Y0115560D01*
X0022168Y0115604D01*
X0022037D01*
X0022015Y0115560D01*
X0021899Y0115385D02*
X0021877Y0115341D01*
X0021746D01*
X0021724Y0115385D01*
Y0115560D01*
X0021746Y0115604D01*
X0021877D01*
X0021899Y0115560D01*
X0022389Y0109157D02*
X0022302D01*
X0022346D02*
Y0109420D01*
X0022302Y0109376D01*
X0022142Y0109157D02*
X0022055D01*
X0022098D02*
Y0109420D01*
X0022055Y0109376D01*
X0021895Y0109201D02*
X0021873Y0109157D01*
X0021742D01*
X0021720Y0109201D01*
Y0109376D01*
X0021742Y0109420D01*
X0021873D01*
X0021895Y0109376D01*
X0033062Y0118759D02*
X0033018Y0118803D01*
X0032996Y0118847D01*
Y0118934D01*
X0033018Y0118978D01*
X0033062Y0119022D01*
X0033105D01*
X0033149Y0118978D01*
X0033171Y0118934D01*
Y0118847D01*
X0033149Y0118803D01*
X0033105Y0118759D01*
X0033062D01*
X0032705Y0118803D02*
X0032749Y0118759D01*
X0032836D01*
X0032880Y0118803D01*
Y0118847D01*
X0032792Y0118934D01*
X0032880Y0119022D01*
X0032705D01*
X0032523Y0118890D02*
X0032589Y0118759D01*
X0032414Y0118890D02*
X0032545D01*
X0032589Y0118934D01*
Y0118978D01*
X0032545Y0119022D01*
X0032414D01*
Y0118759D01*
X0020299Y0105216D02*
Y0105041D01*
X0020387Y0105128D02*
X0020212D01*
X0022774Y0104818D02*
Y0104687D01*
X0022731Y0104665D01*
X0022687D01*
X0022643Y0104687D01*
Y0104818D01*
X0022687Y0104840D01*
X0022731D01*
X0022906Y0104753D01*
X0022862Y0104374D02*
X0022906Y0104418D01*
Y0104505D01*
X0022862Y0104549D01*
X0022818D01*
X0022731Y0104462D01*
X0022643Y0104549D01*
Y0104374D01*
X0022862Y0104258D02*
X0022906Y0104236D01*
Y0104105D01*
X0022862Y0104083D01*
X0022687D01*
X0022643Y0104105D01*
Y0104236D01*
X0022687Y0104258D01*
X0020299Y0105216D02*
Y0105041D01*
X0020387Y0105128D02*
X0020212D01*
X0037882Y0120894D02*
Y0121025D01*
X0037926Y0121047D01*
X0037969D01*
X0038013Y0121025D01*
Y0120894D01*
X0037969Y0120872D01*
X0037926D01*
X0037751Y0120960D01*
X0037926Y0120603D02*
X0037969D01*
X0038013Y0120625D01*
Y0120713D01*
X0037969Y0120734D01*
X0037751D01*
Y0120756D02*
Y0120669D01*
X0031271Y0120402D02*
X0031096D01*
X0031184Y0120577D01*
X0031228D01*
Y0120315D01*
X0030827Y0120402D02*
Y0120358D01*
X0030849Y0120315D01*
X0030937D01*
X0030958Y0120358D01*
Y0120577D01*
X0030980D02*
X0030893D01*
X0028445Y0118875D02*
X0028489Y0118832D01*
X0028577D01*
X0028620Y0118875D01*
Y0118919D01*
X0028533Y0119007D01*
X0028620Y0119094D01*
X0028445D01*
X0028176Y0118919D02*
Y0118875D01*
X0028198Y0118832D01*
X0028286D01*
X0028307Y0118875D01*
Y0119094D01*
X0028329D02*
X0028242D01*
X0036274Y0124577D02*
X0036318Y0124533D01*
X0036405D01*
X0036449Y0124577D01*
Y0124621D01*
X0036362Y0124708D01*
X0036449Y0124796D01*
X0036274D01*
X0035983Y0124577D02*
X0036027Y0124533D01*
X0036114D01*
X0036158Y0124577D01*
Y0124621D01*
X0036070Y0124708D01*
X0036158Y0124796D01*
X0035983D01*
X0035801Y0124664D02*
X0035867Y0124533D01*
X0035692Y0124664D02*
X0035823D01*
X0035867Y0124708D01*
Y0124752D01*
X0035823Y0124796D01*
X0035692D01*
Y0124533D01*
G54D96*
G01X0029203Y0122740D02*
X0028941Y0122871D01*
Y0122696D01*
Y0122556D02*
X0029159D01*
X0029203Y0122534D01*
Y0122403D01*
X0029159Y0122381D01*
X0028941D01*
M02*
