*
G04 Mass Parameters ***
*
G04 Image ***
*
%INC:\CAINPCB\ECB_BF532\BF532_V2\ECB_532.SMB*%
%ICAS*%
%MOIN*%
%IPPOS*%
%ASAXBY*%
G74*%FSLAN2X34Y34*%
*
G04 Aperture Definitions ***
*
%ADD10R,0.0350X0.0300*%
%ADD11R,0.1000X0.0600*%
%ADD12R,0.0300X0.0350*%
%ADD13R,0.0600X0.1370*%
%ADD14R,0.0450X0.0350*%
%ADD15R,0.0320X0.0380*%
%ADD16R,0.0380X0.0320*%
%ADD17C,0.0930*%
%ADD18C,0.0775*%
%ADD19C,0.0669*%
%ADD20C,0.0550*%
%ADD21R,0.0550X0.0550*%
%ADD22C,0.0433*%
%ADD23C,0.1340*%
%ADD24R,0.1600X0.0750*%
%ADD25R,0.0236X0.0590*%
%ADD26O,0.0700X0.0110*%
%ADD27R,0.0700X0.0110*%
%ADD28O,0.0110X0.0700*%
%ADD29R,0.0110X0.0700*%
%ADD30R,0.0500X0.0160*%
%ADD31R,0.0100X0.0600*%
%ADD32R,0.1500X0.0450*%
%ADD33R,0.0160X0.0700*%
%ADD34R,0.0866X0.0512*%
%ADD35C,0.0600*%
%ADD36C,0.0236*%
%ADD37C,0.0080*%
%ADD38C,0.0100*%
%ADD39C,0.0079*%
%ADD40C,0.0236*%
%ADD41C,0.0315*%
%ADD42C,0.0157*%
%ADD43C,0.0394*%
%ADD44R,0.0350X0.0300*%
%ADD45R,0.0300X0.0350*%
%ADD46R,0.1000X0.0600*%
%ADD47C,0.0930*%
%ADD48C,0.0775*%
%ADD49C,0.0669*%
%ADD50C,0.0550*%
%ADD51R,0.0550X0.0550*%
%ADD52C,0.0433*%
%ADD53C,0.1340*%
%ADD54R,0.0197X0.0551*%
%ADD55R,0.0800X0.0250*%
%ADD56C,0.0600*%
%ADD57C,0.0236*%
%ADD58C,0.0776*%
%ADD59C,0.0750*%
%ADD60R,0.0750X0.0750*%
%ADD61C,0.1400*%
%ADD62C,0.0650*%
%ADD63C,0.0060*%
%ADD64C,0.0236*%
%ADD65C,0.0236*%
%ADD66C,0.0929*%
%ADD67C,0.1401*%
%ADD68C,0.0752*%
%ADD69R,0.0752X0.0752*%
%ADD70R,0.0400X0.0350*%
%ADD71R,0.1050X0.0650*%
%ADD72R,0.0350X0.0400*%
%ADD73R,0.0650X0.1420*%
%ADD74R,0.0500X0.0400*%
%ADD75R,0.0320X0.0380*%
%ADD76R,0.0380X0.0320*%
%ADD77C,0.0980*%
%ADD78C,0.0827*%
%ADD79C,0.0768*%
%ADD80C,0.0492*%
%ADD81C,0.1390*%
%ADD82R,0.1650X0.0800*%
%ADD83R,0.0276X0.0630*%
%ADD84O,0.0700X0.0110*%
%ADD85R,0.0700X0.0110*%
%ADD86O,0.0110X0.0700*%
%ADD87R,0.0110X0.0700*%
%ADD88R,0.0550X0.0210*%
%ADD89R,0.0140X0.0650*%
%ADD90R,0.1550X0.0500*%
%ADD91R,0.0210X0.0750*%
%ADD92R,0.0905X0.0551*%
%ADD93R,0.0236X0.0590*%
%ADD94R,0.0850X0.0300*%
*
G04 Plot Data ***
*
G54D50*
X0038744Y0121964D03*
Y0122964D03*
Y0123964D03*
X0037660Y0119660D03*
X0036660D03*
X0035660D03*
X0034660D03*
X0033660D03*
X0032660D03*
G54D51*
X0038744Y0120964D03*
X0038660Y0119660D03*
G54D62*
X0024220Y0104056D03*
Y0105976D03*
G54D70*
X0036267Y0107916D03*
X0036917D03*
X0036263Y0108516D03*
X0036913D03*
X0018113Y0107592D03*
X0017463D03*
X0020487Y0109960D03*
X0021137D03*
X0024923Y0109924D03*
X0025573D03*
X0035629Y0104832D03*
X0034979D03*
X0035429Y0121876D03*
X0034779D03*
X0035787Y0120396D03*
X0036437D03*
X0033753Y0120400D03*
X0033103D03*
X0034233Y0121868D03*
X0033583D03*
X0028169Y0109904D03*
X0027519D03*
X0031557Y0109744D03*
X0030907D03*
X0029765Y0109908D03*
X0029115D03*
X0019525Y0117824D03*
X0018875D03*
X0033007Y0115372D03*
X0033657D03*
X0027231Y0117796D03*
X0027881D03*
X0026757Y0117152D03*
X0026107D03*
X0028933Y0117180D03*
X0028283D03*
X0031683Y0117168D03*
X0032333D03*
X0033927Y0113804D03*
X0034577D03*
X0034127Y0110992D03*
X0034777D03*
X0036319Y0109636D03*
X0036969D03*
X0036323Y0111808D03*
X0036973D03*
X0036327Y0113980D03*
X0036977D03*
X0036407Y0116140D03*
X0037057D03*
G54D71*
X0028054Y0105912D03*
X0029554D03*
X0034946Y0102744D03*
X0036446D03*
G54D72*
X0023330Y0104433D03*
Y0105083D03*
X0031888Y0118561D03*
Y0117911D03*
X0031288Y0118545D03*
Y0117895D03*
X0026220Y0105195D03*
Y0105845D03*
X0026556Y0108663D03*
Y0109313D03*
X0024176Y0109889D03*
Y0109239D03*
X0032296Y0109845D03*
Y0109195D03*
X0028812Y0115731D03*
Y0116381D03*
X0030700Y0115703D03*
Y0116353D03*
X0028828Y0108247D03*
Y0108897D03*
X0033360Y0109933D03*
Y0109283D03*
X0033228Y0112773D03*
Y0112123D03*
X0033252Y0108261D03*
Y0107611D03*
X0029908Y0108679D03*
Y0109329D03*
X0027748Y0108671D03*
Y0109321D03*
X0025860Y0108667D03*
Y0109317D03*
X0024988Y0108679D03*
Y0109329D03*
X0023326Y0103149D03*
Y0103799D03*
X0023334Y0105713D03*
Y0106363D03*
X0025496Y0105161D03*
Y0104511D03*
Y0106361D03*
Y0105711D03*
G54D77*
X0014236Y0102362D03*
X0038382Y0102360D03*
X0020472Y0123092D03*
X0037516Y0121068D03*
G54D78*
X0037888Y0103988D03*
Y0106744D03*
G54D79*
X0038872Y0104480D03*
Y0106251D03*
G54D80*
X0038860Y0111820D03*
X0038073D03*
X0038860Y0111033D03*
X0038073D03*
X0038860Y0110245D03*
X0038073D03*
X0038860Y0109458D03*
X0038073D03*
X0038860Y0108670D03*
X0038073D03*
X0038860Y0107883D03*
X0038073D03*
X0038856Y0116544D03*
X0038069D03*
X0038856Y0115757D03*
X0038069D03*
X0038856Y0114969D03*
X0038069D03*
X0038856Y0114182D03*
X0038069D03*
X0038856Y0113394D03*
X0038069D03*
X0038856Y0112607D03*
X0038069D03*
X0014288Y0120304D03*
X0013501D03*
X0014288Y0119517D03*
X0013501D03*
X0014288Y0118729D03*
X0013501D03*
X0014288Y0117942D03*
X0013501D03*
X0014288Y0117154D03*
X0013501D03*
X0014288Y0116367D03*
X0013501D03*
X0014288Y0115580D03*
X0013501D03*
X0014288Y0114792D03*
X0013501D03*
X0014288Y0114005D03*
X0013501D03*
X0014288Y0113217D03*
X0013501D03*
X0014288Y0112430D03*
X0013501D03*
X0014288Y0111642D03*
X0013501D03*
X0014288Y0110855D03*
X0013501D03*
X0014288Y0110068D03*
X0013501D03*
X0014288Y0109280D03*
X0013501D03*
X0014288Y0108493D03*
X0013501D03*
X0014288Y0107705D03*
X0013501D03*
X0014288Y0106918D03*
X0013501D03*
X0014288Y0106131D03*
X0013501D03*
X0014288Y0105343D03*
X0013501D03*
X0014288Y0104556D03*
X0013501D03*
X0033548Y0101248D03*
Y0102035D03*
X0032761Y0101248D03*
Y0102035D03*
X0031973Y0101248D03*
Y0102035D03*
X0031186Y0101248D03*
Y0102035D03*
X0030398Y0101248D03*
Y0102035D03*
X0029611Y0101248D03*
Y0102035D03*
X0028824Y0101248D03*
Y0102035D03*
X0028036Y0101248D03*
Y0102035D03*
X0027249Y0101248D03*
Y0102035D03*
X0026461Y0101248D03*
Y0102035D03*
X0025674Y0101248D03*
Y0102035D03*
X0024886Y0101248D03*
Y0102035D03*
X0024099Y0101248D03*
Y0102035D03*
X0031788Y0119200D03*
Y0119987D03*
X0031012Y0119200D03*
Y0119987D03*
G54D81*
X0015496Y0123180D03*
X0017996D03*
X0016996Y0121680D03*
G54D93*
X0032283Y0110524D03*
X0031968D03*
X0031653D03*
X0031338D03*
X0031023D03*
X0030708D03*
X0030393D03*
X0030078D03*
X0029763D03*
X0029448D03*
X0029133D03*
X0028818D03*
X0028503D03*
X0028189D03*
X0027874D03*
X0027559D03*
X0027244D03*
X0026929D03*
X0026614D03*
X0026299D03*
X0025984D03*
X0025669D03*
X0025672Y0115085D03*
X0025984Y0115084D03*
X0026299D03*
X0026614D03*
X0026929D03*
X0027244D03*
X0027560Y0115085D03*
X0027874Y0115084D03*
X0028189D03*
X0028503D03*
X0028818D03*
X0029133D03*
X0029448D03*
X0029763D03*
X0030078D03*
X0030393D03*
X0030708D03*
X0031023D03*
X0031338D03*
X0031653D03*
X0031968D03*
X0032283D03*
X0025357Y0110523D03*
X0025043D03*
X0024728D03*
X0024413D03*
X0024099D03*
Y0115085D03*
X0024413D03*
X0024728D03*
X0025043D03*
X0025357D03*
G54D94*
X0036726Y0106930D03*
Y0106430D03*
Y0105930D03*
Y0105430D03*
X0034026D03*
Y0105930D03*
Y0106430D03*
Y0106930D03*
M02*
