%
T1C0.0118F200S100
X015212Y112260
X017464Y108284
X017468Y102060
X017582Y109574
X017828Y107932
X018056Y108548
X018158Y101642
X018158Y102462
X018460Y111708
X018548Y117244
X018757Y107903
X018764Y102060
X018856Y117528
X018960Y109576
X019160Y112608
X019182Y105470
X019240Y117360
X019504Y105192
X019504Y105732
X019524Y118100
X019556Y104792
X019658Y101618
X019658Y102502
X019696Y107572
X019812Y108292
X019818Y105470
X020004Y107296
X020076Y104156
X020088Y104820
X020092Y104484
X020264Y109828
X020332Y102060
X020590Y104834
X020610Y104178
X020644Y107564
X020644Y108224
X020648Y111708
X020772Y112600
X021078Y104178
X021078Y104498
X021078Y104834
X021137Y110233
X021154Y108226
X021176Y106204
X021286Y106983
X021324Y115204
X021400Y105748
X021476Y115972
X021488Y110780
X021504Y104488
X021504Y112640
X021516Y112036
X021520Y110328
X021636Y108224
X021644Y107564
X021679Y106195
X021795Y116845
X021804Y109440
X021936Y113324
X022040Y107884
X022084Y104080
X022090Y104898
X022208Y120796
X022329Y115321
X022420Y109460
X022440Y112384
X022448Y117572
X022559Y105857
X022584Y121144
X022596Y106368
X022624Y112036
X022654Y107490
X022654Y108310
X022656Y110356
X022664Y104488
X022668Y115412
X022676Y113064
X022800Y106112
X022969Y103149
X023220Y117596
X023268Y107884
X023504Y106900
X023788Y109076
X023788Y109968
X023788Y115008
X023792Y115388
X023824Y108688
X023900Y111772
X024000Y107496
X024116Y110132
X024000Y117564
X024120Y124580
X024176Y108944
X024394Y108518
X024520Y112688
X024624Y109932
X024640Y115604
X024656Y117380
X024712Y108688
X024728Y112412
X024968Y115736
X025040Y112168
X025182Y107466
X025184Y118556
X025216Y105436
X025252Y117484
X025272Y115912
X025320Y109272
X025356Y111924
X025528Y107468
X025536Y108672
X025652Y117424
X025664Y111412
X025668Y115844
X025708Y117032
X025822Y106281
X025836Y104628
X025944Y118632
X025972Y110000
X025980Y115656
X026048Y112260
X026144Y109272
X026232Y112544
X026296Y115896
X026312Y108664
X026364Y107156
X026560Y111124
X026612Y109844
X026676Y107320
X026612Y115716
X026696Y117412
X026704Y112636
X026796Y113720
X026868Y111204
X026880Y109236
X026916Y116696
X026980Y112144
X027148Y111444
X027212Y109904
X027240Y112412
X027332Y113628
X027432Y108668
X027432Y111664
X027546Y107402
X027616Y106428
X027872Y111292
X027960Y118856
X027987Y109321
X028189Y110151
X028428Y108580
X028818Y111110
X028828Y109264
X028836Y109908
X028948Y121187
X028948Y122762
X028948Y124337
X028964Y118612
X028964Y119000
X029060Y117436
X029136Y116500
X029144Y113984
X029156Y114356
X029216Y116156
X029228Y116864
X029332Y118988
X029342Y121975
X029342Y123549
X029368Y119336
X029476Y114512
X029601Y109329
X029608Y108680
X029608Y116024
X029640Y113532
X029716Y119348
X029735Y121187
X029735Y122762
X029735Y124337
X029763Y110161
X029763Y115511
X029768Y119680
X029816Y105368
X029816Y106476
X029828Y107336
X030072Y113280
X030076Y115992
X030129Y121975
X030129Y123549
X030200Y119616
X030248Y119968
X030264Y116352
X030400Y113112
X030523Y121187
X030523Y122762
X030523Y124337
X030608Y109712
X030656Y108704
X030700Y116664
X030708Y111136
X030708Y115400
X030748Y118664
X031000Y112900
X031012Y116036
X031052Y108584
X031164Y123076
X031164Y123432
X031164Y123808
X031164Y124152
X031164Y124500
X031184Y117388
X031188Y120876
X031184Y121212
X031196Y121564
X031196Y121900
X031196Y122272
X031328Y116196
X031344Y112556
X031480Y123076
X031524Y120872
X031536Y122272
X031536Y124500
X031540Y107040
X031557Y109437
X031652Y108668
X031653Y114559
X031672Y112268
X031683Y117489
X031816Y123076
X031856Y120876
X031856Y121216
X031856Y121576
X031856Y121908
X031856Y122272
X031856Y124104
X031860Y124500
X031864Y123408
X031896Y123776
X031972Y116148
X031996Y108848
X032240Y115624
X032283Y110125
X032312Y108680
X032333Y116839
X032348Y117444
X032472Y118740
X032476Y106896
X032589Y112917
X032612Y115628
X032703Y110159
X032704Y112116
X032740Y107108
X032747Y113705
X032759Y110947
X032812Y120400
X033192Y105168
X033208Y124008
X033251Y108553
X033252Y107324
X033251Y117509
X033297Y118055
X033526Y120874
X033584Y121576
X033824Y113788
X033860Y110992
X033936Y110452
X033948Y115372
X033976Y115768
X033996Y123748
X034164Y110076
X034228Y104972
X034232Y110572
X034240Y121580
X034252Y102744
X034252Y120328
X034256Y101676
X034336Y115860
X034340Y104420
X034368Y122624
X034375Y118067
X034388Y108264
X034620Y106544
X034742Y106930
X034744Y106240
X034764Y121472
X034816Y114116
X034897Y103999
X034897Y104397
X034940Y124148
X034946Y102354
X034946Y103146
X035275Y120323
X035275Y123767
X035416Y107880
X035432Y121572
X035536Y122560
X035913Y105783
X036000Y117812
X036032Y104744
X036130Y106930
X036319Y109817
X036328Y111960
X036332Y114152
X036328Y121040
X036400Y116312
X036406Y104426
X036446Y102342
X036796Y101680
X036446Y103158
X036824Y120396
X036913Y108223
X036981Y117981
X037032Y104411
X037116Y102744
X037188Y113424
X037236Y116948
X037243Y112615
X037318Y105930
X037330Y105430
X037382Y108678
X038045Y117977
X038104Y122148
X038120Y122744
T3C0.0340F200S100
X024220Y104056
X024220Y105976
X032660Y119660
X033660Y119660
X034660Y119660
X035660Y119660
X036660Y119660
X037660Y119660
X038660Y119660
X038744Y120964
X038744Y121964
X038744Y122964
X038744Y123964
T6C0.0630F200S100
X014236Y102362
X020472Y123092
X037516Y121068
X038382Y102360
T7C0.1100F200S100
X015496Y123180
X016996Y121680
X017996Y123180
T2C0.0315F200S100
X013501Y104556
X013501Y105343
X013501Y106131
X013501Y106918
X013501Y107705
X013501Y108493
X013501Y109280
X013501Y110068
X013501Y110855
X013501Y111642
X013501Y112430
X013501Y113217
X013501Y114005
X013501Y114792
X013501Y115580
X013501Y116367
X013501Y117154
X013501Y117942
X013501Y118729
X013501Y119517
X013501Y120304
X014288Y104556
X014288Y105343
X014288Y106131
X014288Y106918
X014288Y107705
X014288Y108493
X014288Y109280
X014288Y110068
X014288Y110855
X014288Y111642
X014288Y112430
X014288Y113217
X014288Y114005
X014288Y114792
X014288Y115580
X014288Y116367
X014288Y117154
X014288Y117942
X014288Y118729
X014288Y119517
X014288Y120304
X024099Y101248
X024099Y102035
X024886Y101248
X024886Y102035
X025674Y101248
X025674Y102035
X026461Y101248
X026461Y102035
X027249Y101248
X027249Y102035
X028036Y101248
X028036Y102035
X028824Y101248
X028824Y102035
X029611Y101248
X029611Y102035
X030398Y101248
X030398Y102035
X031012Y119200
X031012Y119987
X031186Y101248
X031186Y102035
X031788Y119200
X031788Y119987
X031973Y101248
X031973Y102035
X032761Y101248
X032761Y102035
X033548Y101248
X033548Y102035
X038069Y112607
X038069Y113394
X038069Y114182
X038069Y114969
X038069Y115757
X038069Y116544
X038073Y107883
X038073Y108670
X038073Y109458
X038073Y110245
X038073Y111033
X038073Y111820
X038856Y112607
X038856Y113394
X038856Y114182
X038856Y114969
X038856Y115757
X038856Y116544
X038860Y107883
X038860Y108670
X038860Y109458
X038860Y110245
X038860Y111033
X038860Y111820
T4C0.0417F200S100
X038872Y104480
X038872Y106251
T5C0.0531F200S100
X037888Y103988
X037888Y106744
M30
