*
G04 Mass Parameters ***
*
G04 Image ***
*
%INC:\CAINPCB\ECB_BF532\AUDIO_CODEC\AUDIO_BOARD-5.SMB*%
%ICAS*%
%MOIN*%
%IPPOS*%
%ASAXBY*%
G74*%FSLAN2X34Y34*%
*
G04 Aperture Definitions ***
*
%ADD10R,0.0350X0.0300*%
%ADD11R,0.0400X0.0500*%
%ADD12R,0.0300X0.0350*%
%ADD13R,0.0500X0.0400*%
%ADD14C,0.0433*%
%ADD15C,0.0620*%
%ADD16R,0.0620X0.0620*%
%ADD17O,0.1000X0.0160*%
%ADD18R,0.1000X0.0160*%
%ADD19O,0.0160X0.1000*%
%ADD20R,0.0160X0.1000*%
%ADD21R,0.0750X0.0250*%
%ADD22R,0.0250X0.0750*%
%ADD23R,0.0709X0.0787*%
%ADD24C,0.0236*%
%ADD25C,0.0079*%
%ADD26C,0.0118*%
%ADD27C,0.0236*%
%ADD28C,0.0157*%
%ADD29C,0.0080*%
%ADD30R,0.0400X0.0500*%
%ADD31C,0.0433*%
%ADD32C,0.0620*%
%ADD33R,0.0620X0.0620*%
%ADD34C,0.0236*%
%ADD35C,0.0100*%
%ADD36C,0.0197*%
%ADD37C,0.0126*%
%ADD38R,0.0400X0.0350*%
%ADD39R,0.0450X0.0550*%
%ADD40R,0.0350X0.0400*%
%ADD41R,0.0550X0.0450*%
%ADD42C,0.0492*%
%ADD43O,0.1000X0.0160*%
%ADD44R,0.1000X0.0160*%
%ADD45O,0.0160X0.1000*%
%ADD46R,0.0160X0.1000*%
%ADD47R,0.0800X0.0300*%
%ADD48R,0.0300X0.0800*%
%ADD49R,0.0709X0.0787*%
*
G04 Plot Data ***
*
G54D32*
X0003730Y0034294D03*
G54D33*
Y0035294D03*
G54D39*
X0000098Y0035722D03*
X-0000742D03*
X0002798Y0032782D03*
X0003638D03*
G54D42*
X-0020694Y0025714D03*
X-0021481D03*
X-0020694Y0024927D03*
X-0021481D03*
X-0020694Y0024139D03*
X-0021481D03*
X-0020694Y0023352D03*
X-0021481D03*
X-0009280Y0038346D03*
Y0037559D03*
X-0008493Y0038346D03*
Y0037559D03*
X-0007705Y0038346D03*
Y0037559D03*
X0004857Y0025289D03*
X0004070D03*
X0004857Y0024502D03*
X0004070D03*
X0004857Y0023714D03*
X0004070D03*
X0004857Y0022927D03*
X0004070D03*
X0004857Y0022139D03*
X0004070D03*
X0004857Y0021352D03*
X0004070D03*
X0004858Y0030013D03*
X0004071D03*
X0004858Y0029225D03*
X0004071D03*
X0004858Y0028438D03*
X0004071D03*
X0004858Y0027651D03*
X0004071D03*
X0004858Y0026863D03*
X0004071D03*
X0004858Y0026076D03*
X0004071D03*
X0000128Y0017414D03*
Y0018201D03*
X-0000659Y0017414D03*
Y0018201D03*
X-0001447Y0017414D03*
Y0018201D03*
X-0002234Y0017414D03*
Y0018201D03*
X-0003022Y0017414D03*
Y0018201D03*
X-0003809Y0017414D03*
Y0018201D03*
M02*
