%
T1C0.0118F200S100
X-018962Y025712
X-018576Y033348
X-017928Y028854
X-017767Y032539
X-017572Y020614
X-017364Y026376
X-017148Y022830
X-016490Y020076
X-016402Y028570
X-016316Y033654
X-016036Y024108
X-015868Y032868
X-015845Y026719
X-015236Y026396
X-014919Y022535
X-014821Y035194
X-014560Y032718
X-014350Y025760
X-013237Y028735
X-013216Y031356
X-012958Y020604
X-012680Y032574
X-012668Y026408
X-012402Y034937
X-012298Y022804
X-011911Y033685
X-011844Y020002
X-011704Y028528
X-011542Y023758
X-011340Y032902
X-011209Y021851
X-011155Y026689
X-010632Y022192
X-010612Y026316
X-010402Y035195
X-010162Y032836
X-010040Y025726
X-008822Y031322
X-008779Y028773
X-008752Y020366
X-008624Y022126
X-008316Y032492
X-008208Y026350
X-008162Y022780
X-008012Y034901
X-007690Y020002
X-007511Y033691
X-007284Y023932
X-007113Y021843
X-007076Y032812
X-007046Y028872
X-006693Y026687
X-006388Y022212
X-006370Y026340
X-006012Y035203
X-005834Y032882
X-004925Y022761
X-004886Y024920
X-004442Y031354
X-004035Y032439
X-003734Y029220
X-003559Y034864
X-003246Y026778
X-003076Y033652
X-002523Y032748
X-002326Y026140
X-002054Y023286
X-001960Y030312
X-001734Y023762
X-001559Y035193
X-001438Y026540
X-001406Y019578
X-001352Y023386
X-001246Y032702
X-001034Y023682
X-001030Y026866
X-000774Y026440
X-000710Y023260
X-000368Y028326
X-000278Y026350
X-000246Y023712
X-000128Y028696
X-000038Y032136
X-000018Y021502
X000156Y023382
X000446Y030400
X000538Y024774
X000794Y028188
X000822Y026252
X000856Y025938
X001028Y025662
X001286Y028442
X001614Y020646
X001616Y020026
X001646Y019438
X001726Y022554
X001906Y026906
X001908Y029626
X002352Y021258
X002518Y030288
X002528Y025030
X002642Y021546
X003780Y023324
T2C0.0315F200S100
X-021481Y023352
X-021481Y024139
X-021481Y024927
X-021481Y025714
X-020694Y023352
X-020694Y024139
X-020694Y024927
X-020694Y025714
X-009280Y037559
X-009280Y038346
X-008493Y037559
X-008493Y038346
X-007705Y037559
X-007705Y038346
X-003809Y017414
X-003809Y018201
X-003022Y017414
X-003022Y018201
X-002234Y017414
X-002234Y018201
X-001447Y017414
X-001447Y018201
X-000659Y017414
X-000659Y018201
X000128Y017414
X000128Y018201
X004070Y021352
X004070Y022139
X004070Y022927
X004070Y023714
X004070Y024502
X004070Y025289
X004071Y026076
X004071Y026863
X004071Y027651
X004071Y028438
X004071Y029225
X004071Y030013
X004857Y021352
X004857Y022139
X004857Y022927
X004857Y023714
X004857Y024502
X004857Y025289
X004858Y026076
X004858Y026863
X004858Y027651
X004858Y028438
X004858Y029225
X004858Y030013
T3C0.0420F200S100
X003730Y034294
X003730Y035294
M30
